<?xml version="1.0" standalone="no"?>
<!DOCTYPE svg PUBLIC "-//W3C//DTD SVG 20010904//EN"
 "http://www.w3.org/TR/2001/REC-SVG-20010904/DTD/svg10.dtd">
<svg version="1.0" xmlns="http://www.w3.org/2000/svg"
 width="396.000000pt" height="445.000000pt" viewBox="0 0 396.000000 445.000000"
 preserveAspectRatio="xMidYMid meet">

<g transform="translate(0.000000,445.000000) scale(0.100000,-0.100000)"
fill="#000000" stroke="none">
<path d="M1358 4443 c6 -2 12 -16 12 -29 0 -18 -5 -24 -17 -22 -12 2 -17 -3
-15 -13 2 -12 -4 -15 -21 -12 -20 4 -23 1 -21 -24 1 -15 2 -28 3 -28 2 0 4
-19 5 -43 2 -23 8 -48 14 -54 7 -7 12 -21 11 -32 -1 -18 -2 -17 -9 4 l-8 25
-1 -27 c-1 -16 4 -28 9 -28 6 0 10 -7 10 -15 0 -13 -4 -12 -21 4 -14 12 -20
27 -16 40 3 14 -1 20 -18 23 l-22 5 14 -61 c16 -70 15 -104 -5 -128 -17 -20
-34 -15 -25 8 4 11 8 12 13 4 5 -8 9 -4 13 9 3 12 2 21 -3 21 -15 0 -21 33 -8
42 10 6 10 10 -1 17 -8 5 -11 16 -8 25 3 8 2 18 -3 21 -6 4 -10 -9 -10 -27 0
-22 -7 -39 -20 -48 -23 -17 -26 -48 -6 -56 8 -3 13 -16 12 -29 -1 -24 -16 -24
-16 -1 0 8 -7 20 -17 27 -15 13 -15 12 -5 -7 15 -28 11 -66 -6 -59 -9 3 -12
-1 -7 -15 4 -12 2 -20 -5 -20 -8 0 -9 -10 -5 -30 10 -47 -12 -36 -37 18 -12
26 -21 52 -20 57 1 6 -13 15 -30 20 -27 8 -33 15 -33 40 0 25 -5 31 -30 35
-16 3 -31 11 -31 18 -1 6 -2 17 -3 23 0 5 -5 8 -10 4 -5 -3 -12 3 -16 14 -4
12 -12 17 -24 14 -10 -3 -22 0 -25 6 -4 6 -20 11 -37 11 -16 0 -29 5 -29 13 0
6 -4 19 -10 27 -7 12 -12 11 -27 -7 -19 -21 -19 -21 -31 -2 -7 11 -17 17 -21
14 -5 -2 -12 3 -15 12 -5 12 -9 14 -14 6 -11 -17 -84 15 -80 35 2 9 -14 33
-35 54 -31 31 -42 37 -53 27 -7 -6 -12 -15 -9 -19 7 -11 -5 -40 -17 -40 -5 0
-7 4 -4 9 8 12 -21 34 -34 26 -5 -3 -10 -17 -10 -31 0 -14 -4 -23 -8 -20 -4 2
-14 1 -21 -3 -10 -6 -9 -11 3 -23 13 -14 12 -15 -10 -15 -13 0 -24 3 -24 7 0
4 -9 10 -20 13 -16 4 -18 9 -10 36 5 19 5 29 -1 26 -5 -4 -9 -1 -9 5 0 6 -4 8
-10 5 -5 -3 -10 0 -10 7 -1 8 -5 7 -14 -5 -10 -13 -15 -15 -18 -5 -4 11 -8 11
-21 0 -9 -8 -13 -21 -10 -30 4 -15 3 -15 -6 -2 -6 8 -11 11 -11 5 0 -5 -4 -4
-9 4 -6 9 -11 10 -15 3 -4 -6 6 -18 21 -27 15 -9 20 -14 10 -11 -9 3 -17 1
-17 -4 0 -5 8 -10 18 -12 15 -3 15 -6 -5 -23 -12 -10 -20 -22 -17 -26 2 -4 -3
-6 -12 -5 -8 1 -19 8 -24 15 -4 8 -13 10 -19 7 -6 -4 -11 -2 -11 5 0 8 -4 8
-15 -1 -11 -9 -12 -16 -5 -25 12 -14 3 -45 -13 -45 -6 0 -3 -6 7 -13 16 -12
16 -13 -3 -13 -11 0 -17 4 -15 8 3 4 0 8 -6 8 -6 0 -9 4 -6 9 3 5 -4 9 -17 8
-12 0 -31 3 -42 7 -17 7 -17 5 4 -13 13 -12 18 -21 13 -21 -6 0 -14 5 -17 10
-4 6 -10 8 -14 6 -11 -7 -10 27 2 42 7 8 5 12 -7 12 -19 0 -22 26 -3 33 7 4 6
6 -4 6 -9 1 -19 8 -23 16 -22 59 -25 -37 -26 -839 l0 -854 27 -5 c16 -3 32 1
40 9 8 8 34 14 58 14 63 0 95 14 88 39 -3 13 -1 21 7 21 7 0 9 8 5 20 -6 20
-3 21 44 17 28 -1 48 -1 45 2 -9 10 89 40 122 37 19 -1 30 2 27 8 -4 6 1 7 13
2 10 -4 15 -4 11 1 -14 13 85 41 111 32 15 -6 21 -5 17 1 -9 14 18 12 35 -2
12 -11 12 -10 3 2 -10 13 -4 18 35 32 26 9 62 16 80 14 17 -1 32 1 32 4 0 4
19 13 43 21 41 13 57 17 107 22 14 2 35 9 48 16 13 7 30 10 38 7 10 -4 12 -2
8 6 -5 7 -2 9 7 6 8 -3 23 -9 34 -13 l20 -8 -20 16 c-19 15 -18 16 18 13 20
-1 37 0 37 4 0 5 43 23 90 37 13 4 13 4 0 -7 -13 -10 -12 -11 3 -6 10 3 21 6
23 6 3 0 3 4 0 9 -7 11 41 24 56 15 7 -5 8 -2 3 6 -6 10 -4 12 8 7 21 -8 67 8
67 24 0 7 -13 9 -37 5 l-38 -5 35 13 35 13 7 89 c3 49 6 203 6 342 1 138 4
257 7 262 4 6 11 8 16 5 5 -4 9 -2 9 3 0 10 37 23 73 27 18 2 19 -11 12 -319
-4 -177 -9 -328 -11 -336 -1 -8 -3 -36 -3 -62 l-1 -48 -54 0 c-90 0 -85 -26 8
-41 l51 -8 -62 3 c-48 2 -63 -1 -65 -12 -4 -18 -205 -94 -231 -88 -11 3 -16 2
-13 -2 9 -9 -87 -43 -104 -37 -8 4 -11 3 -7 -1 10 -11 -113 -56 -132 -49 -9 3
-12 3 -8 -1 10 -10 -433 -166 -450 -159 -8 2 -11 1 -8 -4 3 -6 -26 -20 -65
-32 -38 -13 -70 -27 -70 -32 0 -5 7 -6 16 -3 9 3 28 8 42 11 21 4 17 0 -13
-15 -48 -24 -20 -18 50 10 34 14 41 19 20 16 -29 -5 -29 -5 5 11 86 39 196 71
224 66 l29 -6 -44 -18 c-24 -10 -39 -18 -33 -18 6 -1 33 8 60 18 27 11 75 29
107 42 35 13 54 25 47 29 -7 5 -2 10 15 14 15 4 25 9 22 12 -2 3 -26 -4 -53
-15 -29 -12 -41 -20 -29 -21 39 -2 -39 -27 -83 -27 -24 0 -41 1 -40 3 13 12
316 113 328 109 8 -4 11 -3 7 1 -9 10 84 46 101 39 6 -2 12 1 12 6 0 6 9 9 20
6 11 -3 18 -1 15 3 -7 12 32 23 46 14 8 -5 9 -3 4 6 -6 9 -2 10 15 5 17 -5 21
-4 15 5 -5 8 -4 11 3 6 6 -3 13 -2 17 4 10 15 25 12 19 -5 -3 -8 -21 -19 -41
-26 -19 -6 -32 -13 -30 -15 9 -9 87 28 80 39 -4 7 1 8 13 4 18 -7 18 -6 -1 9
-19 16 -19 16 8 10 19 -4 26 -3 22 3 -3 7 0 8 9 5 9 -3 16 -2 16 4 0 15 29 23
49 13 13 -7 20 -5 30 11 7 11 15 17 18 14 3 -3 0 -12 -7 -21 -20 -25 -1 -17
23 9 24 26 58 21 41 -5 -5 -8 -9 -20 -9 -28 0 -15 -93 -52 -515 -208 -113 -41
-241 -89 -285 -105 -44 -16 -129 -47 -188 -69 -60 -21 -116 -44 -125 -50 -15
-9 -14 -10 3 -4 23 7 460 167 550 200 33 13 170 64 305 113 135 50 287 107
339 127 52 19 101 34 110 33 8 -2 -19 -16 -60 -31 -41 -16 -119 -46 -174 -67
-55 -21 -143 -54 -195 -73 -122 -45 -330 -122 -545 -202 -93 -34 -206 -75
-250 -90 -44 -16 -84 -33 -90 -38 -7 -7 -3 -7 10 -3 11 5 88 32 170 61 83 29
168 60 190 69 22 9 191 72 375 140 184 68 405 151 490 184 139 53 265 89 218
61 -21 -12 -305 -122 -498 -194 -80 -29 -253 -95 -385 -145 -132 -50 -307
-116 -390 -146 -82 -30 -154 -59 -160 -65 -12 -12 111 32 450 161 293 111 285
108 420 158 61 23 162 61 225 85 311 119 438 165 474 170 21 4 37 4 34 2 -10
-10 -1003 -396 -1358 -527 -200 -74 -241 -90 -237 -94 2 -2 35 7 73 20 89 30
902 340 1294 494 269 105 417 152 385 124 -17 -16 -971 -390 -1549 -609 -167
-63 -211 -82 -190 -83 23 0 1694 648 1842 715 40 19 52 19 52 2 0 -8 -17 -21
-37 -30 -68 -29 -794 -317 -1113 -442 -100 -39 -149 -58 -457 -179 -106 -42
-195 -76 -197 -76 -13 0 -77 -32 -73 -36 9 -9 114 32 1127 434 652 258 742
293 748 288 13 -13 -11 -34 -60 -53 -29 -11 -172 -69 -318 -128 -146 -59 -373
-150 -505 -202 -616 -242 -945 -376 -945 -385 0 -6 6 -8 13 -5 136 57 507 205
742 297 218 86 579 230 890 356 99 40 182 71 184 69 2 -2 1 -15 -3 -29 -4 -18
-21 -30 -68 -49 -35 -13 -171 -68 -303 -122 -132 -53 -458 -185 -725 -292
-435 -175 -681 -275 -717 -290 -7 -3 -13 -9 -13 -14 0 -10 47 8 350 131 124
51 425 172 670 270 245 98 523 211 619 249 95 39 175 71 178 71 2 0 3 -7 1
-16 -3 -17 -51 -38 -773 -329 -236 -96 -486 -197 -555 -225 -69 -28 -172 -69
-230 -92 -58 -22 -142 -55 -188 -74 -57 -22 -84 -29 -87 -21 -29 94 -41 122
-61 144 -13 14 -21 29 -18 34 3 5 1 9 -4 9 -6 0 -13 15 -16 33 -7 37 -66 131
-66 105 0 -20 -31 -30 -167 -56 l-93 -17 0 -231 0 -232 133 55 c123 51 292
119 597 241 69 28 235 95 370 150 135 55 396 161 580 235 184 75 389 158 455
185 109 45 120 48 123 31 3 -14 12 -19 35 -19 32 0 32 -1 -13 -21 -60 -27
-739 -312 -910 -382 -74 -30 -187 -76 -250 -102 -251 -102 -779 -317 -985
-400 -80 -33 -131 -59 -133 -69 -3 -12 10 -10 65 14 67 29 330 137 628 258
174 71 555 227 765 314 80 33 183 75 230 95 47 19 168 70 270 113 470 199 432
186 560 194 l115 6 -100 -41 c-165 -67 -206 -84 -305 -129 -299 -133 -873
-374 -1520 -640 -138 -56 -382 -157 -558 -231 -85 -35 -152 -69 -152 -76 0
-17 -2 -18 87 21 43 18 141 59 218 91 77 32 181 75 230 96 50 21 169 70 265
109 96 40 211 87 255 105 44 19 195 82 335 140 140 59 368 156 505 215 450
194 619 267 676 290 35 14 67 36 84 57 l28 35 -76 -4 c-42 -2 -73 -1 -69 3 4
3 54 25 112 49 58 23 112 46 120 52 32 20 -49 -4 -175 -54 -150 -59 -225 -75
-225 -47 0 22 5 25 105 67 216 91 304 125 343 133 34 7 54 20 88 58 32 35 61
56 100 70 30 12 57 21 59 21 6 0 -118 -162 -182 -237 -43 -51 -46 -53 -97 -53
-47 0 -76 -12 -76 -31 0 -5 22 -9 49 -11 l49 -3 -104 -134 c-58 -74 -101 -137
-97 -141 8 -7 156 -39 298 -66 59 -11 275 -57 770 -165 50 -11 129 -28 178
-37 l87 -17 0 -72 c0 -40 -2 -73 -6 -73 -3 0 -73 19 -157 41 -84 23 -168 45
-187 49 -19 4 -96 24 -170 44 -74 20 -180 48 -235 62 -55 14 -122 32 -150 39
-57 16 -253 62 -429 101 -65 14 -125 28 -134 32 -12 4 -14 1 -9 -12 4 -10 7
-24 7 -32 0 -8 7 -14 15 -14 32 0 12 -20 -40 -39 -31 -12 -59 -21 -63 -21 -15
0 -338 -137 -817 -345 -253 -110 -501 -217 -775 -335 -118 -50 -309 -134 -425
-185 -116 -51 -245 -107 -287 -125 -59 -24 -78 -37 -78 -51 0 -24 -1 -24 62 5
50 23 507 224 933 411 105 46 326 142 492 214 166 72 373 162 460 200 87 38
196 85 243 104 47 20 139 61 205 92 66 30 127 55 135 55 30 0 175 -41 178 -50
2 -5 9 -7 16 -4 12 5 89 -13 250 -57 l38 -11 -133 -62 c-74 -35 -183 -87 -244
-116 -263 -126 -1277 -606 -1670 -790 -33 -15 -107 -50 -165 -78 -58 -27 -258
-120 -445 -207 -187 -87 -344 -161 -348 -165 -5 -4 -7 -17 -5 -29 3 -19 40 -3
428 180 234 110 571 270 750 354 390 184 474 224 829 394 150 72 275 131 276
131 11 0 563 270 696 340 l75 40 75 -24 c131 -41 224 -70 234 -71 6 -1 14 -3
18 -3 5 -1 -202 -107 -460 -235 -1663 -829 -1658 -827 -1699 -828 -27 0 -33
-3 -20 -8 17 -7 17 -8 -5 -22 -13 -9 -288 -146 -611 -307 -585 -290 -588 -291
-588 -322 l0 -30 652 326 652 326 206 -45 c113 -25 238 -51 278 -58 39 -7 72
-15 72 -19 0 -4 -28 -22 -62 -40 -162 -85 -235 -124 -253 -137 -11 -7 -27 -13
-36 -13 -9 0 -22 -7 -29 -15 -25 -30 -30 -13 -30 90 l0 105 -40 0 -40 0 0
-130 0 -130 -60 -30 c-34 -17 -65 -28 -70 -25 -6 4 -10 73 -10 161 l0 154 -35
0 -35 0 0 -168 c0 -104 4 -172 11 -179 12 -12 -1 -21 -126 -86 -49 -25 -184
-96 -300 -157 -115 -60 -301 -156 -413 -213 l-202 -102 75 -3 75 -3 158 82
c295 154 757 401 769 411 7 6 33 7 62 3 84 -11 171 43 171 108 0 14 20 27 41
27 5 0 9 -54 9 -121 l0 -120 33 3 c31 3 32 4 35 54 3 45 5 51 22 47 28 -7 84
14 110 42 43 46 33 163 -16 182 -23 9 -16 18 31 41 l45 22 0 -140 0 -140 40 0
40 0 0 55 c0 54 1 55 28 55 23 0 32 -9 57 -55 29 -53 31 -55 73 -55 l43 0 -33
58 -32 59 22 28 c29 36 29 101 1 135 -18 22 -32 26 -98 30 l-76 5 75 44 75 44
95 -13 c187 -24 193 -24 214 -1 15 17 21 41 24 104 l4 83 39 22 c28 17 54 22
103 22 37 0 66 -1 67 -2 0 -2 6 -67 13 -146 7 -78 16 -145 19 -148 9 -9 174
-33 217 -33 23 1 -3 10 -75 28 l-110 27 -5 164 -5 165 -30 5 c-29 6 -28 7 35
39 36 19 88 46 115 61 50 27 150 80 380 200 66 35 125 66 130 70 26 20 305
159 305 152 0 -4 5 1 11 11 5 9 14 17 20 17 9 0 238 135 289 170 65 45 103 62
111 48 5 -7 9 -77 9 -155 0 -121 -2 -143 -15 -143 -10 0 -15 -10 -15 -26 0
-15 -7 -32 -17 -39 -9 -7 -13 -17 -9 -23 10 -16 22 -15 39 2 12 12 14 10 15
-20 1 -28 -2 -34 -18 -34 -11 0 -19 -6 -17 -12 1 -9 -10 -13 -33 -13 -25 0
-35 4 -34 15 1 11 -10 15 -35 16 -20 1 -28 -1 -18 -3 9 -3 17 -9 17 -14 0 -5
6 -9 14 -9 8 0 17 -7 20 -16 4 -12 1 -14 -14 -9 -17 5 -20 2 -20 -24 0 -31 25
-65 41 -55 5 3 7 9 4 14 -3 5 -1 11 5 15 5 3 10 -1 10 -10 0 -9 5 -13 10 -10
6 3 10 4 10 1 0 -2 -41 -29 -91 -58 -50 -29 -102 -60 -117 -69 -15 -9 -103
-60 -197 -114 -93 -54 -181 -105 -195 -115 -23 -16 -46 -28 -197 -111 -32 -18
-62 -35 -68 -39 -5 -5 -62 -38 -125 -75 -102 -60 -120 -68 -162 -66 -39 2 -52
-3 -73 -23 -14 -14 -25 -34 -25 -45 0 -13 -12 -27 -30 -36 -29 -15 -31 -15
-39 8 -41 107 -220 100 -247 -10 -9 -35 4 -88 26 -108 11 -10 20 -21 20 -25 0
-4 -50 -35 -111 -71 -60 -35 -122 -71 -137 -80 -108 -65 -332 -195 -457 -268
l-150 -86 78 -3 c70 -3 84 0 125 24 130 75 347 203 425 250 48 30 89 54 91 54
2 0 55 31 118 69 148 89 273 161 281 161 4 0 7 -31 7 -70 l0 -70 35 0 35 0 0
84 0 85 38 3 c35 3 37 5 36 36 -1 17 2 32 6 32 5 0 66 35 137 78 70 42 139 83
153 90 14 7 43 23 65 36 22 13 58 33 80 46 22 13 54 30 70 38 17 9 32 18 35
22 14 17 153 89 162 83 7 -3 8 -1 4 5 -5 8 2 12 18 12 14 0 26 5 26 11 0 5 5
7 10 4 6 -3 10 1 10 11 0 11 6 15 20 11 12 -3 17 -1 14 5 -3 5 3 12 15 15 11
3 18 9 16 14 -3 4 15 5 41 2 27 -3 44 -2 41 4 -3 5 12 9 34 8 21 -1 39 2 39 7
0 4 7 5 15 2 11 -5 15 1 15 18 0 13 7 33 16 44 8 10 13 13 9 7 -10 -20 6 -15
30 9 32 34 64 58 75 58 6 0 10 -30 10 -69 0 -75 -5 -81 -72 -81 -16 0 -28 -5
-28 -11 0 -5 4 -8 8 -5 5 3 15 -6 22 -20 10 -18 16 -21 22 -12 5 9 8 7 9 -7 1
-11 0 -24 -1 -30 -1 -5 -2 -21 -2 -35 -1 -14 -3 -19 -5 -12 -3 6 -9 12 -15 12
-6 0 -7 -7 -4 -16 4 -10 -1 -22 -11 -29 -15 -11 -14 -14 16 -29 25 -14 30 -20
21 -31 -7 -8 -7 -15 -1 -19 5 -3 12 0 14 6 3 7 6 2 6 -11 1 -17 -3 -22 -15
-17 -9 3 -25 -1 -37 -9 -15 -11 -17 -15 -7 -16 10 0 8 -3 -5 -9 -13 -5 -28 -3
-43 7 -30 19 -50 12 -29 -9 15 -14 15 -17 1 -22 -10 -4 -13 -2 -8 6 4 7 3 8
-4 4 -15 -9 -4 -34 19 -47 22 -12 26 -34 4 -25 -9 3 -15 0 -15 -9 0 -9 -9 -15
-22 -15 -17 0 -19 3 -10 9 11 6 10 10 -4 15 -16 6 -16 8 2 22 11 9 13 13 4 10
-8 -3 -23 -9 -32 -12 -10 -4 -18 -15 -18 -26 0 -11 -4 -16 -11 -12 -8 4 -9 0
-4 -15 4 -13 2 -21 -5 -21 -6 0 -8 5 -5 10 3 6 1 10 -5 10 -8 0 -10 -10 -6
-27 3 -16 3 -22 0 -15 -8 17 -27 15 -21 -2 4 -10 -5 -16 -34 -21 -21 -4 -37
-11 -33 -16 5 -9 -43 -34 -59 -30 -12 2 -37 -26 -37 -41 1 -9 5 -8 14 4 12 16
62 17 76 1 3 -3 -5 -4 -17 -1 -12 3 -30 0 -39 -6 -14 -11 -12 -12 15 -10 17 1
31 -3 31 -8 0 -6 -10 -8 -22 -5 -15 4 -2 -12 37 -48 33 -30 64 -55 69 -55 5 0
3 -6 -3 -14 -9 -11 -8 -17 2 -28 15 -15 11 -39 -10 -51 -7 -5 -11 -12 -8 -18
4 -5 0 -9 -7 -9 -8 0 -9 -3 -3 -8 13 -9 13 -21 -3 -50 -9 -16 -10 -22 -1 -20
6 2 13 -2 16 -9 6 -16 -63 -67 -78 -57 -7 4 -9 3 -6 -3 4 -6 -22 -29 -56 -51
-34 -23 -81 -55 -105 -72 -24 -17 -48 -27 -54 -24 -6 4 -8 2 -4 -4 3 -6 -2
-15 -11 -21 -13 -8 14 -10 100 -11 76 0 116 4 112 10 -9 14 8 12 24 -3 11 -10
13 -9 8 6 -4 11 -1 17 8 17 8 0 14 5 12 11 -1 6 5 14 13 16 13 4 13 3 0 -6
-13 -9 -13 -11 3 -11 9 0 17 6 17 13 0 8 4 7 10 -3 8 -13 10 -13 10 2 0 9 -6
19 -12 21 -8 4 -9 6 -2 6 6 1 17 -6 24 -14 16 -20 41 -20 34 0 -4 8 -1 15 6
15 9 0 11 -11 6 -39 l-6 -39 140 -1 140 -2 0 2226 c0 1477 -3 2225 -10 2225
-6 0 -10 -55 -10 -146 0 -129 -2 -145 -15 -134 -8 7 -15 21 -15 31 0 11 -7 19
-16 19 -11 0 -14 -5 -9 -17 8 -21 8 -22 6 -45 0 -10 -6 -18 -12 -18 -7 0 -8
11 -4 30 4 19 3 30 -4 30 -6 0 -11 -7 -11 -15 0 -8 -9 -19 -19 -25 -11 -5 -25
-25 -31 -44 -6 -19 -16 -37 -23 -40 -9 -5 -9 -7 1 -12 17 -8 15 -44 -3 -44 -8
0 -14 3 -14 8 3 18 -2 32 -11 32 -5 0 -10 -11 -10 -25 0 -18 -5 -25 -20 -25
-14 0 -20 -7 -20 -23 0 -13 -5 -28 -12 -35 -9 -9 -8 -15 7 -26 16 -11 17 -17
7 -28 -7 -8 -13 -28 -14 -44 -3 -36 -30 -61 -39 -36 -4 9 -2 22 3 29 6 8 6 18
-1 30 -8 14 -11 15 -11 3 -1 -8 -7 -1 -15 15 -9 20 -14 24 -14 13 -1 -27 -21
-21 -21 6 0 13 -5 26 -10 28 -6 2 -12 13 -13 26 -2 32 -16 27 -32 -10 -8 -18
-15 -28 -15 -23 -2 19 -19 -30 -19 -57 -1 -16 -5 -28 -11 -28 -5 0 -10 -11
-10 -24 0 -36 -15 -40 -38 -11 -11 14 -23 25 -27 25 -4 0 -2 -7 5 -15 9 -11 9
-15 1 -15 -7 0 -10 -4 -6 -9 3 -5 1 -12 -5 -16 -6 -4 -8 -11 -5 -16 13 -20
-14 -7 -58 27 -34 26 -44 40 -37 49 7 8 1 18 -20 33 -36 27 -56 27 -97 2 -28
-16 -116 -43 -348 -105 -99 -27 -202 -54 -331 -89 -73 -20 -136 -36 -140 -36
-20 0 46 28 82 34 21 4 56 12 77 17 l37 10 -27 24 -28 24 33 12 c28 10 31 14
20 28 -9 11 -7 11 8 -2 19 -18 19 -18 -1 -34 -20 -15 -20 -15 2 -9 12 4 24 2
28 -4 3 -5 11 -10 16 -10 6 0 7 5 4 10 -3 6 2 13 12 16 10 3 26 10 35 15 10 5
27 9 39 9 15 0 19 5 15 15 -6 16 30 55 51 55 18 0 16 17 -2 24 -8 3 -15 12
-15 21 0 12 -4 14 -19 5 -14 -7 -22 -7 -27 1 -4 8 -9 7 -14 -2 -5 -8 -11 5
-15 34 -4 25 -4 50 -1 55 3 6 0 12 -6 15 -10 4 -11 7 0 18 16 18 15 32 -2 26
-10 -4 -13 -1 -9 9 3 9 -1 14 -13 14 -16 0 -16 2 -4 10 8 5 12 12 8 15 -3 4
-16 -3 -28 -15 -11 -11 -26 -18 -31 -14 -6 4 -15 0 -20 -7 -4 -7 -10 -11 -13
-8 -3 3 3 15 14 27 12 12 17 22 13 22 -10 0 -10 70 -1 86 4 6 -1 20 -11 31
-14 15 -16 24 -8 38 7 14 6 21 -8 31 -11 8 -15 20 -11 31 4 12 0 10 -12 -6
-11 -13 -24 -21 -31 -17 -6 4 -11 1 -11 -8 0 -9 -5 -16 -11 -16 -5 0 -7 5 -4
10 9 14 -8 12 -24 -2 -8 -7 -5 1 5 17 l19 30 -27 -17 c-15 -10 -36 -18 -47
-18 -11 0 -26 -9 -34 -20 -13 -19 -15 -19 -35 -2 -16 14 -18 22 -10 36 9 16 7
17 -11 11 -13 -4 -29 -1 -38 7 -14 11 -16 11 -9 -2 4 -9 2 -8 -7 2 -8 10 -17
15 -20 11 -4 -3 -7 -1 -7 6 0 9 -8 11 -26 7 -20 -5 -25 -4 -21 7 4 10 -4 13
-29 11 -25 -2 -34 1 -34 13 0 13 -3 13 -16 2 -13 -10 -17 -10 -24 0 -6 11 -11
9 -19 -8 -7 -12 -16 -19 -21 -16 -11 7 -60 -15 -60 -27 0 -4 -7 -8 -15 -8 -8
0 -14 3 -14 8 1 4 1 14 0 22 -1 12 -4 12 -12 -2 -5 -10 -17 -18 -24 -18 -18 0
-19 12 -3 28 7 7 9 12 4 12 -12 0 -30 -22 -44 -54 -10 -23 -15 -26 -27 -16
-12 10 -18 10 -30 0 -13 -10 -15 -9 -15 9 0 11 -4 21 -10 21 -5 0 -7 8 -3 18
4 11 0 10 -11 -6 -10 -12 -14 -26 -11 -32 3 -6 -1 -7 -9 -4 -10 4 -16 1 -16
-10 0 -8 -12 -19 -26 -22 -19 -5 -24 -12 -21 -25 4 -16 2 -17 -14 -8 -16 8
-19 6 -19 -10 0 -21 -16 -35 -40 -36 -11 0 -15 -10 -14 -37 1 -33 -1 -35 -12
-20 -11 15 -13 15 -19 -10 -6 -25 -8 -25 -24 -10 -10 10 -16 20 -14 25 2 4 -1
7 -6 7 -6 0 -11 -6 -11 -13 0 -22 -47 -60 -62 -51 -9 5 -9 2 2 -10 13 -17 12
-18 -5 -14 -13 2 -19 10 -17 23 3 16 2 17 -12 6 -9 -8 -16 -20 -16 -27 0 -8
-4 -14 -9 -14 -5 0 -14 -13 -19 -29 -6 -16 -20 -35 -31 -41 -20 -10 -21 -9
-19 22 1 18 10 39 20 46 10 7 16 18 12 23 -3 5 0 8 7 7 9 -2 12 7 10 31 -2 21
1 31 7 27 6 -3 13 -2 17 4 3 5 1 10 -6 10 -8 0 -8 4 1 15 14 17 35 21 25 5 -3
-5 -1 -10 4 -10 7 0 9 14 5 36 -3 21 -1 41 7 50 8 10 8 14 0 14 -6 0 -11 -6
-11 -12 0 -9 -4 -8 -11 2 -9 13 -10 12 -5 -2 6 -21 -7 -24 -22 -5 -11 13 -10
58 2 96 6 16 5 21 -3 17 -6 -4 -11 0 -11 9 0 9 -4 14 -8 11 -4 -2 -6 11 -4 30
4 30 2 34 -19 33 -13 0 -18 -3 -11 -6z m842 -117 c0 -2 -7 -6 -15 -10 -8 -3
-15 -1 -15 4 0 6 7 10 15 10 8 0 15 -2 15 -4z m-853 -53 c-3 -10 -5 -4 -5 12
0 17 2 24 5 18 2 -7 2 -21 0 -30z m45 -55 c-7 -7 -12 -8 -12 -2 0 14 12 26 19
19 2 -3 -1 -11 -7 -17z m-736 -4 c13 -10 15 -17 7 -20 -7 -3 -9 -12 -6 -21 5
-12 3 -14 -8 -8 -31 18 -47 38 -42 51 7 18 25 18 49 -2z m1199 -12 c-3 -3 -11
0 -18 7 -9 10 -8 11 6 5 10 -3 15 -9 12 -12z m-1825 -2 c0 -5 -2 -10 -4 -10
-3 0 -8 5 -11 10 -3 6 -1 10 4 10 6 0 11 -4 11 -10z m565 -48 c-3 -3 -11 0
-18 7 -9 10 -8 11 6 5 10 -3 15 -9 12 -12z m761 -18 c-20 -20 -20 -24 1 -40
10 -7 14 -16 10 -20 -4 -4 -14 2 -23 14 -9 13 -21 19 -27 15 -7 -3 0 6 16 22
15 15 27 33 28 39 0 7 3 6 6 -1 2 -7 -3 -20 -11 -29z m89 -104 c3 -5 1 -10 -4
-10 -6 0 -11 5 -11 10 0 6 2 10 4 10 3 0 8 -4 11 -10z m-436 -41 c-16 -10 -23
-4 -14 10 3 6 11 8 17 5 6 -4 5 -9 -3 -15z m1571 -55 c0 -8 -4 -14 -9 -14 -11
0 -22 26 -14 34 9 9 23 -3 23 -20z m-2180 -5 c0 -5 -4 -9 -8 -9 -5 0 -9 7 -9
15 0 8 4 12 9 9 4 -3 8 -9 8 -15z m1735 -9 c3 -5 1 -10 -4 -10 -6 0 -11 5 -11
10 0 6 2 10 4 10 3 0 8 -4 11 -10z m74 -11 c-22 -13 -31 -11 -17 5 7 8 17 12
22 9 4 -3 2 -9 -5 -14z m-1786 -24 c-7 -21 -13 -19 -13 6 0 11 4 18 10 14 5
-3 7 -12 3 -20z m827 15 c0 -5 -2 -10 -4 -10 -3 0 -8 5 -11 10 -3 6 -1 10 4
10 6 0 11 -4 11 -10z m650 -20 c0 -5 -4 -10 -10 -10 -5 0 -10 5 -10 10 0 6 5
10 10 10 6 0 10 -4 10 -10z m151 -14 c-6 -7 -8 -15 -5 -18 2 -3 -2 -8 -10 -11
-10 -4 -13 -1 -10 9 2 7 6 21 9 30 3 8 10 12 15 9 8 -5 8 -11 1 -19z m-44 -18
c-3 -8 -6 -5 -6 6 -1 11 2 17 5 13 3 -3 4 -12 1 -19z m-362 -46 c-3 -3 -11 0
-18 7 -9 10 -8 11 6 5 10 -3 15 -9 12 -12z m-135 -7 c0 -3 -27 -18 -60 -35
-33 -17 -60 -28 -60 -25 0 2 26 18 58 34 64 34 62 33 62 26z m630 -5 c0 -5 -4
-10 -10 -10 -5 0 -10 5 -10 10 0 6 5 10 10 10 6 0 10 -4 10 -10z m1380 -5 c-7
-8 -16 -15 -21 -15 -5 0 -9 7 -9 15 0 9 9 15 21 15 18 0 19 -2 9 -15z m-895
-15 c3 -5 1 -10 -4 -10 -6 0 -11 5 -11 10 0 6 2 10 4 10 3 0 8 -4 11 -10z
m1030 -21 c11 -17 -1 -21 -15 -4 -8 9 -8 15 -2 15 6 0 14 -5 17 -11z m-895
-39 c-8 -5 -19 -10 -25 -10 -5 0 -3 5 5 10 8 5 20 10 25 10 6 0 3 -5 -5 -10z
m50 0 c-8 -5 -19 -10 -25 -10 -5 0 -3 5 5 10 8 5 20 10 25 10 6 0 3 -5 -5 -10z
m-400 -10 c0 -5 -2 -10 -4 -10 -3 0 -8 5 -11 10 -3 6 -1 10 4 10 6 0 11 -4 11
-10z m300 -30 c-8 -5 -19 -10 -25 -10 -5 0 -3 5 5 10 8 5 20 10 25 10 6 0 3
-5 -5 -10z m-2456 -36 c3 -8 2 -12 -4 -9 -6 3 -10 10 -10 16 0 14 7 11 14 -7z
m2056 -5 c-36 -10 -72 -19 -80 -18 -21 1 100 37 125 37 11 0 -9 -8 -45 -19z
m-330 -22 c0 -4 -9 -2 -20 5 -13 9 -16 14 -7 20 11 6 27 -8 27 -25z m610 18
c-14 -8 -29 -14 -35 -14 -5 0 1 6 15 14 14 8 30 14 35 14 6 0 -1 -6 -15 -14z
m-673 -17 c-3 -8 -6 -5 -6 6 -1 11 2 17 5 13 3 -3 4 -12 1 -19z m-97 2 c0 -5
-7 -10 -15 -10 -8 0 -15 5 -15 10 0 6 7 10 15 10 8 0 15 -4 15 -10z m1890 -9
c0 -6 -4 -12 -8 -15 -5 -3 -9 1 -9 9 0 8 4 15 9 15 4 0 8 -4 8 -9z m-1555 -10
c-11 -5 -36 -11 -55 -15 l-35 -6 35 14 c19 8 44 15 55 15 l20 0 -20 -8z m345
0 c-8 -5 -26 -11 -40 -15 -21 -5 -20 -3 5 9 32 15 60 20 35 6z m-75 -11 c-3
-5 -14 -10 -23 -9 -14 0 -13 2 3 9 27 11 27 11 20 0z m1510 -20 c-4 -12 -9
-19 -12 -17 -3 3 -2 15 2 27 4 12 9 19 12 17 3 -3 2 -15 -2 -27z m-2035 -16
c0 -8 -4 -12 -10 -9 -5 3 -10 10 -10 16 0 5 5 9 10 9 6 0 10 -7 10 -16z m476
0 c-22 -12 -33 -13 -50 -5 -21 11 -21 11 1 5 13 -3 31 -1 40 5 10 6 23 10 28
10 6 0 -3 -7 -19 -15z m-2114 -32 c-7 -2 -10 -8 -6 -13 3 -5 0 -9 -5 -9 -13 0
-13 3 -5 24 3 9 11 13 17 9 8 -5 7 -8 -1 -11z m2053 8 c-4 -7 3 -9 22 -6 17 4
12 0 -12 -8 -22 -8 -66 -17 -97 -21 -32 -4 -58 -10 -58 -14 0 -3 -19 -7 -43
-7 -23 -1 -35 1 -27 4 8 2 36 13 62 22 27 10 45 14 42 8 -7 -11 9 -7 76 18 44
16 42 16 35 4z m55 -29 c0 -9 -34 -21 -60 -21 -9 1 -5 7 10 15 29 16 50 19 50
6z m-295 -31 c-3 -5 -16 -10 -28 -9 -21 0 -21 1 -2 9 28 12 37 12 30 0z m-95
-20 c-8 -5 -22 -9 -30 -9 -10 0 -8 3 5 9 27 12 43 12 25 0z m-85 -20 c-3 -5
-14 -10 -23 -10 -15 0 -15 2 -2 10 20 13 33 13 25 0z m-90 -20 c-3 -5 -12 -10
-18 -10 -7 0 -6 4 3 10 19 12 23 12 15 0z m-60 -20 c-11 -5 -27 -9 -35 -9 -9
0 -8 4 5 9 11 5 27 9 35 9 9 0 8 -4 -5 -9z m-30 -320 c-3 -5 -13 -10 -21 -10
-8 0 -14 5 -14 10 0 6 9 10 21 10 11 0 17 -4 14 -10z m-28 -32 c-20 -13 -27
-9 -27 12 0 18 3 19 20 8 14 -9 16 -14 7 -20z m178 -37 c-5 -5 -50 -17 -100
-25 -70 -12 -91 -13 -97 -3 -4 6 -2 14 3 16 8 2 8 5 0 10 -5 4 38 8 97 9 71 2
104 0 97 -7z m-610 -22 c-59 -18 -131 -34 -108 -23 22 10 138 42 153 42 8 0
-12 -8 -45 -19z m965 11 c-8 -5 -19 -10 -25 -10 -5 0 -3 5 5 10 8 5 20 10 25
10 6 0 3 -5 -5 -10z m230 -9 c-35 -20 -60 -23 -60 -7 0 12 10 16 38 16 25 -1
32 -3 22 -9z m167 2 c-4 -4 -59 -28 -123 -54 l-115 -47 3 26 c4 35 110 81 187
82 30 0 51 -3 48 -7z m108 -13 c-11 -4 -76 -30 -145 -58 -69 -28 -142 -58
-163 -67 -36 -15 -38 -15 -35 1 4 24 271 133 323 133 31 0 35 -2 20 -9z
m-1625 -35 c-19 -7 -44 -13 -55 -13 -13 0 -7 5 15 13 19 7 44 13 55 13 13 0 7
-5 -15 -13z m-83 -21 c-3 -3 -12 -4 -19 -1 -8 3 -5 6 6 6 11 1 17 -2 13 -5z
m-38 -8 c-8 -9 -232 -67 -242 -63 -6 2 41 17 104 34 111 30 147 38 138 29z
m551 -30 c0 -2 -13 -9 -30 -15 -35 -12 -41 -5 -7 9 25 10 37 12 37 6z m-813
-42 c-3 -3 -12 -4 -19 -1 -8 3 -5 6 6 6 11 1 17 -2 13 -5z m-67 -18 c-20 -8
-51 -16 -70 -19 -23 -4 -17 0 20 13 61 21 105 26 50 6z m-170 -47 c-36 -10
-69 -18 -75 -18 -16 2 98 37 120 37 11 0 -9 -8 -45 -19z m-120 -33 c-20 -8
-51 -16 -70 -19 -23 -4 -17 0 20 13 61 21 105 26 50 6z m-1 -646 c0 -9 -4 -8
-9 5 -5 11 -9 27 -9 35 0 9 4 8 9 -5 5 -11 9 -27 9 -35z m3087 41 c-11 -17 21
-31 73 -33 29 -1 55 -6 57 -10 3 -5 10 -6 15 -3 5 4 9 1 9 -4 0 -6 12 -11 26
-11 14 0 23 -4 19 -9 -9 -15 129 -79 152 -70 14 5 20 3 20 -7 0 -15 -61 -54
-192 -124 -44 -23 -107 -57 -140 -75 -33 -18 -107 -57 -165 -87 -58 -31 -134
-71 -170 -90 -36 -19 -114 -61 -175 -93 -60 -32 -180 -95 -265 -140 -390 -207
-346 -187 -419 -183 l-66 3 0 -38 0 -39 -117 -62 c-64 -34 -119 -64 -122 -66
-3 -3 -110 9 -238 27 -128 18 -270 37 -316 44 -46 6 -82 13 -80 14 2 2 395
199 873 439 479 240 949 478 1045 531 96 52 176 95 178 95 2 0 1 -4 -2 -9z
m-3079 -83 c-3 -8 -6 -5 -6 6 -1 11 2 17 5 13 3 -3 4 -12 1 -19z m3567 -909
c-8 -14 -24 -10 -24 6 0 9 6 12 15 9 8 -4 12 -10 9 -15z m3 -85 c-3 -3 -12 -4
-19 -1 -8 3 -5 6 6 6 11 1 17 -2 13 -5z m-1717 -60 c0 -44 -1 -45 -27 -40 -16
2 -46 8 -68 11 l-39 7 59 33 c33 18 63 33 68 34 4 0 7 -20 7 -45z m1717 30
c-3 -3 -12 -4 -19 -1 -8 3 -5 6 6 6 11 1 17 -2 13 -5z m-2009 -276 c30 -30 -2
-68 -59 -68 -39 0 -39 0 -39 40 l0 40 43 0 c24 0 48 -5 55 -12z m1812 -18
c-20 -13 -33 -13 -25 0 3 6 14 10 23 10 15 0 15 -2 2 -10z m-2105 -74 c29 -44
-1 -96 -54 -96 -19 0 -21 6 -21 53 0 30 3 57 7 60 15 15 53 6 68 -17z m841 -1
c31 -47 -9 -101 -61 -82 -40 16 -19 107 25 107 11 0 27 -11 36 -25z m1189 -29
c-11 -8 -24 -12 -28 -9 -11 7 12 23 32 23 11 0 9 -4 -4 -14z m-62 -32 c-4 -10
-9 -12 -15 -6 -12 12 -1 35 12 27 5 -3 6 -13 3 -21z m187 -468 c0 -3 -4 -8
-10 -11 -5 -3 -10 -1 -10 4 0 6 5 11 10 11 6 0 10 -2 10 -4z m-13 -48 c-3 -8
-6 -5 -6 6 -1 11 2 17 5 13 3 -3 4 -12 1 -19z m-40 -25 c-9 -2 -15 -9 -12 -14
4 -5 2 -9 -3 -9 -6 0 -12 7 -16 15 -4 11 2 15 22 14 17 -1 20 -3 9 -6z m63 -8
c0 -2 -6 -5 -13 -8 -8 -3 -14 1 -14 8 0 7 6 11 14 8 7 -3 13 -6 13 -8z"/>
<path d="M2441 4324 c0 -11 3 -14 6 -6 3 7 2 16 -1 19 -3 4 -6 -2 -5 -13z"/>
<path d="M230 4265 c0 -5 5 -17 10 -25 5 -8 10 -10 10 -5 0 6 -5 17 -10 25 -5
8 -10 11 -10 5z"/>
<path d="M2700 4153 c0 -24 -25 -32 -32 -11 -3 7 -7 4 -12 -7 -4 -11 -4 -16 0
-13 3 4 14 -2 23 -13 16 -20 16 -20 27 9 7 18 8 36 3 43 -6 10 -9 8 -9 -8z"/>
<path d="M2755 3830 c-3 -5 1 -10 9 -10 9 0 16 5 16 10 0 6 -4 10 -9 10 -6 0
-13 -4 -16 -10z"/>
<path d="M1280 2930 c-8 -5 -10 -10 -5 -10 6 0 17 5 25 10 8 5 11 10 5 10 -5
0 -17 -5 -25 -10z"/>
<path d="M1310 2920 c-8 -5 -10 -10 -5 -10 6 0 17 5 25 10 8 5 11 10 5 10 -5
0 -17 -5 -25 -10z"/>
<path d="M1170 2890 c-8 -5 -10 -10 -5 -10 6 0 17 5 25 10 8 5 11 10 5 10 -5
0 -17 -5 -25 -10z"/>
<path d="M1340 2861 c0 -5 -9 -13 -21 -16 -11 -4 -18 -9 -16 -12 3 -2 18 2 33
10 17 9 23 17 15 21 -6 4 -11 3 -11 -3z"/>
<path d="M1380 2840 c-25 -10 -38 -19 -30 -19 17 1 101 37 85 38 -5 0 -30 -9
-55 -19z"/>
<path d="M980 2840 c-8 -5 -10 -10 -5 -10 6 0 17 5 25 10 8 5 11 10 5 10 -5 0
-17 -5 -25 -10z"/>
<path d="M1030 2840 c-8 -5 -10 -10 -5 -10 6 0 17 5 25 10 8 5 11 10 5 10 -5
0 -17 -5 -25 -10z"/>
<path d="M940 2810 c-8 -5 -10 -10 -5 -10 6 0 17 5 25 10 8 5 11 10 5 10 -5 0
-17 -5 -25 -10z"/>
<path d="M1265 2799 c-76 -29 -126 -52 -122 -55 4 -4 177 63 185 71 9 9 -12 3
-63 -16z"/>
<path d="M840 2800 c8 -5 20 -10 25 -10 6 0 3 5 -5 10 -8 5 -19 10 -25 10 -5
0 -3 -5 5 -10z"/>
<path d="M970 2800 c-8 -5 -10 -10 -5 -10 6 0 17 5 25 10 8 5 11 10 5 10 -5 0
-17 -5 -25 -10z"/>
<path d="M895 2791 c-3 -5 0 -13 6 -17 7 -4 9 -3 5 4 -3 5 0 13 6 15 9 4 10 6
1 6 -6 1 -14 -3 -18 -8z"/>
<path d="M684 2758 c9 -5 23 -5 32 0 12 6 7 9 -16 9 -23 0 -28 -3 -16 -9z"/>
<path d="M800 2760 c-8 -5 -10 -10 -5 -10 6 0 17 5 25 10 8 5 11 10 5 10 -5 0
-17 -5 -25 -10z"/>
<path d="M910 2760 c-8 -5 -10 -10 -5 -10 6 0 17 5 25 10 8 5 11 10 5 10 -5 0
-17 -5 -25 -10z"/>
<path d="M1031 2761 c-11 -7 -11 -10 0 -15 8 -3 4 -4 -9 -2 -12 2 -20 0 -17
-4 3 -5 -4 -12 -16 -15 -11 -4 -19 -9 -16 -11 8 -8 78 27 72 35 -3 5 1 12 7
14 7 3 9 6 3 6 -5 0 -16 -3 -24 -8z"/>
<path d="M1083 2760 c-34 -14 -28 -21 7 -9 17 6 30 13 30 15 0 6 -12 4 -37 -6z"/>
<path d="M1110 2740 c-13 -8 -12 -10 3 -10 9 0 17 5 17 10 0 12 -1 12 -20 0z"/>
<path d="M527 2719 c7 -7 15 -10 18 -7 3 3 -2 9 -12 12 -14 6 -15 5 -6 -5z"/>
<path d="M740 2720 c-8 -5 -10 -10 -5 -10 6 0 17 5 25 10 8 5 11 10 5 10 -5 0
-17 -5 -25 -10z"/>
<path d="M920 2720 c-8 -5 -10 -10 -5 -10 6 0 17 5 25 10 8 5 11 10 5 10 -5 0
-17 -5 -25 -10z"/>
<path d="M1035 2713 c-22 -9 -92 -35 -155 -59 -63 -24 -110 -43 -104 -44 6 0
54 16 105 36 52 19 114 42 139 50 44 14 85 34 65 33 -5 -1 -28 -8 -50 -16z"/>
<path d="M863 2698 c-16 -6 -16 -7 2 -8 16 -1 14 -4 -10 -16 -16 -8 -21 -12
-11 -9 35 10 116 37 116 39 0 5 -82 0 -97 -6z"/>
<path d="M570 2680 c-8 -5 -10 -10 -5 -10 6 0 17 5 25 10 8 5 11 10 5 10 -5 0
-17 -5 -25 -10z"/>
<path d="M290 2646 c0 -13 42 -26 56 -18 15 8 15 10 0 15 -10 4 -15 3 -11 -3
8 -13 -1 -13 -26 0 -10 6 -19 8 -19 6z"/>
<path d="M695 2640 c-13 -6 -15 -9 -5 -9 8 0 22 4 30 9 18 12 2 12 -25 0z"/>
<path d="M538 2531 c-113 -42 -210 -79 -214 -84 -4 -4 10 -1 32 7 354 128 430
157 399 155 -5 -1 -103 -36 -217 -78z"/>
<path d="M560 2590 c-8 -5 -10 -10 -5 -10 6 0 17 5 25 10 8 5 11 10 5 10 -5 0
-17 -5 -25 -10z"/>
<path d="M475 2560 c-22 -10 -36 -19 -32 -19 12 -1 77 27 77 33 0 7 3 8 -45
-14z"/>
<path d="M120 2560 c-38 -7 -33 -8 32 -7 42 1 74 5 72 9 -6 9 -39 8 -104 -2z"/>
<path d="M510 2550 c-25 -10 -38 -19 -30 -19 17 1 101 37 85 38 -5 0 -30 -9
-55 -19z"/>
<path d="M400 2510 c-25 -10 -38 -19 -30 -19 17 1 101 37 85 38 -5 0 -30 -9
-55 -19z"/>
<path d="M2365 2485 c-55 -24 -246 -106 -425 -183 -445 -191 -961 -409 -1225
-517 -44 -18 -143 -60 -220 -93 -77 -33 -216 -92 -310 -131 -176 -75 -190 -82
-184 -99 2 -6 34 2 74 20 129 56 1316 559 1530 648 50 21 180 77 290 125 110
48 227 98 260 112 74 31 183 78 252 109 46 20 71 40 62 48 -2 2 -49 -16 -104
-39z"/>
<path d="M320 2480 c-8 -5 -10 -10 -5 -10 6 0 17 5 25 10 8 5 11 10 5 10 -5 0
-17 -5 -25 -10z"/>
<path d="M256 2435 c-9 -26 -7 -32 5 -12 6 10 9 21 6 23 -2 3 -7 -2 -11 -11z"/>
<path d="M130 2400 c0 -5 9 -10 19 -10 11 0 23 5 26 10 4 6 -5 10 -19 10 -14
0 -26 -4 -26 -10z"/>
<path d="M2540 2251 c-85 -37 -209 -93 -275 -123 -66 -31 -246 -112 -400 -181
-154 -69 -320 -144 -370 -167 -49 -23 -386 -174 -747 -336 -788 -352 -748
-333 -748 -356 0 -10 2 -18 4 -18 2 0 39 16 82 36 44 20 113 51 154 69 41 18
221 99 400 180 641 291 880 399 1215 550 526 236 845 390 845 406 0 11 18 18
-160 -60z"/>
<path d="M3845 1530 c3 -5 11 -10 16 -10 6 0 7 5 4 10 -3 6 -11 10 -16 10 -6
0 -7 -4 -4 -10z"/>
<path d="M3750 1486 c0 -8 -6 -17 -12 -19 -7 -3 0 -4 17 -2 16 1 31 8 33 16 3
11 1 10 -7 -1 -9 -13 -11 -13 -11 3 0 9 -4 17 -10 17 -5 0 -10 -6 -10 -14z"/>
<path d="M3810 1184 c0 -8 5 -12 10 -9 6 3 10 10 10 16 0 5 -4 9 -10 9 -5 0
-10 -7 -10 -16z"/>
<path d="M3816 1082 c-3 -5 1 -9 9 -9 8 0 12 4 9 9 -3 4 -7 8 -9 8 -2 0 -6 -4
-9 -8z"/>
<path d="M3800 1001 c0 -6 4 -13 10 -16 6 -3 7 1 4 9 -7 18 -14 21 -14 7z"/>
<path d="M3843 896 c-22 -10 -31 -26 -15 -26 10 1 46 29 41 33 -2 2 -14 -2
-26 -7z"/>
<path d="M2093 710 c-59 -39 -68 -132 -17 -183 49 -49 152 -44 194 10 32 40
28 114 -8 154 -24 27 -37 33 -83 36 -43 3 -61 -1 -86 -17z m116 -72 c21 -38 2
-78 -37 -78 -15 0 -33 5 -40 12 -30 30 1 102 42 96 11 -2 27 -15 35 -30z"/>
<path d="M3582 444 c10 -10 20 -16 22 -13 3 3 -5 11 -17 18 -21 13 -21 12 -5
-5z"/>
<path d="M3320 70 c-9 -6 -10 -10 -3 -10 6 0 15 5 18 10 8 12 4 12 -15 0z"/>
<path d="M3590 21 c0 -11 30 -19 48 -14 6 3 12 9 12 15 0 6 -6 6 -15 -2 -10
-9 -15 -9 -15 -1 0 6 -7 11 -15 11 -8 0 -15 -4 -15 -9z"/>
</g>
</svg>
