<svg xmlns="http://www.w3.org/2000/svg" viewBox="0 0 1920 1080" preserveAspectRatio="xMidYMid slice">
  <defs>
    <linearGradient id="sky" x1="0%" y1="0%" x2="0%" y2="100%">
      <stop offset="0%" style="stop-color:#1e3a8a;stop-opacity:1" />
      <stop offset="100%" style="stop-color:#3b82f6;stop-opacity:1" />
    </linearGradient>
    <filter id="blur">
      <feGaussianBlur in="SourceGraphic" stdDeviation="2" />
    </filter>
  </defs>
  
  <!-- Sky -->
  <rect width="1920" height="1080" fill="url(#sky)"/>
  
  <!-- Building silhouette -->
  <rect x="0" y="600" width="1920" height="480" fill="#1f2937"/>
  
  <!-- Roof structure -->
  <polygon points="300,600 960,200 1620,600" fill="#374151" stroke="#111827" stroke-width="4"/>
  <polygon points="960,200 1620,600 1620,620 960,220" fill="#4b5563"/>
  
  <!-- Roof tiles pattern -->
  <g opacity="0.6">
    <line x1="400" y1="550" x2="520" y2="300" stroke="#6b7280" stroke-width="2"/>
    <line x1="500" y1="580" x2="620" y2="330" stroke="#6b7280" stroke-width="2"/>
    <line x1="600" y1="590" x2="720" y2="360" stroke="#6b7280" stroke-width="2"/>
    <line x1="700" y1="590" x2="820" y2="390" stroke="#6b7280" stroke-width="2"/>
    <line x1="800" y1="580" x2="920" y2="410" stroke="#6b7280" stroke-width="2"/>
    <line x1="900" y1="560" x2="1020" y2="420" stroke="#6b7280" stroke-width="2"/>
    <line x1="1000" y1="540" x2="1120" y2="410" stroke="#6b7280" stroke-width="2"/>
    <line x1="1100" y1="540" x2="1220" y2="390" stroke="#6b7280" stroke-width="2"/>
    <line x1="1200" y1="550" x2="1320" y2="360" stroke="#6b7280" stroke-width="2"/>
    <line x1="1300" y1="570" x2="1420" y2="330" stroke="#6b7280" stroke-width="2"/>
    <line x1="1400" y1="585" x2="1520" y2="300" stroke="#6b7280" stroke-width="2"/>
  </g>
  
  <!-- Chimney -->
  <rect x="1350" y="350" width="80" height="200" fill="#1f2937" stroke="#111827" stroke-width="2"/>
  <rect x="1340" y="340" width="100" height="30" fill="#374151" stroke="#111827" stroke-width="2"/>
  
  <!-- Windows -->
  <rect x="600" y="720" width="120" height="150" fill="#fbbf24" opacity="0.8"/>
  <rect x="800" y="720" width="120" height="150" fill="#fbbf24" opacity="0.7"/>
  <rect x="1000" y="720" width="120" height="150" fill="#fbbf24" opacity="0.8"/>
  <rect x="1200" y="720" width="120" height="150" fill="#fbbf24" opacity="0.6"/>
  
  <!-- Clouds -->
  <ellipse cx="300" cy="150" rx="120" ry="60" fill="white" opacity="0.3" filter="url(#blur)"/>
  <ellipse cx="1600" cy="250" rx="150" ry="70" fill="white" opacity="0.25" filter="url(#blur)"/>
  
  <!-- Texture overlay -->
  <rect width="1920" height="1080" fill="url(#noise)" opacity="0.05"/>
  
  <defs>
    <filter id="noise">
      <feTurbulence type="fractalNoise" baseFrequency="0.9" numOctaves="4" stitchTiles="stitch"/>
    </filter>
  </defs>
</svg>
