<?xml version="1.0" encoding="UTF-8"?>
<svg version="1.1" xmlns="http://www.w3.org/2000/svg" width="2525" height="1426">
<path d="M0 0 C1.0949651 0.00431977 1.0949651 0.00431977 2.2120507 0.0087268 C4.63303465 0.02377307 7.0525112 0.06822094 9.47310543 0.11344814 C11.19047467 0.13148494 12.90785926 0.14810935 14.62525517 0.16339689 C19.97667962 0.21937727 25.32682576 0.31833237 30.67743587 0.42556667 C31.9008128 0.44887382 31.9008128 0.44887382 33.14890441 0.47265181 C44.52833198 0.69046154 55.90433773 1.00249234 67.28073823 1.34088051 C71.92703184 1.4778348 76.57350876 1.60831343 81.21996212 1.73971462 C90.2544061 1.99619345 99.28867444 2.25840106 108.32289021 2.52278405 C118.86691185 2.83116037 129.41109275 3.13391942 139.95527942 3.43659116 C158.75952774 3.97658455 177.56361528 4.52198587 196.36762142 5.07034206 C214.58786727 5.60167372 232.80823917 6.12840139 251.02875423 6.65042019 C270.95049417 7.22118495 290.87215892 7.79445802 310.79370028 8.37211567 C312.91561095 8.43364078 315.03752166 8.49516468 317.15943241 8.55668736 C318.20312802 8.58695186 319.24682362 8.61721636 320.32214637 8.64839796 C327.66604618 8.86119597 335.00999477 9.0722559 342.3539629 9.28268147 C351.28316495 9.53859843 360.21227742 9.7974166 369.14128798 10.059933 C373.69313866 10.1936937 378.24501671 10.32618709 382.79700375 10.45523167 C386.96249534 10.57335883 391.12786236 10.6951687 395.29316062 10.81992198 C396.79950147 10.86439548 398.30588266 10.90752721 399.81230413 10.94918042 C401.86046793 11.00601624 403.90842797 11.06776764 405.95641136 11.13072777 C407.09357989 11.16376344 408.23074841 11.19679911 409.40237659 11.23083586 C418.81111894 11.79026759 418.81111894 11.79026759 421.55243587 13.80056667 C423.73382665 16.95146446 423.81082821 19.81411804 423.84308529 23.51827908 C423.85506954 24.58511677 423.86705379 25.65195446 423.87940121 26.75112057 C423.8881628 27.93500614 423.8969244 29.11889172 423.9059515 30.33865261 C423.92733328 32.28889829 423.94873302 34.23914383 423.97065544 36.18938351 C423.99417993 38.33304259 424.0156907 40.47671523 424.03688717 42.62039852 C424.11802531 50.66700183 424.22401958 58.71329252 424.33368587 66.75955105 C424.35162307 68.07902981 424.35162307 68.07902981 424.36992264 69.4251647 C424.70755045 93.8502314 425.27254036 118.27042693 425.83368587 142.69119167 C425.88781968 145.05489495 425.94194767 147.41859836 425.99606991 149.7823019 C426.30072595 163.06824201 426.60935971 176.35408771 426.91983223 189.63989305 C427.37689985 209.20230024 427.82801378 228.76484554 428.27885294 248.32739711 C428.43554822 255.12176159 428.59339961 261.91609781 428.75230223 268.71041101 C429.25697874 290.30344794 429.74315065 311.89679367 430.17688274 333.49138594 C430.22041992 335.65488143 430.26442806 337.81836752 430.30897236 339.98184252 C430.697497 358.93608221 430.80362013 377.88269534 430.74610043 396.8403616 C430.73539796 400.78607467 430.73120849 404.73179605 430.726264 408.6775198 C430.71590488 416.26022184 430.6991278 423.8428876 430.67743587 431.42556667 C431.68094035 431.59737422 431.68094035 431.59737422 432.70471764 431.77265263 C439.35853411 432.94266529 445.90217683 434.36701725 452.45697689 435.99734402 C453.47948795 436.24877729 454.50199902 436.50021057 455.55549526 436.75926304 C458.93155447 437.59022573 462.30643551 438.42587379 465.68134212 439.26150417 C468.08722501 439.85455019 470.49318692 440.44727568 472.89922237 441.03970242 C478.01764267 442.3005814 483.13559246 443.56335041 488.25311947 444.82784939 C496.29469811 446.81476912 504.33749243 448.79673822 512.38056087 450.77761745 C513.7317566 451.11041071 515.08295225 451.44320427 516.43414783 451.77599812 C518.46048484 452.27507125 520.48682387 452.77413613 522.51316917 453.2731756 C526.56866532 454.27196685 530.62407865 455.27109353 534.67942369 456.27049816 C557.0139195 461.77459861 579.35522974 467.25031622 601.70369625 472.69741344 C604.17246876 473.29935558 606.64110275 473.90186239 609.10968685 474.50457668 C625.40091867 478.48209937 641.69644086 482.43964359 658.00869274 486.33016109 C660.25837366 486.86706638 662.50779806 487.40503151 664.75711727 487.94344997 C665.48070116 488.11664761 666.20428505 488.28984524 666.94979572 488.46829128 C668.38397414 488.8116177 669.81813901 489.15500074 671.25228977 489.49844265 C674.67065105 490.31638548 678.08977526 491.13080334 681.51093197 491.93698025 C685.17887505 492.8022502 688.84434196 493.67735737 692.50946712 494.55447292 C693.57901134 494.80347851 694.64855556 495.05248409 695.75051022 495.3090353 C705.26409886 497.60442746 705.26409886 497.60442746 708.67743587 500.42556667 C709.11493587 503.48806667 709.11493587 503.48806667 708.67743587 506.42556667 C706.67743587 508.42556667 706.67743587 508.42556667 703.66986752 508.67361355 C674.54654068 508.45454508 645.45269212 504.53771066 616.60712337 500.84353542 C615.24858958 500.67044243 613.89004667 500.49742099 612.53149509 500.32446766 C581.09184056 496.31642781 549.72817358 491.79945067 518.36493587 487.23806667 C507.61978513 485.67550496 496.87385419 484.11850812 486.12665462 482.57009792 C484.8443383 482.38486694 483.56202198 482.19963596 482.24084759 482.00879192 C463.97583374 479.37649751 445.69930885 476.96836337 427.34801388 475.01805019 C414.12550148 473.58036264 402.75468265 472.00312915 393.85321712 461.21462917 C387.67546223 452.44909802 387.08640854 443.41744464 386.07050228 432.97292995 C385.92109275 431.48346307 385.7712209 429.9940425 385.62092876 428.50466442 C385.20999317 424.41119848 384.80814265 420.31688638 384.40848398 416.22230577 C384.15168721 413.59725379 383.89254764 410.97244287 383.63271618 408.34768963 C379.01409929 361.65906663 374.85397574 314.92742862 370.67017269 268.19827175 C368.93082276 248.77295707 367.18520926 229.3482045 365.43693924 209.9236908 C365.14009758 206.62441801 364.84357862 203.32511635 364.54711819 200.02580929 C361.9296719 170.90727245 359.23902336 141.79760654 356.33328915 112.70629787 C356.21859657 111.54917671 356.103904 110.39205555 355.98573589 109.19987011 C355.77747776 107.10204152 355.56678421 105.00445238 355.35296154 102.90718365 C355.26270073 101.99722008 355.17243992 101.08725651 355.07944393 100.14971828 C354.96197528 98.98753119 354.96197528 98.98753119 354.84213352 97.80186558 C354.64904317 95.01590965 354.67743587 92.21820598 354.67743587 89.42556667 C263.92743587 89.42556667 173.17743587 89.42556667 79.67743587 89.42556667 C79.71673712 145.21292529 79.71673712 145.21292529 79.76752377 201.0002737 C79.81149719 267.79189426 79.81149719 267.79189426 79.40970325 299.21587658 C79.37788539 301.79921191 79.35037631 304.38260486 79.3277216 306.9660368 C79.07054976 334.51296077 75.54664449 358.97535724 56.67743587 380.42556667 C56.01099056 381.18740261 55.34454525 381.94923855 54.65790462 382.73416042 C39.70545417 398.74077251 17.98128546 407.50727853 -3.68773746 408.4325552 C-12.60861388 408.57561973 -21.44060182 406.97300841 -30.23662663 405.65603542 C-32.39819213 405.34447254 -34.55995181 405.03425429 -36.72188663 404.72526455 C-42.57318665 403.88441682 -48.4212376 403.022718 -54.26880741 402.15635586 C-59.24443202 401.42154156 -64.22169635 400.69817741 -69.1989603 399.97456455 C-84.95173103 397.68354533 -100.69824482 395.35157132 -116.44266605 393.00401974 C-120.23266342 392.43896995 -124.02278125 391.87473425 -127.81292057 391.31063747 C-249.10413728 373.24776474 -370.21631075 353.84896666 -1357.84209538 137.25369167 C-1359.08971653 136.88911106 -1359.08971653 136.88911106 -1360.36254215 136.51716518 C-1364.35056605 135.34210878 -1368.32827833 134.13452321 -1372.29009342 132.87380886 C-1373.01665638 132.64409389 -1373.74321934 132.41437893 -1374.49179935 132.1777029 C-1376.32256413 131.42556667 -1376.32256413 131.42556667 -1378.32256413 129.42556667 C-1378.57256413 126.42556667 -1378.57256413 126.42556667 -1378.32256413 123.42556667 C-1376.32256413 121.42556667 -1376.32256413 121.42556667 -1373.2656517 121.36660671 C-1362.83582059 122.12892665 -1352.5200214 123.32788583 -1342.16362858 124.76931667 C-1340.38281413 125.01273634 -1338.60193013 125.2556477 -1336.82098389 125.49810123 C-1331.96608174 126.16056784 -1327.11221198 126.83033561 -1322.25849915 127.50145292 C-1317.00265071 128.22690973 -1311.74588675 128.94567786 -1306.48925114 129.66540432 C-1296.16182458 131.08058071 -1285.83531916 132.50237424 -1275.50912941 133.92654431 C-1266.99679747 135.10042739 -1258.48411701 136.2717536 -1249.97121525 137.44149685 C-1134.73295527 153.27721892 -1019.52221731 169.31161427 -904.32256413 185.42556667 C-903.13177155 185.59213111 -901.94097898 185.75869555 -900.71410179 185.93030739 C-786.39286338 201.92175107 -672.08494797 218.00770269 -425.66640091 252.81166267 C-421.26448922 253.43377502 -416.86257657 254.05588051 -412.4606638 254.67798519 C-400.32001763 256.39377568 -388.17937284 258.10957596 -376.03873348 259.82541466 C-375.27944406 259.93272516 -374.52015463 260.04003566 -373.73785644 260.150598 C-370.66367757 260.58507232 -367.58949871 261.01954666 -364.51531987 261.45402115 C-353.72124103 262.97954964 -342.9271555 264.50503074 -332.13306449 266.03047314 C-325.9954622 266.89785228 -319.85786112 267.76524006 -313.72025999 268.63262753 C-311.42923308 268.95640292 -309.1382059 269.28017638 -306.8471787 269.60394967 C-290.67941166 271.8888225 -274.5116758 274.17391544 -258.3440485 276.45977688 C-241.97366349 278.77430255 -225.603236 281.08852751 -209.23272038 283.40212917 C-208.57652283 283.49486889 -207.92032529 283.5876086 -207.24424297 283.68315861 C-143.941555 292.62956334 -80.6326619 301.53176968 -17.32256413 310.42556667 C-17.30726393 309.48802842 -17.30726393 309.48802842 -17.29165465 308.53154999 C-16.68688171 271.47995913 -16.07767512 234.42844364 -15.4627181 197.37702036 C-15.3888682 192.92730131 -15.31505531 188.47758164 -15.2412653 184.0278616 C-15.22657453 183.1420098 -15.21188377 182.25615801 -15.19674783 181.34346222 C-14.95902696 167.0035917 -14.72430366 152.66367361 -14.49068988 138.32373566 C-14.25087879 123.60748792 -14.00784232 108.89129599 -13.7618174 94.17515081 C-13.61013285 85.0959662 -13.46095828 76.0167475 -13.31500339 66.93746894 C-13.21464889 60.70981313 -13.11115889 54.48221432 -13.00521655 48.25465108 C-12.94420421 44.66276918 -12.8845617 41.07087848 -12.82864666 37.47891331 C-12.76792086 33.58023464 -12.700586 29.68168571 -12.63263798 25.78312588 C-12.61609608 24.65372981 -12.59955418 23.52433374 -12.58251101 22.36071354 C-12.52754753 19.38007069 -12.44134053 16.40430329 -12.32256413 13.42556667 C-12.28903713 12.56041152 -12.25551014 11.69525636 -12.22096717 10.80388439 C-12.16559889 10.01166488 -12.11023062 9.21944538 -12.05318451 8.40321922 C-12.00957619 7.72582064 -11.96596787 7.04842205 -11.92103809 6.35049623 C-10.04044902 0.30177617 -5.5993323 -0.14273361 0 0 Z " fill="#E83C33" transform="translate(1648.322564125061,208.5744333267212)"/>
<path d="M0 0 C31.68 0 63.36 0 96 0 C96.01458252 11.11937256 96.02916504 22.23874512 96.04418945 33.69506836 C96.09299077 69.30984878 96.15641206 104.92458981 96.22898628 140.53932941 C96.24025387 146.07529165 96.25139242 151.61125414 96.26245117 157.1472168 C96.26465486 158.24928499 96.26685854 159.35135317 96.269129 160.48681737 C96.30446061 178.3100054 96.32934807 196.1331934 96.35034702 213.95640343 C96.37214205 232.25706428 96.40522755 250.55767986 96.44870156 268.85830218 C96.47515454 280.14245482 96.49289666 291.42655109 96.49934604 302.71073318 C96.5046194 310.45829151 96.52090147 318.20577902 96.54566566 325.95329934 C96.55961412 330.4171022 96.56887654 334.8807785 96.56500816 339.34460449 C96.56156439 343.44305524 96.57215283 347.54123701 96.59323552 351.63963277 C96.59844626 353.11097951 96.59879962 354.58235463 96.59339563 356.05370068 C96.50540635 382.76127977 103.82395805 409.60573852 123 429 C143.75449339 447.78568769 168.52371486 453.32285966 196 452 C218.1203373 450.0889358 236.66542362 439.32646783 251.625 423.25 C268.40251404 403.19593616 273.14201971 378.58258617 273.15821838 353.06726074 C273.16278889 351.54242846 273.16778962 350.01759741 273.17318195 348.49276781 C273.18671684 344.31506615 273.19416789 340.1373726 273.20060861 335.95965481 C273.20863305 331.44985954 273.22232376 326.94008103 273.23532104 322.43029785 C273.25705484 314.62089057 273.27521062 306.81148156 273.29092598 299.00205994 C273.31365285 287.7109914 273.34179175 276.41994143 273.37124526 265.12888867 C273.41888665 246.80924128 273.46216018 228.48958629 273.50268555 210.16992188 C273.54205805 192.37564502 273.58348848 174.58137492 273.62768555 156.78710938 C273.63177196 155.1414405 273.63177196 155.1414405 273.63594092 153.46252578 C273.64962068 147.95855255 273.6633409 142.45457943 273.67708123 136.95060635 C273.79099176 91.30041748 273.89700818 45.65021506 274 0 C305.35 0 336.7 0 369 0 C369.06621463 47.67011823 369.12157698 95.34019287 369.15319599 143.01034398 C369.15694783 148.64630036 369.16083082 154.28225665 369.16479492 159.91821289 C369.16558185 161.04016614 369.16636878 162.16211939 369.16717956 163.31807122 C369.18021105 181.45220609 369.20385239 199.58631223 369.23145839 217.7204301 C369.25957552 236.34652411 369.27618956 254.97260315 369.28226548 273.59871751 C369.28636887 285.07942554 369.29929935 296.56005238 369.3237494 308.0407354 C369.33968457 315.92799328 369.34438287 323.81520958 369.34050413 331.70248237 C369.33859462 336.24376207 369.34139005 340.78490053 369.35761642 345.32615471 C369.5065713 389.2561518 363.54741531 434.14793127 334 469 C333.07719484 470.13335786 332.15537458 471.26751814 331.234375 472.40234375 C299.46889609 511.02250636 254.72760762 529.44482091 205.73046875 534.4609375 C202.14775832 534.74817539 198.59300666 534.91180453 195 535 C194.28312012 535.02046387 193.56624023 535.04092773 192.82763672 535.06201172 C138.67265386 536.434316 89.28060123 521.42641922 49.3828125 484.3203125 C46.0184799 481.04422469 42.94581767 477.65511434 40 474 C39.23042969 473.05640625 38.46085937 472.1128125 37.66796875 471.140625 C4.02525145 429.14117442 -0.36238206 379.43766745 -0.23213124 327.46227455 C-0.2233514 323.05096628 -0.22642697 318.63966235 -0.22793579 314.22834778 C-0.22897562 306.61731415 -0.22279453 299.00631527 -0.21146011 291.39529037 C-0.19508405 280.39154298 -0.18998485 269.3878121 -0.18748413 258.38405384 C-0.18312583 240.52360454 -0.16986782 222.66317368 -0.15087891 204.80273438 C-0.1324715 187.47102957 -0.1183389 170.13932981 -0.10986328 152.80761719 C-0.10933783 151.73614259 -0.10881239 150.664668 -0.10827102 149.56072448 C-0.10566061 144.18451129 -0.10313327 138.80829805 -0.10064721 133.4320848 C-0.07997289 88.9547068 -0.04313487 44.477363 0 0 Z " fill="#333334" transform="translate(274,558)"/>
<path d="M0 0 C52.8721875 -0.0928125 52.8721875 -0.0928125 106.8125 -0.1875 C117.91624268 -0.21481201 129.01998535 -0.24212402 140.46020508 -0.27026367 C154.08532715 -0.28381348 154.08532715 -0.28381348 160.47660828 -0.28633118 C164.91248637 -0.28911077 169.34825527 -0.3002916 173.78410339 -0.31672668 C179.46321962 -0.33748555 185.14217978 -0.34344024 190.82133043 -0.33921683 C192.89249625 -0.34009842 194.9636682 -0.34593887 197.03480113 -0.35764539 C234.40036411 -0.55882958 267.60306789 10.05002794 295 36 C312.39316691 53.4189728 323.12027113 75.06492989 328 99 C328.226875 100.10859375 328.45375 101.2171875 328.6875 102.359375 C334.68447013 138.5077783 327.82644563 177.28147406 306.390625 207.25 C295.15736524 222.22767968 281.84758867 234.59012929 265 243 C264.34 243 263.68 243 263 243 C269.65937717 255.4091448 276.50581192 267.68265853 283.64501953 279.82226562 C287.85623025 286.99803043 291.95532557 294.22920274 296 301.5 C300.57555742 309.72208385 305.23570895 317.88581681 310 326 C314.76429434 334.1141888 319.42422047 342.27803592 324 350.5 C328.7029031 358.9492275 333.49011352 367.3421027 338.375 375.6875 C339.24922607 377.18144287 339.24922607 377.18144287 340.14111328 378.70556641 C341.25133476 380.60157125 342.36183569 382.49741249 343.47265625 384.39306641 C345.61469392 388.04918505 347.75343064 391.70696196 349.875 395.375 C350.49117187 396.43460938 351.10734375 397.49421875 351.7421875 398.5859375 C353 401 353 401 353 403 C319.01 403 285.02 403 250 403 C245.05 394.09 240.1 385.18 235 376 C229.67767933 366.88217699 229.67767933 366.88217699 224.33984375 357.7734375 C220.5549692 351.27852723 216.96650468 344.68328275 213.39331055 338.0703125 C209.57811534 331.02103196 205.63503167 324.05343637 201.64013672 317.10473633 C197.11030675 309.21825393 192.6690274 301.28376386 188.23779297 293.34155273 C183.80144697 285.4009752 179.30009398 277.4994548 174.73046875 269.63476562 C174.03630859 268.43110352 174.03630859 268.43110352 173.328125 267.203125 C172.9249707 266.50864258 172.52181641 265.81416016 172.10644531 265.09863281 C170.90186551 262.81386495 169.95925091 260.39812727 169 258 C144.58 258 120.16 258 95 258 C95 305.85 95 353.7 95 403 C63.65 403 32.3 403 0 403 C0 270.01 0 137.02 0 0 Z M95 78 C95 111.66 95 145.32 95 180 C119.5953125 180.12375 119.5953125 180.12375 144.6875 180.25 C149.84205811 180.28641602 154.99661621 180.32283203 160.30737305 180.36035156 C164.97610706 180.3737391 164.97610706 180.3737391 169.64485168 180.3817749 C171.705149 180.38786937 173.76543313 180.40183713 175.82563782 180.42230225 C192.86058756 180.58288511 206.7104793 179.96908755 220 168 C230.54051117 157.10015323 234.86356645 142.44275429 235.375 127.5 C234.81411306 111.1367331 229.90545008 98.24514781 218 87 C208.67888791 79.55023928 197.74682783 77.84156313 186.16088867 77.88647461 C185.15915524 77.88635407 184.15742182 77.88623354 183.12533283 77.88610935 C179.88952205 77.88685448 176.6537692 77.89446455 173.41796875 77.90234375 C171.41752144 77.90381441 169.41707375 77.90483436 167.41662598 77.90539551 C160.00691144 77.91063406 152.59720515 77.92459528 145.1875 77.9375 C120.3446875 77.9684375 120.3446875 77.9684375 95 78 Z " fill="#333334" transform="translate(1037,683)"/>
<path d="M0 0 C21.47089695 19.43038192 34.82273782 43.91109166 41.25 72.0625 C41.40114258 72.7210498 41.55228516 73.37959961 41.70800781 74.05810547 C44.52745784 87.35025305 45.38041007 100.63804612 45.3125 114.1875 C45.30976578 115.32978561 45.30976578 115.32978561 45.30697632 116.49514771 C45.25731704 128.87260158 44.55189808 140.85587872 42 153 C41.83371094 153.82419434 41.66742187 154.64838867 41.49609375 155.49755859 C33.89035407 192.20933725 12.34403267 227.08262254 -19.296875 247.8828125 C-60.71253456 274.22404586 -110.67215025 279.76879195 -158.23828125 269.40917969 C-163.65749721 268.17125139 -163.65749721 268.17125139 -166 267 C-166 309.9 -166 352.8 -166 397 C-195.37 397 -224.74 397 -255 397 C-255 259.06 -255 121.12 -255 -21 C-225.63 -21 -196.26 -21 -166 -21 C-165.505 -13.08 -165.505 -13.08 -165 -5 C-163.7625 -5.825 -162.525 -6.65 -161.25 -7.5 C-142.4656753 -18.65483708 -119.61238433 -24.66925267 -98 -27 C-97.03835938 -27.10957031 -96.07671875 -27.21914063 -95.0859375 -27.33203125 C-60.67830945 -30.73647994 -26.30598023 -23.44327062 0 0 Z M-152.93359375 60.46875 C-166.19864764 76.71781413 -166.58412572 94.01426407 -166.390625 113.99609375 C-166.38314907 116.28393556 -166.37746254 118.57178385 -166.37347412 120.8596344 C-166.35832428 126.83222661 -166.31913592 132.80441929 -166.2746582 138.77685547 C-166.23347386 144.89089557 -166.21541398 151.00500129 -166.1953125 157.11914062 C-166.15263001 169.079601 -166.08451006 181.03976706 -166 193 C-163.957717 193.64458548 -161.9140697 194.28484917 -159.86987305 194.92333984 C-158.16301582 195.45886978 -158.16301582 195.45886978 -156.42167664 196.00521851 C-133.45260407 202.68299983 -107.39028835 201.20873467 -86.28125 189.96484375 C-69.90975151 180.16143453 -58.15388587 164.19227151 -53.14892578 145.77856445 C-51.59788567 139.58813644 -50.24653271 133.389306 -50 127 C-49.92265625 125.30230469 -49.92265625 125.30230469 -49.84375 123.5703125 C-49.30825223 101.03478137 -54.14095191 77.86459272 -70.00390625 60.87109375 C-82.79942976 48.87685547 -97.81032308 43.38448332 -115.21484375 43.6875 C-129.64062126 44.87848266 -142.90915278 49.70906381 -152.93359375 60.46875 Z " fill="#333334" transform="translate(950,819)"/>
<path d="M0 0 C0.83402344 0.69867187 1.66804688 1.39734375 2.52734375 2.1171875 C8.78201557 7.53340563 13.97033 13.44313929 19 20 C19.66773438 20.85207031 20.33546875 21.70414063 21.0234375 22.58203125 C46.37291472 55.99725122 52.80183747 98.22804904 47.48071289 139.09033203 C41.89788366 177.10541794 21.91607256 209.7480898 -8.5 233.1875 C-46.82387001 261.51880395 -96.69780483 268.51631235 -143 262 C-183.23616898 255.4639014 -221.4684344 235.47376996 -245.69995117 201.86547852 C-247.90787122 198.64004004 -249.97818437 195.34449875 -252 192 C-252.54575684 191.12456543 -252.54575684 191.12456543 -253.10253906 190.23144531 C-273.31831805 157.4063764 -275.8889546 115.06842275 -269 78 C-268.86609863 77.2766748 -268.73219727 76.55334961 -268.59423828 75.80810547 C-264.27432968 53.69540966 -253.40683021 33.15321334 -239 16 C-238.54641113 15.45988281 -238.09282227 14.91976562 -237.62548828 14.36328125 C-210.28391659 -17.68907289 -170.73677435 -33.87001509 -129.39501953 -37.43359375 C-82.55804311 -41.0308791 -36.39942173 -30.73209603 0 0 Z M-150 50 C-150.89332031 50.64195312 -150.89332031 50.64195312 -151.8046875 51.296875 C-167.08496125 63.26759637 -173.72911974 82.21625797 -176.39453125 100.7421875 C-176.67745264 103.16399458 -176.86972529 105.56549134 -177 108 C-177.04125 108.75023437 -177.0825 109.50046875 -177.125 110.2734375 C-177.68038809 131.16991444 -171.90166188 152.6957705 -157.625 168.375 C-144.85738388 181.82419236 -130.26359376 188.8499846 -111.5 189.375 C-94.04191561 188.8261364 -78.49465289 182.77457115 -66.38842773 170.12915039 C-51.76257988 153.9637396 -46.58742908 134.57222127 -46.6875 113.1875 C-46.69241455 111.94863037 -46.6973291 110.70976074 -46.70239258 109.43334961 C-46.81201933 100.89764196 -47.31344836 93.15675921 -50 85 C-50.35191406 83.90171875 -50.70382812 82.8034375 -51.06640625 81.671875 C-57.25381835 64.11024329 -68.50972614 50.50951838 -85.25 42.25 C-107.33978789 32.82294968 -130.83285728 35.99596215 -150 50 Z " fill="#333334" transform="translate(1677,829)"/>
<path d="M0 0 C0.82242187 0.77859375 1.64484375 1.5571875 2.4921875 2.359375 C3.37648438 3.17921875 4.26078125 3.9990625 5.171875 4.84375 C34.091171 32.53418073 45.88847893 71.08878095 46.7421875 110.359375 C46.6933792 112.36051522 46.60414732 114.36077313 46.4921875 116.359375 C46.45109863 117.11589355 46.41000977 117.87241211 46.36767578 118.65185547 C44.10028144 156.90779634 30.92432346 188.58941621 4.4921875 216.359375 C3.60273437 217.32810547 3.60273437 217.32810547 2.6953125 218.31640625 C-25.85628559 248.49346661 -69.05914868 260.2239877 -109.296875 261.55078125 C-150.51326 262.35411852 -195.58057977 252.01858979 -226.1328125 222.6484375 C-226.9165625 221.89304687 -227.7003125 221.13765625 -228.5078125 220.359375 C-229.83526065 219.24814 -231.16819881 218.14341363 -232.5078125 217.046875 C-257.78677904 194.86329212 -272.2238019 159.40879683 -274.5078125 126.359375 C-275.28473143 108.96425276 -275.38863247 91.41371809 -271.5078125 74.359375 C-271.31977051 73.52470703 -271.13172852 72.69003906 -270.93798828 71.83007812 C-264.97496461 46.45995036 -252.70982528 25.68253822 -235.5078125 6.359375 C-234.88777344 5.65425781 -234.26773437 4.94914063 -233.62890625 4.22265625 C-176.06012959 -57.20979669 -60.06184279 -55.64835275 0 0 Z M-161.1328125 54.984375 C-176.29372936 73.32765413 -181.47476605 97.20648687 -179.30126953 120.58056641 C-176.85583721 142.04397334 -168.03610281 160.0965007 -151.5078125 174.359375 C-137.49091617 184.59022043 -121.16358679 188.0624761 -104.0625 185.9296875 C-90.27967015 183.43212773 -79.22999994 177.36184172 -69.5078125 167.359375 C-68.88519531 166.75738281 -68.26257812 166.15539062 -67.62109375 165.53515625 C-51.63608134 148.97540182 -48.97130356 125.97765223 -49.23828125 104.0703125 C-49.7901612 84.73004656 -56.65251916 67.07166519 -69.8828125 52.796875 C-70.7490625 51.9925 -71.6153125 51.188125 -72.5078125 50.359375 C-73.04664063 49.81539062 -73.58546875 49.27140625 -74.140625 48.7109375 C-84.78514876 38.51179131 -99.4645958 34.40975713 -113.9453125 33.984375 C-132.79234309 34.53465327 -148.18287475 41.30362813 -161.1328125 54.984375 Z " fill="#333334" transform="translate(2025.5078125,831.640625)"/>
<path d="M0 0 C2.63865573 2.36722989 5.23719971 4.77506288 7.81640625 7.20703125 C6.94307482 11.67909048 4.40444216 14.32622404 1.44140625 17.64453125 C0.33937876 18.90323887 -0.76217372 20.16236252 -1.86328125 21.421875 C-2.42112305 22.05593262 -2.97896484 22.68999023 -3.55371094 23.34326172 C-5.96581052 26.10149542 -8.32550045 28.90263703 -10.68359375 31.70703125 C-13.53677187 35.09135858 -16.40069779 38.465386 -19.29296875 41.81640625 C-24.76313448 48.15536301 -30.15114208 54.50890895 -35.18359375 61.20703125 C-38.77142903 60.59546842 -40.83582192 59.11104699 -43.68359375 56.89453125 C-54.07137794 49.53525557 -64.77561731 47.93877654 -77.18359375 49.20703125 C-84.77822714 51.0379771 -91.42627565 56.04306102 -95.72265625 62.53125 C-103.30460924 76.65319167 -101.62086471 92.45061816 -102.18359375 108.20703125 C-71.16359375 108.20703125 -40.14359375 108.20703125 -8.18359375 108.20703125 C-8.18359375 130.31703125 -8.18359375 152.42703125 -8.18359375 175.20703125 C-39.20359375 175.20703125 -70.22359375 175.20703125 -102.18359375 175.20703125 C-102.18359375 248.13703125 -102.18359375 321.06703125 -102.18359375 396.20703125 C-131.22359375 396.20703125 -160.26359375 396.20703125 -190.18359375 396.20703125 C-190.18359375 323.27703125 -190.18359375 250.34703125 -190.18359375 175.20703125 C-206.68359375 175.20703125 -223.18359375 175.20703125 -240.18359375 175.20703125 C-240.18359375 153.09703125 -240.18359375 130.98703125 -240.18359375 108.20703125 C-223.68359375 108.20703125 -207.18359375 108.20703125 -190.18359375 108.20703125 C-190.24546875 102.82390625 -190.30734375 97.44078125 -190.37109375 91.89453125 C-190.47004714 60.70556996 -184.46902701 32.13788165 -163.18359375 8.20703125 C-162.508125 7.35109375 -161.83265625 6.49515625 -161.13671875 5.61328125 C-145.45368163 -13.70822048 -118.35365296 -24.6040927 -94.25390625 -27.51171875 C-59.36551615 -30.3302526 -26.70968159 -23.6237348 0 0 Z " fill="#333334" transform="translate(2346.18359375,790.79296875)"/>
</svg>
