<?xml version="1.0" encoding="UTF-8"?>
<svg xmlns="http://www.w3.org/2000/svg" xmlns:xlink="http://www.w3.org/1999/xlink" width="3252px" height="1837px" viewBox="0 0 3252 1837" version="1.1">
<g id="surface1">
<path style=" stroke:none;fill-rule:nonzero;fill:rgb(90.980393%,23.529412%,20%);fill-opacity:1;" d="M 2122.90625 268.6875 C 2124.320312 268.695312 2124.320312 268.695312 2125.757812 268.699219 C 2128.875 268.71875 2131.992188 268.777344 2135.113281 268.839844 C 2137.320312 268.855469 2139.53125 268.882812 2141.746094 268.898438 C 2148.640625 268.972656 2155.527344 269.101562 2162.417969 269.234375 C 2163.996094 269.269531 2163.996094 269.269531 2165.601562 269.296875 C 2180.257812 269.582031 2194.910156 269.984375 2209.5625 270.417969 C 2215.546875 270.589844 2221.527344 270.761719 2227.515625 270.929688 C 2239.152344 271.261719 2250.785156 271.597656 2262.421875 271.9375 C 2276 272.335938 2289.582031 272.726562 2303.160156 273.117188 C 2327.378906 273.808594 2351.597656 274.515625 2375.816406 275.222656 C 2399.28125 275.902344 2422.746094 276.582031 2446.214844 277.253906 C 2471.875 277.992188 2497.527344 278.730469 2523.183594 279.472656 C 2525.917969 279.554688 2528.648438 279.636719 2531.386719 279.710938 C 2532.730469 279.75 2534.070312 279.789062 2535.457031 279.832031 C 2544.917969 280.105469 2554.378906 280.378906 2563.832031 280.644531 C 2575.332031 280.976562 2586.835938 281.3125 2598.335938 281.648438 C 2604.199219 281.820312 2610.054688 281.992188 2615.917969 282.160156 C 2621.285156 282.308594 2626.648438 282.464844 2632.015625 282.628906 C 2633.953125 282.6875 2635.894531 282.738281 2637.832031 282.796875 C 2640.472656 282.867188 2643.113281 282.945312 2645.746094 283.027344 C 2647.210938 283.070312 2648.679688 283.113281 2650.1875 283.15625 C 2662.304688 283.878906 2662.304688 283.878906 2665.835938 286.464844 C 2668.644531 290.527344 2668.742188 294.214844 2668.785156 298.988281 C 2668.800781 300.363281 2668.816406 301.734375 2668.828125 303.152344 C 2668.84375 304.671875 2668.855469 306.203125 2668.867188 307.773438 C 2668.890625 310.28125 2668.921875 312.796875 2668.949219 315.308594 C 2668.976562 318.070312 2669.007812 320.832031 2669.035156 323.59375 C 2669.140625 333.960938 2669.273438 344.328125 2669.417969 354.6875 C 2669.4375 356.390625 2669.4375 356.390625 2669.460938 358.125 C 2669.898438 389.589844 2670.625 421.046875 2671.347656 452.503906 C 2671.417969 455.550781 2671.488281 458.597656 2671.558594 461.640625 C 2671.949219 478.757812 2672.34375 495.871094 2672.746094 512.988281 C 2673.335938 538.1875 2673.917969 563.390625 2674.496094 588.589844 C 2674.699219 597.34375 2674.902344 606.09375 2675.109375 614.847656 C 2675.757812 642.664062 2676.382812 670.480469 2676.945312 698.296875 C 2676.996094 701.085938 2677.054688 703.875 2677.113281 706.660156 C 2677.613281 731.078125 2677.75 755.484375 2677.675781 779.910156 C 2677.664062 784.992188 2677.65625 790.074219 2677.648438 795.15625 C 2677.636719 804.921875 2677.613281 814.691406 2677.585938 824.457031 C 2678.878906 824.683594 2678.878906 824.683594 2680.195312 824.910156 C 2688.765625 826.414062 2697.195312 828.246094 2705.636719 830.351562 C 2706.953125 830.675781 2708.269531 830.996094 2709.625 831.332031 C 2713.976562 832.398438 2718.324219 833.476562 2722.667969 834.554688 C 2725.769531 835.316406 2728.867188 836.082031 2731.96875 836.84375 C 2738.558594 838.46875 2745.148438 840.097656 2751.738281 841.726562 C 2762.097656 844.285156 2772.457031 846.839844 2782.8125 849.390625 C 2784.554688 849.816406 2786.296875 850.25 2788.035156 850.675781 C 2790.644531 851.316406 2793.253906 851.964844 2795.867188 852.605469 C 2801.085938 853.890625 2806.3125 855.179688 2811.535156 856.464844 C 2840.296875 863.554688 2869.070312 870.613281 2897.855469 877.625 C 2901.035156 878.402344 2904.214844 879.175781 2907.390625 879.953125 C 2928.375 885.078125 2949.363281 890.175781 2970.371094 895.191406 C 2973.269531 895.878906 2976.167969 896.574219 2979.066406 897.269531 C 2979.992188 897.488281 2980.929688 897.714844 2981.886719 897.945312 C 2983.734375 898.386719 2985.578125 898.828125 2987.429688 899.273438 C 2991.832031 900.324219 2996.238281 901.375 3000.640625 902.410156 C 3005.367188 903.527344 3010.085938 904.65625 3014.808594 905.78125 C 3016.183594 906.101562 3017.5625 906.421875 3018.980469 906.753906 C 3031.234375 909.714844 3031.234375 909.714844 3035.628906 913.34375 C 3036.191406 917.292969 3036.191406 917.292969 3035.628906 921.078125 C 3033.054688 923.65625 3033.054688 923.65625 3029.179688 923.96875 C 2991.671875 923.6875 2954.199219 918.644531 2917.046875 913.886719 C 2915.300781 913.660156 2913.550781 913.441406 2911.796875 913.214844 C 2871.308594 908.050781 2830.914062 902.238281 2790.519531 896.359375 C 2776.683594 894.347656 2762.84375 892.339844 2749 890.347656 C 2747.347656 890.109375 2745.699219 889.867188 2743.996094 889.625 C 2720.472656 886.234375 2696.933594 883.128906 2673.300781 880.617188 C 2656.269531 878.765625 2641.628906 876.734375 2630.160156 862.832031 C 2622.203125 851.542969 2621.445312 839.90625 2620.140625 826.457031 C 2619.941406 824.535156 2619.75 822.613281 2619.558594 820.699219 C 2619.027344 815.421875 2618.511719 810.148438 2618 804.875 C 2617.667969 801.492188 2617.332031 798.113281 2616.996094 794.730469 C 2611.046875 734.582031 2605.691406 674.382812 2600.304688 614.1875 C 2598.0625 589.160156 2595.816406 564.140625 2593.5625 539.117188 C 2593.179688 534.867188 2592.796875 530.613281 2592.414062 526.367188 C 2589.046875 488.855469 2585.578125 451.355469 2581.839844 413.882812 C 2581.691406 412.386719 2581.542969 410.898438 2581.386719 409.363281 C 2581.121094 406.664062 2580.851562 403.957031 2580.574219 401.253906 C 2580.457031 400.085938 2580.34375 398.914062 2580.222656 397.703125 C 2580.070312 396.207031 2580.070312 396.207031 2579.917969 394.675781 C 2579.667969 391.089844 2579.707031 387.488281 2579.707031 383.890625 C 2462.824219 383.890625 2345.949219 383.890625 2225.527344 383.890625 C 2225.574219 455.757812 2225.574219 455.757812 2225.644531 527.621094 C 2225.699219 613.664062 2225.699219 613.664062 2225.183594 654.144531 C 2225.140625 657.476562 2225.105469 660.800781 2225.078125 664.128906 C 2224.746094 699.613281 2220.207031 731.128906 2195.90625 758.761719 C 2195.042969 759.742188 2194.1875 760.722656 2193.304688 761.734375 C 2174.046875 782.355469 2146.066406 793.648438 2118.160156 794.839844 C 2106.667969 795.023438 2095.296875 792.960938 2083.96875 791.261719 C 2081.179688 790.863281 2078.398438 790.460938 2075.613281 790.0625 C 2068.082031 788.980469 2060.546875 787.871094 2053.015625 786.753906 C 2046.605469 785.808594 2040.199219 784.875 2033.785156 783.941406 C 2013.496094 780.992188 1993.21875 777.988281 1972.941406 774.964844 C 1968.058594 774.238281 1963.179688 773.507812 1958.296875 772.78125 C 1802.082031 749.515625 1646.097656 724.523438 374.113281 445.503906 C 372.511719 445.03125 372.511719 445.03125 370.871094 444.554688 C 365.730469 443.039062 360.613281 441.484375 355.511719 439.859375 C 354.570312 439.5625 353.636719 439.269531 352.675781 438.964844 C 350.3125 437.996094 350.3125 437.996094 347.742188 435.417969 C 347.414062 431.554688 347.414062 431.554688 347.742188 427.6875 C 350.3125 425.109375 350.3125 425.109375 354.25 425.039062 C 367.6875 426.019531 380.96875 427.5625 394.308594 429.421875 C 396.605469 429.734375 398.894531 430.042969 401.1875 430.359375 C 407.445312 431.210938 413.695312 432.074219 419.945312 432.9375 C 426.714844 433.875 433.480469 434.800781 440.253906 435.726562 C 453.558594 437.550781 466.855469 439.378906 480.15625 441.214844 C 491.117188 442.726562 502.078125 444.238281 513.042969 445.746094 C 661.464844 466.144531 809.84375 486.796875 958.214844 507.558594 C 959.746094 507.773438 961.28125 507.984375 962.859375 508.207031 C 1110.097656 528.808594 1257.316406 549.53125 1574.683594 594.367188 C 1580.355469 595.167969 1586.023438 595.96875 1591.695312 596.769531 C 1607.328125 598.980469 1622.964844 601.191406 1638.601562 603.402344 C 1639.578125 603.542969 1640.558594 603.675781 1641.5625 603.820312 C 1645.523438 604.378906 1649.480469 604.941406 1653.441406 605.5 C 1667.34375 607.464844 1681.25 609.429688 1695.148438 611.394531 C 1703.050781 612.515625 1710.957031 613.628906 1718.863281 614.746094 C 1721.816406 615.164062 1724.765625 615.578125 1727.714844 615.996094 C 1748.539062 618.941406 1769.359375 621.882812 1790.183594 624.828125 C 1811.269531 627.8125 1832.347656 630.792969 1853.433594 633.773438 C 1854.277344 633.894531 1855.125 634.011719 1855.992188 634.136719 C 1937.523438 645.664062 2019.058594 657.128906 2100.601562 668.582031 C 2100.617188 667.375 2100.617188 667.375 2100.636719 666.144531 C 2101.417969 618.414062 2102.203125 570.683594 2102.996094 522.957031 C 2103.089844 517.222656 2103.1875 511.488281 2103.277344 505.757812 C 2103.296875 504.617188 2103.316406 503.472656 2103.335938 502.300781 C 2103.640625 483.828125 2103.941406 465.351562 2104.246094 446.882812 C 2104.554688 427.921875 2104.867188 408.96875 2105.183594 390.007812 C 2105.378906 378.3125 2105.570312 366.617188 2105.757812 354.917969 C 2105.886719 346.894531 2106.023438 338.875 2106.160156 330.851562 C 2106.238281 326.226562 2106.3125 321.597656 2106.386719 316.96875 C 2106.460938 311.949219 2106.554688 306.925781 2106.640625 301.90625 C 2106.660156 300.449219 2106.683594 298.992188 2106.703125 297.492188 C 2106.773438 293.65625 2106.882812 289.824219 2107.039062 285.980469 C 2107.082031 284.871094 2107.125 283.753906 2107.171875 282.605469 C 2107.238281 281.585938 2107.308594 280.5625 2107.386719 279.515625 C 2107.441406 278.644531 2107.496094 277.773438 2107.554688 276.871094 C 2109.980469 269.078125 2115.699219 268.507812 2122.90625 268.6875 Z M 2122.90625 268.6875 "/>
<path style=" stroke:none;fill-rule:nonzero;fill:rgb(20%,20%,20.392157%);fill-opacity:1;" d="M 352.890625 718.828125 C 393.691406 718.828125 434.492188 718.828125 476.53125 718.828125 C 476.550781 733.152344 476.570312 747.472656 476.585938 762.234375 C 476.648438 808.113281 476.730469 853.988281 476.828125 899.871094 C 476.839844 907.003906 476.855469 914.136719 476.871094 921.265625 C 476.871094 922.6875 476.875 924.105469 476.875 925.570312 C 476.921875 948.53125 476.957031 971.488281 476.980469 994.449219 C 477.007812 1018.023438 477.050781 1041.601562 477.109375 1065.171875 C 477.144531 1079.710938 477.167969 1094.25 477.171875 1108.78125 C 477.179688 1118.765625 477.199219 1128.742188 477.234375 1138.726562 C 477.253906 1144.476562 477.261719 1150.226562 477.257812 1155.976562 C 477.253906 1161.253906 477.269531 1166.535156 477.296875 1171.8125 C 477.300781 1173.710938 477.300781 1175.605469 477.296875 1177.503906 C 477.179688 1211.90625 486.609375 1246.488281 511.304688 1271.472656 C 538.035156 1295.675781 569.933594 1302.808594 605.324219 1301.101562 C 633.808594 1298.640625 657.699219 1284.777344 676.964844 1264.0625 C 698.570312 1238.230469 704.671875 1206.523438 704.699219 1173.652344 C 704.703125 1171.6875 704.707031 1169.722656 704.71875 1167.761719 C 704.730469 1162.378906 704.742188 1156.996094 704.75 1151.617188 C 704.761719 1145.804688 704.777344 1139.996094 704.792969 1134.183594 C 704.820312 1124.125 704.847656 1114.066406 704.867188 1104.007812 C 704.898438 1089.457031 704.933594 1074.914062 704.972656 1060.367188 C 705.03125 1036.769531 705.085938 1013.167969 705.136719 989.574219 C 705.191406 966.648438 705.242188 943.726562 705.300781 920.804688 C 705.304688 918.683594 705.304688 918.683594 705.3125 916.523438 C 705.328125 909.425781 705.347656 902.335938 705.363281 895.25 C 705.511719 836.441406 705.644531 777.632812 705.78125 718.828125 C 746.15625 718.828125 786.535156 718.828125 828.132812 718.828125 C 828.21875 780.234375 828.289062 841.644531 828.328125 903.054688 C 828.332031 910.3125 828.34375 917.574219 828.347656 924.835938 C 828.347656 926.28125 828.347656 927.726562 828.347656 929.214844 C 828.367188 952.578125 828.394531 975.933594 828.433594 999.296875 C 828.46875 1023.292969 828.492188 1047.285156 828.496094 1071.28125 C 828.5 1086.070312 828.519531 1100.859375 828.546875 1115.652344 C 828.574219 1125.8125 828.578125 1135.972656 828.574219 1146.132812 C 828.566406 1151.980469 828.574219 1157.828125 828.589844 1163.683594 C 828.78125 1220.269531 821.109375 1278.101562 783.058594 1323.003906 C 781.871094 1324.457031 780.683594 1325.917969 779.492188 1327.386719 C 738.582031 1377.136719 680.957031 1400.867188 617.855469 1407.328125 C 613.242188 1407.699219 608.664062 1407.910156 604.035156 1408.023438 C 603.109375 1408.046875 602.1875 1408.078125 601.238281 1408.101562 C 531.492188 1409.867188 467.875 1390.535156 416.492188 1342.738281 C 412.15625 1338.519531 408.199219 1334.148438 404.40625 1329.441406 C 403.414062 1328.226562 402.421875 1327.011719 401.402344 1325.757812 C 358.074219 1271.65625 352.425781 1207.625 352.59375 1140.671875 C 352.601562 1134.984375 352.597656 1129.304688 352.597656 1123.621094 C 352.59375 1113.816406 352.601562 1104.011719 352.617188 1094.207031 C 352.640625 1080.03125 352.644531 1065.855469 352.652344 1051.683594 C 352.65625 1028.671875 352.667969 1005.664062 352.695312 982.65625 C 352.71875 960.328125 352.738281 938 352.746094 915.671875 C 352.75 914.292969 352.75 912.914062 352.75 911.492188 C 352.757812 904.566406 352.757812 897.644531 352.761719 890.714844 C 352.789062 833.421875 352.832031 776.125 352.890625 718.828125 Z M 352.890625 718.828125 "/>
<path style=" stroke:none;fill-rule:nonzero;fill:rgb(20%,20%,20.392157%);fill-opacity:1;" d="M 1335.570312 879.851562 C 1403.671875 879.734375 1403.671875 879.734375 1473.140625 879.613281 C 1487.4375 879.574219 1501.742188 879.539062 1516.476562 879.507812 C 1534.023438 879.488281 1534.023438 879.488281 1542.257812 879.484375 C 1547.964844 879.480469 1553.679688 879.464844 1559.394531 879.445312 C 1566.710938 879.417969 1574.023438 879.410156 1581.335938 879.417969 C 1584.007812 879.417969 1586.675781 879.40625 1589.335938 879.390625 C 1637.460938 879.132812 1680.226562 892.800781 1715.511719 926.230469 C 1737.910156 948.667969 1751.726562 976.554688 1758.011719 1007.386719 C 1758.304688 1008.816406 1758.597656 1010.242188 1758.898438 1011.714844 C 1766.621094 1058.285156 1757.789062 1108.230469 1730.183594 1146.835938 C 1715.710938 1166.132812 1698.574219 1182.058594 1676.875 1192.890625 C 1676.023438 1192.890625 1675.175781 1192.890625 1674.296875 1192.890625 C 1682.871094 1208.875 1691.691406 1224.6875 1700.886719 1240.328125 C 1706.308594 1249.566406 1711.589844 1258.886719 1716.800781 1268.25 C 1722.691406 1278.839844 1728.691406 1289.359375 1734.828125 1299.8125 C 1740.964844 1310.265625 1746.96875 1320.785156 1752.859375 1331.375 C 1758.917969 1342.257812 1765.082031 1353.070312 1771.371094 1363.820312 C 1772.496094 1365.746094 1772.496094 1365.746094 1773.648438 1367.710938 C 1775.078125 1370.152344 1776.507812 1372.59375 1777.9375 1375.035156 C 1780.699219 1379.746094 1783.453125 1384.457031 1786.183594 1389.183594 C 1786.976562 1390.550781 1787.773438 1391.914062 1788.585938 1393.316406 C 1790.210938 1396.425781 1790.210938 1396.425781 1790.210938 1399.003906 C 1746.433594 1399.003906 1702.660156 1399.003906 1657.550781 1399.003906 C 1651.179688 1387.527344 1644.804688 1376.050781 1638.234375 1364.222656 C 1631.378906 1352.476562 1631.378906 1352.476562 1624.503906 1340.746094 C 1619.628906 1332.375 1615.011719 1323.878906 1610.410156 1315.363281 C 1605.492188 1306.28125 1600.417969 1297.308594 1595.273438 1288.355469 C 1589.4375 1278.195312 1583.71875 1267.972656 1578.007812 1257.738281 C 1572.292969 1247.511719 1566.5 1237.332031 1560.613281 1227.203125 C 1559.71875 1225.648438 1559.71875 1225.648438 1558.804688 1224.070312 C 1558.289062 1223.171875 1557.765625 1222.277344 1557.234375 1221.359375 C 1555.683594 1218.417969 1554.464844 1215.304688 1553.234375 1212.214844 C 1521.785156 1212.214844 1490.332031 1212.214844 1457.929688 1212.214844 C 1457.929688 1273.855469 1457.929688 1335.496094 1457.929688 1399.003906 C 1417.546875 1399.003906 1377.171875 1399.003906 1335.570312 1399.003906 C 1335.570312 1227.6875 1335.570312 1056.363281 1335.570312 879.851562 Z M 1457.929688 980.332031 C 1457.929688 1023.695312 1457.929688 1067.058594 1457.929688 1111.734375 C 1489.605469 1111.890625 1489.605469 1111.890625 1521.917969 1112.054688 C 1528.558594 1112.101562 1535.195312 1112.148438 1542.035156 1112.199219 C 1548.050781 1112.210938 1548.050781 1112.210938 1554.0625 1112.226562 C 1556.71875 1112.230469 1559.371094 1112.25 1562.023438 1112.273438 C 1583.960938 1112.484375 1601.800781 1111.695312 1618.914062 1096.277344 C 1632.492188 1082.230469 1638.0625 1063.351562 1638.71875 1044.101562 C 1637.996094 1023.023438 1631.675781 1006.414062 1616.339844 991.929688 C 1604.335938 982.328125 1590.257812 980.132812 1575.335938 980.1875 C 1574.042969 980.1875 1572.753906 980.1875 1571.421875 980.1875 C 1567.253906 980.1875 1563.089844 980.199219 1558.921875 980.207031 C 1556.347656 980.210938 1553.769531 980.210938 1551.195312 980.210938 C 1541.648438 980.21875 1532.105469 980.238281 1522.5625 980.253906 C 1490.566406 980.292969 1490.566406 980.292969 1457.929688 980.332031 Z M 1457.929688 980.332031 "/>
<path style=" stroke:none;fill-rule:nonzero;fill:rgb(20%,20%,20.392157%);fill-opacity:1;" d="M 1223.523438 1055.050781 C 1251.175781 1080.078125 1268.371094 1111.617188 1276.648438 1147.886719 C 1276.847656 1148.734375 1277.042969 1149.582031 1277.242188 1150.453125 C 1280.875 1167.578125 1281.972656 1184.695312 1281.886719 1202.148438 C 1281.878906 1203.621094 1281.878906 1203.621094 1281.875 1205.125 C 1281.8125 1221.066406 1280.902344 1236.503906 1277.617188 1252.148438 C 1277.402344 1253.207031 1277.191406 1254.273438 1276.96875 1255.363281 C 1267.175781 1302.65625 1239.421875 1347.582031 1198.671875 1374.378906 C 1145.332031 1408.3125 1080.988281 1415.453125 1019.726562 1402.109375 C 1012.75 1400.511719 1012.75 1400.511719 1009.730469 1399.003906 C 1009.730469 1454.269531 1009.730469 1509.535156 1009.730469 1566.476562 C 971.902344 1566.476562 934.078125 1566.476562 895.105469 1566.476562 C 895.105469 1388.777344 895.105469 1211.078125 895.105469 1028 C 932.933594 1028 970.757812 1028 1009.730469 1028 C 1010.367188 1038.203125 1010.367188 1038.203125 1011.019531 1048.609375 C 1012.609375 1047.550781 1014.203125 1046.484375 1015.847656 1045.390625 C 1040.042969 1031.019531 1069.472656 1023.273438 1097.308594 1020.269531 C 1098.546875 1020.128906 1099.789062 1019.984375 1101.0625 1019.84375 C 1145.375 1015.453125 1189.644531 1024.851562 1223.523438 1055.050781 Z M 1026.558594 1132.949219 C 1009.472656 1153.882812 1008.980469 1176.164062 1009.226562 1201.90625 C 1009.238281 1204.851562 1009.242188 1207.796875 1009.246094 1210.742188 C 1009.265625 1218.441406 1009.320312 1226.132812 1009.375 1233.828125 C 1009.429688 1241.703125 1009.453125 1249.578125 1009.476562 1257.453125 C 1009.535156 1272.863281 1009.621094 1288.269531 1009.730469 1303.679688 C 1012.359375 1304.507812 1014.988281 1305.332031 1017.625 1306.15625 C 1019.824219 1306.84375 1019.824219 1306.84375 1022.066406 1307.550781 C 1051.648438 1316.152344 1085.214844 1314.25 1112.398438 1299.769531 C 1133.484375 1287.136719 1148.625 1266.570312 1155.074219 1242.847656 C 1157.070312 1234.871094 1158.808594 1226.886719 1159.125 1218.65625 C 1159.226562 1216.46875 1159.226562 1216.46875 1159.328125 1214.234375 C 1160.015625 1185.207031 1153.796875 1155.359375 1133.367188 1133.46875 C 1116.882812 1118.011719 1097.550781 1110.9375 1075.136719 1111.332031 C 1056.558594 1112.863281 1039.46875 1119.085938 1026.558594 1132.949219 Z M 1026.558594 1132.949219 "/>
<path style=" stroke:none;fill-rule:nonzero;fill:rgb(20%,20%,20.392157%);fill-opacity:1;" d="M 2159.84375 1067.929688 C 2160.914062 1068.832031 2161.992188 1069.734375 2163.101562 1070.660156 C 2171.152344 1077.636719 2177.832031 1085.253906 2184.316406 1093.699219 C 2185.171875 1094.796875 2186.035156 1095.890625 2186.921875 1097.023438 C 2219.570312 1140.066406 2227.847656 1194.46875 2220.996094 1247.109375 C 2213.800781 1296.085938 2188.070312 1338.132812 2148.898438 1368.328125 C 2099.535156 1404.824219 2035.300781 1413.839844 1975.671875 1405.445312 C 1923.847656 1397.027344 1874.613281 1371.273438 1843.398438 1327.980469 C 1840.558594 1323.828125 1837.890625 1319.582031 1835.285156 1315.269531 C 1834.585938 1314.144531 1834.585938 1314.144531 1833.867188 1312.992188 C 1807.828125 1270.707031 1804.519531 1216.164062 1813.390625 1168.417969 C 1813.5625 1167.480469 1813.734375 1166.554688 1813.917969 1165.589844 C 1819.476562 1137.101562 1833.476562 1110.640625 1852.03125 1088.542969 C 1852.617188 1087.847656 1853.199219 1087.15625 1853.800781 1086.4375 C 1889.015625 1045.144531 1939.949219 1024.300781 1993.191406 1019.714844 C 2053.515625 1015.074219 2112.960938 1028.34375 2159.84375 1067.929688 Z M 1966.65625 1132.347656 C 1965.507812 1133.167969 1965.507812 1133.167969 1964.328125 1134.011719 C 1944.652344 1149.4375 1936.097656 1173.84375 1932.660156 1197.714844 C 1932.296875 1200.832031 1932.046875 1203.925781 1931.882812 1207.058594 C 1931.828125 1208.027344 1931.777344 1208.996094 1931.71875 1209.992188 C 1931.003906 1236.90625 1938.449219 1264.636719 1956.835938 1284.839844 C 1973.277344 1302.164062 1992.070312 1311.214844 2016.238281 1311.890625 C 2038.726562 1311.183594 2058.75 1303.386719 2074.339844 1287.09375 C 2093.175781 1266.273438 2099.84375 1241.289062 2099.714844 1213.742188 C 2099.707031 1212.148438 2099.699219 1210.550781 2099.695312 1208.910156 C 2099.550781 1197.910156 2098.910156 1187.941406 2095.445312 1177.433594 C 2094.996094 1176.019531 2094.539062 1174.601562 2094.074219 1173.144531 C 2086.105469 1150.519531 2071.605469 1133.003906 2050.046875 1122.359375 C 2021.597656 1110.214844 1991.339844 1114.304688 1966.65625 1132.347656 Z M 1966.65625 1132.347656 "/>
<path style=" stroke:none;fill-rule:nonzero;fill:rgb(20%,20%,20.392157%);fill-opacity:1;" d="M 2608.695312 1071.335938 C 2609.753906 1072.339844 2610.8125 1073.339844 2611.90625 1074.375 C 2613.039062 1075.429688 2614.179688 1076.488281 2615.355469 1077.574219 C 2652.601562 1113.246094 2667.796875 1162.914062 2668.890625 1213.503906 C 2668.828125 1216.078125 2668.714844 1218.65625 2668.570312 1221.234375 C 2668.519531 1222.207031 2668.464844 1223.179688 2668.414062 1224.183594 C 2665.492188 1273.464844 2648.519531 1314.28125 2614.476562 1350.054688 C 2613.332031 1351.304688 2613.332031 1351.304688 2612.164062 1352.574219 C 2575.390625 1391.449219 2519.75 1406.558594 2467.925781 1408.269531 C 2414.84375 1409.304688 2356.804688 1395.992188 2317.453125 1358.152344 C 2316.441406 1357.179688 2315.433594 1356.207031 2314.390625 1355.207031 C 2312.683594 1353.773438 2310.96875 1352.351562 2309.242188 1350.9375 C 2276.683594 1322.359375 2258.089844 1276.691406 2255.148438 1234.113281 C 2254.148438 1211.707031 2254.015625 1189.097656 2259.015625 1167.128906 C 2259.253906 1166.050781 2259.5 1164.976562 2259.746094 1163.867188 C 2267.425781 1131.1875 2283.222656 1104.417969 2305.378906 1079.527344 C 2306.175781 1078.617188 2306.976562 1077.707031 2307.796875 1076.773438 C 2381.941406 997.636719 2531.335938 999.648438 2608.695312 1071.335938 Z M 2401.167969 1142.164062 C 2381.640625 1165.796875 2374.96875 1196.558594 2377.769531 1226.671875 C 2380.917969 1254.320312 2392.277344 1277.578125 2413.566406 1295.945312 C 2431.617188 1309.128906 2452.648438 1313.597656 2474.671875 1310.855469 C 2492.417969 1307.636719 2506.648438 1299.816406 2519.175781 1286.933594 C 2519.976562 1286.15625 2520.773438 1285.378906 2521.605469 1284.578125 C 2542.191406 1263.25 2545.621094 1233.621094 2545.28125 1205.402344 C 2544.566406 1180.488281 2535.730469 1157.738281 2518.691406 1139.347656 C 2517.574219 1138.316406 2516.460938 1137.273438 2515.308594 1136.207031 C 2514.613281 1135.507812 2513.921875 1134.808594 2513.207031 1134.085938 C 2499.496094 1120.945312 2480.589844 1115.660156 2461.9375 1115.117188 C 2437.667969 1115.824219 2417.847656 1124.542969 2401.167969 1142.164062 Z M 2401.167969 1142.164062 "/>
<path style=" stroke:none;fill-rule:nonzero;fill:rgb(20%,20%,20.392157%);fill-opacity:1;" d="M 3021.699219 1018.714844 C 3025.097656 1021.761719 3028.445312 1024.867188 3031.765625 1028 C 3030.640625 1033.757812 3027.371094 1037.167969 3023.554688 1041.445312 C 3022.136719 1043.066406 3020.71875 1044.6875 3019.300781 1046.308594 C 3018.582031 1047.128906 3017.863281 1047.941406 3017.121094 1048.785156 C 3014.011719 1052.339844 3010.976562 1055.945312 3007.9375 1059.558594 C 3004.265625 1063.917969 3000.578125 1068.265625 2996.851562 1072.582031 C 2989.804688 1080.75 2982.867188 1088.933594 2976.386719 1097.5625 C 2971.765625 1096.773438 2969.105469 1094.863281 2965.4375 1092.007812 C 2952.058594 1082.527344 2938.273438 1080.46875 2922.292969 1082.105469 C 2912.511719 1084.460938 2903.949219 1090.910156 2898.414062 1099.269531 C 2888.648438 1117.460938 2890.816406 1137.8125 2890.09375 1158.109375 C 2930.042969 1158.109375 2969.996094 1158.109375 3011.15625 1158.109375 C 3011.15625 1186.589844 3011.15625 1215.074219 3011.15625 1244.417969 C 2971.210938 1244.417969 2931.253906 1244.417969 2890.09375 1244.417969 C 2890.09375 1338.371094 2890.09375 1432.320312 2890.09375 1529.117188 C 2852.695312 1529.117188 2815.292969 1529.117188 2776.757812 1529.117188 C 2776.757812 1435.164062 2776.757812 1341.214844 2776.757812 1244.417969 C 2755.503906 1244.417969 2734.257812 1244.417969 2712.363281 1244.417969 C 2712.363281 1215.9375 2712.363281 1187.453125 2712.363281 1158.109375 C 2733.609375 1158.109375 2754.863281 1158.109375 2776.757812 1158.109375 C 2776.675781 1151.175781 2776.59375 1144.238281 2776.515625 1137.09375 C 2776.390625 1096.917969 2784.117188 1060.113281 2811.527344 1029.289062 C 2812.402344 1028.183594 2813.273438 1027.082031 2814.167969 1025.945312 C 2834.367188 1001.054688 2869.269531 987.019531 2900.308594 983.273438 C 2945.242188 979.644531 2987.300781 988.28125 3021.699219 1018.714844 Z M 3021.699219 1018.714844 "/>
</g>
</svg>
