<?xml version="1.0" standalone="no"?>
<!DOCTYPE svg PUBLIC "-//W3C//DTD SVG 20010904//EN"
 "http://www.w3.org/TR/2001/REC-SVG-20010904/DTD/svg10.dtd">
<svg version="1.0" xmlns="http://www.w3.org/2000/svg"
 width="400.000000pt" height="371.000000pt" viewBox="0 0 400.000000 371.000000"
 preserveAspectRatio="xMidYMid meet">

<g transform="translate(0.000000,371.000000) scale(0.100000,-0.100000)"
fill="#000000" stroke="none">
<path d="M0 1855 c0 -1642 2 -1855 15 -1855 13 0 15 149 15 1285 0 850 3 1285
10 1285 6 0 10 9 10 20 0 11 -4 20 -10 20 -6 0 -10 74 -9 203 0 131 3 194 9
180 10 -26 30 -31 30 -9 0 8 5 18 12 22 7 4 8 3 4 -4 -4 -7 -2 -12 3 -12 6 0
11 16 11 36 0 21 4 33 10 29 6 -4 8 -11 5 -16 -4 -5 -1 -9 4 -9 6 0 11 7 11
15 0 8 3 14 8 14 27 -4 44 2 38 16 -3 10 1 15 13 15 19 0 60 64 48 76 -4 4 -7
0 -7 -9 0 -18 -45 -25 -52 -9 -1 5 -16 12 -32 16 -26 7 -28 5 -22 -18 4 -15 1
-28 -6 -33 -19 -11 -37 -12 -44 -2 -3 5 0 9 7 9 7 0 10 3 6 6 -3 3 -15 3 -26
-1 -16 -5 -20 -12 -15 -31 4 -15 2 -24 -5 -24 -14 0 -14 287 0 295 5 3 8 17 7
30 -1 13 -5 22 -9 19 -4 -2 -7 60 -7 138 -1 99 3 145 11 150 7 5 1 8 -15 8
l-28 0 0 -1855z m190 1253 c0 -6 -7 -5 -15 2 -8 7 -15 17 -15 22 0 6 7 5 15
-2 8 -7 15 -17 15 -22z"/>
<path d="M248 3703 c-27 -4 -40 -23 -17 -23 8 0 8 -5 -1 -15 -17 -20 -6 -43
27 -57 15 -7 31 -17 35 -23 4 -5 7 7 6 27 -1 32 -4 37 -22 34 -12 -2 -15 -1
-8 1 6 3 12 9 12 14 0 5 8 9 18 10 11 0 12 2 4 6 -10 4 -9 8 5 19 17 12 16 13
-7 12 -14 0 -37 -3 -52 -5z"/>
<path d="M677 3665 c-40 -62 -115 -138 -129 -129 -6 4 -8 3 -4 -4 3 -6 -7 -20
-24 -32 -17 -12 -28 -26 -25 -31 7 -10 -42 -32 -58 -26 -6 2 -1 12 11 23 15
14 18 24 12 34 -8 13 -13 13 -30 2 -11 -7 -25 -10 -30 -7 -6 4 -10 1 -10 -4 0
-6 -6 -10 -12 -8 -7 1 -14 -8 -16 -20 -3 -24 -16 -30 -26 -14 -4 5 -1 11 5 13
5 2 7 11 4 20 -5 13 -12 15 -32 7 -13 -5 -28 -7 -33 -4 -5 3 -14 -11 -20 -31
-10 -28 -9 -38 0 -47 10 -9 14 -9 17 1 3 6 9 10 13 7 5 -3 2 -14 -8 -23 -13
-14 -21 -16 -37 -8 -11 6 -23 16 -28 21 -5 6 -12 4 -20 -5 -6 -8 -23 -14 -36
-12 -15 2 -21 0 -16 -7 7 -13 -33 -61 -52 -61 -22 0 -25 -21 -6 -42 10 -11 16
-23 15 -27 -2 -3 11 -11 29 -17 32 -11 64 0 52 19 -2 4 1 7 7 7 8 0 10 -9 6
-25 -4 -15 -2 -25 4 -25 6 0 8 5 5 10 -3 6 -1 10 5 10 6 0 9 4 6 9 -3 5 8 11
24 15 17 3 30 10 30 16 0 6 -4 9 -9 5 -5 -3 -12 -1 -15 4 -3 5 4 11 17 15 33
9 37 8 37 -9 0 -8 -5 -15 -11 -15 -5 0 -7 -4 -4 -10 3 -5 1 -10 -5 -10 -7 0
-9 -7 -6 -16 3 -8 2 -12 -4 -9 -15 9 -12 0 7 -22 10 -11 26 -22 36 -26 21 -8
22 -21 3 -36 -11 -9 -16 -9 -21 0 -11 16 -25 -9 -25 -44 0 -16 -4 -26 -10 -22
-5 3 -10 1 -10 -5 0 -6 -4 -9 -9 -6 -4 3 -17 -4 -27 -17 -10 -12 -12 -17 -5
-10 14 12 19 9 71 -51 l25 -28 -24 7 c-21 6 -23 5 -18 -15 4 -15 -1 -32 -14
-48 -22 -28 -25 -58 -6 -65 8 -3 3 -14 -15 -31 -16 -15 -28 -28 -28 -30 0 -12
28 -55 33 -50 9 9 68 -7 61 -17 -3 -5 -1 -9 5 -9 19 0 22 21 7 51 -11 22 -12
28 -2 20 7 -6 17 -7 21 -3 5 4 5 -1 2 -10 -3 -9 1 -22 9 -29 12 -10 16 -9 21
10 4 17 8 19 19 10 8 -7 17 -9 21 -5 4 3 -2 13 -13 21 -17 13 -17 14 -1 15 30
0 21 47 -13 65 -16 9 -30 19 -30 24 0 16 27 61 33 55 3 -3 11 -3 16 1 8 4 6
13 -4 28 -18 25 -20 51 -4 41 6 -3 15 0 20 7 4 8 12 14 16 14 4 1 18 6 31 13
15 9 22 9 22 2 0 -6 5 -8 10 -5 16 10 11 23 -11 30 -14 5 -18 10 -10 14 9 6 9
15 1 35 -13 35 -13 36 4 36 8 0 17 -6 20 -12 3 -7 3 -3 0 10 -3 13 -1 28 4 35
5 7 9 24 8 39 -1 21 1 24 11 16 10 -8 10 -14 2 -24 -8 -10 -8 -14 0 -14 6 0
10 -12 9 -27 -2 -14 3 -28 10 -31 7 -2 18 -9 25 -16 7 -7 18 -11 25 -8 6 2 12
-4 12 -13 0 -13 4 -14 21 -5 11 7 23 9 27 6 3 -3 0 -6 -6 -6 -7 0 -12 -4 -12
-10 0 -6 9 -6 24 0 13 5 26 7 29 4 2 -2 10 2 16 10 7 8 19 12 27 9 19 -7 44
14 44 37 0 17 5 18 40 10 3 0 -2 -6 -10 -13 -8 -7 -17 -19 -19 -27 -11 -40
-12 -70 -4 -70 6 0 15 -12 21 -26 7 -15 17 -22 24 -18 6 4 8 3 4 -4 -3 -6 -2
-13 3 -16 5 -4 12 -2 16 4 9 14 -4 52 -16 45 -5 -4 -9 -2 -9 4 0 5 4 12 9 15
5 3 7 15 4 27 -3 11 -9 17 -12 12 -3 -4 -13 -9 -21 -11 -11 -3 -9 2 5 16 12
12 24 16 30 11 13 -12 58 -11 50 1 -3 6 1 10 9 10 8 0 22 12 29 26 12 23 16
25 28 12 7 -8 22 -13 32 -10 22 6 64 -14 95 -46 25 -26 59 -26 54 1 -2 9 4 20
13 23 20 8 19 34 -1 34 -12 0 -14 3 -6 13 13 15 -11 52 -27 42 -6 -3 -11 -1
-11 5 0 6 -4 8 -10 5 -5 -3 -10 -1 -10 4 0 6 -7 11 -15 11 -14 0 -14 3 0 31
19 36 30 103 15 94 -6 -4 -7 1 -3 10 5 14 10 12 29 -12 28 -34 32 -22 5 15
-17 25 -25 57 -36 142 -5 40 12 103 27 98 15 -5 39 -68 26 -68 -7 0 -6 -5 2
-15 7 -8 19 -15 26 -15 8 0 16 -12 20 -27 3 -16 18 -55 33 -88 23 -47 26 -63
17 -78 -10 -16 -11 -16 -14 8 -3 19 -9 25 -28 25 -17 0 -23 4 -18 12 4 7 3 8
-4 4 -17 -10 -15 -26 3 -26 8 0 15 -5 15 -11 0 -5 -4 -8 -8 -5 -5 3 -9 -1 -9
-9 0 -8 2 -13 5 -10 2 2 11 -3 19 -11 9 -8 22 -13 29 -10 10 4 11 -1 3 -21
-11 -29 -6 -53 12 -53 6 0 9 7 5 15 -3 8 2 19 12 24 14 7 21 5 30 -10 17 -27
16 -44 -3 -29 -9 8 -15 8 -15 2 0 -6 -3 -18 -7 -28 -5 -13 -3 -15 7 -9 8 5 11
4 7 -2 -10 -16 34 -24 52 -11 13 10 14 10 4 -2 -7 -8 -9 -19 -4 -29 15 -28 16
-78 2 -95 -12 -14 -11 -19 3 -35 16 -18 16 -20 1 -29 -12 -6 -15 -16 -10 -31
10 -31 47 -27 75 9 12 16 27 27 31 24 5 -3 9 0 9 6 0 6 5 8 13 4 9 -6 9 -4 -1
8 -10 13 -10 19 3 31 8 9 15 22 15 29 0 8 6 20 13 27 10 11 9 13 -6 8 -17 -6
-17 -6 0 18 10 13 21 25 26 25 4 0 7 8 7 18 0 12 5 10 19 -11 14 -22 20 -25
24 -13 3 8 16 20 28 26 12 7 19 8 15 2 -3 -6 2 -13 11 -15 12 -3 9 -5 -8 -6
-28 -1 -44 -24 -32 -44 4 -7 6 -24 4 -39 -1 -16 0 -28 4 -28 14 0 66 60 60 70
-3 5 -2 25 3 44 8 27 7 36 -3 40 -10 3 -12 0 -8 -11 9 -22 -14 -8 -27 17 -8
15 -7 18 3 14 9 -3 17 3 20 16 3 12 10 19 16 16 5 -4 3 7 -6 24 -16 33 -12 61
9 59 10 0 10 -2 1 -6 -20 -8 -15 -23 7 -23 17 0 19 5 15 28 -6 24 -5 25 8 10
21 -26 61 -11 64 25 1 15 -2 25 -6 23 -5 -3 -6 7 -5 22 2 15 1 21 -2 15 -8
-19 -37 -16 -30 2 8 21 -3 45 -21 45 -9 0 -4 9 13 23 23 20 25 26 15 45 -15
28 -24 28 -47 -3 -25 -33 -34 -32 -34 6 0 16 -4 28 -9 24 -5 -3 -12 -1 -16 5
-11 18 -24 11 -21 -12 4 -38 16 -56 42 -62 24 -6 34 -26 13 -26 -5 0 -8 -4 -5
-8 7 -11 -36 -49 -61 -54 -12 -3 -17 -12 -16 -28 l2 -25 -12 24 c-9 19 -8 25
6 36 20 14 22 31 5 41 -8 5 -9 2 -5 -9 3 -10 2 -17 -3 -17 -6 0 -10 4 -10 10
0 5 -8 7 -17 4 -17 -5 -17 -5 0 9 9 8 17 17 17 21 0 18 -31 35 -57 32 -15 -2
-20 -1 -10 1 9 2 15 8 12 13 -3 5 -11 7 -18 4 -7 -2 -13 4 -14 15 -1 15 5 19
30 17 30 -1 33 2 44 44 6 25 12 39 12 32 1 -7 5 -11 9 -8 13 8 11 -28 -2 -36
-7 -5 -4 -8 6 -8 25 0 36 28 31 78 -4 44 5 53 28 26 10 -12 10 -17 1 -23 -7
-4 -10 -15 -6 -24 7 -20 20 -22 28 -4 3 8 9 6 21 -8 9 -11 18 -19 20 -17 17 8
35 -1 35 -19 0 -11 5 -17 10 -14 15 10 50 -5 50 -20 0 -9 -6 -12 -15 -9 -14 6
-17 -3 -14 -33 0 -5 8 -7 17 -5 15 2 14 0 -2 -12 -16 -13 -17 -18 -6 -31 7 -8
10 -21 7 -29 -8 -21 3 -27 27 -14 17 9 19 8 9 -3 -22 -22 -14 -30 12 -13 14 9
25 22 25 30 0 20 40 53 57 47 8 -3 11 -9 6 -12 -4 -3 -9 -18 -11 -33 -2 -20 2
-28 13 -28 8 0 15 5 15 10 0 6 18 18 40 27 39 17 57 53 26 53 -8 0 -17 7 -20
16 -8 22 -8 26 4 19 5 -3 7 0 4 8 -3 9 -13 13 -24 10 -18 -5 -18 -7 -5 -33 8
-16 19 -30 24 -32 5 -1 3 -9 -5 -16 -12 -11 -14 -10 -14 2 0 9 -11 18 -25 22
-24 6 -37 44 -15 44 6 0 10 9 10 19 0 11 5 23 12 27 7 5 8 3 3 -6 -6 -9 -4
-11 4 -6 7 5 10 14 7 22 -3 8 0 11 10 7 7 -3 14 -1 14 5 0 20 28 21 33 1 4
-16 2 -19 -11 -15 -15 5 -15 4 1 -8 9 -7 17 -23 17 -35 0 -11 4 -21 10 -21 5
0 7 -7 3 -16 -4 -10 1 -22 11 -29 9 -7 16 -17 15 -21 -2 -5 3 -21 10 -36 15
-29 51 -45 51 -22 0 8 -7 14 -17 14 -9 0 -13 3 -10 7 4 3 1 13 -5 21 -7 7 -14
23 -15 35 -2 12 -15 41 -30 66 -21 36 -22 43 -9 38 10 -4 22 -7 28 -7 6 0 8
-6 5 -14 -6 -15 27 -56 44 -56 6 0 8 -4 5 -8 -2 -4 8 -7 22 -6 38 3 40 4 15
14 -28 11 -20 50 11 50 20 0 61 20 42 20 -5 0 -4 6 2 13 14 16 10 66 -5 72 -7
2 -23 0 -35 -5 l-23 -9 24 0 c20 -1 21 -3 11 -16 -9 -11 -10 -18 -1 -29 9 -10
8 -15 -2 -19 -23 -9 -45 17 -43 51 2 30 0 32 -30 32 -21 0 -38 7 -47 20 -8 11
-17 17 -20 14 -4 -4 -9 0 -13 9 -4 13 -24 16 -98 16 -81 1 -96 -2 -111 -19
-15 -16 -21 -18 -33 -7 -13 9 -14 9 -8 0 4 -7 4 -13 -1 -14 -4 0 -21 -2 -36
-3 -16 -1 -32 -8 -37 -16 -7 -11 -10 -12 -10 -2 0 7 12 18 28 25 15 7 28 18
29 25 4 17 -7 15 -30 -5 -19 -17 -20 -17 -14 -1 5 15 -3 17 -72 15 -62 -2 -83
-6 -100 -21 -22 -20 -22 -20 -28 2 -5 20 -12 22 -79 22 -78 0 -78 0 -74 -52 1
-16 -3 -28 -8 -28 -24 0 -44 14 -53 36 -4 13 -13 24 -19 24 -6 0 -9 -4 -6 -8
2 -4 1 -14 -5 -22 -7 -12 -9 -11 -10 5 0 11 -3 14 -6 8 -2 -7 -9 -13 -15 -13
-15 0 13 31 36 39 10 4 -54 9 -142 10 -89 1 -162 -1 -162 -4 0 -15 68 -60 77
-52 2 3 0 15 -7 26 -9 17 -8 21 5 21 15 0 19 -11 15 -40 -1 -11 1 -12 10 -4
11 11 50 8 50 -3 0 -2 -8 -12 -17 -21 -16 -16 -16 -16 -10 1 3 9 2 17 -3 17
-6 0 -10 -5 -10 -11 0 -6 -9 -9 -20 -6 -10 3 -24 -1 -31 -9 -8 -10 -8 -14 0
-14 16 0 14 -17 -3 -23 -10 -4 -13 -1 -10 8 3 8 -4 20 -15 27 -24 15 -27 25
-8 31 6 2 2 3 -9 1 -17 -3 -23 3 -28 26 -5 28 -9 30 -50 30 -25 0 -48 -6 -55
-14 -10 -12 -8 -14 11 -10 21 5 21 4 4 -6 -14 -10 -24 -9 -42 1 -13 7 -24 16
-24 21 0 4 -8 8 -17 8 -10 0 -30 -20 -46 -45z m202 26 c8 -5 9 -11 3 -15 -5
-3 -15 1 -22 9 -14 16 -3 20 19 6z m-135 -10 c10 -15 -5 -41 -24 -41 -11 0
-23 -14 -32 -39 -13 -33 -14 -41 -2 -55 8 -9 11 -14 8 -11 -4 3 -13 0 -21 -6
-9 -9 -13 -8 -13 0 0 6 -4 11 -10 11 -17 0 -11 -20 15 -48 24 -25 25 -26 25
-6 0 12 7 27 15 34 15 13 22 55 7 46 -5 -3 -9 1 -9 9 0 31 25 13 35 -24 12
-49 5 -92 -14 -84 -17 6 -18 -1 -3 -29 6 -11 8 -22 6 -25 -9 -9 -72 -17 -117
-16 -83 2 -100 4 -105 14 -4 5 -15 5 -28 -2 -17 -9 -20 -9 -11 1 14 15 77 20
85 8 3 -5 15 5 27 23 11 19 19 35 17 38 -7 7 -35 -21 -30 -29 3 -5 1 -11 -4
-14 -5 -4 -12 -2 -15 3 -3 5 -15 7 -26 4 -33 -9 -23 8 40 69 33 31 60 53 60
48 0 -5 -4 -11 -9 -14 -15 -10 -19 -53 -5 -53 7 0 11 4 8 8 -6 11 40 102 61
119 9 7 23 26 31 42 15 29 28 35 38 19z m626 -23 c0 19 20 14 21 -5 0 -11 3
-13 6 -5 6 15 39 16 49 0 4 -6 3 -8 -3 -5 -6 4 -13 -6 -17 -23 -3 -18 -12 -30
-21 -30 -12 0 -15 6 -10 20 7 22 -5 26 -23 8 -9 -9 -12 -8 -12 4 0 9 -3 25 -6
35 -5 15 -4 15 5 3 7 -10 11 -11 11 -2z m530 -9 c0 -18 -2 -19 -15 -9 -8 7
-15 16 -15 21 0 5 7 9 15 9 9 0 15 -9 15 -21z m-70 2 c0 -6 -4 -13 -10 -16 -5
-3 -10 1 -10 9 0 9 5 16 10 16 6 0 10 -4 10 -9z m-100 -5 c0 -11 -19 -15 -25
-6 -3 5 1 10 9 10 9 0 16 -2 16 -4z m241 -13 c13 -16 12 -17 -3 -4 -17 13 -22
21 -14 21 2 0 10 -8 17 -17z m-754 -9 c10 -26 -18 -35 -49 -16 -38 22 -35 32
7 32 23 0 38 -6 42 -16z m567 4 c-4 -6 1 -17 11 -25 26 -18 6 -40 -22 -24 -14
8 -14 11 -3 11 13 0 13 2 1 9 -15 10 -8 41 9 41 6 0 8 -5 4 -12z m266 -13 c14
4 18 1 16 -18 -1 -20 -5 -23 -25 -18 -17 5 -25 15 -27 36 -2 25 -1 27 7 12 7
-11 17 -16 29 -12z m-1290 -6 c0 -5 -7 -9 -15 -9 -15 0 -20 12 -9 23 8 8 24
-1 24 -14z m94 15 c8 -3 12 -12 9 -20 -3 -8 1 -14 10 -14 17 0 33 -18 24 -26
-6 -7 -67 46 -67 58 0 10 3 10 24 2z m530 -94 c10 -25 22 -49 24 -54 3 -5 0
-6 -6 -2 -7 4 -12 14 -12 21 0 9 -6 12 -17 8 -11 -4 -14 -3 -9 5 4 7 1 12 -9
12 -9 0 -14 4 -11 8 3 4 1 25 -3 45 -10 42 -1 59 13 25 5 -13 19 -43 30 -68z
m-230 31 c-5 -6 -33 31 -33 44 -1 6 8 -1 19 -15 10 -14 17 -27 14 -29z m-362
17 c-7 -7 -6 -18 5 -35 9 -13 16 -42 15 -63 -2 -35 0 -38 20 -35 12 3 26 9 32
15 5 5 19 10 31 10 16 0 17 2 5 9 -8 6 -18 7 -22 5 -4 -3 -8 -1 -8 5 0 5 5 13
10 16 6 3 10 1 10 -6 0 -8 4 -8 15 1 22 18 27 8 15 -25 -6 -15 -8 -30 -6 -33
6 -5 26 42 26 59 0 6 5 7 10 4 6 -3 11 3 11 14 3 53 14 63 17 17 2 -20 -4 -38
-13 -46 -8 -7 -15 -18 -15 -25 0 -7 -7 -18 -15 -25 -8 -7 -15 -17 -15 -23 0
-6 7 -1 16 11 9 13 22 21 29 18 9 -3 11 2 8 15 -3 11 -2 19 3 17 5 -2 10 2 12
7 5 15 34 45 43 45 14 0 4 -131 -11 -140 -13 -8 -42 9 -35 20 9 14 -35 7 -47
-7 -11 -14 -11 -15 2 -11 20 6 38 -12 32 -34 -6 -26 23 -23 42 4 20 28 24 22
32 -35 8 -59 -10 -90 -34 -56 -10 15 -11 24 -3 32 8 8 11 6 12 -8 0 -20 1 -20
8 0 8 21 3 55 -8 55 -8 0 -31 -50 -31 -69 0 -8 -3 -11 -6 -8 -4 3 -15 2 -24
-3 -13 -7 -22 -5 -31 7 -12 14 -12 16 0 9 8 -5 17 -3 22 5 15 24 10 28 -21 17
-23 -7 -34 -7 -45 2 -9 8 -15 9 -15 2 0 -6 8 -13 18 -16 9 -3 23 -15 30 -27
12 -19 11 -20 -10 -17 -13 2 -22 9 -21 15 1 6 -4 14 -12 17 -9 3 -15 -1 -15
-9 0 -8 -6 -15 -14 -15 -27 0 -24 -26 5 -39 16 -7 29 -20 28 -29 0 -11 -2 -12
-6 -4 -2 6 -12 12 -21 12 -11 0 -13 -3 -6 -8 6 -4 15 -23 18 -42 7 -33 6 -34
-9 -16 -13 17 -15 17 -15 3 0 -11 -5 -14 -15 -11 -13 5 -13 9 -3 21 10 12 9
18 -6 29 -11 7 -22 11 -26 9 -4 -2 -5 7 -2 20 2 14 0 25 -4 25 -5 0 -19 3 -31
6 -17 5 -23 2 -23 -11 0 -11 5 -15 16 -11 8 3 12 2 9 -4 -3 -6 -1 -10 6 -10 7
0 9 -3 6 -6 -9 -10 -57 24 -57 40 0 18 31 29 44 16 16 -16 24 -12 24 16 0 18
-3 22 -9 13 -9 -15 -11 -13 -27 16 -10 17 -11 18 -12 3 0 -10 0 -21 -1 -25 0
-5 -10 -11 -21 -16 -15 -5 -24 -2 -33 10 -19 26 -28 11 -14 -21 7 -15 18 -25
25 -22 8 3 11 0 8 -8 -3 -7 5 -18 18 -25 13 -6 15 -9 6 -7 -19 6 -25 -9 -8
-19 10 -6 2 -35 -10 -35 -5 0 -6 9 -3 20 4 15 0 20 -13 20 -12 0 -15 3 -7 8 8
5 8 11 -1 24 -7 10 -17 14 -21 10 -5 -4 -6 0 -2 10 3 9 -1 24 -8 35 -17 22
-19 37 -3 27 7 -5 9 0 6 14 -6 22 16 39 27 22 4 -6 1 -10 -5 -10 -6 0 -2 -10
10 -22 11 -12 22 -19 25 -16 3 3 -1 13 -10 21 -8 9 -11 18 -6 21 5 4 11 0 14
-6 2 -7 8 -10 11 -6 11 10 -27 44 -45 40 -9 -2 -19 4 -22 12 -5 11 4 18 34 26
46 13 69 8 69 -15 0 -8 5 -15 10 -15 13 0 13 17 0 25 -5 3 -7 12 -3 21 5 13 8
13 24 -2 10 -9 16 -21 13 -26 -3 -4 0 -7 8 -6 7 2 12 -3 10 -10 -1 -8 2 -11 7
-7 11 6 34 -29 24 -39 -3 -3 -2 -6 4 -6 20 0 25 34 7 47 -10 7 -14 13 -8 13 5
0 15 10 23 23 13 21 13 22 -6 5 -25 -23 -32 -22 -66 6 -36 29 -47 81 -18 89
20 5 22 21 6 47 -19 31 -15 77 6 65 7 -5 7 -11 1 -17z m473 12 c3 -5 -3 -10
-14 -10 -12 0 -21 5 -21 10 0 6 6 10 14 10 8 0 18 -4 21 -10z m225 -11 c0 -5
-7 -9 -15 -9 -9 0 -12 6 -9 15 6 15 24 11 24 -6z m-473 -36 c-24 -24 -27 -25
-27 -9 0 27 31 59 44 46 7 -7 2 -19 -17 -37z m163 36 c0 -6 6 -9 14 -6 8 3 16
-2 19 -13 5 -18 -19 -37 -31 -25 -3 3 1 5 8 5 9 0 6 7 -8 20 -24 23 -27 30
-12 30 6 0 10 -5 10 -11z m-235 -9 c3 -5 -1 -10 -10 -10 -9 0 -13 5 -10 10 3
6 8 10 10 10 2 0 7 -4 10 -10z m-108 -8 c8 -5 9 -13 3 -22 -9 -14 -12 -12 -9
6 0 4 -5 11 -13 15 -7 5 -8 9 -3 9 6 0 15 -4 22 -8z m43 -17 c4 3 13 -2 19 -9
10 -12 9 -14 -6 -11 -10 2 -21 4 -25 4 -5 1 -8 9 -7 19 0 10 3 12 6 4 2 -6 8
-10 13 -7z m440 5 c0 -5 -2 -10 -4 -10 -3 0 -8 5 -11 10 -3 6 -1 10 4 10 6 0
11 -4 11 -10z m-376 -15 c-4 -8 -11 -12 -16 -9 -6 4 -5 10 3 15 19 12 19 11
13 -6z m311 -13 c-3 -3 -11 0 -18 7 -9 10 -8 11 6 5 10 -3 15 -9 12 -12z
m-470 -1 c3 -5 1 -12 -4 -15 -5 -3 -11 1 -15 9 -6 16 9 21 19 6z m433 -39 c8
-7 17 -10 22 -7 9 5 23 -25 15 -33 -2 -3 -11 0 -18 7 -8 6 -21 9 -29 6 -11 -4
-17 2 -20 19 -5 27 7 30 30 8z m86 6 c-3 -4 -3 -8 0 -8 2 0 11 -3 20 -6 9 -3
16 -1 16 6 0 6 -4 8 -10 5 -5 -3 -10 -1 -10 4 0 14 6 14 31 1 14 -8 17 -15 10
-28 -10 -18 -11 -24 -11 -45 0 -14 -37 -20 -45 -7 -3 5 4 12 16 15 17 6 18 9
8 16 -8 4 -19 3 -28 -4 -12 -10 -13 -9 -2 11 6 12 8 22 2 22 -5 0 -11 6 -14
13 -3 8 1 14 9 14 7 0 11 -4 8 -9z m-247 -75 c-3 -10 -5 -2 -5 17 0 19 2 27 5
18 2 -10 2 -26 0 -35z m-666 13 c-6 -7 -8 -16 -4 -19 3 -4 -3 -7 -15 -7 -28 0
-29 20 -2 27 11 3 17 10 13 16 -3 6 -1 7 6 3 8 -6 9 -12 2 -20z m1049 10 c0
-2 -9 -6 -20 -9 -11 -3 -20 -1 -20 4 0 5 9 9 20 9 11 0 20 -2 20 -4z m190 -37
c-7 -11 -14 -18 -17 -15 -3 3 0 12 7 21 18 21 23 19 10 -6z m-193 -21 c-3 -7
-5 -2 -5 12 0 14 2 19 5 13 2 -7 2 -19 0 -25z m73 23 c0 -9 -22 -31 -32 -31
-4 0 -8 6 -8 14 0 8 -6 16 -12 19 -7 2 2 4 20 5 17 0 32 -3 32 -7z m-1163 -33
c-3 -8 -6 -5 -6 6 -1 11 2 17 5 13 3 -3 4 -12 1 -19z m903 2 c0 -5 -5 -10 -11
-10 -5 0 -7 5 -4 10 3 6 8 10 11 10 2 0 4 -4 4 -10z m55 -23 c13 -3 9 -5 -12
-6 -26 -1 -31 3 -30 20 1 17 3 18 12 6 6 -8 19 -17 30 -20z m25 29 c0 -3 -4
-8 -10 -11 -5 -3 -10 -1 -10 4 0 6 5 11 10 11 6 0 10 -2 10 -4z m265 -6 c-3
-5 -13 -10 -21 -10 -8 0 -14 5 -14 10 0 6 9 10 21 10 11 0 17 -4 14 -10z m-95
-36 c0 -8 -4 -14 -9 -14 -5 0 -8 -8 -7 -17 0 -10 -4 -17 -11 -16 -6 2 -15 -6
-18 -17 -4 -11 -11 -20 -17 -20 -5 0 -7 6 -4 13 3 6 9 20 12 30 4 9 11 17 16
17 6 0 7 8 4 17 -4 9 -1 20 6 24 15 10 28 2 28 -17z m-898 -26 c-8 -8 -9 -4
-5 13 4 13 8 18 11 10 2 -7 -1 -18 -6 -23z m802 17 c-4 -8 -8 -15 -10 -15 -2
0 -4 7 -4 15 0 8 4 15 10 15 5 0 7 -7 4 -15z m-86 -13 c2 -7 -2 -10 -12 -6 -9
3 -16 11 -16 16 0 13 23 5 28 -10z m267 -40 c-3 -3 -12 -7 -20 -8 -11 -2 -12
2 -5 16 6 10 7 27 4 37 -3 10 2 5 11 -10 9 -16 14 -32 10 -35z m-313 6 c-6 -6
-7 0 -4 19 5 21 7 23 10 9 2 -10 0 -22 -6 -28z m-1134 -9 c-3 -8 -7 -3 -11 10
-4 17 -3 21 5 13 5 -5 8 -16 6 -23z m1236 25 c20 -8 21 -24 2 -24 -8 0 -16 7
-20 15 -6 17 -4 18 18 9z m-951 -22 c10 -4 24 -19 31 -34 12 -23 11 -27 -6
-42 -10 -9 -16 -21 -12 -27 3 -6 -8 -3 -25 5 -17 9 -31 21 -31 26 0 5 -12 13
-27 16 -25 7 -25 8 -8 15 12 4 14 8 6 8 -11 1 -10 6 4 21 19 21 37 24 68 12z
m141 -37 c-4 -9 0 -15 7 -15 11 0 11 -3 -1 -10 -20 -13 -33 -13 -25 0 3 6 1
10 -4 10 -18 0 -12 18 7 23 9 3 18 5 19 6 1 0 0 -6 -3 -14z m66 11 c0 -3 -4
-8 -10 -11 -5 -3 -10 -1 -10 4 0 6 5 11 10 11 6 0 10 -2 10 -4z m740 -56 c0
-16 -4 -32 -10 -35 -5 -3 -7 0 -4 8 3 10 -4 17 -21 21 -15 4 -23 11 -19 17 4
8 9 7 14 -1 6 -9 10 -6 15 9 9 29 25 17 25 -19z m110 12 c-1 -20 -23 -52 -37
-52 -6 0 -15 -10 -22 -22 -11 -23 -11 -23 -5 2 3 14 18 35 31 47 16 14 23 28
19 38 -3 9 -2 13 4 10 6 -3 10 -14 10 -23z m-510 -10 c0 -15 -19 -36 -27 -29
-4 5 -1 12 7 17 12 8 10 10 -7 10 -16 0 -21 4 -17 15 5 11 11 12 25 4 10 -5
19 -13 19 -17z m559 -36 c-9 -8 -10 -7 -5 7 3 10 7 24 7 30 1 7 3 4 6 -7 3
-10 -1 -23 -8 -30z m-1160 -27 c8 -24 15 -29 31 -24 13 4 20 2 19 -7 -1 -16
-17 -56 -18 -45 -1 5 -6 5 -11 2 -8 -5 -7 -11 0 -20 17 -20 3 -37 -20 -25 -15
8 -17 6 -13 -10 4 -16 0 -20 -18 -20 -17 0 -20 3 -12 11 6 6 9 28 6 50 -4 25
-2 39 6 39 6 0 11 7 11 15 0 8 -7 15 -15 15 -8 0 -15 7 -15 15 0 9 6 12 17 8
12 -5 15 -2 10 10 -3 9 -2 17 2 17 5 0 14 -14 20 -31z m731 -29 c0 -5 -2 -10
-4 -10 -3 0 -8 5 -11 10 -3 6 -1 10 4 10 6 0 11 -4 11 -10z m-786 -231 c-3 -5
0 -9 7 -9 7 0 9 -3 6 -6 -7 -8 -37 14 -37 27 0 5 7 6 15 3 8 -4 12 -10 9 -15z"/>
<path d="M991 3444 c0 -11 3 -14 6 -6 3 7 2 16 -1 19 -3 4 -6 -2 -5 -13z"/>
<path d="M878 3372 c-12 -15 -11 -16 5 -3 15 12 17 11 17 -8 0 -16 6 -21 24
-21 25 0 40 12 29 24 -3 3 -12 1 -20 -5 -10 -9 -13 -8 -13 4 0 22 -27 28 -42
9z"/>
<path d="M380 3681 c0 -22 13 -39 25 -34 11 4 12 9 2 24 -12 20 -27 25 -27 10z"/>
<path d="M641 3674 c0 -11 3 -14 6 -6 3 7 2 16 -1 19 -3 4 -6 -2 -5 -13z"/>
<path d="M1260 3660 c0 -5 5 -10 11 -10 5 0 7 5 4 10 -3 6 -8 10 -11 10 -2 0
-4 -4 -4 -10z"/>
<path d="M311 3634 c0 -11 3 -14 6 -6 3 7 2 16 -1 19 -3 4 -6 -2 -5 -13z"/>
<path d="M350 3644 c0 -12 21 -44 29 -44 5 0 6 11 3 25 -2 14 -11 25 -18 25
-8 0 -14 -3 -14 -6z"/>
<path d="M330 3616 c0 -9 5 -16 10 -16 6 0 10 4 10 9 0 6 -4 13 -10 16 -5 3
-10 -1 -10 -9z"/>
<path d="M397 3606 c5 -22 8 -24 25 -15 24 13 19 33 -9 37 -17 3 -20 -1 -16
-22z"/>
<path d="M52 3553 c-10 -4 -10 -8 -1 -19 15 -18 29 -18 29 0 0 18 -11 25 -28
19z"/>
<path d="M1520 3540 c0 -5 5 -10 11 -10 5 0 7 5 4 10 -3 6 -8 10 -11 10 -2 0
-4 -4 -4 -10z"/>
<path d="M2137 3465 c5 -25 3 -28 -8 -17 -16 15 -33 16 -24 1 4 -6 0 -9 -10
-7 -10 2 -20 -4 -22 -12 -4 -12 -3 -12 5 -1 19 27 22 -7 4 -50 -6 -15 -8 -37
-5 -50 l6 -24 -23 23 c-17 18 -24 21 -31 11 -9 -16 -1 -32 12 -24 5 4 9 1 9
-4 0 -6 -4 -11 -10 -11 -5 0 -10 -9 -10 -20 0 -11 5 -20 10 -20 6 0 10 4 10 9
0 15 55 23 85 11 27 -10 27 -11 9 -31 -16 -18 -16 -19 -1 -13 10 3 24 1 32 -6
20 -17 45 -5 45 21 0 15 -4 19 -15 15 -27 -10 -30 25 -4 45 26 20 26 20 -8 24
-18 2 -23 -3 -23 -22 0 -13 -4 -22 -9 -19 -5 3 -7 16 -3 29 5 21 4 21 -15 4
-23 -20 -36 -12 -22 14 5 11 6 19 1 19 -5 0 -7 11 -4 25 2 14 10 25 17 25 7 0
15 3 18 8 2 4 2 2 1 -5 -2 -6 2 -14 9 -17 7 -2 4 -5 -6 -5 -16 -1 -17 -3 -3
-16 23 -23 28 -18 24 25 -2 22 1 42 7 44 5 2 3 5 -6 5 -9 1 -23 11 -32 24 -15
22 -15 22 -10 -8z"/>
<path d="M1558 3443 c7 -3 16 -2 19 1 4 3 -2 6 -13 5 -11 0 -14 -3 -6 -6z"/>
<path d="M1095 3430 c-3 -5 -1 -10 4 -10 6 0 11 5 11 10 0 6 -2 10 -4 10 -3 0
-8 -4 -11 -10z"/>
<path d="M1970 3433 c1 -18 18 -35 24 -24 4 6 4 16 1 21 -7 12 -25 13 -25 3z"/>
<path d="M1956 3401 c-5 -8 -4 -16 5 -21 10 -7 10 -11 0 -24 -11 -14 -11 -16
4 -16 11 0 15 -5 12 -15 -4 -8 -1 -17 5 -21 6 -4 8 -3 5 3 -4 6 0 19 8 29 18
24 19 35 2 28 -8 -3 -17 7 -23 23 -7 21 -12 25 -18 14z"/>
<path d="M1917 3362 c-10 -11 -13 -22 -7 -31 4 -8 6 -20 3 -28 -3 -7 1 -13 10
-13 9 0 22 -3 31 -6 24 -9 19 12 -8 39 -18 18 -21 28 -13 36 6 6 8 13 5 16 -2
3 -12 -3 -21 -13z"/>
<path d="M1890 3309 c0 -5 5 -7 10 -4 6 3 10 8 10 11 0 2 -4 4 -10 4 -5 0 -10
-5 -10 -11z"/>
<path d="M46 3254 c-4 -10 -1 -14 6 -12 15 5 23 28 10 28 -5 0 -13 -7 -16 -16z"/>
<path d="M1070 3246 c0 -2 7 -7 16 -10 8 -3 12 -2 9 4 -6 10 -25 14 -25 6z"/>
<path d="M230 3195 c-11 -13 -10 -14 4 -9 9 3 16 10 16 15 0 13 -6 11 -20 -6z"/>
<path d="M1167 3183 c-4 -3 -7 -25 -6 -47 0 -23 3 -35 6 -28 2 6 11 12 19 12
8 0 11 -6 8 -15 -7 -18 17 -20 34 -3 10 10 15 10 21 -1 5 -7 14 -10 20 -7 6 4
9 12 6 17 -4 5 -1 9 4 9 6 0 11 4 11 9 0 5 -10 7 -22 3 -13 -3 -19 -1 -15 5 8
13 -18 37 -32 29 -5 -4 -16 1 -24 9 -17 17 -21 18 -30 8z m63 -63 c0 -5 -4
-10 -10 -10 -5 0 -10 5 -10 10 0 6 5 10 10 10 6 0 10 -4 10 -10z"/>
<path d="M2533 3135 c-56 -28 -89 -54 -156 -125 -154 -164 -255 -340 -399
-695 -27 -66 -65 -160 -84 -210 -19 -49 -39 -98 -44 -107 -6 -10 -10 -24 -10
-32 0 -8 -12 -52 -27 -98 -14 -46 -28 -91 -30 -101 -2 -10 -15 -58 -29 -105
-14 -48 -31 -114 -38 -147 -21 -98 -47 -189 -57 -201 -5 -6 -6 -13 -3 -16 6
-6 -43 -235 -53 -252 -3 -5 -7 -23 -9 -41 -1 -17 -14 -71 -27 -119 -14 -48
-23 -95 -20 -105 4 -15 24 -22 108 -35 57 -9 116 -16 132 -16 60 0 60 0 36
-240 l-6 -65 -14 58 c-21 93 -73 150 -154 168 -83 19 -164 -26 -205 -116 -30
-64 -30 -117 0 -182 25 -53 92 -113 126 -113 9 0 21 -5 27 -11 8 -8 13 -8 17
0 4 6 19 11 34 11 56 0 135 74 148 138 4 18 11 32 16 32 5 0 7 -8 4 -17 -2
-10 -8 -77 -11 -149 -4 -72 -10 -136 -14 -141 -3 -6 -42 -30 -86 -54 l-80 -44
524 -3 c413 -2 526 0 533 10 6 10 10 10 17 0 6 -10 14 -6 34 17 14 17 33 31
41 31 9 0 26 11 38 25 23 27 44 33 45 13 0 -7 2 -20 4 -28 2 -9 -2 -14 -10
-12 -18 4 -41 -17 -41 -38 0 -17 30 -18 595 -20 l595 -1 0 1403 0 1403 -153
44 c-83 24 -186 54 -227 66 -41 13 -156 46 -255 74 -99 28 -247 71 -330 96
-200 62 -195 61 -195 41 0 -9 -4 -16 -10 -16 -5 0 -10 5 -10 10 0 6 -7 10 -16
10 -9 0 -23 8 -30 17 -9 14 -30 18 -91 20 -72 3 -84 0 -150 -32z m374 -915
c-7 -17 -13 -26 -15 -21 -3 10 15 51 22 51 3 0 -1 -14 -7 -30z m270 24 c-3 -3
-12 -4 -19 -1 -8 3 -5 6 6 6 11 1 17 -2 13 -5z m97 -19 c18 -13 18 -14 -3 -12
-11 1 -21 5 -21 9 0 4 -8 5 -17 2 -15 -5 -16 -4 -3 5 19 14 21 13 44 -4z
m-382 -70 c4 -20 2 -23 -8 -14 -7 6 -10 17 -7 25 7 20 10 18 15 -11z m78 -25
c0 -5 -10 -15 -22 -21 -23 -12 -23 -12 -4 10 21 23 26 26 26 11z m-9 -133
c-10 -9 -11 -8 -5 6 3 10 9 15 12 12 3 -3 0 -11 -7 -18z m22 -12 c-3 -9 -8
-14 -10 -11 -3 3 -2 9 2 15 9 16 15 13 8 -4z m-642 -59 c10 -22 6 -34 -36
-103 -26 -43 -55 -90 -64 -106 -16 -28 -47 -44 -59 -32 -4 4 -2 10 5 12 7 2 9
11 6 19 -3 8 6 26 20 40 14 14 32 39 41 57 8 18 24 46 36 62 11 17 20 40 20
53 0 29 18 28 31 -2z m148 -83 c0 -44 -3 -61 -8 -48 -7 17 -8 53 -2 103 0 6 3
12 6 12 3 0 5 -30 4 -67z m-109 -96 c0 -2 -10 -12 -21 -23 -22 -19 -22 -19 -8
4 12 19 29 30 29 19z m-84 -131 c-28 -60 -34 -66 -32 -38 1 19 48 103 54 97 2
-2 -8 -29 -22 -59z m-119 22 c-3 -8 -6 -5 -6 6 -1 11 2 17 5 13 3 -3 4 -12 1
-19z m163 -83 c0 -8 -4 -15 -10 -15 -5 0 -7 7 -4 15 4 8 8 15 10 15 2 0 4 -7
4 -15z m-120 -65 c-8 -20 -16 -28 -23 -21 -6 6 -3 18 9 34 24 32 30 26 14 -13z
m81 7 c-10 -9 -11 -8 -5 6 3 10 9 15 12 12 3 -3 0 -11 -7 -18z m-47 -39 c-1
-26 -6 -42 -13 -40 -6 1 -11 -9 -11 -22 0 -13 -8 -30 -17 -37 -16 -13 -17 -12
-5 3 8 10 11 30 8 51 -4 25 0 40 16 60 12 15 22 27 23 27 0 0 0 -19 -1 -42z
m-133 -131 c-17 -17 -24 -1 -9 22 11 18 14 19 16 5 2 -9 -1 -21 -7 -27z m250
-322 c3 33 6 -37 7 -155 1 -175 -1 -219 -13 -234 -13 -18 -15 23 -13 350 2
306 3 336 8 174 3 -125 7 -174 11 -135z m-275 219 c-4 -13 -11 -24 -16 -24
-14 0 -12 67 3 91 11 19 12 18 15 -12 2 -17 1 -42 -2 -55z m367 -254 l4 -255
-27 -22 -27 -22 -6 77 c-3 42 -6 152 -7 243 -1 147 2 174 22 235 22 68 22 68
29 34 4 -19 9 -150 12 -290z m-360 212 c-3 -12 -9 -22 -14 -22 -12 0 -11 7 3
30 15 24 19 21 11 -8z m-354 -738 c2 -2 -10 -4 -27 -4 -17 0 -34 4 -37 10 -5
9 53 3 64 -6z m44 -11 c-7 -2 -19 -2 -25 0 -7 3 -2 5 12 5 14 0 19 -2 13 -5z
m1347 -217 c0 -6 -7 -1 -15 10 -8 10 -15 23 -15 28 0 6 7 1 15 -10 8 -10 15
-23 15 -28z m68 13 c-2 -7 -10 -4 -18 7 -9 11 -10 15 -2 10 7 -4 12 -2 13 6 0
10 2 10 6 1 2 -7 3 -18 1 -24z m-113 -1 c-4 -13 -9 -31 -11 -40 -3 -10 -11
-18 -17 -18 -8 0 -8 -3 1 -9 11 -7 11 -9 -2 -14 -9 -4 -16 -1 -16 6 0 8 -4 6
-10 -3 -8 -13 -10 -13 -10 2 0 27 19 70 38 84 25 20 34 17 27 -8z m-130 -48
c-3 -5 -12 -10 -18 -10 -7 0 -6 4 3 10 19 12 23 12 15 0z m-13 -42 c-7 -7 -12
-20 -12 -30 0 -10 -4 -18 -9 -18 -5 0 -7 10 -3 22 6 24 24 49 31 42 3 -2 -1
-10 -7 -16z m55 -2 c-8 -8 -18 -12 -21 -8 -4 3 -11 0 -16 -8 -6 -8 -10 -10
-10 -4 0 6 7 17 15 24 8 7 15 9 15 4 0 -4 5 -3 12 4 6 6 14 10 16 7 2 -2 -2
-11 -11 -19z m-71 -82 c-4 -12 -2 -15 9 -10 19 7 20 -8 1 -23 -13 -11 -46 -6
-46 7 0 7 31 42 38 42 2 0 1 -7 -2 -16z"/>
<path d="M452 3011 c-7 -4 -10 -15 -6 -25 5 -12 1 -19 -15 -23 -19 -5 -31 -25
-13 -22 18 3 26 -2 13 -10 -9 -6 -10 -11 -2 -15 6 -4 11 -2 11 4 0 6 6 8 13 4
9 -5 9 -4 0 6 -17 18 0 46 32 54 14 4 25 11 25 17 0 6 -9 9 -20 6 -10 -3 -20
-1 -22 4 -2 4 -9 5 -16 0z"/>
<path d="M1470 2995 c13 -14 26 -25 28 -25 3 0 -5 11 -18 25 -13 14 -26 25
-28 25 -3 0 5 -11 18 -25z"/>
<path d="M1081 2937 c-13 -21 -12 -21 5 -5 10 10 16 20 13 22 -3 3 -11 -5 -18
-17z"/>
<path d="M1420 2944 c0 -5 7 -18 15 -28 8 -11 15 -16 15 -10 0 5 -7 18 -15 28
-8 11 -15 16 -15 10z"/>
<path d="M1540 2946 c0 -2 7 -7 16 -10 8 -3 12 -2 9 4 -6 10 -25 14 -25 6z"/>
<path d="M380 2895 c7 -8 17 -15 22 -15 6 0 5 7 -2 15 -7 8 -17 15 -22 15 -6
0 -5 -7 2 -15z"/>
<path d="M650 433 c-24 -39 -26 -68 -8 -90 7 -9 7 -13 -1 -14 -26 -3 -30 -4
-37 -11 -4 -5 1 -8 11 -8 14 0 16 -3 8 -11 -6 -6 -9 -18 -6 -25 3 -9 -2 -14
-12 -14 -12 0 -15 -5 -11 -16 5 -13 2 -15 -15 -11 -17 5 -20 2 -16 -14 4 -15
0 -19 -23 -19 -16 0 -31 4 -35 10 -6 10 -35 2 -35 -10 0 -5 9 -6 20 -3 12 3
22 -1 26 -10 7 -19 -5 -44 -15 -29 -9 15 -77 -11 -73 -28 2 -8 4 -19 5 -25 1
-5 7 -14 14 -20 7 -5 15 -23 19 -39 6 -24 4 -28 -8 -24 -9 4 -15 0 -15 -8 0
-12 26 -14 154 -13 150 2 158 4 154 35 -1 7 11 10 28 8 25 -3 29 -1 24 14 -10
27 -25 32 -53 17 -25 -13 -26 -12 -24 13 1 15 3 29 3 31 1 2 8 -2 16 -9 15
-12 21 -4 16 23 -1 5 3 6 8 3 5 -4 11 -3 14 1 2 5 2 2 1 -4 -2 -7 3 -13 11
-13 8 0 14 3 12 8 -2 6 6 12 18 12 2 0 0 -11 -5 -24 -8 -21 -6 -24 10 -23 22
1 28 17 8 17 -9 0 -8 3 2 10 8 5 11 12 7 16 -4 4 1 12 10 19 18 13 10 35 -13
35 -17 0 -19 16 -1 23 7 4 6 6 -5 6 -11 1 -15 7 -11 24 4 18 3 19 -6 7 -9 -13
-11 -13 -11 0 0 8 -11 36 -25 62 l-25 47 28 -9 c23 -6 31 -4 40 11 12 19 7 24
-24 20 -7 -1 -9 9 -7 23 3 13 0 32 -7 43 -11 17 -11 17 -7 -3 3 -16 0 -20 -12
-17 -10 2 -23 -3 -30 -11 -8 -9 -17 -16 -22 -16 -14 0 -11 18 4 23 6 2 -1 3
-16 1 -16 -2 -26 0 -22 6 3 5 2 17 -3 26 -7 13 -13 9 -32 -23z m77 -75 c2 -17
0 -19 -7 -8 -5 8 -6 18 -4 22 8 12 10 10 11 -14z m18 -44 c6 0 14 -2 19 -2 12
-3 -14 -32 -28 -32 -6 0 -6 4 2 9 10 6 8 10 -11 15 -14 3 -27 13 -31 21 -5 13
-2 14 17 3 12 -7 27 -13 32 -14z m40 -94 c3 -5 1 -10 -4 -10 -6 0 -11 5 -11
10 0 6 2 10 4 10 3 0 8 -4 11 -10z m-48 -6 c-3 -3 -12 -4 -19 -1 -8 3 -5 6 6
6 11 1 17 -2 13 -5z m-204 -181 c-7 -2 -19 -2 -25 0 -7 3 -2 5 12 5 14 0 19
-2 13 -5z m207 -19 c0 -2 -7 -4 -15 -4 -8 0 -15 4 -15 10 0 5 7 7 15 4 8 -4
15 -8 15 -10z"/>
<path d="M835 350 c-3 -6 1 -7 9 -4 18 7 21 14 7 14 -6 0 -13 -4 -16 -10z"/>
<path d="M792 331 c4 -13 18 -16 19 -4 0 4 -5 9 -11 12 -7 2 -11 -2 -8 -8z"/>
<path d="M1315 211 c-4 -26 -10 -39 -15 -31 -4 6 -15 -28 -25 -80 -10 -50 -15
-94 -11 -97 3 -3 6 3 6 15 0 11 5 24 11 28 8 5 10 -1 7 -20 -3 -14 -1 -26 3
-26 5 0 9 12 9 28 0 15 7 67 16 115 8 49 13 94 11 100 -2 7 -7 -8 -12 -32z
m-26 -125 c-9 -8 -10 -7 -5 7 3 10 7 26 7 35 1 9 4 6 6 -7 3 -13 -1 -28 -8
-35z"/>
<path d="M1580 190 c0 -11 4 -20 9 -20 5 0 11 9 14 20 3 13 0 20 -9 20 -8 0
-14 -9 -14 -20z"/>
<path d="M426 168 c7 -10 24 -10 24 0 0 5 -7 9 -15 9 -8 0 -12 -4 -9 -9z"/>
<path d="M900 89 c0 -15 -47 -59 -64 -59 -7 0 -20 -6 -30 -13 -17 -12 -13 -14
28 -15 30 -2 45 2 41 8 -3 5 -2 10 4 10 5 0 11 -3 14 -7 2 -5 2 -2 0 5 -2 8 0
19 4 25 9 15 15 57 8 57 -3 0 -5 -5 -5 -11z"/>
<path d="M820 50 c0 -5 7 -10 16 -10 8 0 12 5 9 10 -3 6 -10 10 -16 10 -5 0
-9 -4 -9 -10z"/>
<path d="M357 24 c-8 -8 1 -24 14 -24 5 0 9 7 9 15 0 15 -12 20 -23 9z"/>
<path d="M305 10 c-16 -7 -17 -9 -3 -9 9 -1 20 4 23 9 7 11 7 11 -20 0z"/>
</g>
</svg>
