<?xml version="1.0" standalone="no"?>
<!DOCTYPE svg PUBLIC "-//W3C//DTD SVG 20010904//EN"
 "http://www.w3.org/TR/2001/REC-SVG-20010904/DTD/svg10.dtd">
<svg version="1.0" xmlns="http://www.w3.org/2000/svg"
 width="398.000000pt" height="250.000000pt" viewBox="0 0 398.000000 250.000000"
 preserveAspectRatio="xMidYMid meet">

<g transform="translate(0.000000,250.000000) scale(0.100000,-0.100000)"
fill="#000000" stroke="none">
<path d="M254 2491 c3 -4 17 -6 31 -3 14 2 31 -1 39 -7 8 -7 17 -8 20 -3 3 6
-4 12 -17 16 -33 9 -79 7 -73 -3z"/>
<path d="M220 2150 c0 -5 14 -10 30 -10 17 0 30 5 30 10 0 6 -13 10 -30 10
-16 0 -30 -4 -30 -10z"/>
<path d="M250 2123 c-33 -12 -41 -25 -24 -38 10 -6 13 -14 8 -17 -15 -9 -54
10 -54 26 0 20 -50 11 -67 -11 -11 -15 -14 -15 -30 -1 -16 14 -21 14 -48 -2
l-30 -17 -2 -1031 -3 -1032 340 0 c329 0 339 1 345 20 3 11 4 24 0 29 -3 5 0
13 6 17 6 3 138 9 294 12 282 4 282 4 298 -17 11 -16 16 -19 20 -9 3 7 6 -2 6
-19 l1 -33 126 0 126 0 -6 176 c-4 133 -2 174 7 171 9 -2 13 -53 15 -175 2
-147 5 -172 18 -172 8 0 22 7 30 15 14 13 14 15 0 15 -13 0 -16 14 -15 79 l1
80 24 -11 c15 -7 24 -20 24 -35 0 -24 25 -32 33 -10 2 6 8 9 12 5 4 -4 3 -13
-1 -20 -13 -21 -15 -46 -3 -53 6 -5 6 -12 -3 -23 -8 -10 -8 -13 -1 -9 6 4 14
1 17 -5 3 -7 4 -4 3 7 -1 12 3 19 11 17 8 -1 11 2 7 8 -3 5 -13 10 -21 10 -8
0 -14 5 -14 11 0 5 5 7 11 3 8 -4 9 0 4 15 -5 15 -2 21 10 21 9 0 14 -4 10 -9
-3 -5 -1 -12 5 -16 6 -4 7 -12 3 -18 -4 -7 0 -6 10 2 20 16 22 22 6 19 -6 -2
-13 9 -16 25 -3 19 1 27 12 27 23 0 40 -43 26 -67 -11 -22 2 -43 26 -43 7 0
13 -4 13 -10 0 -5 -8 -7 -17 -3 -15 5 -14 3 2 -10 25 -19 35 -14 27 15 -4 16
-2 19 8 13 9 -5 11 -4 6 4 -4 6 -12 8 -18 5 -8 -5 -9 3 -5 24 4 21 3 32 -5 32
-6 0 -8 3 -5 6 4 4 14 1 22 -6 13 -11 13 -15 3 -21 -10 -6 -9 -11 6 -22 13 -9
17 -21 13 -36 -4 -17 -1 -21 16 -20 12 0 16 3 10 6 -7 2 -13 9 -13 15 0 6 8 7
17 4 16 -6 16 -6 0 12 -22 24 -22 42 1 43 10 0 12 3 5 6 -15 6 -18 53 -3 53 5
0 7 -7 4 -15 -7 -16 30 -68 40 -57 4 3 4 -1 1 -11 -4 -9 0 -23 9 -32 15 -15
16 -15 16 4 0 11 -5 32 -10 46 -9 24 -8 26 6 21 14 -5 15 -4 4 9 -7 8 -17 12
-23 8 -6 -4 -8 0 -5 8 6 16 -32 57 -49 52 -6 -2 -14 1 -18 6 -3 7 0 8 9 5 9
-3 16 -1 16 5 0 6 7 8 17 4 12 -5 14 -3 8 8 -8 12 -6 12 9 0 9 -8 15 -19 12
-26 -2 -6 1 -12 7 -12 7 0 12 15 13 34 0 18 -3 33 -7 33 -4 0 -9 6 -12 14 -4
9 0 13 10 12 9 -2 22 -20 30 -40 11 -32 10 -37 -1 -33 -11 4 -12 -2 -6 -29 5
-19 14 -42 22 -51 11 -14 11 -16 0 -9 -11 7 -12 4 -3 -12 17 -31 14 -63 -4
-56 -11 5 -13 2 -9 -10 3 -9 10 -13 15 -10 5 3 9 -1 9 -8 0 -9 2 -10 8 -2 4 7
5 67 2 134 -5 133 -1 147 42 131 15 -5 30 -6 39 0 27 17 120 10 155 -12 32
-19 34 -24 34 -74 0 -40 4 -56 17 -63 11 -7 18 -25 19 -53 2 -24 3 -47 3 -51
1 -5 5 -8 11 -8 6 0 7 17 4 42 -3 24 -7 52 -7 63 -1 11 -6 23 -12 27 -5 4 6 8
25 8 23 0 30 -3 22 -9 -16 -10 -20 -90 -6 -112 6 -10 10 -5 14 19 5 35 26 45
24 12 -1 -10 5 -21 13 -24 9 -4 11 -1 7 6 -4 6 -7 23 -8 37 -1 15 -6 25 -13
23 -7 -1 -13 7 -13 18 0 11 5 20 10 20 6 0 10 -5 10 -11 0 -5 5 -7 10 -4 7 4
7 13 0 24 -8 16 -6 17 16 13 19 -3 22 -7 13 -18 -6 -8 -8 -14 -5 -14 4 0 2 -8
-3 -19 -8 -13 -6 -23 8 -37 9 -11 16 -25 13 -32 -2 -6 1 -12 7 -12 16 0 13 26
-4 40 -8 7 -15 20 -15 28 0 12 3 13 12 4 19 -19 29 -14 16 8 -17 27 0 44 34
31 13 -5 31 -6 38 -1 10 6 8 9 -6 13 -16 4 -16 5 3 6 12 0 25 -3 28 -9 3 -6 1
-10 -5 -10 -12 0 -30 -41 -23 -53 3 -4 10 -3 17 2 12 10 13 8 6 -44 0 -5 -6
-1 -13 11 -35 60 -98 111 -67 55 6 -12 8 -26 5 -31 -3 -6 -1 -10 4 -10 6 0 11
6 11 13 1 6 13 -3 29 -20 32 -38 37 -40 44 -13 3 11 12 20 21 20 19 0 40 -36
30 -52 -4 -7 -3 -8 5 -4 7 5 9 23 5 54 -6 43 -5 45 11 32 9 -7 14 -21 12 -31
-3 -12 0 -16 9 -12 8 3 14 0 14 -6 0 -6 -6 -11 -12 -11 -9 0 -8 -4 2 -10 8 -5
11 -10 5 -10 -11 0 16 -20 28 -20 4 0 7 5 7 11 0 5 -4 8 -9 5 -5 -3 -11 1 -14
9 -4 10 -1 12 10 8 17 -7 17 2 -3 144 l-6 43 92 -5 c51 -2 95 -7 98 -10 9 -9
23 -115 22 -165 0 -41 1 -43 14 -25 8 11 12 24 9 29 -3 5 0 7 8 4 16 -5 30 7
49 42 l13 24 10 -24 c5 -15 11 -20 14 -12 9 25 41 13 48 -18 6 -25 9 -29 21
-19 14 12 18 7 15 -23 -1 -10 3 -18 8 -18 6 0 11 6 11 13 0 9 2 9 9 -1 6 -11
9 -9 14 7 2 11 0 22 -7 25 -6 2 -4 5 5 5 21 1 34 -30 17 -41 -9 -5 -5 -8 11
-8 22 0 23 3 17 37 -3 21 -9 62 -12 91 l-7 52 66 0 c36 0 69 -4 72 -10 3 -5 9
-32 12 -60 6 -50 7 -51 34 -45 18 4 29 2 29 -4 0 -15 47 -14 53 2 3 6 6 0 6
-15 1 -16 -4 -28 -11 -28 -7 0 -5 -5 5 -11 10 -6 21 -8 24 -5 4 3 1 6 -5 6 -6
0 -9 6 -6 13 3 8 1 40 -5 73 -5 32 -6 62 -3 66 4 3 30 4 59 1 58 -6 55 -2 68
-110 l7 -52 100 0 c84 0 98 2 88 14 -7 9 -9 26 -5 45 4 18 2 36 -5 44 -6 8 -8
26 -4 41 9 35 19 17 28 -50 15 -102 6 -95 112 -95 l95 0 -3 87 -3 88 -55 1
c-76 1 -80 2 -74 19 11 29 -7 36 -28 10 -11 -14 -24 -22 -29 -19 -14 8 -5 29
12 29 9 0 13 9 11 23 -2 14 3 25 15 29 10 4 21 11 25 17 8 12 -9 36 -25 36 -6
0 -19 8 -30 18 -11 9 -17 11 -13 4 6 -11 -5 -12 -61 -5 -37 4 -87 8 -110 8
-23 0 -37 2 -31 6 5 4 -4 8 -20 11 -17 2 -29 1 -26 -4 3 -4 -2 -8 -10 -8 -9 0
-16 5 -16 11 0 6 -6 9 -14 6 -11 -4 -14 0 -11 16 4 21 4 21 -10 3 -8 -11 -16
-17 -16 -13 -1 4 -2 11 -3 16 0 5 -5 13 -9 18 -5 4 -7 1 -5 -7 7 -33 -212 -11
-253 26 -18 16 -19 16 -13 1 3 -10 1 -17 -5 -17 -6 0 -11 5 -11 11 0 7 -15 9
-42 5 -33 -5 -38 -4 -20 4 34 14 26 19 -15 9 -47 -11 -91 -10 -48 1 l30 8 -27
1 c-15 0 -29 5 -32 9 -6 10 -72 9 -82 -1 -4 -4 -14 -7 -23 -6 -12 0 -11 3 4 9
19 8 19 9 -2 9 -12 1 -24 5 -27 10 -3 4 -17 6 -31 3 -14 -2 -35 2 -47 10 -13
8 -54 32 -93 53 -38 21 -86 47 -105 57 -31 18 -33 18 -12 1 12 -10 48 -31 80
-48 31 -16 71 -37 87 -48 l30 -18 -30 7 c-16 4 -34 9 -39 12 -4 2 -38 5 -75 7
-55 2 -74 7 -111 32 -25 17 -128 76 -230 133 -102 57 -287 161 -413 232 -125
70 -230 128 -234 128 -10 0 64 -48 125 -81 60 -33 111 -61 177 -99 22 -13 58
-33 80 -45 22 -12 58 -32 80 -45 22 -12 60 -34 85 -48 124 -68 297 -167 315
-180 18 -13 17 -14 -15 -7 -19 4 -40 7 -47 8 -7 0 -11 4 -10 10 1 5 -11 16
-28 26 -16 9 -61 35 -100 57 -38 23 -90 53 -115 66 -76 43 -244 138 -260 148
-8 5 -31 18 -50 28 -38 20 -75 41 -158 91 -29 17 -55 31 -57 31 -6 0 -135 82
-135 86 0 2 12 -1 26 -7 22 -8 25 -7 16 4 -7 7 -14 74 -18 150 -7 134 -6 136
14 130 21 -5 21 -3 35 -213 2 -25 4 10 5 77 2 116 3 121 22 116 14 -4 20 -14
21 -37 l2 -31 6 35 c5 31 3 36 -22 47 -15 7 -43 15 -62 19 -18 3 -35 12 -37
19 -4 20 -193 -57 -192 -78 1 -8 5 -45 9 -83 6 -59 5 -66 -9 -61 -9 4 -45 14
-79 22 -34 9 -93 25 -132 35 -38 11 -96 27 -127 35 -53 15 -57 18 -54 43 2 22
18 65 42 113 2 3 -8 4 -23 1 -21 -4 -25 -2 -20 11 3 9 1 18 -6 21 -7 2 -2 5
11 5 23 1 30 15 12 26 -6 4 -7 11 -4 17 5 7 1 9 -9 5 -11 -4 -17 -1 -17 9 0 8
4 13 9 9 5 -3 12 -1 16 5 3 5 1 10 -4 10 -6 0 -10 5 -8 12 1 7 -8 13 -20 14
-13 1 -23 -3 -23 -9 0 -5 -7 -4 -15 3 -8 7 -15 19 -15 28 0 13 -3 12 -20 -3
-20 -18 -20 -18 -18 6 2 16 -2 24 -12 24 -10 0 -14 -8 -12 -27 2 -14 -3 -29
-10 -34 -7 -4 -10 -4 -6 1 4 4 -4 16 -17 27 l-25 19 26 26 c16 16 22 29 16 35
-5 5 -7 20 -5 33 6 27 43 42 43 17 0 -12 3 -13 12 -4 8 8 8 15 -2 27 -8 10
-10 19 -4 23 11 8 11 43 0 61 -9 13 -36 15 -36 2 0 -5 -10 -11 -22 -13 -18 -2
-22 -8 -20 -28 6 -39 -6 -19 -16 28 -6 24 -6 39 -1 36 5 -3 9 0 9 6 0 18 -48
30 -95 23 -38 -5 -45 -3 -45 11 0 9 -7 16 -15 16 -9 0 -15 9 -15 21 0 14 -5
19 -14 16 -16 -6 -40 16 -29 26 9 10 -1 9 -30 -2 -20 -8 -24 -7 -23 7 1 11 -5
16 -18 14 -10 -2 -15 1 -12 6 3 6 -1 12 -8 15 -8 3 -17 1 -19 -6 -3 -9 -9 -8
-22 3 -11 8 -16 10 -11 3 5 -9 2 -11 -8 -7 -9 3 -13 10 -10 15 6 10 -34 48
-50 49 -5 0 -23 16 -42 35 -18 19 -34 35 -36 34 -2 0 -10 -3 -18 -6z m107 -89
c-3 -3 -12 -4 -19 -1 -8 3 -5 6 6 6 11 1 17 -2 13 -5z m378 -187 c1 -11 -14
-27 -25 -27 -3 0 -6 9 -7 20 -1 11 2 18 8 15 5 -4 9 -1 9 6 0 16 15 2 15 -14z
m80 -65 c-3 -3 -11 0 -18 7 -9 10 -8 11 6 5 10 -3 15 -9 12 -12z m-55 -66 c0
-3 -4 -8 -10 -11 -5 -3 -10 -1 -10 4 0 6 5 11 10 11 6 0 10 -2 10 -4z m-55
-74 c-3 -3 -11 0 -18 7 -9 10 -8 11 6 5 10 -3 15 -9 12 -12z m145 -166 c0 -2
-7 -7 -16 -10 -8 -3 -12 -2 -9 4 6 10 25 14 25 6z m-11 -76 c0 -8 -5 -4 -13
10 -7 14 -10 29 -8 34 6 11 20 -20 21 -44z m-245 -1 c-3 -5 -10 -7 -15 -3 -5
3 -7 10 -3 15 3 5 10 7 15 3 5 -3 7 -10 3 -15z m186 -23 c0 -2 -7 -7 -16 -10
-8 -3 -12 -2 -9 4 6 10 25 14 25 6z m-750 -21 c0 6 5 3 10 -5 16 -25 11 -31
-10 -13 -11 10 -20 22 -20 28 0 5 5 3 10 -5 5 -8 10 -10 10 -5z m565 -15 c3
-6 -1 -7 -9 -4 -18 7 -21 14 -7 14 6 0 13 -4 16 -10z m282 -39 c-29 -10 0 -28
45 -28 21 -1 53 -10 71 -22 37 -23 52 -27 42 -11 -3 5 13 3 36 -5 22 -8 45
-12 50 -9 5 3 8 0 7 -6 -2 -9 235 -164 302 -198 8 -4 105 -61 215 -127 110
-66 208 -124 217 -130 10 -5 55 -32 100 -60 46 -27 87 -52 92 -54 5 -2 25 -15
45 -29 l36 -25 -44 6 c-24 3 -47 9 -50 14 -3 5 -37 28 -76 52 -38 24 -86 54
-105 66 -19 12 -93 58 -165 101 -71 44 -137 84 -146 89 -9 6 -36 21 -59 35
-45 26 -59 35 -100 61 -113 73 -343 209 -347 206 -2 -3 130 -87 294 -187 164
-101 314 -193 333 -205 19 -12 100 -62 180 -110 80 -48 150 -92 155 -98 16
-16 -73 1 -93 18 -9 8 -89 59 -177 114 -88 55 -238 148 -333 208 -200 125
-200 125 -284 177 -35 22 -94 59 -131 84 -38 24 -71 41 -74 38 -3 -2 19 -20
48 -38 29 -18 74 -46 100 -63 71 -45 261 -164 284 -178 10 -7 49 -31 85 -53
36 -23 160 -101 275 -174 116 -73 202 -130 192 -126 -10 3 -34 6 -52 6 -19 0
-40 6 -47 13 -13 13 -230 156 -355 234 -37 24 -132 84 -210 135 -79 51 -178
115 -220 142 -43 27 -95 60 -116 74 -20 14 -40 23 -43 20 -3 -3 40 -34 95 -69
55 -35 146 -93 201 -129 55 -36 156 -101 225 -145 242 -155 403 -260 401 -261
-6 -7 -123 22 -131 31 -11 15 -750 505 -760 505 -4 0 -13 7 -21 15 -17 17 -39
21 -29 5 4 -6 -7 -10 -24 -10 -37 0 -38 7 -7 69 23 45 27 47 58 43 25 -4 29
-7 15 -11z m-287 -25 c0 -2 3 -12 7 -22 5 -14 2 -16 -14 -12 -12 3 -27 2 -34
-3 -8 -5 -16 -3 -21 3 -4 7 3 17 15 24 22 12 47 17 47 10z m-453 -38 c-3 -8
-6 -5 -6 6 -1 11 2 17 5 13 3 -3 4 -12 1 -19z m598 -8 c6 0 2 -7 -8 -14 -9 -7
-29 -12 -43 -10 -14 1 -23 -1 -19 -4 6 -7 11 -8 37 -11 6 0 3 -7 -7 -15 -11
-8 -23 -12 -27 -10 -4 3 -30 -9 -57 -27 -46 -28 -52 -29 -67 -15 -8 9 -11 17
-5 17 22 3 26 5 46 22 11 9 23 17 28 17 4 0 19 11 34 24 15 14 30 23 35 20 4
-3 8 -1 8 5 0 5 8 8 18 6 9 -2 22 -4 27 -5z m483 -41 c37 -21 46 -23 38 -10
-7 11 30 1 57 -15 10 -6 19 -17 20 -25 2 -8 6 -20 11 -27 15 -24 2 -21 -54 14
-30 18 -64 38 -75 43 -11 5 -33 19 -50 31 -28 20 -28 21 -5 15 14 -4 40 -16
58 -26z m-1080 -13 c-8 -9 -17 -11 -24 -5 -6 5 -14 5 -19 1 -4 -4 -2 3 4 16
10 18 15 20 31 12 16 -9 18 -13 8 -24z m1125 -249 c196 -131 357 -241 357
-244 0 -9 -93 6 -100 17 -3 5 -105 76 -226 157 -456 307 -457 307 -432 314 13
3 28 3 34 0 6 -3 171 -113 367 -244z m-1203 223 c0 -5 -5 -10 -11 -10 -5 0 -7
5 -4 10 3 6 8 10 11 10 2 0 4 -4 4 -10z m1388 -47 c-3 -15 98 -77 462 -286
234 -134 436 -251 440 -254 12 -11 -77 11 -90 22 -8 7 -80 51 -160 98 -80 46
-197 114 -260 152 -63 37 -131 77 -150 88 -19 11 -48 28 -65 38 -16 10 -61 36
-100 59 -103 59 -110 65 -94 84 18 20 21 20 17 -1z m-50 -20 c15 -10 36 -23
47 -30 143 -85 459 -270 653 -384 74 -42 137 -80 140 -84 4 -4 -11 -3 -33 1
-22 4 -45 7 -52 7 -7 0 -10 4 -7 8 2 4 -96 67 -218 140 -250 148 -353 210
-415 248 -23 14 -67 42 -97 60 -31 19 -56 39 -56 43 0 12 9 10 38 -9z m422
-178 c151 -87 290 -166 308 -176 59 -35 107 -62 152 -87 143 -78 155 -87 133
-90 -12 -2 -35 6 -50 16 -26 19 -224 133 -353 205 -30 17 -77 45 -105 62 -27
18 -75 46 -105 62 -68 36 -244 138 -287 167 -43 27 -43 44 0 18 17 -11 156
-91 307 -177z m-1124 -112 c-4 -54 -6 -128 -6 -165 1 -38 -3 -68 -9 -68 -5 0
-8 26 -7 60 2 38 -1 60 -8 61 -6 0 -5 3 3 6 11 5 11 7 0 14 -11 7 -11 9 -1 9
7 0 10 5 7 11 -4 5 -1 24 6 41 10 24 10 33 1 36 -7 2 -12 17 -12 33 0 18 4 28
10 24 6 -3 10 3 10 14 0 12 3 21 6 21 3 0 3 -44 0 -97z m384 -44 c0 -8 -6 -7
-18 4 -10 10 -21 15 -24 12 -3 -3 -3 6 -1 20 l5 25 19 -24 c11 -13 19 -30 19
-37z m-420 13 c-4 -2 -6 -13 -3 -25 3 -15 2 -18 -4 -9 -5 7 -17 10 -26 6 -13
-4 -17 -1 -17 14 0 26 29 44 46 28 6 -6 8 -12 4 -14z m310 8 c0 -5 -5 -10 -11
-10 -5 0 -7 5 -4 10 3 6 8 10 11 10 2 0 4 -4 4 -10z m85 -93 c4 5 5 2 1 -5 -6
-11 -12 -10 -29 5 -20 17 -20 17 -13 -2 5 -15 4 -17 -5 -8 -19 19 0 37 20 19
10 -9 21 -13 26 -9z m555 -16 c30 -6 120 -20 200 -31 80 -11 199 -29 265 -40
66 -11 154 -24 195 -30 77 -10 148 -28 119 -29 -18 -1 -186 23 -304 44 -44 7
-143 23 -220 35 -77 12 -180 28 -228 35 -48 8 -95 11 -103 8 -9 -3 -14 1 -14
12 0 11 6 15 18 11 9 -2 42 -9 72 -15z m-771 -145 c9 -11 -1 -19 -54 -41 -35
-15 -63 -31 -61 -34 2 -3 -7 -6 -20 -6 -16 0 -22 5 -20 18 3 24 14 33 71 56
60 24 69 25 84 7z m1614 7 c-7 -2 -21 -2 -30 0 -10 3 -4 5 12 5 17 0 24 -2 18
-5z m65 -10 c-10 -2 -26 -2 -35 0 -10 3 -2 5 17 5 19 0 27 -2 18 -5z m75 -10
c-7 -2 -21 -2 -30 0 -10 3 -4 5 12 5 17 0 24 -2 18 -5z m142 -18 c45 -7 64
-13 45 -13 -19 -1 -66 5 -105 12 -91 18 -44 18 60 1z m-1848 -18 c7 -5 31 -18
54 -30 46 -24 63 -48 32 -46 -26 1 -108 54 -105 68 1 7 -2 10 -8 6 -5 -3 -18
-1 -27 4 -15 9 -13 10 12 9 17 -1 35 -6 42 -11z m1966 -4 c-7 -2 -19 -2 -25 0
-7 3 -2 5 12 5 14 0 19 -2 13 -5z m130 -20 c-7 -2 -19 -2 -25 0 -7 3 -2 5 12
5 14 0 19 -2 13 -5z m-2163 -11 c0 -5 -14 -9 -30 -9 -20 0 -26 3 -18 9 17 10
48 10 48 0z m864 -17 c-4 -8 -1 -15 5 -15 6 0 11 5 11 10 0 13 57 13 65 0 4
-6 11 -7 17 -4 5 4 23 -3 38 -14 20 -16 29 -18 33 -9 5 13 40 14 69 2 10 -4
15 -11 12 -16 -3 -5 0 -9 5 -9 6 0 11 3 11 8 0 4 11 7 25 7 26 0 33 -9 14 -21
-6 -3 -93 2 -193 12 -162 16 -182 20 -183 36 -2 19 12 24 22 8 7 -12 26 -14
24 -2 -3 16 2 22 16 22 9 0 12 -6 9 -15z m1234 -22 c-10 -2 -26 -2 -35 0 -10
3 -2 5 17 5 19 0 27 -2 18 -5z m-829 -45 c1 -5 -12 -8 -29 -8 -36 0 -37 6 -7
30 20 17 23 17 29 2 4 -9 7 -20 7 -24z m894 35 c-7 -2 -19 -2 -25 0 -7 3 -2 5
12 5 14 0 19 -2 13 -5z m-1870 -53 l52 -8 -55 0 c-47 -1 -60 3 -90 29 l-35 30
38 -22 c20 -12 61 -25 90 -29z m-353 30 c13 -9 13 -10 0 -10 -8 0 -22 5 -30
10 -13 9 -13 10 0 10 8 0 22 -5 30 -10z m1378 -2 c7 -7 12 -8 12 -2 0 5 5 2
10 -6 8 -13 10 -12 10 3 0 12 8 17 26 17 14 0 23 -4 19 -9 -6 -11 30 -8 59 4
10 4 21 4 25 -1 3 -5 26 -10 51 -10 66 -2 85 -8 88 -30 3 -19 -1 -20 -85 -12
-48 4 -115 13 -148 18 -33 6 -65 11 -72 12 -7 1 -10 5 -7 10 3 4 0 8 -5 8 -6
0 -11 -5 -11 -12 0 -6 -3 -9 -6 -5 -7 7 4 27 15 27 4 0 12 -5 19 -12z m1075
-5 c-7 -2 -21 -2 -30 0 -10 3 -4 5 12 5 17 0 24 -2 18 -5z m-2218 -13 c-3 -5
-16 -10 -28 -9 -20 1 -20 2 3 9 14 4 26 8 28 9 2 1 0 -3 -3 -9z m1475 -8 c0
-5 13 -7 29 -4 16 2 38 -1 50 -7 14 -8 21 -8 21 -1 0 7 26 8 77 5 84 -7 97
-11 86 -28 -4 -8 -1 -7 9 1 16 13 53 13 75 -1 6 -4 13 -3 15 2 2 5 25 5 58 -1
30 -5 72 -9 93 -9 20 1 37 -4 37 -10 0 -5 5 -7 11 -3 6 3 15 0 20 -7 7 -11 9
-11 9 -1 0 7 5 10 11 7 5 -4 29 -8 52 -10 23 -2 44 -4 47 -5 3 -1 8 -2 13 -1
4 1 28 -4 54 -9 32 -8 48 -8 53 0 7 12 70 -6 70 -21 0 -12 -17 -11 -150 6 -63
8 -207 21 -320 30 -113 9 -216 18 -230 20 -14 2 -55 6 -92 10 -40 4 -68 11
-68 18 0 8 -4 7 -12 -1 -18 -18 -38 -14 -38 8 0 11 5 20 10 20 6 0 10 -4 10
-8z m-1580 -11 c0 -4 -11 -6 -25 -3 -14 2 -25 6 -25 8 0 2 11 4 25 4 14 0 25
-4 25 -9z m98 -8 c-15 -2 -42 -2 -60 0 -18 2 -6 4 27 4 33 0 48 -2 33 -4z
m642 -5 c0 10 12 13 45 9 43 -4 72 -16 47 -18 -7 -1 -18 -2 -24 -3 -7 -1 -16
3 -20 9 -5 6 -8 2 -8 -8 0 -10 6 -17 13 -16 21 4 47 -13 46 -30 0 -10 -2 -11
-6 -3 -8 20 -22 14 -21 -10 2 -28 17 -50 29 -42 5 3 6 -2 3 -10 -3 -8 -14 -13
-26 -11 -14 3 -18 0 -15 -10 3 -7 0 -19 -8 -25 -12 -10 -13 -8 -10 10 2 12 7
30 10 41 4 11 2 19 -4 19 -6 0 -11 -7 -11 -16 0 -8 -5 -12 -10 -9 -6 4 -8 11
-4 16 3 6 0 10 -7 8 -35 -4 -39 2 -39 59 0 40 3 53 10 42 7 -11 10 -12 10 -2z
m2167 6 c-3 -3 -12 -4 -19 -1 -8 3 -5 6 6 6 11 1 17 -2 13 -5z m-2654 -11
c-24 -2 -62 -2 -85 0 -24 2 -5 4 42 4 47 0 66 -2 43 -4z m175 -10 c-10 -2 -26
-2 -35 0 -10 3 -2 5 17 5 19 0 27 -2 18 -5z m528 -17 c-3 -19 1 -25 19 -29 13
-2 29 1 36 7 6 6 5 1 -2 -11 -16 -27 -32 -29 -49 -8 -7 8 -17 12 -23 8 -7 -4
-8 0 -3 13 5 10 9 25 9 32 0 6 4 12 9 12 5 0 6 -11 4 -24z m-79 -8 c-3 -8 -6
-5 -6 6 -1 11 2 17 5 13 3 -3 4 -12 1 -19z m243 12 c0 -5 -2 -10 -4 -10 -3 0
-8 5 -11 10 -3 6 -1 10 4 10 6 0 11 -4 11 -10z m-210 -4 c0 -3 -4 -8 -10 -11
-5 -3 -10 -1 -10 4 0 6 5 11 10 11 6 0 10 -2 10 -4z m-45 -66 c-1 -22 -5 -44
-9 -47 -3 -4 -5 2 -4 13 2 10 -1 20 -6 21 -22 4 -24 27 -3 39 12 7 23 12 23
13 1 1 0 -17 -1 -39z m660 20 c8 -13 -5 -13 -25 0 -13 8 -13 10 2 10 9 0 20
-4 23 -10z m1023 -5 c3 -3 -9 -5 -26 -5 -17 0 -33 4 -36 9 -6 9 53 5 62 -4z
m57 -5 c4 -6 -6 -10 -22 -10 -22 0 -25 2 -13 10 19 12 27 12 35 0z m149 -16
c22 -2 42 -7 45 -10 10 -10 -143 7 -154 18 -7 6 4 7 30 3 22 -4 58 -8 79 -11z
m-1805 -24 c15 -23 15 -24 -3 -17 -14 5 -17 4 -13 -8 4 -8 1 -17 -5 -21 -6 -4
-8 -3 -4 4 3 6 -2 15 -11 21 -16 9 -16 10 -1 11 9 0 20 5 24 11 4 8 -1 9 -17
5 -13 -3 -18 -3 -11 0 6 3 9 10 6 16 -14 22 20 1 35 -22z m671 26 c0 -2 -7 -9
-15 -16 -13 -11 -14 -10 -9 4 5 14 24 23 24 12z m-43 -27 c2 -16 -1 -19 -9
-11 -5 5 -7 15 -4 21 10 15 12 14 13 -10z m221 -38 c-1 -21 -5 -28 -17 -26 -9
2 -19 4 -23 4 -4 1 -5 8 -2 16 4 8 10 12 15 9 5 -3 12 2 15 10 9 24 13 19 12
-13z m-884 -77 c3 -8 2 -12 -4 -9 -6 3 -10 10 -10 16 0 14 7 11 14 -7z m893
-7 c1 -11 1 -18 0 -16 -2 2 -8 11 -15 20 -9 12 -9 16 1 16 7 0 14 -9 14 -20z
m413 9 c0 -9 -30 -14 -35 -6 -4 6 3 10 14 10 12 0 21 -2 21 -4z"/>
<path d="M645 1179 c-4 -6 -13 -8 -19 -6 -7 3 -13 -1 -13 -8 0 -10 5 -11 18
-4 18 9 35 29 25 29 -3 0 -8 -5 -11 -11z"/>
<path d="M580 1141 c-8 -6 -18 -7 -24 -4 -5 3 -6 1 -2 -5 5 -9 13 -9 27 -2 10
6 19 13 19 15 0 7 -3 6 -20 -4z"/>
<path d="M1260 1165 c0 -6 56 -35 67 -35 13 1 -41 40 -54 40 -7 0 -13 -2 -13
-5z"/>
<path d="M1654 247 c3 -10 6 -21 6 -24 0 -3 7 0 15 7 8 7 15 18 15 24 0 6 -5
4 -10 -4 -9 -13 -11 -13 -21 0 -9 13 -10 12 -5 -3z"/>
<path d="M1657 1239 c-4 -13 -10 -18 -18 -14 -7 5 -10 3 -7 -6 3 -8 11 -13 17
-11 7 1 11 -17 11 -53 0 -30 5 -55 10 -55 12 0 14 147 1 154 -5 3 -11 -4 -14
-15z"/>
<path d="M1676 1082 c-13 -13 -4 -29 27 -46 l32 -18 -25 21 -25 20 35 -3 c20
-2 45 -8 57 -14 12 -7 30 -9 40 -6 14 5 15 4 4 -4 -11 -8 -9 -10 10 -11 47 -1
77 -6 85 -13 4 -5 1 -8 -7 -8 -11 0 -11 -2 1 -10 20 -13 33 -13 24 1 -5 8 -1
8 14 0 26 -14 35 -14 26 0 -3 6 9 3 27 -6 44 -23 50 -29 19 -21 -20 6 -22 5
-10 -4 12 -9 11 -10 -7 -5 -32 9 -29 -3 3 -16 15 -5 24 -12 21 -15 -3 -3 -25
6 -50 20 -46 28 -62 32 -52 16 9 -14 -1 -12 -35 5 -35 18 -40 29 -9 20 15 -5
19 -4 14 5 -4 6 -17 9 -28 6 -13 -3 -41 6 -75 25 -29 17 -56 29 -59 26 -3 -3
14 -15 37 -27 23 -12 40 -24 37 -26 -3 -3 -19 2 -36 11 -17 8 -31 14 -31 12 0
-5 130 -82 215 -128 33 -17 89 -49 125 -69 36 -21 94 -53 130 -72 106 -58 179
-98 287 -159 55 -31 112 -60 125 -64 22 -6 -24 22 -147 89 -33 19 -76 42 -95
53 -19 11 -110 61 -203 113 -173 96 -225 137 -70 56 48 -26 77 -37 63 -26 -24
20 -24 21 -3 15 35 -10 208 -108 196 -112 -5 -2 -42 14 -81 37 -39 22 -75 40
-79 40 -10 0 91 -60 212 -125 50 -26 130 -70 178 -98 49 -27 91 -47 94 -44 3
3 -12 14 -34 25 -73 37 -178 95 -188 105 -14 13 35 -2 60 -19 11 -8 24 -14 30
-14 5 1 -3 8 -18 16 -16 9 -26 18 -24 21 6 6 20 -1 152 -71 50 -26 79 -39 65
-27 -17 14 -20 21 -10 21 8 1 3 8 -13 16 -15 8 -25 19 -22 24 3 6 -5 15 -19
21 -14 7 -23 15 -21 20 3 4 1 10 -5 14 -6 4 -7 12 -3 18 12 19 12 36 1 44 -7
4 -8 1 -3 -7 6 -10 3 -12 -11 -7 -18 7 -18 6 -1 -7 12 -10 15 -16 7 -21 -11
-7 -42 24 -34 36 2 3 -11 5 -30 4 -22 -2 -33 1 -33 10 0 9 13 13 43 11 24 -1
41 1 38 6 -8 12 11 9 24 -4 10 -10 15 -9 27 3 14 14 7 15 -64 15 -43 -1 -77
-4 -74 -8 2 -5 0 -8 -6 -8 -20 0 -23 23 -5 34 19 11 25 12 53 15 11 1 11 4 0
19 -12 15 -12 16 2 5 9 -7 20 -9 24 -5 5 4 4 1 0 -7 -6 -11 -4 -13 7 -8 9 3
25 -1 36 -9 19 -13 21 -13 17 6 -2 11 -6 24 -9 28 -2 4 -1 14 5 22 7 12 9 10
9 -7 0 -14 5 -21 13 -18 6 3 17 -5 22 -17 7 -16 17 -22 34 -20 23 2 24 2 7
-17 -10 -11 -13 -22 -8 -25 12 -7 35 18 25 27 -3 4 1 7 10 7 9 0 15 -6 13 -12
-1 -7 -1 -10 1 -5 3 4 12 7 21 8 10 0 0 7 -22 15 -21 7 -42 12 -46 9 -17 -10
-30 26 -37 101 -4 43 -8 84 -8 89 0 6 -17 20 -38 32 l-38 22 -64 -20 c-35 -11
-66 -23 -69 -27 -2 -4 -1 -35 3 -69 4 -34 5 -60 2 -58 -3 1 -29 10 -57 18 -41
12 -51 12 -51 2 0 -7 6 -11 13 -8 6 2 15 0 18 -6 4 -6 13 -8 21 -4 19 7 16
-27 -4 -51 -11 -13 -11 -17 4 -22 13 -5 14 -9 3 -15 -16 -11 -29 -11 -26 -1 2
4 -7 17 -20 30 -13 13 -21 27 -17 30 4 4 12 -1 20 -11 11 -15 14 -15 24 -3 10
12 9 16 -6 24 -10 5 -24 7 -30 5 -7 -3 -14 0 -14 6 -1 6 -2 17 -3 24 -1 14
-26 17 -27 2 -1 -14 -20 -35 -31 -35 -6 0 -5 7 2 15 7 8 9 15 5 15 -4 0 -2 6
5 14 9 12 5 17 -29 26 -23 6 -46 8 -51 5 -6 -3 -10 -1 -10 5 0 7 -7 10 -15 6
-8 -3 -34 3 -57 14 -24 10 -59 21 -78 23 -19 2 -44 8 -55 12 -39 14 -51 17
-125 36 -41 10 -105 27 -142 38 -36 10 -69 17 -72 13z m206 -125 c15 -11 34
-17 43 -13 10 4 58 -16 123 -51 113 -59 130 -62 34 -5 -52 30 -55 35 -11 18
10 -5 16 -1 16 9 0 10 -6 14 -14 10 -8 -3 -24 0 -35 6 -19 10 -20 12 -4 21 9
5 14 13 11 19 -10 14 9 11 31 -7 10 -8 13 -13 7 -9 -7 3 -21 2 -30 -4 -14 -8
-10 -10 19 -7 20 1 47 -3 60 -11 15 -8 18 -12 8 -13 -13 0 -13 -1 0 -10 20
-13 33 -13 25 0 -3 5 0 7 8 4 8 -3 18 -1 21 5 7 11 86 4 100 -9 5 -5 -1 -8
-15 -7 -13 0 -27 6 -31 12 -5 6 -8 6 -8 -2 0 -16 31 -32 50 -26 9 3 8 0 -4 -9
-18 -14 -18 -15 -1 -22 11 -4 25 0 35 9 21 19 26 19 34 -1 5 -12 2 -15 -9 -10
-11 4 -14 2 -9 -6 5 -8 2 -9 -10 -5 -9 4 -15 3 -12 -1 3 -5 -8 -9 -25 -9 -18
0 -25 3 -17 8 9 6 8 10 -5 15 -9 3 -15 9 -12 14 2 4 -7 13 -20 20 -13 7 -22
18 -18 23 3 6 1 7 -6 3 -6 -4 -8 -12 -5 -18 4 -6 -2 -8 -17 -4 l-24 7 25 -16
25 -16 -24 7 c-16 4 -21 3 -17 -5 4 -6 13 -11 21 -11 8 0 17 -5 21 -11 4 -8
-1 -9 -17 -4 -13 3 8 -12 46 -34 39 -22 73 -40 77 -41 12 0 2 31 -13 41 -8 5
-11 9 -7 9 3 0 14 3 24 7 11 4 15 3 10 -5 -3 -6 2 -15 11 -21 17 -10 17 -10
-2 -11 -15 0 -11 -5 14 -17 19 -9 29 -19 22 -21 -6 -2 -18 2 -27 8 -8 7 -17
11 -20 8 -2 -3 17 -16 43 -28 26 -13 43 -25 37 -27 -6 -2 -64 26 -128 62 -81
45 -124 64 -137 60 -11 -4 -25 -2 -32 3 -23 19 -190 105 -184 95 4 -6 24 -19
44 -28 21 -10 33 -20 27 -22 -10 -3 -194 94 -194 104 0 8 44 -10 72 -30z m362
-92 c17 -26 12 -32 -13 -16 -16 10 -24 41 -11 41 4 0 15 -11 24 -25z m261 -7
c5 4 5 1 1 -6 -5 -9 -13 -9 -29 -1 -21 10 -21 10 -3 -5 18 -14 22 -14 43 -1
13 9 23 13 23 10 0 -11 -5 -20 -12 -18 -3 1 -11 -4 -18 -12 -9 -11 -17 -12
-30 -5 -16 9 -18 7 -15 -10 2 -12 -2 -23 -11 -27 -12 -4 -12 -7 3 -19 22 -16
10 -18 -19 -3 -15 8 -19 8 -14 0 4 -6 1 -11 -6 -11 -7 -1 0 -8 15 -16 16 -9
26 -18 24 -21 -8 -7 -67 29 -61 38 2 5 -5 13 -16 19 -11 6 -18 15 -15 20 3 5
-3 13 -12 19 -14 8 -15 10 -3 10 20 0 59 -29 39 -29 -10 -1 -10 -3 3 -11 12
-7 24 -6 40 2 21 11 21 12 2 27 -13 10 -14 13 -3 9 11 -4 15 1 14 16 -2 27 13
39 36 27 9 -5 20 -6 24 -2z m-100 -16 c-3 -3 -11 0 -18 7 -9 10 -8 11 6 5 10
-3 15 -9 12 -12z m-125 -15 c14 0 19 -2 12 -4 -10 -4 -8 -9 5 -19 31 -24 0
-14 -42 12 -22 15 -31 23 -20 18 11 -4 31 -7 45 -7z m227 -29 l-28 -21 26 -17
c15 -10 27 -21 28 -26 1 -5 9 -8 17 -7 19 2 52 -16 46 -26 -3 -4 7 -14 21 -20
22 -10 24 -14 12 -22 -18 -12 -32 -12 -24 0 3 6 -4 15 -15 21 -11 6 -19 16
-17 22 1 6 -5 13 -13 15 -13 4 -13 3 0 -6 13 -9 13 -11 1 -11 -11 0 -9 -4 5
-15 24 -18 7 -19 -26 0 -15 9 -19 14 -10 15 9 0 2 9 -15 20 -17 11 -24 20 -15
20 8 1 2 8 -14 16 -20 12 -25 18 -16 24 7 4 9 13 5 21 -6 9 -4 11 8 6 9 -3 19
-2 22 3 4 6 12 10 18 10 7 0 -1 -10 -16 -22z m-23 -59 c-2 -4 5 -13 16 -19 11
-6 18 -15 15 -20 -8 -13 50 -41 72 -34 13 4 15 3 5 -4 -11 -7 -10 -10 3 -16 9
-3 21 -4 26 -1 5 3 21 -1 36 -9 33 -18 26 -20 -14 -6 -26 9 -27 9 -9 -5 11 -8
25 -15 30 -15 6 0 20 -8 31 -16 20 -16 20 -16 -3 -9 -13 4 -55 25 -94 47 -38
21 -76 37 -85 34 -8 -3 -32 3 -54 14 -40 21 -53 36 -21 26 9 -3 23 -2 31 3 11
7 8 12 -14 23 l-27 15 31 0 c16 0 28 -4 25 -8z m-63 -50 c23 -11 39 -23 36
-26 -6 -6 -75 26 -83 38 -8 14 3 11 47 -12z"/>
<path d="M2105 930 c3 -6 0 -10 -7 -10 -15 -1 51 -39 67 -39 6 0 -3 7 -18 15
-15 8 -25 19 -22 23 3 5 -2 12 -11 15 -8 3 -12 2 -9 -4z"/>
<path d="M2125 875 c39 -24 55 -30 55 -20 0 6 -76 45 -87 45 -4 0 10 -12 32
-25z"/>
<path d="M2472 702 c-9 -6 -5 -12 15 -20 25 -11 26 -11 10 2 -18 14 -18 14 0
19 12 3 13 5 3 6 -8 0 -21 -3 -28 -7z"/>
<path d="M1835 1010 c3 -5 11 -10 16 -10 6 0 7 5 4 10 -3 6 -11 10 -16 10 -6
0 -7 -4 -4 -10z"/>
<path d="M3288 977 c-7 -8 -18 -12 -24 -10 -17 6 -27 -59 -12 -69 10 -6 8 -12
-6 -23 -11 -8 -16 -15 -10 -15 5 0 16 -4 23 -9 12 -8 11 -13 -10 -30 -13 -11
-31 -21 -39 -21 -8 -1 -4 -6 9 -11 l25 -10 -22 -15 c-12 -8 -27 -12 -32 -9 -6
3 -10 1 -10 -6 0 -7 -7 -20 -16 -30 -14 -16 -14 -18 6 -24 l22 -7 -22 -23
c-22 -23 -22 -23 -2 -34 31 -16 41 -13 12 4 -30 17 -21 20 14 4 14 -7 23 -16
20 -20 -3 -5 0 -9 6 -9 6 0 8 -5 4 -12 -4 -7 -3 -8 5 -4 6 4 9 12 6 17 -10 16
5 10 27 -11 24 -22 43 -27 32 -7 -4 6 4 3 17 -9 35 -30 170 -96 186 -90 7 3
12 0 10 -6 -1 -6 26 -23 61 -39 47 -21 62 -25 62 -14 0 8 9 19 20 25 26 14 26
36 -1 43 -17 5 -20 11 -15 32 6 24 5 25 -15 15 -15 -8 -19 -9 -15 -1 4 6 3 11
-2 11 -5 0 -8 10 -8 21 1 12 -5 24 -12 26 -7 3 -10 -1 -6 -10 7 -19 -28 -28
-44 -10 -10 10 -10 13 3 13 9 0 13 5 10 10 -3 6 -1 10 4 10 6 0 11 12 10 28 0
18 -3 22 -7 12 -4 -8 -11 -16 -17 -17 -12 -2 -13 56 -2 75 10 15 -5 16 -20 1
-6 -6 -16 -8 -22 -5 -18 12 -12 26 10 26 15 0 19 5 15 16 -3 8 -2 12 4 9 6 -3
10 4 10 17 0 13 -4 19 -8 13 -23 -31 -39 -35 -62 -15 -16 14 -20 24 -13 32 12
17 14 56 3 63 -5 3 -11 1 -15 -5 -12 -19 -31 -10 -33 17 -3 38 -20 52 -36 31
-18 -24 -26 -23 -26 5 0 15 3 18 9 9 6 -10 10 -10 19 1 9 11 8 19 -7 35 -21
25 -53 28 -73 9z m26 -92 c-4 -8 -8 -15 -10 -15 -2 0 -4 7 -4 15 0 8 4 15 10
15 5 0 7 -7 4 -15z m60 -30 c-4 -8 -9 -15 -13 -15 -4 0 -8 7 -8 15 0 8 6 15
13 15 8 0 11 -6 8 -15z m-99 -45 c3 -6 -1 -7 -9 -4 -18 7 -21 14 -7 14 6 0 13
-4 16 -10z m20 -30 c3 -5 1 -10 -4 -10 -6 0 -11 5 -11 10 0 6 2 10 4 10 3 0 8
-4 11 -10z m110 -18 c-2 -9 -4 -19 -4 -21 -1 -2 -8 2 -16 9 -11 9 -12 15 -2
25 15 16 26 10 22 -13z m-125 -36 c0 -9 -39 -13 -51 -5 -10 6 -4 9 19 9 17 0
32 -2 32 -4z m127 -12 c-3 -3 -12 -4 -19 -1 -8 3 -5 6 6 6 11 1 17 -2 13 -5z
m63 -4 c0 -5 -5 -10 -11 -10 -5 0 -7 5 -4 10 3 6 8 10 11 10 2 0 4 -4 4 -10z
m36 -63 c-5 -52 -14 -65 -44 -59 -25 4 -26 3 -8 -10 13 -11 16 -17 7 -22 -15
-10 -41 17 -41 42 0 20 25 37 39 27 5 -2 8 9 9 25 1 40 10 54 27 40 7 -6 12
-25 11 -43z m-142 35 c3 -5 -1 -9 -9 -9 -8 0 -12 4 -9 9 3 4 7 8 9 8 2 0 6 -4
9 -8z m181 -210 c-3 -3 -11 0 -18 7 -9 10 -8 11 6 5 10 -3 15 -9 12 -12z"/>
<path d="M1954 968 c9 -5 23 -5 32 0 12 6 7 9 -16 9 -23 0 -28 -3 -16 -9z"/>
<path d="M2575 800 c-2 -3 5 -6 15 -7 11 -1 22 2 24 5 3 4 -4 8 -15 8 -11 0
-22 -3 -24 -6z"/>
<path d="M2863 755 c0 -7 7 -12 16 -11 9 1 15 -5 13 -14 -3 -12 -1 -12 9 -3 9
9 18 9 33 1 13 -6 17 -7 11 0 -5 6 -26 17 -46 25 -27 11 -36 12 -36 2z"/>
<path d="M2773 735 c0 -8 4 -12 9 -9 5 3 6 10 3 15 -9 13 -12 11 -12 -6z"/>
<path d="M2811 736 c-8 -10 -9 -16 -1 -21 5 -3 10 -5 11 -3 4 18 7 38 4 38 -1
0 -8 -6 -14 -14z"/>
<path d="M2693 725 c0 -6 8 -11 17 -11 9 0 17 5 17 11 0 6 -8 11 -17 11 -9 0
-17 -5 -17 -11z"/>
<path d="M2749 738 c-4 -10 -5 -67 -1 -63 6 6 11 65 5 65 -2 0 -4 -1 -4 -2z"/>
<path d="M2972 717 c14 -11 15 -16 5 -27 -10 -12 -9 -12 5 -1 10 7 23 9 30 5
7 -5 18 -9 23 -10 6 -1 19 -5 30 -10 47 -17 -4 14 -55 34 -30 12 -47 16 -38 9z"/>
<path d="M2846 710 c5 -8 9 -19 9 -25 0 -5 10 -9 23 -9 12 0 22 4 23 9 0 6 6
17 12 25 6 8 2 6 -11 -4 -22 -19 -22 -19 -44 0 -13 11 -18 13 -12 4z"/>
<path d="M2675 689 c6 -9 3 -11 -11 -6 -18 7 -18 6 -2 -6 10 -8 14 -18 10 -22
-4 -5 -1 -5 6 -1 7 4 9 12 6 18 -5 7 -1 9 9 5 24 -9 21 0 -4 14 -17 9 -20 8
-14 -2z"/>
<path d="M2773 687 c0 -7 9 -13 19 -13 10 0 18 1 18 3 0 1 -8 7 -18 12 -13 7
-19 6 -19 -2z"/>
<path d="M2983 668 c-11 -19 -13 -39 -1 -32 5 3 7 9 4 12 -3 3 -1 11 5 19 6 7
9 13 6 13 -3 0 -9 -6 -14 -12z"/>
<path d="M2757 646 c4 -5 -2 -7 -13 -3 -18 7 -18 6 -2 -6 10 -8 15 -17 12 -20
-3 -3 5 -10 18 -17 19 -9 21 -9 8 2 -20 17 -25 42 -7 35 7 -3 14 0 14 7 0 6
-8 12 -18 12 -10 0 -15 -5 -12 -10z"/>
<path d="M2704 636 c15 -12 16 -16 5 -16 -8 -1 -1 -8 14 -16 15 -8 25 -19 22
-24 -3 -5 4 -14 16 -20 15 -8 19 -9 15 -1 -11 16 16 13 39 -6 20 -15 20 -15
-3 -10 -13 3 -20 1 -16 -5 4 -6 -2 -8 -17 -4 -16 5 -10 -2 16 -18 22 -14 45
-26 50 -26 6 1 -3 8 -20 17 -16 9 -24 18 -18 20 7 3 23 -3 35 -11 12 -9 27
-16 33 -16 5 1 -3 8 -19 16 -19 11 -25 19 -17 23 7 5 3 12 -14 19 -14 7 -23
17 -20 22 3 5 -1 7 -9 4 -17 -7 -77 26 -70 37 2 5 -6 13 -18 19 -22 11 -22 10
-4 -4z"/>
<path d="M2805 641 c3 -2 0 -10 -6 -17 -8 -9 -4 -15 13 -24 21 -10 21 -10 5 3
-16 14 -16 15 4 29 21 14 21 14 1 14 -12 0 -19 -2 -17 -5z"/>
<path d="M2886 642 c-2 -4 4 -8 14 -8 10 0 16 4 14 8 -3 4 -9 8 -14 8 -5 0
-11 -4 -14 -8z"/>
<path d="M3006 642 c-3 -5 1 -9 9 -9 8 0 12 4 9 9 -3 4 -7 8 -9 8 -2 0 -6 -4
-9 -8z"/>
<path d="M3570 639 c0 -5 5 -7 10 -4 6 3 10 8 10 11 0 2 -4 4 -10 4 -5 0 -10
-5 -10 -11z"/>
<path d="M2863 605 c0 -6 8 -11 17 -11 9 0 17 5 17 11 0 6 -8 11 -17 11 -9 0
-17 -5 -17 -11z"/>
<path d="M2913 594 c0 -7 6 -10 12 -7 7 2 15 -3 19 -13 4 -11 2 -15 -7 -11 -8
3 -14 0 -14 -7 0 -6 8 -12 18 -12 12 0 16 6 12 21 -2 11 -5 25 -5 30 -2 15
-35 13 -35 -1z"/>
<path d="M2966 602 c-2 -4 4 -8 14 -8 10 0 16 4 14 8 -3 4 -9 8 -14 8 -5 0
-11 -4 -14 -8z"/>
<path d="M3610 589 c0 -5 5 -7 10 -4 6 3 10 8 10 11 0 2 -4 4 -10 4 -5 0 -10
-5 -10 -11z"/>
<path d="M2835 581 c-3 -5 -2 -12 3 -15 5 -3 9 1 9 9 0 17 -3 19 -12 6z"/>
<path d="M2990 563 c0 -1 8 -7 18 -12 13 -7 19 -6 19 2 0 7 -9 13 -19 13 -10
0 -18 -1 -18 -3z"/>
<path d="M3126 558 c3 -5 10 -6 15 -3 13 9 11 12 -6 12 -8 0 -12 -4 -9 -9z"/>
<path d="M2863 545 c0 -7 6 -11 14 -8 7 3 13 6 13 8 0 2 -6 5 -13 8 -8 3 -14
-1 -14 -8z"/>
<path d="M2932 517 c10 -8 15 -17 12 -20 -3 -3 5 -10 18 -17 20 -10 21 -10 6
3 -10 8 -15 17 -12 20 3 3 -5 10 -18 17 -20 10 -21 10 -6 -3z"/>
<path d="M2984 504 c1 -9 11 -21 22 -26 18 -9 18 -8 2 5 -10 8 -15 16 -12 19
3 4 1 9 -4 12 -6 3 -9 -1 -8 -10z"/>
<path d="M3056 507 c4 -10 16 -22 28 -29 18 -9 19 -8 6 3 -8 8 -20 21 -27 29
-11 13 -12 13 -7 -3z"/>
<path d="M2890 496 c0 -3 9 -10 20 -16 11 -6 20 -8 20 -6 0 3 -9 10 -20 16
-11 6 -20 8 -20 6z"/>
<path d="M3113 477 c0 -7 9 -13 19 -13 10 0 18 1 18 3 0 1 -8 7 -18 12 -13 7
-19 6 -19 -2z"/>
<path d="M3196 451 c-3 -5 5 -16 19 -25 31 -21 45 -21 19 0 -17 14 -17 15 -1
10 11 -4 16 -2 12 5 -4 5 -16 7 -27 3 -14 -4 -18 -2 -14 5 4 6 5 11 2 11 -3 0
-7 -4 -10 -9z"/>
<path d="M3673 447 c4 -11 1 -17 -8 -17 -7 0 -17 -5 -21 -12 -4 -6 -3 -8 4 -4
5 3 12 3 14 -2 4 -10 79 -56 95 -58 6 -1 9 4 6 12 -3 8 -11 14 -18 14 -7 0
-12 8 -11 17 1 12 -7 17 -24 18 -18 0 -24 5 -22 17 1 9 -3 20 -9 24 -9 5 -10
2 -6 -9z"/>
<path d="M3263 437 c0 -7 9 -13 19 -13 10 0 18 1 18 3 0 1 -8 7 -18 12 -13 7
-19 6 -19 -2z"/>
<path d="M3436 442 c-3 -5 1 -9 9 -9 8 0 12 4 9 9 -3 4 -7 8 -9 8 -2 0 -6 -4
-9 -8z"/>
<path d="M3278 403 c7 -3 16 -2 19 1 4 3 -2 6 -13 5 -11 0 -14 -3 -6 -6z"/>
<path d="M3328 393 c6 -2 18 -2 25 0 6 3 1 5 -13 5 -14 0 -19 -2 -12 -5z"/>
<path d="M2210 260 c0 -5 5 -10 11 -10 5 0 7 5 4 10 -3 6 -8 10 -11 10 -2 0
-4 -4 -4 -10z"/>
<path d="M2060 138 c0 -3 6 -9 13 -11 7 -3 4 -6 -7 -6 -14 -1 -17 -6 -12 -23
4 -13 10 -40 13 -60 l6 -38 58 0 c52 0 58 2 62 22 l4 23 2 -22 c1 -17 7 -23
26 -23 23 0 25 4 24 43 -1 23 -4 55 -8 70 -6 28 -6 28 -94 30 -48 1 -87 -1
-87 -5z"/>
<path d="M2500 126 c0 -2 8 -10 18 -17 15 -13 16 -12 3 4 -13 16 -21 21 -21
13z"/>
<path d="M2740 63 c5 -57 6 -58 38 -61 31 -3 32 -2 33 35 l2 38 6 -35 c5 -27
11 -36 30 -38 23 -4 23 -2 16 50 -4 29 -9 56 -12 61 -2 4 -30 7 -61 7 l-57 0
5 -57z m97 -40 c-3 -10 -5 -5 -5 12 0 17 2 24 5 18 2 -7 2 -21 0 -30z"/>
<path d="M1656 101 c-3 -5 1 -11 9 -15 15 -6 29 7 18 18 -9 9 -21 8 -27 -3z"/>
<path d="M3210 51 c0 -47 2 -51 23 -51 21 0 23 4 20 32 -3 25 -2 30 6 18 6 -8
11 -23 11 -32 0 -11 8 -18 20 -18 23 0 23 2 9 53 -8 29 -15 37 -34 37 -13 0
-30 3 -39 6 -13 5 -16 -2 -16 -45z"/>
<path d="M2290 70 c0 -19 3 -21 12 -12 9 9 9 15 0 24 -9 9 -12 7 -12 -12z"/>
<path d="M3468 35 c4 -33 6 -35 44 -35 33 0 39 3 34 16 -3 9 -6 24 -6 35 0 15
-7 19 -38 19 -38 0 -38 0 -34 -35z"/>
<path d="M3345 51 c-3 -6 -3 -11 2 -11 4 0 2 -4 -6 -9 -8 -5 -9 -11 -3 -15 6
-3 14 3 17 15 8 23 1 36 -10 20z"/>
<path d="M3390 31 c0 -6 4 -13 10 -16 6 -3 7 1 4 9 -7 18 -14 21 -14 7z"/>
<path d="M3360 14 c0 -8 5 -12 10 -9 6 3 10 10 10 16 0 5 -4 9 -10 9 -5 0 -10
-7 -10 -16z"/>
</g>
</svg>
