<?xml version="1.0" standalone="no"?>
<!DOCTYPE svg PUBLIC "-//W3C//DTD SVG 20010904//EN"
 "http://www.w3.org/TR/2001/REC-SVG-20010904/DTD/svg10.dtd">
<svg version="1.0" xmlns="http://www.w3.org/2000/svg"
 width="400.000000pt" height="482.000000pt" viewBox="0 0 400.000000 482.000000"
 preserveAspectRatio="xMidYMid meet">

<g transform="translate(0.000000,482.000000) scale(0.100000,-0.100000)"
fill="#000000" stroke="none">
<path d="M0 2410 l0 -2410 2000 0 2000 0 0 2410 0 2410 -139 0 c-111 0 -141
-3 -151 -15 -7 -8 -18 -15 -24 -14 -7 0 -6 2 2 6 44 18 -17 23 -269 23 -184 0
-278 -3 -274 -10 8 -13 -21 -13 -45 0 -14 7 -19 5 -23 -10 -5 -21 -37 -28 -37
-9 0 5 4 8 9 5 5 -3 11 1 15 9 4 12 -6 15 -55 15 -37 0 -58 -4 -54 -10 4 -7
-3 -7 -20 0 -37 14 -68 13 -59 -2 6 -10 4 -10 -7 0 -8 7 -41 12 -86 12 -63 0
-73 -2 -73 -17 -1 -16 -2 -16 -17 2 -13 16 -15 17 -10 3 4 -10 2 -18 -3 -18
-6 0 -10 6 -10 14 0 12 -55 15 -357 16 -319 1 -355 -1 -343 -15 7 -8 8 -15 2
-15 -5 0 -12 7 -16 15 -8 21 -102 21 -113 0 -7 -13 -12 -13 -38 1 -21 11 -59
15 -144 13 -101 -1 -119 -4 -138 -21 -16 -15 -29 -18 -52 -13 -17 4 -31 13
-31 21 0 17 -17 19 -23 2 -4 -10 -6 -10 -6 0 -1 8 -22 12 -71 12 -69 0 -75 -3
-71 -37 1 -8 -5 -10 -14 -7 -9 4 -14 13 -11 20 3 7 0 16 -6 20 -7 4 -8 3 -4
-4 4 -7 2 -12 -3 -12 -6 0 -11 5 -11 10 0 7 -203 10 -610 10 l-610 -1 0 -2409z
m1203 2367 c-5 -8 -8 -7 -11 1 -2 7 -8 10 -13 6 -10 -6 -12 9 -2 19 10 10 34
-14 26 -26z m352 23 c3 -5 1 -10 -4 -10 -6 0 -11 5 -11 10 0 6 2 10 4 10 3 0
8 -4 11 -10z m330 0 c3 -5 1 -10 -4 -10 -6 0 -11 5 -11 10 0 6 2 10 4 10 3 0
8 -4 11 -10z m-427 -52 c3 -25 1 -27 -19 -20 -31 12 -36 50 -6 48 16 -1 23 -8
25 -28z m2198 19 c4 -3 -4 -4 -16 -2 -12 2 -25 7 -28 10 -3 3 4 4 16 2 12 -2
24 -6 28 -10z m-3596 -29 c11 -22 10 -22 -4 -4 -15 19 -16 18 -16 -18 0 -30 3
-37 15 -32 8 3 15 1 15 -3 0 -18 -29 -19 -44 -2 -16 18 -22 62 -9 74 13 14 33
7 43 -15z m112 12 c2 -5 15 -11 31 -12 15 -1 27 -6 27 -11 0 -4 10 -7 23 -5
14 2 22 -2 22 -12 0 -8 -6 -14 -14 -12 -8 2 -11 -3 -8 -13 8 -20 -3 -19 -19 3
-12 16 -14 16 -27 -2 -16 -21 -57 -32 -57 -15 0 5 4 8 9 5 4 -3 17 1 27 9 16
12 17 14 2 15 -16 0 -45 60 -28 60 4 0 10 -4 12 -10z m1194 -17 c-10 -10 -19
5 -10 18 6 11 8 11 12 0 2 -7 1 -15 -2 -18z m2621 5 c-3 -8 -6 -5 -6 6 -1 11
2 17 5 13 3 -3 4 -12 1 -19z m-3860 -23 c-8 -18 -28 -20 -24 -2 2 13 19 28 25
22 3 -2 2 -11 -1 -20z m1108 7 c-3 -3 -11 0 -18 7 -9 10 -8 11 6 5 10 -3 15
-9 12 -12z m2170 8 c3 -5 1 -10 -4 -10 -6 0 -11 5 -11 10 0 6 2 10 4 10 3 0 8
-4 11 -10z m-3045 -10 c0 -5 -4 -10 -9 -10 -6 0 -13 5 -16 10 -3 6 1 10 9 10
9 0 16 -4 16 -10z m2763 -33 c7 4 6 -1 -2 -10 -7 -9 -11 -26 -8 -36 3 -13 -1
-21 -14 -24 -22 -6 -25 3 -6 22 10 10 9 11 -5 6 -13 -5 -18 -2 -18 11 0 9 8
26 18 37 15 17 17 17 20 3 2 -9 8 -13 15 -9z m-1163 3 c0 -5 -5 -10 -11 -10
-5 0 -7 5 -4 10 3 6 8 10 11 10 2 0 4 -4 4 -10z m-1825 -10 c3 -5 1 -10 -4
-10 -6 0 -11 5 -11 10 0 6 2 10 4 10 3 0 8 -4 11 -10z m663 -21 c-3 -8 -7 -3
-11 10 -4 17 -3 21 5 13 5 -5 8 -16 6 -23z m217 21 c3 -5 1 -10 -4 -10 -6 0
-11 5 -11 10 0 6 2 10 4 10 3 0 8 -4 11 -10z m2845 -30 c0 -5 -5 -10 -11 -10
-5 0 -7 5 -4 10 3 6 8 10 11 10 2 0 4 -4 4 -10z m-2457 -7 c-7 -2 -21 -2 -30
0 -10 3 -4 5 12 5 17 0 24 -2 18 -5z m541 -33 c28 -43 32 -65 15 -76 -8 -4 -9
0 -4 15 7 23 -4 28 -23 9 -7 -7 -12 -10 -12 -7 -6 53 -9 99 -6 99 2 0 15 -18
30 -40z m-1689 20 c3 -5 1 -10 -4 -10 -6 0 -11 5 -11 10 0 6 2 10 4 10 3 0 8
-4 11 -10z m586 -7 c12 -15 12 -16 -3 -10 -14 5 -18 1 -19 -16 0 -12 -3 -16
-6 -9 -2 6 -9 10 -14 6 -13 -8 -11 15 4 31 16 19 22 18 38 -2z m-201 -33 c25
-22 41 -40 35 -40 -5 0 -30 18 -55 40 -25 22 -40 39 -35 39 6 0 30 -18 55 -39z
m523 19 c-3 -10 -12 -20 -21 -24 -13 -5 -14 -3 -5 6 6 6 9 17 7 24 -3 6 1 12
9 12 9 0 12 -7 10 -18z m1552 11 c3 -5 1 -10 -4 -10 -6 0 -11 5 -11 10 0 6 2
10 4 10 3 0 8 -4 11 -10z m1205 0 c0 -5 -6 -10 -14 -10 -8 0 -18 5 -21 10 -3
6 3 10 14 10 12 0 21 -4 21 -10z m-203 -6 c-3 -3 -12 -4 -19 -1 -8 3 -5 6 6 6
11 1 17 -2 13 -5z m-3607 -13 c0 -5 -9 -7 -20 -4 -11 3 -20 7 -20 9 0 2 9 4
20 4 11 0 20 -4 20 -9z m1365 -14 c0 -8 4 -19 8 -23 4 -4 7 -12 7 -18 0 -5 -9
0 -20 12 -22 23 -27 56 -7 49 6 -2 12 -11 12 -20z m2380 13 c3 -5 2 -10 -4
-10 -5 0 -13 5 -16 10 -3 6 -2 10 4 10 5 0 13 -4 16 -10z m-71 -31 c-10 -16
-24 -9 -24 12 0 18 2 19 15 9 8 -7 12 -16 9 -21z m-3163 -16 c10 -12 5 -11
-18 6 -18 12 -33 24 -33 27 0 9 37 -15 51 -33z m683 21 c5 -14 4 -15 -9 -4
-17 14 -19 20 -6 20 5 0 12 -7 15 -16z m132 0 c2 -21 17 -44 25 -38 5 3 6 -1
3 -9 -8 -21 12 -30 28 -14 22 22 48 28 48 11 0 -8 -6 -14 -14 -12 -8 2 -15 -1
-14 -6 0 -5 -6 -13 -14 -17 -11 -8 -11 -10 0 -18 11 -6 10 -10 -3 -15 -9 -3
-22 -3 -27 1 -6 3 -8 1 -4 -5 9 -15 -4 -20 -34 -13 l-24 7 22 22 c16 16 18 22
7 22 -8 0 -15 5 -15 10 0 6 5 10 10 10 15 0 12 36 -5 50 -8 7 -15 17 -15 22 0
12 25 5 26 -8z m88 0 c3 -8 2 -12 -4 -9 -6 3 -10 10 -10 16 0 14 7 11 14 -7z
m-1279 -32 c-8 -8 -25 10 -25 26 0 13 2 13 14 -4 8 -10 13 -21 11 -22z m3685
28 c0 -5 7 -10 15 -10 8 0 15 -4 15 -9 0 -5 -15 -5 -35 1 -19 6 -32 15 -29 20
7 11 34 10 34 -2z m-3493 -32 c-3 -8 -6 -5 -6 6 -1 11 2 17 5 13 3 -3 4 -12 1
-19z m753 12 c22 -14 7 -21 -30 -13 -29 5 -31 7 -15 14 27 10 28 10 45 -1z
m2640 0 c0 -5 -9 -10 -20 -10 -11 0 -20 5 -20 10 0 6 9 10 20 10 11 0 20 -4
20 -10z m160 -36 c0 -13 -5 -24 -11 -24 -5 0 -7 5 -4 10 3 6 -1 10 -9 10 -19
0 -20 6 -3 24 16 18 27 10 27 -20z m-3876 -16 c-3 -5 -13 -1 -22 8 -10 11 -17
13 -20 5 -6 -17 -62 -14 -62 3 0 9 7 13 20 11 11 -2 22 0 25 5 3 5 18 1 34 -8
16 -9 27 -20 25 -24z m273 5 c-3 -10 -5 -4 -5 12 0 17 2 24 5 18 2 -7 2 -21 0
-30z m710 21 c-3 -3 -12 -4 -19 -1 -8 3 -5 6 6 6 11 1 17 -2 13 -5z m53 2 c0
-11 -19 -15 -25 -6 -3 5 1 10 9 10 9 0 16 -2 16 -4z m107 -2 c-3 -3 -12 -4
-19 -1 -8 3 -5 6 6 6 11 1 17 -2 13 -5z m53 -3 c0 -17 -18 -21 -24 -6 -3 9 0
15 9 15 8 0 15 -4 15 -9z m2038 1 c10 -7 8 -13 -7 -30 -17 -21 -19 -21 -32 -5
-10 11 -10 14 -1 9 11 -6 17 5 13 27 -1 9 11 9 27 -1z m484 -7 c17 -22 8 -51
-15 -53 -22 -1 -31 8 -54 59 -5 11 61 5 69 -6z m-3392 -17 c0 -12 -3 -18 -7
-14 -11 10 -12 36 -2 36 5 0 9 -10 9 -22z m485 -16 c1 -10 -5 -19 -12 -19 -17
0 -17 27 0 28 10 0 10 2 0 6 -7 2 -13 10 -13 16 0 19 24 -10 25 -31z m1035 34
c0 -3 -4 -8 -10 -11 -5 -3 -10 -1 -10 4 0 6 5 11 10 11 6 0 10 -2 10 -4z
m1950 -6 c0 -5 -5 -10 -11 -10 -5 0 -7 5 -4 10 3 6 8 10 11 10 2 0 4 -4 4 -10z
m-3340 -10 c0 -12 -41 -30 -52 -23 -14 8 -8 23 6 17 8 -3 17 -1 21 5 8 14 25
14 25 1z m395 0 c3 -6 -1 -7 -9 -4 -18 7 -21 14 -7 14 6 0 13 -4 16 -10z m135
0 c0 -5 -7 -7 -15 -4 -8 4 -15 8 -15 10 0 2 7 4 15 4 8 0 15 -4 15 -10z m2295
-10 c3 -6 -1 -7 -9 -4 -18 7 -21 14 -7 14 6 0 13 -4 16 -10z m-2219 -7 c-10
-11 -37 -12 -30 -2 3 5 12 9 21 9 9 0 13 -3 9 -7z m2714 -13 c0 -5 -9 -8 -19
-7 -15 1 -17 4 -9 14 11 13 28 9 28 -7z m-3293 4 c-3 -3 -12 -4 -19 -1 -8 3
-5 6 6 6 11 1 17 -2 13 -5z m43 2 c0 -11 -19 -15 -25 -6 -3 5 1 10 9 10 9 0
16 -2 16 -4z m2450 -6 c0 -5 -6 -10 -12 -10 -7 0 -5 -5 5 -11 18 -10 63 -15
82 -8 6 2 10 0 10 -6 0 -5 -5 -9 -12 -7 -7 1 -17 -6 -22 -17 -9 -16 -8 -18 7
-14 21 5 47 -21 37 -37 -4 -7 -16 -3 -34 10 -16 10 -31 17 -34 14 -3 -3 -8 -1
-12 5 -3 6 1 11 9 11 16 0 23 19 9 21 -5 0 -21 3 -38 5 l-29 5 19 -22 c20 -22
20 -22 0 -14 -11 4 -28 8 -37 9 -11 0 -18 9 -19 21 0 11 -3 14 -6 8 -2 -7 -12
-13 -21 -13 -13 0 -14 2 -4 8 7 5 10 16 6 27 -6 16 -3 17 29 11 24 -4 37 -3
37 4 0 5 7 10 15 10 8 0 15 -4 15 -10z m350 -10 c-16 -11 -40 -13 -40 -5 0 8
44 24 50 18 2 -2 -2 -8 -10 -13z m-2653 4 c-3 -4 1 -13 9 -21 8 -9 12 -18 9
-21 -5 -6 -34 27 -35 41 0 4 5 7 12 7 6 0 9 -3 5 -6z m2577 -5 c16 13 15 -15
-1 -43 -10 -19 -11 -19 -22 2 -6 11 -8 29 -4 38 4 12 8 14 11 6 3 -9 8 -10 16
-3z m-3199 -17 c-3 -3 -11 0 -18 7 -9 10 -8 11 6 5 10 -3 15 -9 12 -12z m3825
-7 c0 -18 -5 -25 -20 -25 -22 0 -27 15 -7 23 9 4 8 8 -3 16 -12 9 -11 11 8 11
17 0 22 -6 22 -25z m-87 0 c-3 -9 -8 -14 -10 -11 -3 3 -2 9 2 15 9 16 15 13 8
-4z m-488 -15 c-4 -13 -2 -20 6 -20 18 0 5 -10 -19 -15 -26 -5 -36 20 -16 40
22 21 37 19 29 -5z m-2002 -10 c-5 -19 -23 -29 -23 -12 0 7 20 32 26 32 1 0 0
-9 -3 -20z m2137 15 c0 -2 -6 -8 -13 -14 -10 -8 -14 -7 -14 2 0 8 6 14 14 14
7 0 13 -1 13 -2z m-2105 -25 c3 -5 11 -10 16 -10 6 0 7 5 4 10 -3 6 -1 10 5
10 7 0 9 -7 6 -16 -3 -9 -6 -20 -6 -25 0 -16 -15 -9 -33 16 -10 14 -13 25 -8
25 5 0 13 -4 16 -10z m1893 -15 c-3 -3 -9 2 -12 12 -6 14 -5 15 5 6 7 -7 10
-15 7 -18z m-3223 5 c3 -5 2 -10 -4 -10 -5 0 -13 5 -16 10 -3 6 -2 10 4 10 5
0 13 -4 16 -10z m545 -11 c0 -5 -4 -9 -10 -9 -5 0 -10 7 -10 16 0 8 5 12 10 9
6 -3 10 -10 10 -16z m126 -6 c-10 -10 -19 5 -10 18 6 11 8 11 12 0 2 -7 1 -15
-2 -18z m3202 -18 c0 -41 -2 -44 -23 -43 -13 1 -21 6 -18 11 3 4 -3 14 -12 21
-17 12 -17 13 -1 19 12 5 15 3 11 -6 -4 -6 4 0 16 15 13 15 25 28 26 28 1 0 1
-20 1 -45z m-657 4 c9 -6 2 -8 -21 -8 -19 0 -29 3 -22 6 6 2 12 12 12 21 0 14
2 14 9 3 5 -7 15 -17 22 -22z m-2949 -21 c-6 -6 -9 0 -9 18 0 23 1 24 9 10 7
-12 7 -21 0 -28z m2748 17 c8 -9 3 -10 -25 -1 -19 6 -35 14 -35 17 0 10 49 -2
60 -16z m-2440 -5 c0 -5 -5 -10 -11 -10 -5 0 -7 5 -4 10 3 6 8 10 11 10 2 0 4
-4 4 -10z m2750 6 c0 -2 -7 -7 -16 -10 -8 -3 -12 -2 -9 4 6 10 25 14 25 6z
m-2436 -31 c16 -14 29 -33 31 -43 2 -9 4 -19 4 -21 1 -2 8 2 16 9 8 6 18 9 23
6 5 -3 17 3 28 12 17 17 19 17 37 -1 14 -14 28 -18 53 -14 24 4 32 2 28 -5 -5
-7 -2 -8 7 -2 20 12 38 14 45 3 9 -15 24 -10 18 5 -4 11 0 13 14 9 11 -2 23 0
26 6 10 16 26 14 26 -3 0 -8 5 -18 12 -22 7 -5 9 -2 4 7 -4 8 1 3 12 -10 17
-21 25 -23 66 -19 26 3 46 1 46 -4 0 -6 13 -7 32 -2 27 5 31 4 21 -7 -10 -12
-5 -14 28 -11 25 3 46 -1 57 -10 25 -22 48 -28 60 -16 13 13 85 1 77 -12 -3
-6 4 -10 17 -10 13 0 60 -2 104 -6 56 -4 84 -3 88 5 4 6 14 11 22 11 8 0 13
-4 10 -8 -11 -18 70 -67 87 -54 7 5 20 8 30 7 10 -2 21 3 24 11 4 12 8 12 20
2 18 -14 43 -20 43 -9 0 5 13 8 30 7 25 -1 30 -5 30 -27 0 -28 23 -55 39 -45
5 3 11 1 13 -5 3 -8 9 -6 20 5 19 18 38 21 38 5 0 -5 5 -7 10 -4 6 3 10 -1 10
-11 0 -13 3 -14 15 -4 11 9 15 10 15 0 0 -6 11 2 25 19 l26 30 23 -22 c13 -13
20 -28 16 -36 -8 -16 10 -59 28 -66 7 -2 10 0 7 5 -3 6 4 10 17 10 13 0 29 4
37 9 10 7 19 4 29 -7 12 -15 13 -15 9 -1 -3 9 1 16 8 16 7 0 11 -7 8 -15 -4
-10 0 -13 13 -10 10 2 25 -3 32 -12 10 -11 15 -12 18 -2 3 7 15 17 26 23 15 8
19 8 13 -1 -4 -7 5 -5 23 4 17 9 38 16 47 16 9 0 14 4 11 9 -6 10 24 25 32 16
3 -3 0 -5 -8 -5 -9 0 -10 -3 -1 -14 9 -11 9 -15 -1 -20 -7 -3 -1 -4 15 -1 28
6 35 -3 15 -23 -8 -8 -8 -15 1 -26 17 -20 41 -9 41 19 0 31 25 51 44 35 8 -6
12 -18 9 -26 -3 -8 3 -21 13 -29 19 -13 19 -13 0 -12 -10 1 -21 -4 -24 -12 -3
-10 2 -13 21 -9 38 7 44 -19 6 -27 -16 -4 -29 -10 -29 -15 0 -14 32 -21 46 -9
15 12 18 7 14 -26 l-2 -20 15 20 c9 11 12 21 7 23 -4 2 -6 17 -3 34 3 20 1 28
-6 24 -7 -5 -8 -1 -5 9 5 11 14 15 28 11 11 -3 28 2 38 11 17 15 18 15 18 -5
0 -12 6 -22 14 -22 8 0 13 -8 11 -17 -4 -26 13 -42 36 -36 15 4 17 8 8 19 -17
21 4 17 28 -6 18 -16 22 -17 27 -5 8 22 36 18 36 -5 0 -19 4 -22 33 -24 6 -1
17 -8 24 -16 10 -13 12 -11 8 9 -3 18 -2 22 7 13 7 -7 17 -8 29 -2 23 13 52 2
45 -17 -3 -8 -2 -11 3 -8 15 9 24 -15 11 -29 -8 -11 -8 -15 2 -19 10 -4 8 -10
-7 -21 -17 -15 -20 -15 -29 1 -5 10 -10 19 -12 21 -1 2 -12 -1 -23 -8 -25 -13
-17 -34 10 -27 10 3 22 1 25 -4 3 -5 14 -9 24 -9 24 0 38 -45 23 -70 -9 -14
-6 -16 23 -16 19 0 29 3 23 7 -6 3 -2 9 10 12 25 6 40 -11 20 -24 -11 -6 -10
-9 4 -15 10 -4 16 -12 13 -19 -3 -8 2 -11 15 -8 10 3 16 9 13 14 -3 5 0 9 5 9
6 0 10 6 9 13 -2 7 6 11 21 9 17 -3 22 0 18 11 -3 7 -1 20 3 27 6 10 11 6 16
-14 5 -20 9 -24 15 -14 6 9 9 9 9 1 0 -7 7 -10 15 -7 13 5 14 2 5 -20 -7 -19
-7 -25 1 -21 6 4 17 -1 25 -11 14 -17 15 -17 10 -1 -3 9 -1 17 4 17 15 0 12
40 -2 44 -7 3 -25 7 -40 10 -24 5 -32 25 -16 41 6 6 29 12 51 14 5 1 6 5 2 10
-11 19 17 23 30 5 8 -11 15 -15 15 -10 0 18 -32 45 -47 39 -13 -5 -15 -1 -10
19 5 20 2 29 -18 42 -29 19 -35 20 -35 4 0 -6 -8 -21 -17 -32 -10 -12 -11 -15
-3 -8 8 6 20 12 27 12 11 0 10 -5 -2 -24 -11 -17 -22 -22 -40 -18 -14 2 -28 8
-31 13 -7 12 -44 11 -44 -1 0 -5 -9 -1 -20 10 -11 11 -24 20 -30 20 -5 0 -1
14 8 31 13 24 22 29 43 26 25 -3 57 25 51 46 -1 4 10 7 25 6 16 -1 35 1 44 5
10 4 20 3 24 -3 4 -7 -6 -14 -25 -17 l-31 -7 21 -19 c16 -15 24 -16 40 -8 11
6 20 8 20 5 0 -4 5 -3 10 0 7 4 2 20 -11 43 -13 20 -19 34 -14 29 5 -4 14 5
21 20 9 20 13 23 13 10 1 -10 5 -16 10 -13 5 4 7 -3 4 -14 -6 -22 15 -28 33
-10 8 8 15 6 25 -6 10 -13 11 -18 2 -21 -7 -2 -9 -11 -6 -20 4 -11 2 -14 -5
-9 -20 12 -13 -7 13 -37 16 -18 33 -27 48 -26 12 2 28 0 35 -4 8 -6 14 1 18
23 4 17 11 33 17 37 6 4 8 -2 5 -15 -4 -12 -3 -22 1 -22 4 0 8 -14 9 -31 1
-18 6 -37 10 -43 3 -6 7 -24 9 -41 1 -25 -2 -30 -23 -31 -13 -1 -24 2 -24 7 0
6 -8 5 -19 -1 -29 -15 -46 -13 -32 3 13 16 5 28 -15 20 -9 -3 -14 1 -14 13 0
9 -3 15 -6 11 -4 -3 -4 -12 -2 -19 3 -7 7 -17 9 -23 4 -15 26 -35 38 -35 6 0
11 -4 11 -10 0 -5 5 -10 12 -10 9 0 9 3 0 12 -19 19 -14 30 7 18 11 -5 26 -7
34 -4 21 8 24 -12 26 -148 1 -77 -2 -119 -9 -123 -8 -5 -10 1 -8 16 2 18 -2
24 -14 23 -14 -1 -18 6 -18 32 0 31 -8 39 -34 35 -5 -1 -6 5 -3 13 3 9 -2 16
-14 19 -15 4 -19 1 -15 -8 2 -7 -1 -16 -9 -18 -29 -12 -7 29 23 42 22 10 32
22 32 37 0 12 5 24 12 26 7 3 6 7 -5 11 -11 4 -17 1 -17 -7 0 -8 -12 -21 -26
-31 -25 -16 -25 -16 -15 4 15 26 5 48 -25 55 -14 4 -22 10 -19 15 2 5 -2 11
-10 15 -10 3 -15 -1 -15 -13 0 -31 -11 -51 -24 -44 -6 3 -7 2 -3 -3 5 -5 13
-10 18 -10 22 -3 23 -5 9 -14 -13 -8 -12 -11 7 -16 12 -3 23 -16 26 -30 5 -28
-10 -43 -19 -20 -7 18 -64 23 -64 6 0 -5 -7 -10 -15 -10 -8 0 -15 -7 -15 -16
0 -8 4 -12 10 -9 6 3 10 0 10 -9 0 -8 6 -16 13 -19 9 -3 7 -10 -6 -23 -12 -13
-20 -15 -25 -8 -10 15 -42 25 -42 14 0 -6 6 -10 13 -10 7 0 13 -8 13 -19 0
-16 -4 -17 -31 -9 -63 19 -65 19 -65 -12 0 -15 7 -30 15 -34 22 -8 18 -28 -4
-21 -13 4 -23 0 -30 -12 -10 -17 -10 -17 -11 0 0 15 -5 18 -27 16 -5 0 -7 -6
-5 -14 1 -7 -1 -16 -6 -19 -4 -2 -9 5 -9 16 -1 12 -7 24 -13 28 -8 5 -6 9 5
13 9 4 13 3 10 -3 -8 -13 5 -13 25 0 21 13 22 50 1 50 -14 0 -14 2 -1 10 13 9
13 12 -2 23 -16 13 -16 15 0 31 16 16 16 18 -1 27 -9 6 -15 15 -12 20 4 6 13
6 23 0 11 -6 24 -4 40 7 21 14 25 14 38 -1 8 -10 9 -12 2 -7 -17 14 -28 12
-28 -5 0 -8 -7 -15 -16 -15 -31 0 -7 -25 27 -28 23 -2 30 0 20 6 -10 8 -8 13
10 26 13 9 18 16 11 16 -6 0 -12 6 -12 14 0 8 -8 17 -17 20 -48 15 -130 5
-118 -14 6 -9 -41 -3 -58 7 -6 4 -8 0 -4 -9 8 -21 -3 -30 -19 -17 -8 6 -21 9
-29 5 -9 -3 -13 -2 -10 4 3 5 -4 8 -15 7 -21 -1 -27 -21 -9 -33 7 -4 0 -14
-18 -25 -37 -25 -40 -24 -40 14 0 17 2 25 4 15 5 -20 30 -31 39 -16 4 6 -1 15
-11 20 -9 6 -26 19 -37 30 -10 10 -25 17 -31 15 -14 -4 -37 16 -37 34 0 9 -4
8 -15 -1 -12 -10 -15 -10 -15 0 0 9 -4 9 -12 2 -15 -12 -68 -4 -68 9 0 5 5 9
10 9 6 0 10 7 10 15 0 13 -4 14 -20 5 -20 -11 -25 -5 -21 26 2 14 -26 26 -34
15 -2 -5 2 -14 10 -21 23 -19 18 -31 -10 -24 -19 5 -24 3 -20 -7 3 -8 0 -21
-5 -29 -8 -12 -12 -12 -18 -2 -11 16 -50 24 -57 11 -4 -5 -11 -7 -16 -3 -6 4
-3 14 7 25 16 18 16 19 -14 19 -32 0 -43 14 -19 23 6 3 -1 10 -18 16 -16 7
-33 18 -37 24 -6 9 -8 8 -8 -3 -1 -9 -5 -6 -10 8 -10 24 -34 29 -46 10 -5 -7
-3 -8 6 -3 9 5 11 4 6 -4 -5 -8 -12 -9 -20 -2 -15 13 -41 -3 -31 -19 6 -9 10
-9 17 1 7 11 8 9 6 -5 -2 -12 -13 -20 -28 -23 -19 -2 -22 -1 -10 7 12 8 12 12
2 18 -7 5 -10 16 -6 26 5 12 0 19 -16 23 l-22 6 23 14 c14 9 17 12 6 9 -10 -3
-28 -6 -40 -7 -12 0 -16 -3 -9 -6 6 -2 10 -9 7 -13 -3 -5 4 -14 15 -20 11 -6
20 -17 20 -24 0 -19 -39 -51 -49 -40 -12 13 6 57 20 48 8 -5 8 -9 -1 -14 -8
-5 -8 -10 -2 -14 14 -9 22 20 9 33 -16 16 -48 14 -41 -3 3 -7 -2 -16 -10 -19
-9 -4 -16 -2 -16 4 0 6 -4 7 -10 4 -5 -3 -10 0 -10 8 0 8 -7 18 -16 21 -9 4
-14 9 -11 13 4 3 -7 18 -24 33 -26 22 -29 28 -15 33 9 4 16 11 16 17 0 12 -20
13 -39 1 -11 -7 -10 -13 3 -33 13 -20 14 -27 2 -50 -8 -15 -16 -35 -19 -45 -3
-10 -5 1 -6 24 0 23 -7 45 -13 50 -19 11 -39 13 -32 2 3 -5 10 -7 15 -4 5 4 9
-3 9 -14 0 -12 -5 -21 -11 -21 -5 0 -7 5 -3 12 5 7 0 9 -14 6 -16 -4 -19 -2
-15 10 4 10 2 13 -5 8 -7 -4 -18 -4 -24 1 -18 11 -32 10 -39 0 -4 -6 -10 0
-13 11 -5 15 -12 19 -24 15 -15 -6 -15 -5 -3 10 16 20 17 20 -81 21 -63 1 -78
-2 -78 -14 0 -9 -3 -11 -8 -5 -4 6 -13 10 -19 9 -7 -1 -20 -2 -29 -3 -8 0 -12
-5 -9 -11 9 -15 -2 -12 -19 6 -9 8 -31 16 -49 17 -26 2 -33 6 -29 19 3 13 -1
15 -17 11 -13 -3 -21 -1 -21 7 0 14 -50 76 -50 63 -1 -4 -8 6 -17 22 -9 17
-18 25 -20 18 -2 -7 -11 -9 -19 -6 -8 3 -14 1 -14 -5 0 -5 7 -13 17 -16 15 -6
14 -8 -2 -20 -14 -10 -15 -15 -5 -21 10 -6 10 -9 0 -15 -10 -6 -10 -14 1 -38
7 -17 17 -28 21 -26 14 9 9 -2 -13 -27 -18 -21 -19 -24 -5 -27 9 -2 13 -8 10
-13 -3 -6 2 -17 12 -25 17 -13 16 -13 -8 -3 -16 7 -29 18 -29 26 -1 7 -2 19
-3 26 -1 6 2 22 8 35 8 18 6 25 -12 38 -12 8 -19 21 -16 29 4 10 0 15 -10 15
-23 0 -61 36 -47 45 6 3 11 10 11 16 0 12 -37 12 -45 -1 -3 -5 -15 -10 -26
-10 -16 0 -19 -4 -13 -22 3 -13 11 -28 16 -35 5 -7 7 -17 4 -22 -10 -16 -56 9
-62 35 -4 15 -11 20 -24 17 -10 -3 -21 0 -25 6 -3 6 -1 10 6 9 6 -2 12 7 14
19 1 19 -1 21 -13 11 -12 -10 -14 -9 -10 7 2 11 9 19 14 18 5 -1 11 8 11 19 2
20 2 20 -21 -1 -27 -25 -33 -26 -54 -5 -15 15 -14 16 6 10 17 -6 21 -4 16 8
-3 8 -14 18 -25 21 -10 4 -19 11 -19 16 0 5 -5 9 -11 9 -6 0 -9 -7 -5 -15 6
-18 -16 -20 -46 -4 -13 7 -18 7 -14 1 4 -6 -2 -15 -11 -21 -10 -6 -14 -11 -10
-11 5 0 5 -5 1 -12 -5 -8 -10 -6 -15 8 -7 17 -8 17 -8 -4 -1 -30 -81 -81 -81
-52 0 6 10 15 23 20 12 5 20 9 17 10 -36 10 -51 8 -60 -10 -6 -11 -8 -20 -5
-20 4 0 3 -5 -1 -11 -4 -8 -9 -8 -18 1 -8 8 -8 13 0 18 6 4 14 17 18 28 6 18
2 22 -23 26 -17 2 -35 0 -41 -6 -12 -12 -117 -19 -124 -8 -2 4 21 8 52 9 32 1
60 2 65 2 11 1 8 31 -3 31 -5 0 -9 3 -9 8 3 20 -3 23 -18 11 -9 -8 -14 -9 -11
-4 4 6 -4 10 -20 9 -14 0 -28 -6 -30 -12 -5 -15 -42 -16 -42 -2 0 6 8 14 17
17 15 6 15 7 -2 13 -11 4 -31 1 -45 -7 -14 -7 -33 -13 -42 -13 -12 0 -17 -7
-15 -22 1 -14 -4 -23 -15 -26 -11 -2 -18 3 -18 12 0 9 -9 17 -20 17 -11 1 -28
2 -38 3 -11 0 -25 6 -33 12 -26 20 -39 25 -39 15 0 -6 6 -11 13 -11 8 0 14 -7
14 -14 0 -12 -5 -13 -21 -4 -12 6 -22 11 -23 10 -2 -1 -13 -1 -25 -1 -21 1
-21 2 -3 6 11 3 32 16 46 30 l26 24 22 -27 c19 -24 21 -25 28 -8 3 11 10 22
15 25 5 3 6 13 2 22 -4 12 -11 14 -29 7 -17 -6 -27 -5 -35 6 -13 15 -11 16 30
18 19 1 25 7 27 29 2 32 -12 36 -20 6 -5 -17 -12 -21 -36 -17 -17 3 -31 0 -31
-5 0 -5 -8 -6 -17 -2 -10 4 -27 8 -38 9 -11 0 -23 5 -27 10 -4 6 -13 4 -22 -3
-9 -8 -23 -10 -33 -5 -10 4 -21 8 -25 8 -15 2 -22 19 -23 51 -1 28 2 35 17 35
13 0 20 -10 25 -31 4 -21 8 -27 14 -17 6 10 11 10 20 1 6 -6 19 -9 28 -6 12 4
13 3 2 -5 -9 -7 -10 -11 -2 -17 25 -15 39 13 28 55 -9 32 -8 43 3 55 13 12 15
11 15 -13 1 -15 -4 -30 -10 -34 -6 -5 -3 -8 7 -8 9 0 20 5 23 10 10 16 28 12
22 -4 -6 -16 43 -37 78 -33 11 1 19 -3 18 -10 -3 -15 23 -17 32 -3 3 6 1 10
-6 10 -10 0 -10 3 -1 12 25 25 7 32 -40 13 -11 -4 -20 0 -27 13 -8 16 -7 21 6
26 10 4 20 1 25 -8 10 -18 49 -9 41 10 -3 8 -8 12 -12 10 -3 -2 -11 7 -18 20
-14 30 -12 30 21 -1z m220 -2 c3 -12 -1 -20 -10 -20 -15 0 -17 7 -8 32 8 19
13 15 18 -12z m-1174 2 c0 -8 -2 -15 -4 -15 -2 0 -6 7 -10 15 -3 8 -1 15 4 15
6 0 10 -7 10 -15z m490 1 c0 -8 -4 -17 -10 -21 -5 -3 -7 -12 -4 -19 3 -7 -2
-16 -10 -19 -23 -9 -19 -20 12 -35 17 -8 28 -9 30 -2 2 6 8 8 13 4 17 -10 9
39 -8 53 -17 14 -17 14 -1 9 10 -3 24 2 33 10 8 9 15 11 15 5 0 -5 -4 -13 -10
-16 -5 -3 -10 -19 -10 -34 0 -15 -5 -32 -12 -39 -13 -13 -8 -15 16 -6 9 3 13
11 9 17 -4 6 0 8 10 4 10 -4 17 0 20 11 3 12 5 11 6 -5 0 -13 6 -23 12 -23 5
0 7 -4 4 -10 -3 -5 1 -10 9 -10 10 0 13 -6 10 -15 -4 -8 -1 -16 5 -16 6 -1 16
-2 23 -3 6 0 13 -7 16 -14 3 -9 -2 -10 -21 -3 -18 7 -27 7 -30 -2 -3 -8 -10
-6 -25 6 -15 14 -22 15 -28 6 -4 -7 -3 -10 3 -6 6 4 18 -9 27 -28 11 -23 24
-35 37 -35 11 0 18 4 15 9 -3 5 0 11 7 14 7 3 12 -4 12 -19 0 -13 -3 -25 -7
-25 -28 -5 -34 -4 -46 4 -7 6 -15 8 -18 5 -8 -9 47 -40 61 -34 8 3 17 0 21 -6
4 -6 3 -8 -3 -5 -13 8 -23 -15 -23 -53 0 -16 -7 -35 -15 -44 -8 -8 -12 -17 -7
-20 4 -2 7 -17 6 -33 0 -15 4 -31 10 -35 7 -5 3 -8 -9 -8 -15 -1 -13 -4 10
-14 24 -10 26 -13 12 -19 -9 -3 -17 -13 -17 -21 0 -8 -8 -20 -17 -26 -17 -10
-17 -10 1 -8 22 4 30 -11 16 -32 -9 -13 -11 -13 -20 0 -7 12 -12 12 -21 3 -10
-10 -9 -14 3 -18 8 -3 14 -16 13 -28 -1 -12 3 -25 9 -29 7 -5 4 -8 -6 -8 -10
0 -18 6 -18 14 0 17 -18 31 -27 22 -3 -3 -1 -11 4 -18 9 -11 10 -34 4 -81 -1
-4 -10 -3 -20 3 -13 7 -22 7 -26 0 -5 -9 16 -14 53 -13 6 1 12 -9 12 -22 0
-18 9 -25 48 -35 43 -11 137 -38 271 -77 71 -21 88 -20 157 10 50 22 333 129
457 174 41 14 112 10 134 -8 7 -6 13 -9 13 -6 0 3 26 -3 58 -14 31 -12 66 -22
77 -24 11 -1 20 -3 20 -5 0 -1 9 -3 20 -4 11 -2 36 -7 55 -11 19 -5 41 -8 48
-6 6 1 12 -3 12 -9 0 -6 4 -9 9 -5 5 3 29 -1 52 -9 24 -8 46 -13 50 -10 4 2
10 0 14 -6 4 -6 11 -8 16 -5 5 4 15 3 22 -2 6 -4 23 -9 37 -11 13 -2 27 -8 31
-14 3 -5 9 -9 13 -8 3 1 25 -2 49 -6 23 -4 46 -7 51 -6 4 2 14 -3 22 -9 8 -6
14 -9 14 -6 0 3 21 0 47 -8 25 -8 50 -12 54 -9 4 2 11 -1 14 -7 4 -5 13 -8 21
-5 7 3 16 1 19 -5 4 -5 11 -6 17 -3 6 4 14 1 18 -5 4 -7 21 -13 38 -13 18 -1
32 -4 32 -9 0 -4 9 -5 20 -2 11 3 20 1 20 -5 0 -5 6 -9 13 -9 27 3 97 -15 97
-25 0 -7 5 -6 14 1 10 9 16 9 21 1 4 -6 13 -9 21 -6 17 7 18 -15 2 -34 -7 -8
0 -4 15 10 26 23 29 23 38 8 5 -10 16 -15 24 -12 18 7 19 -7 3 -26 -7 -8 -1
-4 14 9 39 34 45 20 12 -26 l-27 -38 37 38 c29 28 41 35 51 27 7 -6 17 -10 21
-9 5 1 22 1 38 0 24 -1 27 -4 23 -22 -5 -19 -4 -20 12 -5 20 18 33 12 23 -12
-5 -15 -4 -15 11 -3 14 11 18 11 23 -3 4 -10 13 -15 20 -12 8 3 14 1 14 -4 0
-5 13 -7 30 -3 21 4 30 2 30 -8 0 -10 3 -10 12 -1 18 18 31 15 24 -5 -6 -14
-3 -14 15 3 13 11 23 15 26 8 2 -6 16 -9 31 -7 15 3 36 -2 46 -10 18 -13 18
-15 1 -63 -11 -27 -39 -75 -64 -107 -99 -127 -118 -157 -113 -188 2 -16 6 -29
8 -29 1 0 72 -18 156 -39 84 -22 176 -42 203 -46 42 -5 203 -30 333 -51 28 -4
32 -9 32 -34 0 -19 -5 -30 -14 -30 -7 0 -19 -14 -26 -31 -12 -29 -16 -30 -59
-27 -44 3 -46 2 -49 -25 -3 -23 -7 -27 -24 -21 -14 4 -18 2 -14 -5 4 -6 47
-23 97 -38 l89 -27 0 -58 c0 -44 -9 -81 -41 -160 -23 -57 -52 -132 -64 -168
-13 -36 -32 -87 -43 -115 -30 -75 -201 -523 -222 -580 -10 -27 -36 -95 -58
-150 -23 -55 -75 -192 -117 -304 -41 -113 -77 -206 -79 -208 -11 -11 -606 269
-606 284 0 20 451 704 750 1138 142 205 200 293 200 301 0 4 24 39 53 78 81
108 100 137 94 142 -2 3 -22 -19 -43 -48 -22 -29 -59 -75 -83 -102 -24 -27
-50 -63 -57 -80 -8 -17 -36 -61 -62 -99 -92 -132 -178 -251 -226 -316 -27 -36
-87 -122 -134 -190 -47 -69 -128 -186 -182 -260 -53 -75 -123 -179 -155 -231
-70 -115 -148 -232 -187 -282 l-29 -38 -112 57 c-122 61 -231 109 -345 153
-60 23 -76 26 -97 17 -30 -14 -30 -13 -4 -82 l21 -56 -64 -67 c-186 -196 -243
-251 -249 -245 -4 5 -29 89 -54 188 -26 99 -56 212 -67 250 -33 112 -52 184
-121 455 -36 140 -78 300 -92 355 -47 172 -54 207 -41 202 19 -7 179 -55 224
-67 37 -10 46 -17 62 -54 21 -49 30 -54 210 -106 335 -97 390 -114 390 -120 0
-7 -28 -30 -165 -135 -111 -85 -215 -176 -215 -188 0 -4 24 11 53 36 28 24
102 81 162 127 61 46 137 106 170 133 51 42 60 47 63 31 2 -15 37 -30 175 -73
95 -29 193 -56 219 -60 47 -7 47 -7 53 23 3 17 10 49 15 71 16 76 40 211 84
485 42 258 49 304 61 405 3 22 10 65 15 95 5 30 12 77 15 103 5 41 11 52 36
65 68 38 67 40 -13 39 -62 0 -86 4 -127 25 l-50 24 -22 -30 c-14 -19 -16 -26
-6 -17 33 27 19 -17 -20 -61 -22 -26 -26 -33 -10 -19 15 14 29 22 32 19 3 -3
-1 -40 -9 -84 -9 -43 -22 -129 -30 -190 -9 -61 -22 -153 -30 -205 -8 -52 -20
-137 -26 -189 -7 -52 -18 -105 -26 -116 -15 -25 -277 -224 -294 -224 -13 0
-68 16 -348 101 -106 33 -199 59 -205 59 -7 0 -30 9 -51 20 -22 10 -42 18 -46
15 -3 -2 -25 1 -48 7 -36 9 -45 17 -61 54 -21 47 -10 42 -200 93 -41 11 -75
22 -76 23 -3 4 -34 108 -71 245 l-28 103 -32 -25 c-18 -14 -38 -25 -45 -25 -6
0 -27 -9 -45 -21 -19 -11 -34 -17 -34 -14 0 4 -7 2 -15 -5 -12 -10 -23 -9 -57
5 -23 9 -135 50 -248 90 -303 109 -408 148 -667 251 -90 35 -167 64 -173 64
-6 0 -10 89 -10 250 l0 251 66 41 c39 25 61 44 54 48 -8 5 -7 9 5 13 9 4 13 3
10 -3 -3 -6 -2 -10 4 -10 5 0 13 5 16 10 4 6 22 17 41 25 19 8 34 18 34 23 0
11 -44 30 -80 34 -14 2 -24 9 -22 16 1 6 -1 11 -5 10 -12 -3 -53 13 -53 20 0
4 11 15 24 24 21 15 25 16 36 2 7 -8 20 -12 29 -10 9 3 29 7 45 10 35 6 49 25
34 44 -8 9 -14 10 -22 2 -15 -15 -26 -12 -20 4 3 8 0 21 -7 29 -12 12 -18 12
-46 0 -30 -12 -34 -11 -45 7 -7 11 -17 20 -23 20 -6 0 -16 9 -22 19 -10 15 -9
22 1 30 7 6 15 9 18 6 3 -3 11 2 19 11 12 15 11 16 -9 10 -16 -5 -22 -3 -22 8
0 8 4 17 8 20 15 9 81 -45 91 -75 12 -34 22 -36 38 -10 11 17 9 21 -8 26 -11
4 -24 17 -29 30 -6 15 -20 25 -43 29 -19 4 -38 14 -41 22 -4 10 -14 14 -26 11
-11 -3 -23 -1 -26 4 -3 5 3 9 13 10 13 0 14 2 4 6 -8 3 -20 -2 -26 -11 -10
-13 -13 -6 -14 43 -1 66 15 85 46 52 15 -16 20 -17 31 -5 11 12 9 14 -8 14
-11 0 -28 9 -37 20 -13 14 -19 16 -25 7 -4 -6 -8 26 -7 73 0 79 1 83 14 60 14
-24 14 -24 15 -3 0 28 20 35 44 14 18 -15 19 -15 13 0 -4 13 -1 16 15 11 18
-4 19 -3 9 19 -12 23 -11 23 3 4 26 -34 60 -65 72 -65 6 0 18 10 26 22 9 14
19 19 27 13 11 -6 11 -9 0 -16 -9 -5 0 -6 21 -2 19 4 47 8 63 8 16 0 25 5 23
12 -6 14 25 43 46 43 9 0 19 -8 22 -17 6 -14 9 -15 15 -4 5 7 12 13 17 14 5 1
8 5 7 10 -2 4 2 7 7 7 6 0 10 -6 10 -12 0 -9 4 -8 10 2 5 8 10 11 10 6 0 -6 5
-5 12 2 16 16 28 15 28 -2z m2560 -7 c0 -6 -4 -7 -10 -4 -5 3 -10 11 -10 16 0
6 5 7 10 4 6 -3 10 -11 10 -16z m673 0 c10 -14 17 -17 22 -9 4 7 16 10 26 7
10 -3 22 -1 25 4 3 5 11 9 17 9 7 0 3 -7 -7 -15 -10 -8 -23 -12 -27 -9 -5 3
-19 0 -31 -7 -30 -16 -111 -24 -85 -9 9 6 17 20 17 30 0 26 25 25 43 -1z
m-176 -19 c11 -13 14 -13 23 0 8 12 10 9 10 -12 0 -15 -5 -30 -10 -33 -15 -9
-2 -25 21 -25 14 0 19 -7 19 -25 0 -28 15 -33 28 -9 5 9 15 15 21 13 7 -3 0
-13 -16 -25 -33 -24 -73 -17 -73 13 0 10 -9 33 -20 51 -11 18 -18 37 -15 43 4
5 -1 9 -9 9 -9 0 -16 5 -16 10 0 14 22 8 37 -10z m-279 -9 c3 -10 0 -11 -9 -5
-8 5 -20 9 -27 10 -28 5 -26 16 2 12 16 -1 32 -9 34 -17z m542 -21 c23 0 28
-5 32 -30 4 -27 -2 -34 -23 -32 -4 1 -5 -8 -2 -18 3 -11 1 -20 -3 -21 -5 0
-21 -3 -37 -5 -18 -3 -29 0 -33 10 -3 8 -12 12 -20 9 -9 -3 -13 -12 -10 -19 3
-8 -1 -14 -9 -14 -25 0 -12 44 14 48 12 2 20 9 18 15 -2 6 5 19 15 29 10 10
18 26 19 36 0 10 3 12 6 5 2 -7 17 -13 33 -13z m-486 -6 c5 -14 4 -15 -9 -4
-17 14 -19 20 -6 20 5 0 12 -7 15 -16z m193 10 c-3 -3 -12 -4 -19 -1 -8 3 -5
6 6 6 11 1 17 -2 13 -5z m193 -4 c0 -5 -5 -10 -11 -10 -5 0 -7 5 -4 10 3 6 8
10 11 10 2 0 4 -4 4 -10z m-167 -32 c3 -10 0 -19 -6 -20 -7 0 -16 -2 -22 -3
-5 -2 -16 -3 -23 -4 -7 0 -10 -5 -7 -11 3 -5 2 -10 -4 -10 -14 0 2 -43 17 -48
7 -2 12 1 12 7 0 9 49 5 59 -5 4 -4 -35 -8 -51 -5 -7 1 -9 -5 -8 -26 1 -5 11
-7 24 -5 15 2 26 -3 30 -15 6 -15 11 -13 37 16 16 19 29 28 29 21 0 -7 7 -10
16 -6 11 4 14 0 12 -16 -3 -24 27 -34 49 -16 16 13 16 8 3 -26 -5 -14 -16 -26
-24 -26 -7 0 -21 -10 -30 -22 -14 -19 -16 -19 -11 -4 8 29 -12 47 -41 36 -13
-5 -24 -7 -24 -3 0 4 -6 -1 -13 -11 -16 -21 -47 -12 -47 15 0 10 -9 23 -20 29
-11 6 -20 15 -20 20 0 6 -9 19 -21 31 -19 19 -19 22 -5 44 9 13 13 32 9 41 -5
14 -3 16 11 11 11 -4 15 -3 10 4 -4 6 -1 15 7 19 21 13 47 7 52 -12z m-194
-17 c-15 -5 -22 6 -14 19 6 9 10 9 16 -1 5 -8 4 -15 -2 -18z m31 19 c0 -5 -2
-10 -4 -10 -3 0 -8 5 -11 10 -3 6 -1 10 4 10 6 0 11 -4 11 -10z m303 -6 c-5
-13 -2 -15 17 -9 15 5 20 4 16 -4 -9 -14 -33 -14 -41 -1 -3 6 -3 15 0 20 10
16 15 12 8 -6z m-233 -15 c0 -5 -4 -9 -10 -9 -5 0 -10 7 -10 16 0 8 5 12 10 9
6 -3 10 -10 10 -16z m-1493 -21 c-3 -7 -5 -2 -5 12 0 14 2 19 5 13 2 -7 2 -19
0 -25z m1983 16 c0 -9 -5 -14 -12 -12 -18 6 -21 28 -4 28 9 0 16 -7 16 -16z
m-1273 -40 c-3 -3 -12 -4 -19 -1 -8 3 -5 6 6 6 11 1 17 -2 13 -5z m289 -41
c-10 -11 -25 18 -18 35 4 13 8 11 15 -6 6 -12 7 -25 3 -29z m981 -20 c-3 -10
-5 -2 -5 17 0 19 2 27 5 18 2 -10 2 -26 0 -35z m-147 13 c0 -3 -4 -8 -10 -11
-5 -3 -10 -1 -10 4 0 6 5 11 10 11 6 0 10 -2 10 -4z m-825 -42 c0 -10 7 -22
15 -27 9 -4 5 -6 -12 -4 -16 3 -28 0 -28 -4 0 -5 7 -9 16 -9 8 0 12 -4 9 -10
-3 -5 -15 -10 -25 -10 -14 0 -18 7 -18 30 1 20 5 29 13 26 9 -3 11 2 7 16 -3
15 -1 19 9 16 8 -3 14 -13 14 -24z m-2219 -35 c0 -23 -12 -25 -20 -3 -3 8 -10
12 -16 9 -6 -3 -7 1 -4 9 3 9 1 16 -5 16 -6 0 -11 4 -11 10 0 5 13 2 28 -7 15
-9 28 -24 28 -34z m3155 20 c-11 -12 -23 -20 -27 -17 -3 3 5 15 17 27 29 27
37 19 10 -10z m34 -19 c3 -5 1 -10 -4 -10 -6 0 -11 5 -11 10 0 6 2 10 4 10 3
0 8 -4 11 -10z m-2791 -9 c3 -5 -1 -11 -9 -14 -9 -4 -12 -1 -8 9 6 16 10 17
17 5z m-114 -11 c0 -5 -5 -10 -11 -10 -5 0 -7 5 -4 10 3 6 8 10 11 10 2 0 4
-4 4 -10z m11 -29 c-7 -5 -13 -12 -13 -17 0 -5 -4 -18 -8 -29 -7 -18 -9 -18
-15 -3 -7 16 33 73 44 62 3 -3 0 -9 -8 -13z m439 3 c0 -11 -5 -14 -16 -10 -9
3 -18 6 -20 6 -3 0 -2 5 1 10 10 16 35 12 35 -6z m2460 6 c0 -5 -2 -10 -4 -10
-3 0 -8 5 -11 10 -3 6 -1 10 4 10 6 0 11 -4 11 -10z m-565 -19 c-8 -14 -25
-14 -25 0 0 5 5 7 10 4 6 -3 10 -1 10 6 0 7 3 10 6 6 3 -3 3 -10 -1 -16z
m-1890 -21 c12 -5 15 -9 6 -9 -12 -1 -12 -4 -3 -13 17 -17 15 -29 -3 -22 -8 4
-15 14 -15 24 0 10 -8 21 -17 23 -12 3 -13 5 -3 5 8 0 24 -3 35 -8z m-80 -20
c3 5 13 6 22 3 15 -6 14 -7 -3 -14 -33 -13 -64 -10 -64 6 0 12 4 14 19 5 13
-6 22 -7 26 0z m1957 -20 c-6 -15 -11 -19 -16 -12 -4 7 -1 18 6 26 17 19 20
14 10 -14z m-1639 0 c-6 -23 -22 -37 -19 -18 2 14 15 38 21 38 2 0 1 -9 -2
-20z m2217 10 c0 -13 -11 -13 -30 0 -12 8 -11 10 8 10 12 0 22 -4 22 -10z
m-3941 -13 c-9 -7 -14 -18 -12 -24 3 -7 0 -13 -5 -13 -5 0 -8 10 -7 23 3 28 2
27 23 27 15 -1 15 -2 1 -13z m1241 3 c0 -5 -5 -10 -11 -10 -5 0 -7 5 -4 10 3
6 8 10 11 10 2 0 4 -4 4 -10z m-60 -13 c0 -8 -7 -14 -15 -14 -11 0 -12 4 -4
14 6 7 13 13 15 13 2 0 4 -6 4 -13z m33 -27 c-3 -11 -12 -20 -21 -20 -13 0
-12 3 3 20 10 11 19 20 21 20 1 0 0 -9 -3 -20z m57 0 c-27 -7 -43 -3 -35 9 2
5 17 6 32 3 l28 -6 -25 -6z m100 0 c0 -5 -5 -10 -11 -10 -5 0 -7 5 -4 10 3 6
8 10 11 10 2 0 4 -4 4 -10z m390 -20 c0 -5 -6 -7 -13 -4 -9 3 -17 -7 -24 -28
l-9 -33 -6 27 c-3 15 -2 25 2 23 5 -3 10 2 14 10 6 16 36 21 36 5z m181 -16
c30 -15 30 -16 13 -35 -9 -10 -22 -19 -28 -19 -6 0 -3 7 7 14 16 12 16 14 1
20 -9 3 -21 3 -27 -1 -7 -3 -9 -3 -5 2 4 4 3 14 -3 22 -16 18 4 17 42 -3z
m-368 -9 c-3 -9 -8 -14 -10 -11 -3 3 -2 9 2 15 9 16 15 13 8 -4z m2267 11 c0
-2 -7 -9 -15 -16 -13 -11 -14 -10 -9 4 5 14 24 23 24 12z m-2370 -35 c0 -5 -7
-11 -15 -15 -15 -5 -20 5 -8 17 9 10 23 9 23 -2z m75 -1 c-3 -5 -12 -10 -18
-10 -7 0 -6 4 3 10 19 12 23 12 15 0z m-1406 -12 c-3 -28 2 -38 19 -38 14 0
15 -2 2 -10 -19 -12 -43 -13 -35 -1 3 5 1 12 -4 15 -7 5 -8 23 -2 44 3 9 22 0
20 -10z m1901 2 c0 -5 -2 -10 -4 -10 -3 0 -8 5 -11 10 -3 6 -1 10 4 10 6 0 11
-4 11 -10z m194 -22 c-7 -11 -46 -10 -63 1 -8 5 1 8 27 7 22 0 38 -4 36 -8z
m-2176 -10 c-5 -14 -54 -17 -71 -5 -9 6 -8 8 3 4 8 -2 24 -1 35 4 29 11 37 11
33 -3z m2057 2 c3 -5 -1 -10 -10 -10 -9 0 -13 5 -10 10 3 6 8 10 10 10 2 0 7
-4 10 -10z m155 -10 c0 -5 -7 -7 -15 -4 -8 4 -15 8 -15 10 0 2 7 4 15 4 8 0
15 -4 15 -10z m1404 -5 c3 -8 4 -15 2 -15 -3 0 -11 -3 -19 -6 -12 -4 -14 0
-10 15 6 25 18 27 27 6z m-1548 -20 c20 -19 5 -19 -20 0 -11 9 -14 15 -7 15 7
0 19 -7 27 -15z m244 5 c0 -5 -2 -10 -4 -10 -3 0 -8 5 -11 10 -3 6 -1 10 4 10
6 0 11 -4 11 -10z m180 -17 c0 -10 -4 -14 -8 -8 -4 6 -11 13 -16 18 -5 4 -2 7
7 7 10 0 17 -8 17 -17z m-200 -15 c0 -6 -6 -5 -15 2 -8 7 -15 14 -15 16 0 2 7
1 15 -2 8 -4 15 -11 15 -16z m-23 -58 c2 -21 1 -22 -5 -6 -5 11 -17 23 -28 28
-16 6 -15 7 6 5 19 -1 26 -8 27 -27z m550 -20 c7 0 14 -4 14 -10 3 -20 4 -25
12 -37 5 -7 4 -13 -1 -13 -6 0 -12 6 -15 14 -4 10 -15 13 -31 10 -15 -2 -26 0
-26 6 0 5 5 10 10 10 20 0 9 19 -20 36 -18 12 -25 21 -18 25 6 4 23 -4 37 -17
14 -13 31 -24 38 -24z m-287 24 c0 -2 -7 -4 -15 -4 -8 0 -15 4 -15 10 0 5 7 7
15 4 8 -4 15 -8 15 -10z m-50 -8 c0 -3 -4 -8 -10 -11 -5 -3 -10 -1 -10 4 0 6
5 11 10 11 6 0 10 -2 10 -4z m-2410 -16 c0 -13 -11 -13 -30 0 -12 8 -11 10 8
10 12 0 22 -4 22 -10z m2530 6 c0 -2 -9 -6 -20 -9 -11 -3 -18 -1 -14 4 5 9 34
13 34 5z m1040 0 c0 -3 -4 -8 -10 -11 -5 -3 -10 -1 -10 4 0 6 5 11 10 11 6 0
10 -2 10 -4z m-1003 -12 c-3 -3 -12 -4 -19 -1 -8 3 -5 6 6 6 11 1 17 -2 13 -5z
m-327 -13 c0 -5 -9 -7 -20 -4 -11 3 -20 7 -20 9 0 2 9 4 20 4 11 0 20 -4 20
-9z m440 -1 c0 -5 -5 -10 -11 -10 -5 0 -7 5 -4 10 3 6 8 10 11 10 2 0 4 -4 4
-10z m-300 -10 c0 -5 -2 -10 -4 -10 -3 0 -8 5 -11 10 -3 6 -1 10 4 10 6 0 11
-4 11 -10z m710 -70 c0 -5 -13 -1 -29 8 -33 19 -51 10 -35 -16 17 -27 7 -42
-22 -32 -18 7 -23 7 -18 -1 4 -7 -2 -9 -17 -7 -13 2 -23 9 -21 16 2 12 -10 16
-38 12 -8 -1 -11 2 -7 6 4 4 24 8 45 9 26 0 38 5 40 17 2 9 -3 18 -10 21 -7 2
-4 3 7 1 11 -2 27 1 35 6 14 9 70 -23 70 -40z m-243 5 c0 -8 -4 -15 -9 -15
-10 0 -11 14 -1 23 9 10 10 9 10 -8z m-331 -2 c-10 -11 -37 -12 -30 -2 3 5 12
9 21 9 9 0 13 -3 9 -7z m374 -43 c0 -5 -7 -7 -15 -4 -8 4 -15 8 -15 10 0 2 7
4 15 4 8 0 15 -4 15 -10z m-710 -10 c0 -5 8 -10 17 -10 9 0 14 -3 10 -6 -9 -9
-57 5 -57 16 0 6 7 10 15 10 8 0 15 -4 15 -10z m1457 -14 c-5 -16 -22 -17 -40
-4 -15 12 -14 13 13 13 16 0 29 -4 27 -9z m87 -1 c-5 -12 -19 -14 -52 -6 -2 1
0 6 3 11 3 6 17 10 30 10 17 0 23 -4 19 -15z m-774 -15 c0 -5 -4 -10 -9 -10
-6 0 -8 -8 -6 -19 3 -15 -1 -18 -18 -13 -12 3 -16 7 -9 10 6 2 12 10 12 18 0
9 -4 12 -10 9 -5 -3 -10 -1 -10 4 0 6 11 11 25 11 14 0 25 -4 25 -10z m218
-11 c-11 -6 -24 -6 -34 -1 -12 7 -8 9 18 10 26 1 30 -1 16 -9z m-158 -14 c6
-7 13 -20 14 -27 1 -7 5 -19 10 -26 4 -8 0 -24 -10 -40 -15 -22 -19 -24 -22
-9 -2 9 -8 17 -13 17 -5 0 -3 11 6 24 19 29 10 60 -17 53 -16 -5 -17 -3 -7 9
15 18 23 18 39 -1z m135 -15 c3 -5 1 -10 -4 -10 -6 0 -11 5 -11 10 0 6 2 10 4
10 3 0 8 -4 11 -10z m-240 -30 c3 -6 -1 -7 -9 -4 -18 7 -21 14 -7 14 6 0 13
-4 16 -10z m832 -12 c-3 -8 -6 -5 -6 6 -1 11 2 17 5 13 3 -3 4 -12 1 -19z
m-657 -29 c0 -5 -7 -9 -15 -9 -15 0 -20 12 -9 23 8 8 24 -1 24 -14z m425 1 c3
-5 1 -10 -4 -10 -6 0 -11 5 -11 10 0 6 2 10 4 10 3 0 8 -4 11 -10z m95 0 c0
-5 -2 -10 -4 -10 -3 0 -8 5 -11 10 -3 6 -1 10 4 10 6 0 11 -4 11 -10z m44 -9
c15 -16 15 -19 1 -24 -9 -4 -15 -1 -15 8 0 8 -4 15 -10 15 -5 0 -10 5 -10 10
0 16 15 12 34 -9z m-34 -56 c17 4 31 2 35 -5 10 -16 -3 -26 -17 -12 -8 8 -15
7 -26 -4 -9 -10 -17 -12 -21 -6 -3 6 -19 14 -35 18 -25 6 -27 8 -13 19 9 6 13
16 9 21 -4 5 4 -1 16 -14 18 -18 31 -22 52 -17z m130 35 c5 0 14 -10 20 -22
10 -21 10 -21 -3 -5 -16 20 -63 23 -70 5 -2 -7 -8 -10 -12 -5 -11 10 27 38 43
32 8 -3 18 -5 22 -5z m-310 -26 c0 -17 -22 -14 -28 4 -2 7 3 12 12 12 9 0 16
-7 16 -16z m370 -28 c0 -2 3 -11 6 -20 4 -10 1 -16 -9 -16 -9 0 -18 8 -20 18
-3 11 -5 8 -6 -9 -1 -20 4 -26 16 -25 10 0 19 -7 21 -16 4 -21 -7 -23 -32 -5
-32 23 -25 77 10 77 8 0 14 -2 14 -4z m-96 -75 c4 -5 -1 -8 -9 -7 -21 3 -31
16 -12 16 9 0 18 -4 21 -9z m-210 -64 c8 -7 17 -24 21 -37 l7 -25 -25 24 c-15
13 -24 27 -22 32 3 4 -1 10 -7 12 -10 4 -10 6 0 6 7 1 19 -5 26 -12z m316 -22
c0 -17 -2 -18 -24 -9 -23 9 -20 24 4 24 11 0 20 -7 20 -15z m-3868 -235 c11
-6 19 -6 24 1 5 8 10 6 16 -5 5 -9 14 -16 19 -16 6 0 43 -14 82 -31 40 -17
104 -44 144 -61 l71 -31 -66 -81 c-36 -45 -79 -96 -96 -115 -17 -19 -25 -31
-18 -27 7 4 56 59 108 123 87 103 98 113 113 100 9 -8 95 -46 191 -85 266
-106 310 -126 310 -138 0 -6 -8 -18 -18 -27 -13 -12 -17 -26 -14 -47 2 -16 7
-28 11 -25 4 2 4 -17 0 -43 -4 -26 -8 -68 -8 -94 l-1 -48 -172 5 c-95 3 -195
8 -222 10 -38 3 -54 0 -74 -15 l-25 -20 69 -1 c38 -1 83 -4 99 -8 27 -6 24 -8
-30 -18 -168 -32 -280 -112 -199 -143 48 -19 195 -11 312 15 61 14 138 25 172
25 l61 0 -8 -37 c-4 -21 -7 -90 -7 -154 l0 -115 -57 8 c-31 4 -101 12 -156 17
-112 11 -290 33 -508 62 -82 11 -169 22 -192 25 l-43 5 0 519 0 519 48 -20
c26 -11 55 -24 64 -29z m1132 -284 c-3 -9 -15 -16 -26 -16 -10 0 -16 5 -13 10
4 6 10 8 15 5 4 -3 11 2 14 11 4 9 9 15 11 12 3 -3 3 -13 -1 -22z m-51 -32 c6
1 9 1 5 -1 -5 -3 -8 -19 -9 -36 0 -30 -1 -29 -15 13 -16 53 -17 61 -3 38 5 -9
15 -16 22 -14z m14 -216 c-3 -7 -5 -2 -5 12 0 14 2 19 5 13 2 -7 2 -19 0 -25z
m2770 -1934 c-4 -4 -281 118 -403 178 -50 25 -101 47 -113 51 -18 4 -20 10
-14 39 6 33 99 306 228 673 37 105 73 208 80 230 8 22 37 105 65 185 28 80 74
214 103 297 l52 153 3 -902 c1 -496 1 -903 -1 -904z m-2690 1754 c-3 -8 -6 -5
-6 6 -1 11 2 17 5 13 3 -3 4 -12 1 -19z m-43 0 c-5 -7 -2 -9 9 -5 12 4 14 2
10 -10 -5 -12 -3 -14 7 -8 10 6 12 4 7 -8 -3 -9 -2 -19 4 -22 5 -4 7 -22 3
-42 -5 -27 -4 -34 6 -28 7 4 16 2 21 -6 14 -22 11 -28 -11 -24 -11 2 -18 0
-15 -5 6 -10 -13 -65 -21 -57 -5 5 -33 184 -34 215 0 6 5 12 11 12 5 0 7 -5 3
-12z m1512 -40 c-3 -13 -8 -45 -11 -73 -14 -117 -27 -174 -38 -170 -7 2 -51
15 -98 29 -48 14 -89 32 -92 40 -4 10 32 44 111 105 64 49 120 90 125 90 4 1
5 -9 3 -21z m-1406 -178 c0 -5 -2 -10 -4 -10 -3 0 -8 5 -11 10 -3 6 -1 10 4
10 6 0 11 -4 11 -10z m-56 -46 c3 -9 11 -12 18 -8 7 4 5 -1 -4 -12 -17 -17
-17 -19 9 -29 24 -10 25 -12 9 -28 -18 -17 -16 -20 19 -19 17 1 17 0 3 -4 -20
-6 -22 -21 -9 -56 6 -17 5 -29 -5 -43 -16 -21 -19 -49 -5 -41 5 3 11 -1 15 -9
3 -10 -1 -15 -12 -15 -12 0 -14 -2 -4 -8 18 -12 27 -139 10 -160 -10 -12 -10
-14 0 -8 7 4 15 0 19 -10 4 -10 2 -19 -5 -22 -19 -6 -14 -22 8 -22 23 0 25
-17 9 -54 -10 -20 -9 -30 5 -50 18 -29 21 -40 6 -31 -5 3 -10 1 -10 -5 0 -6
-4 -9 -9 -6 -4 3 -11 29 -15 58 -4 29 -13 96 -21 148 -39 263 -46 327 -41 353
2 15 1 27 -3 27 -4 0 -8 16 -9 35 -3 36 11 48 22 19z m-1131 -73 c73 -11 206
-29 297 -41 91 -12 226 -30 300 -41 74 -10 150 -19 168 -19 l33 0 -2 -330 c-1
-181 -5 -330 -10 -330 -5 0 -6 -7 -3 -15 7 -17 -21 -21 -31 -4 -4 6 -13 8 -21
5 -8 -3 -14 -1 -14 5 0 6 -7 9 -15 5 -8 -3 -36 2 -62 10 -27 8 -59 17 -73 20
-14 3 -55 14 -91 24 -36 11 -74 20 -83 20 -10 0 -14 5 -10 12 4 6 3 8 -3 5 -6
-4 -53 5 -105 19 -51 14 -115 31 -143 39 -142 37 -279 76 -287 81 -4 3 -8 129
-8 280 0 243 2 274 16 274 8 0 75 -9 147 -19z m1337 -601 c0 -5 -16 -18 -35
-30 -20 -12 -42 -29 -50 -37 -16 -15 -21 -58 -6 -49 5 3 11 -1 15 -9 3 -8 1
-17 -5 -21 -5 -3 -7 -15 -4 -27 5 -17 4 -19 -4 -7 -9 12 -11 11 -11 -7 0 -12
5 -25 11 -29 6 -3 8 -18 5 -33 -4 -16 -3 -21 2 -13 17 26 31 -13 33 -90 l2
-76 31 4 c29 4 30 4 12 -10 -18 -15 -18 -16 10 -27 27 -10 27 -12 9 -19 -12
-4 -23 -3 -28 4 -6 8 -10 7 -14 -2 -4 -10 -8 -10 -19 -1 -11 9 -14 7 -14 -10
0 -11 6 -21 13 -21 17 0 18 -57 1 -64 -14 -5 -31 105 -18 125 4 8 3 9 -4 5 -7
-4 -12 -5 -12 -2 0 3 -11 89 -25 190 -14 101 -22 192 -18 202 4 12 3 15 -5 10
-7 -4 -12 -3 -12 2 0 18 29 21 39 4 9 -14 11 -14 12 -2 1 8 0 22 -1 30 -1 10
3 9 14 -5 13 -19 15 -19 21 -2 4 9 16 17 27 17 12 0 17 4 12 12 -4 7 -3 8 4 4
7 -4 12 -11 12 -16z m-1377 -28 c26 -12 49 -21 52 -22 26 0 150 -33 160 -41 5
-5 17 -9 27 -9 10 0 18 -4 18 -10 0 -5 7 -7 15 -4 8 4 22 1 30 -6 8 -7 15 -9
15 -5 0 4 7 2 15 -5 8 -6 19 -9 25 -5 6 4 19 0 28 -8 9 -8 51 -19 92 -26 41
-7 82 -18 91 -26 8 -8 18 -12 21 -9 4 3 21 -2 38 -11 18 -9 29 -12 26 -6 -4 6
0 11 8 11 9 0 16 -5 16 -12 0 -6 3 -9 6 -5 4 3 13 0 20 -8 8 -8 22 -11 31 -8
12 5 14 3 8 -8 -7 -11 -6 -12 6 -2 12 10 21 9 43 -2 15 -8 32 -12 37 -9 5 3 9
-74 9 -180 l0 -186 -27 -6 c-16 -4 -30 -10 -33 -13 -3 -3 -30 -14 -60 -24 -30
-10 -77 -27 -105 -37 -112 -41 -276 -89 -290 -84 -8 4 -15 1 -15 -6 0 -8 -9
-11 -25 -8 -14 3 -23 1 -22 -6 1 -6 -14 -13 -33 -16 -19 -3 -52 -14 -73 -23
-21 -10 -52 -20 -70 -24 -18 -3 -37 -9 -42 -14 -6 -4 -29 -14 -53 -22 -39 -14
-43 -13 -52 2 -5 10 -6 27 -3 39 5 19 1 22 -26 22 l-31 0 0 429 0 428 38 -7
c20 -4 58 -17 85 -28z m1261 23 c-7 -16 -24 -21 -24 -6 0 8 7 13 27 20 1 1 0
-6 -3 -14z m103 -307 c-3 -8 -6 -5 -6 6 -1 11 2 17 5 13 3 -3 4 -12 1 -19z
m23 -218 c-8 -5 -19 -10 -25 -10 -5 0 -3 5 5 10 8 5 20 10 25 10 6 0 3 -5 -5
-10z"/>
<path d="M3805 4501 c-3 -5 -1 -12 4 -15 5 -3 11 1 15 9 6 16 -9 21 -19 6z"/>
<path d="M860 4237 c0 -14 19 -37 32 -37 16 0 7 30 -12 40 -15 8 -20 8 -20 -3z"/>
<path d="M1245 4190 c-3 -5 -1 -10 4 -10 6 0 11 5 11 10 0 6 -2 10 -4 10 -3 0
-8 -4 -11 -10z"/>
<path d="M1355 4181 c-4 -7 -16 -11 -26 -8 -11 3 -19 1 -19 -3 0 -14 21 -23
52 -22 15 0 26 -3 23 -8 -3 -4 4 -6 16 -3 20 6 20 6 3 16 -11 6 -24 17 -30 25
-8 12 -13 12 -19 3z"/>
<path d="M1023 4165 c0 -8 4 -12 9 -9 4 3 8 9 8 15 0 5 -4 9 -8 9 -5 0 -9 -7
-9 -15z"/>
<path d="M1678 4173 c-10 -2 -18 -9 -18 -15 0 -5 7 -7 16 -4 9 3 20 6 25 6 5
0 9 5 9 10 0 10 -3 11 -32 3z"/>
<path d="M1531 4142 c-24 -16 -28 -32 -7 -32 7 0 16 9 19 21 5 17 9 19 25 10
14 -7 19 -7 19 2 0 17 -30 16 -56 -1z"/>
<path d="M1730 4150 c0 -5 5 -10 10 -10 6 0 10 5 10 10 0 6 -4 10 -10 10 -5 0
-10 -4 -10 -10z"/>
<path d="M1450 4131 c0 -8 -8 -11 -20 -8 -11 3 -20 1 -20 -4 0 -6 -7 -9 -16
-7 -10 2 -19 -2 -21 -8 -2 -7 6 -11 22 -10 14 0 25 4 25 8 0 4 7 5 15 2 15 -6
33 22 21 33 -3 4 -6 1 -6 -6z"/>
<path d="M1022 4122 c-13 -4 -23 -10 -23 -14 1 -5 1 -11 1 -16 0 -4 13 -7 29
-7 19 -1 27 3 24 12 -3 7 0 13 6 13 6 0 11 5 11 10 0 11 -13 11 -48 2z"/>
<path d="M1680 4119 c0 -6 6 -9 14 -6 8 3 20 0 26 -8 16 -19 50 -26 43 -9 -3
8 -9 12 -13 9 -5 -3 -15 2 -23 10 -18 17 -47 20 -47 4z"/>
<path d="M1830 4111 c0 -6 4 -12 8 -15 5 -3 9 1 9 9 0 8 -4 15 -9 15 -4 0 -8
-4 -8 -9z"/>
<path d="M1865 4111 c-9 -16 9 -20 23 -5 10 12 10 14 -2 14 -8 0 -17 -4 -21
-9z"/>
<path d="M1565 4100 c-3 -5 -1 -10 4 -10 6 0 11 5 11 10 0 6 -2 10 -4 10 -3 0
-8 -4 -11 -10z"/>
<path d="M1800 4099 c0 -5 5 -7 10 -4 6 3 10 8 10 11 0 2 -4 4 -10 4 -5 0 -10
-5 -10 -11z"/>
<path d="M2030 4099 c0 -5 5 -7 10 -4 6 3 10 8 10 11 0 2 -4 4 -10 4 -5 0 -10
-5 -10 -11z"/>
<path d="M1930 4071 c0 -5 5 -13 10 -16 6 -3 10 -2 10 4 0 5 -4 13 -10 16 -5
3 -10 2 -10 -4z"/>
<path d="M2075 4070 c3 -5 10 -10 16 -10 5 0 9 5 9 10 0 6 -7 10 -16 10 -8 0
-12 -4 -9 -10z"/>
<path d="M1990 4066 c0 -2 7 -7 16 -10 8 -3 12 -2 9 4 -6 10 -25 14 -25 6z"/>
<path d="M1961 4034 c0 -11 3 -14 6 -6 3 7 2 16 -1 19 -3 4 -6 -2 -5 -13z"/>
<path d="M1980 4045 c0 -5 5 -17 10 -25 5 -8 10 -10 10 -5 0 6 -5 17 -10 25
-5 8 -10 11 -10 5z"/>
<path d="M1850 4030 c-13 -9 -13 -11 0 -19 8 -5 19 -7 24 -4 6 4 5 8 -2 11 -7
2 -10 8 -6 13 7 11 3 11 -16 -1z"/>
<path d="M2085 4020 c-8 -13 3 -30 18 -30 8 0 7 3 -2 9 -7 5 -10 14 -7 20 4 6
5 11 2 11 -3 0 -8 -4 -11 -10z"/>
<path d="M2205 4020 c3 -5 8 -10 11 -10 2 0 4 5 4 10 0 6 -5 10 -11 10 -5 0
-7 -4 -4 -10z"/>
<path d="M2460 4020 c0 -5 5 -10 11 -10 5 0 7 5 4 10 -3 6 -8 10 -11 10 -2 0
-4 -4 -4 -10z"/>
<path d="M2230 4001 c-8 -5 -18 -7 -23 -4 -5 3 -8 0 -5 -8 7 -20 47 -20 58 0
9 14 11 14 21 1 9 -13 10 -13 6 0 -4 18 -36 24 -57 11z"/>
<path d="M2306 3993 c-6 -14 -5 -15 5 -6 7 7 10 15 7 18 -3 3 -9 -2 -12 -12z"/>
<path d="M2841 3978 c-11 -29 -5 -39 16 -31 9 4 12 8 6 10 -6 2 -9 13 -6 23 7
27 -6 25 -16 -2z"/>
<path d="M2141 3971 c-8 -5 -9 -11 -3 -15 5 -3 12 1 16 9 6 17 6 18 -13 6z"/>
<path d="M2183 3965 c4 -8 2 -17 -3 -20 -21 -13 -9 -27 18 -21 15 3 21 3 14 0
-10 -5 -8 -10 6 -20 27 -19 52 -8 53 25 1 15 3 19 6 10 5 -21 41 -31 62 -19
14 8 14 9 1 10 -12 0 -11 3 3 11 23 14 13 28 -21 28 -15 0 -36 2 -47 3 -15 2
-20 -2 -19 -19 2 -26 -14 -31 -22 -8 -4 8 -10 12 -15 9 -5 -3 -9 -1 -9 4 0 6
-7 13 -16 16 -12 4 -15 2 -11 -9z"/>
<path d="M2440 3964 c0 -8 5 -12 10 -9 6 4 8 11 5 16 -9 14 -15 11 -15 -7z"/>
<path d="M2960 3970 c0 -6 7 -10 15 -10 8 0 15 2 15 4 0 2 -7 6 -15 10 -8 3
-15 1 -15 -4z"/>
<path d="M2485 3960 c-3 -5 -4 -10 0 -10 3 0 0 -10 -7 -22 -22 -42 -17 -52 11
-22 29 31 37 64 15 64 -7 0 -16 -4 -19 -10z"/>
<path d="M2530 3933 c0 -8 7 -16 15 -19 8 -4 12 -11 8 -17 -3 -6 -1 -7 5 -3
19 11 11 52 -10 52 -10 0 -18 -6 -18 -13z"/>
<path d="M2975 3939 c-11 -17 1 -21 15 -4 8 9 8 15 2 15 -6 0 -14 -5 -17 -11z"/>
<path d="M2625 3930 c3 -5 8 -10 11 -10 2 0 4 5 4 10 0 6 -5 10 -11 10 -5 0
-7 -4 -4 -10z"/>
<path d="M2660 3920 c0 -5 5 -10 10 -10 6 0 10 5 10 10 0 6 -4 10 -10 10 -5 0
-10 -4 -10 -10z"/>
<path d="M2713 3913 c-15 -3 -23 -12 -23 -24 0 -18 2 -18 23 -4 13 8 26 13 29
10 2 -3 5 2 5 10 0 8 -3 14 -6 14 -3 -1 -16 -4 -28 -6z"/>
<path d="M2595 3901 c-3 -5 -1 -12 5 -16 5 -3 10 1 10 9 0 18 -6 21 -15 7z"/>
<path d="M2795 3890 c3 -5 8 -10 11 -10 2 0 4 5 4 10 0 6 -5 10 -11 10 -5 0
-7 -4 -4 -10z"/>
<path d="M2760 3886 c0 -2 8 -10 18 -17 15 -13 16 -12 3 4 -13 16 -21 21 -21
13z"/>
<path d="M2830 3875 c-7 -9 -11 -18 -8 -20 9 -10 38 7 38 21 0 18 -14 18 -30
-1z"/>
<path d="M3640 3880 c0 -6 -6 -8 -12 -4 -7 4 -5 -1 4 -12 13 -15 15 -23 7 -31
-9 -9 -7 -11 6 -9 23 3 28 34 9 53 -9 9 -14 10 -14 3z"/>
<path d="M2950 3860 c-8 -5 -17 -7 -21 -4 -10 6 -22 -14 -25 -45 -3 -26 -3
-26 14 -5 10 11 22 19 28 17 6 -2 14 6 17 19 7 27 6 29 -13 18z"/>
<path d="M3115 3860 c-3 -5 -1 -10 4 -10 6 0 11 5 11 10 0 6 -2 10 -4 10 -3 0
-8 -4 -11 -10z"/>
<path d="M2860 3850 c-12 -7 -10 -9 7 -7 12 0 19 5 17 9 -6 10 -6 10 -24 -2z"/>
<path d="M3570 3830 c0 -5 5 -10 10 -10 6 0 10 5 10 10 0 6 -4 10 -10 10 -5 0
-10 -4 -10 -10z"/>
<path d="M2977 3814 c6 -16 19 -18 27 -5 3 5 -3 11 -13 14 -14 3 -18 1 -14 -9z"/>
<path d="M3210 3818 c-2 -5 -3 -11 -4 -15 -1 -5 -5 -14 -10 -21 -5 -8 -4 -18
2 -24 6 -6 17 2 33 23 17 25 19 31 7 26 -9 -3 -19 -1 -22 6 -2 7 -5 9 -6 5z"/>
<path d="M2668 3783 c7 -3 16 -2 19 1 4 3 -2 6 -13 5 -11 0 -14 -3 -6 -6z"/>
<path d="M3905 3781 c-3 -5 -1 -12 5 -16 5 -3 10 1 10 9 0 18 -6 21 -15 7z"/>
<path d="M3310 3725 c0 -8 4 -15 10 -15 5 0 7 7 4 15 -4 8 -8 15 -10 15 -2 0
-4 -7 -4 -15z"/>
<path d="M2981 3686 c-9 -11 -9 -16 0 -22 7 -4 9 -3 5 4 -3 5 0 12 6 15 7 2
10 7 7 11 -3 4 -12 0 -18 -8z"/>
<path d="M3700 3684 c0 -14 3 -14 15 -4 8 7 15 14 15 16 0 2 -7 4 -15 4 -8 0
-15 -7 -15 -16z"/>
<path d="M3295 3630 c-3 -6 1 -7 9 -4 18 7 21 14 7 14 -6 0 -13 -4 -16 -10z"/>
<path d="M3430 3570 c-13 -8 -12 -10 3 -10 9 0 17 5 17 10 0 12 -1 12 -20 0z"/>
<path d="M3940 3540 c0 -5 5 -10 11 -10 5 0 7 5 4 10 -3 6 -8 10 -11 10 -2 0
-4 -4 -4 -10z"/>
<path d="M3726 3465 c4 -8 11 -15 16 -15 6 0 5 6 -2 15 -7 8 -14 15 -16 15 -2
0 -1 -7 2 -15z"/>
<path d="M3597 3463 c-12 -11 -8 -23 7 -23 8 0 16 7 20 15 5 15 -14 21 -27 8z"/>
<path d="M3650 3461 c0 -6 4 -13 10 -16 6 -3 7 1 4 9 -7 18 -14 21 -14 7z"/>
<path d="M115 4260 c-3 -5 -1 -10 4 -10 6 0 11 5 11 10 0 6 -2 10 -4 10 -3 0
-8 -4 -11 -10z"/>
<path d="M415 4210 c-3 -5 1 -10 10 -10 9 0 13 5 10 10 -3 6 -8 10 -10 10 -2
0 -7 -4 -10 -10z"/>
<path d="M580 4131 c0 -6 4 -13 10 -16 6 -3 7 1 4 9 -7 18 -14 21 -14 7z"/>
<path d="M115 4110 c3 -5 8 -10 11 -10 2 0 4 5 4 10 0 6 -5 10 -11 10 -5 0 -7
-4 -4 -10z"/>
<path d="M270 4100 c-20 -12 -10 -19 14 -10 11 3 15 9 10 13 -6 3 -16 2 -24
-3z"/>
<path d="M386 4093 c-6 -14 -5 -15 5 -6 7 7 10 15 7 18 -3 3 -9 -2 -12 -12z"/>
<path d="M600 4091 c-7 -13 -7 -22 0 -26 13 -8 30 3 30 20 0 23 -18 27 -30 6z"/>
<path d="M310 4055 c-7 -9 -11 -18 -8 -20 3 -3 11 1 18 10 7 9 11 18 8 20 -3
3 -11 -1 -18 -10z"/>
<path d="M380 4050 c0 -11 2 -20 4 -20 2 0 11 -3 20 -6 9 -3 16 -1 16 5 0 6
-7 11 -15 11 -9 0 -12 6 -9 15 4 8 1 15 -5 15 -6 0 -11 -9 -11 -20z"/>
<path d="M120 4040 c0 -11 4 -20 8 -20 5 0 8 -10 8 -22 -1 -17 4 -22 18 -20
10 2 22 0 25 -5 10 -15 72 -55 77 -51 10 11 -8 34 -37 47 -16 7 -28 16 -24 19
6 6 -54 72 -67 72 -4 0 -8 -9 -8 -20z"/>
<path d="M222 4006 c-10 -22 -8 -24 19 -28 23 -4 29 -1 24 9 -3 8 -5 21 -5 29
0 23 -26 16 -38 -10z"/>
<path d="M620 4023 c0 -13 14 -28 28 -30 19 -4 14 15 -8 27 -11 6 -20 7 -20 3z"/>
<path d="M475 4000 c-3 -5 1 -10 9 -10 9 0 16 5 16 10 0 6 -4 10 -9 10 -6 0
-13 -4 -16 -10z"/>
<path d="M348 3980 c-2 -6 -13 -12 -26 -13 -28 -2 -28 -13 0 -28 22 -12 22
-12 3 -20 -19 -7 -18 -8 3 -8 19 -1 22 3 17 19 -5 16 -3 19 10 13 21 -8 38 17
23 34 -13 16 -25 17 -30 3z"/>
<path d="M568 3963 c6 -2 18 -2 25 0 6 3 1 5 -13 5 -14 0 -19 -2 -12 -5z"/>
<path d="M425 3940 c-3 -6 1 -7 9 -4 18 7 21 14 7 14 -6 0 -13 -4 -16 -10z"/>
<path d="M450 3906 c0 -14 4 -26 8 -26 11 0 12 39 1 45 -5 4 -9 -5 -9 -19z"/>
<path d="M515 3920 c-4 -6 -3 -25 1 -43 6 -28 8 -30 15 -12 17 43 4 87 -16 55z"/>
<path d="M280 3900 c8 -5 20 -10 25 -10 6 0 3 5 -5 10 -8 5 -19 10 -25 10 -5
0 -3 -5 5 -10z"/>
<path d="M330 3880 c0 -5 5 -10 11 -10 5 0 7 5 4 10 -3 6 -8 10 -11 10 -2 0
-4 -4 -4 -10z"/>
<path d="M376 3877 c3 -10 9 -15 12 -12 3 3 0 11 -7 18 -10 9 -11 8 -5 -6z"/>
<path d="M286 3865 c-3 -9 0 -15 9 -15 9 0 12 6 9 15 -4 8 -7 15 -9 15 -2 0
-5 -7 -9 -15z"/>
<path d="M424 3868 c-4 -7 -4 -10 1 -6 4 4 15 2 24 -5 14 -11 14 -10 2 6 -16
20 -18 21 -27 5z"/>
<path d="M227 3864 c-8 -8 1 -24 14 -24 5 0 9 7 9 15 0 15 -12 20 -23 9z"/>
<path d="M326 3851 c-4 -5 -1 -13 4 -16 6 -4 10 -17 9 -28 -3 -40 1 -49 16
-43 8 3 15 0 15 -6 0 -9 3 -9 11 -1 9 9 8 16 -5 28 -9 9 -16 22 -16 28 -1 19
-27 49 -34 38z"/>
<path d="M500 3820 c0 -5 5 -10 10 -10 6 0 10 5 10 10 0 6 -4 10 -10 10 -5 0
-10 -4 -10 -10z"/>
<path d="M540 3816 c0 -2 7 -9 15 -16 9 -7 15 -8 15 -2 0 5 -7 12 -15 16 -8 3
-15 4 -15 2z"/>
<path d="M420 3786 c0 -14 49 -40 58 -32 8 8 -17 33 -38 39 -12 3 -20 0 -20
-7z"/>
<path d="M590 3771 c0 -5 7 -11 14 -14 10 -4 13 -1 9 9 -6 15 -23 19 -23 5z"/>
<path d="M286 3748 c3 -4 9 -8 15 -8 5 0 9 4 9 8 0 5 -7 9 -15 9 -8 0 -12 -4
-9 -9z"/>
<path d="M535 3740 c3 -5 10 -10 16 -10 5 0 9 5 9 10 0 6 -7 10 -16 10 -8 0
-12 -4 -9 -10z"/>
<path d="M570 3726 c0 -7 6 -21 14 -32 13 -17 15 -18 21 -2 4 10 5 23 3 29 -5
16 -38 20 -38 5z"/>
<path d="M105 3720 c3 -5 10 -10 16 -10 5 0 9 5 9 10 0 6 -7 10 -16 10 -8 0
-12 -4 -9 -10z"/>
<path d="M440 3718 c0 -4 4 -8 9 -8 6 0 12 4 15 8 3 5 -1 9 -9 9 -8 0 -15 -4
-15 -9z"/>
<path d="M163 3699 c1 -10 6 -18 11 -16 16 5 18 24 2 30 -10 4 -14 0 -13 -14z"/>
<path d="M207 3699 c3 -12 14 -19 29 -19 33 0 30 13 -5 26 -25 10 -28 9 -24
-7z"/>
<path d="M381 3684 c0 -11 3 -14 6 -6 3 7 2 16 -1 19 -3 4 -6 -2 -5 -13z"/>
<path d="M300 3672 c0 -4 9 -13 20 -20 18 -11 20 -10 20 8 0 13 -7 20 -20 20
-11 0 -20 -3 -20 -8z"/>
<path d="M490 3660 c0 -3 6 -15 14 -26 12 -15 17 -17 27 -6 7 6 9 12 4 12 -6
0 -4 4 4 9 9 6 4 10 -18 13 -17 2 -31 2 -31 -2z"/>
<path d="M590 3629 c0 -5 5 -7 10 -4 6 3 10 8 10 11 0 2 -4 4 -10 4 -5 0 -10
-5 -10 -11z"/>
<path d="M380 3621 c0 -6 4 -12 8 -15 5 -3 9 1 9 9 0 8 -4 15 -9 15 -4 0 -8
-4 -8 -9z"/>
<path d="M450 3626 c0 -2 9 -6 20 -9 11 -3 18 -1 14 4 -5 9 -34 13 -34 5z"/>
<path d="M500 3581 c0 -5 7 -11 15 -15 8 -3 15 -1 15 3 0 5 -7 11 -15 15 -8 3
-15 1 -15 -3z"/>
<path d="M3065 3250 c-3 -5 -1 -10 4 -10 6 0 11 5 11 10 0 6 -2 10 -4 10 -3 0
-8 -4 -11 -10z"/>
<path d="M2879 3213 l-24 -28 28 24 c25 23 32 31 24 31 -2 0 -14 -12 -28 -27z"/>
<path d="M2971 3216 c-59 -10 -79 -18 -97 -39 -24 -28 -23 -48 4 -80 15 -17
17 -16 46 11 17 15 48 41 70 58 73 55 82 64 66 63 -8 -1 -48 -7 -89 -13z"/>
<path d="M3285 3160 c3 -5 8 -10 11 -10 2 0 4 5 4 10 0 6 -5 10 -11 10 -5 0
-7 -4 -4 -10z"/>
<path d="M2819 3123 c-13 -16 -12 -17 4 -4 16 13 21 21 13 21 -2 0 -10 -8 -17
-17z"/>
<path d="M2829 3083 c-13 -16 -12 -17 4 -4 16 13 21 21 13 21 -2 0 -10 -8 -17
-17z"/>
<path d="M2829 3033 c-13 -16 -12 -17 4 -4 16 13 21 21 13 21 -2 0 -10 -8 -17
-17z"/>
<path d="M2669 2993 c-13 -16 -12 -17 4 -4 16 13 21 21 13 21 -2 0 -10 -8 -17
-17z"/>
<path d="M2709 2984 c-22 -25 -22 -26 -3 -16 12 6 24 18 28 27 8 21 3 19 -25
-11z"/>
<path d="M2759 2973 l-34 -38 38 34 c34 33 42 41 34 41 -2 0 -19 -17 -38 -37z"/>
<path d="M2799 2953 l-24 -28 28 24 c25 23 32 31 24 31 -2 0 -14 -12 -28 -27z"/>
<path d="M3232 2838 c-16 -16 -15 -28 3 -28 8 0 15 9 15 20 0 23 -2 24 -18 8z"/>
<path d="M3430 2679 l-45 -41 45 33 c59 43 66 49 55 49 -6 0 -30 -19 -55 -41z"/>
<path d="M3235 2530 c-77 -60 -141 -114 -143 -120 -4 -12 274 205 284 221 9
15 3 11 -141 -101z"/>
<path d="M3890 2594 c0 -7 -6 -15 -12 -17 -10 -4 -9 -8 2 -16 23 -17 55 -9 58
15 2 16 -3 23 -22 26 -17 4 -26 1 -26 -8z"/>
<path d="M3590 4280 c0 -5 5 -10 11 -10 5 0 7 5 4 10 -3 6 -8 10 -11 10 -2 0
-4 -4 -4 -10z"/>
<path d="M3670 4080 c0 -5 5 -10 11 -10 5 0 7 5 4 10 -3 6 -8 10 -11 10 -2 0
-4 -4 -4 -10z"/>
<path d="M29 2753 c-13 -16 -12 -17 4 -4 9 7 17 15 17 17 0 8 -8 3 -21 -13z"/>
<path d="M254 2458 l-19 -23 23 19 c21 18 27 26 19 26 -2 0 -12 -10 -23 -22z"/>
<path d="M196 2386 c-20 -23 -36 -49 -36 -57 0 -8 10 2 21 21 12 19 30 45 42
58 11 12 18 22 14 22 -3 0 -22 -20 -41 -44z"/>
<path d="M1362 1365 c0 -16 2 -22 5 -12 2 9 2 23 0 30 -3 6 -5 -1 -5 -18z"/>
<path d="M1391 1124 c0 -11 3 -14 6 -6 3 7 2 16 -1 19 -3 4 -6 -2 -5 -13z"/>
<path d="M1808 4813 c6 -2 18 -2 25 0 6 3 1 5 -13 5 -14 0 -19 -2 -12 -5z"/>
</g>
</svg>
