<?xml version="1.0" standalone="no"?>
<!DOCTYPE svg PUBLIC "-//W3C//DTD SVG 20010904//EN"
 "http://www.w3.org/TR/2001/REC-SVG-20010904/DTD/svg10.dtd">
<svg version="1.0" xmlns="http://www.w3.org/2000/svg"
 width="702.000000pt" height="428.000000pt" viewBox="0 0 702.000000 428.000000"
 preserveAspectRatio="xMidYMid meet">

<g transform="translate(0.000000,428.000000) scale(0.100000,-0.100000)"
fill="#000000" stroke="none">
<path d="M7010 2763 c0 -1264 -2 -1514 -13 -1499 -11 15 -17 17 -35 7 -13 -7
-27 -9 -32 -6 -6 3 -30 3 -55 -1 -35 -5 -45 -10 -45 -25 0 -11 -8 -23 -17 -26
-23 -9 -42 -34 -43 -55 0 -16 -2 -16 -28 -1 -27 16 -31 15 -63 -4 -19 -11 -33
-25 -31 -32 3 -14 -15 -15 -23 -1 -10 17 -23 11 -27 -11 -2 -12 -12 -27 -23
-33 -11 -6 -22 -12 -24 -13 -2 -2 2 -10 10 -19 13 -16 12 -16 -9 -5 -24 13
-62 6 -62 -11 0 -5 -7 -8 -15 -5 -8 4 -17 2 -20 -3 -8 -13 -45 -13 -45 1 0 5
-5 7 -10 4 -6 -4 -30 35 -55 92 -69 149 -101 208 -114 205 -9 -2 -9 3 -2 16 8
15 4 30 -20 66 -16 26 -25 45 -19 41 13 -8 -21 67 -35 77 -5 4 -13 4 -19 1 -5
-3 -6 -1 -2 6 4 6 12 9 18 5 5 -3 2 8 -6 25 -9 17 -16 32 -16 33 4 10 -14 37
-21 32 -5 -3 -6 1 -3 9 4 13 -66 187 -86 212 -4 6 -9 17 -11 26 -4 14 -41 8
-289 -48 -157 -35 -311 -69 -343 -74 -66 -13 -52 -19 -222 106 -365 270 -349
260 -558 337 -186 68 -221 81 -337 127 -30 13 -64 24 -75 25 -11 2 -33 11 -50
20 -16 9 -35 16 -42 16 -7 0 -37 11 -67 24 -30 13 -57 22 -60 18 -3 -3 -6 0
-6 7 0 7 -4 10 -10 6 -5 -3 -31 5 -58 19 -27 14 -52 23 -55 20 -3 -3 -20 2
-37 11 -18 9 -51 22 -74 30 -22 7 -79 27 -126 45 -47 17 -99 36 -117 41 -18 5
-45 16 -60 24 -15 8 -34 15 -41 15 -7 0 -31 9 -52 20 -22 11 -40 18 -40 15 0
-2 -25 6 -55 20 -30 13 -55 22 -55 19 0 -2 -23 7 -52 22 -28 14 -69 32 -92 39
-23 7 -63 22 -91 33 -108 44 -211 83 -225 87 -8 2 -55 20 -103 40 -48 19 -93
32 -99 29 -6 -4 -8 -3 -5 3 4 6 -3 13 -16 16 -12 3 -92 32 -177 66 -85 33
-161 61 -167 61 -16 0 -17 22 -1 38 8 8 8 15 -2 27 -11 13 -11 45 -1 183 l13
166 -27 23 c-27 24 -87 31 -114 14 -15 -10 -29 -130 -30 -266 -1 -126 11 -126
-323 0 -154 58 -282 104 -283 103 -8 -10 -14 -108 -6 -108 13 0 21 -27 14 -46
-6 -15 -7 -15 -19 1 -11 15 -15 11 -29 -37 -35 -119 -67 -326 -115 -758 -11
-102 -28 -237 -37 -300 -9 -63 -16 -125 -16 -137 -1 -13 -4 -23 -8 -23 -3 0
-4 -11 -1 -26 5 -26 -15 -237 -25 -264 -3 -8 -5 -27 -4 -42 1 -14 -3 -29 -9
-33 -7 -4 -9 -24 -5 -53 3 -31 2 -40 -3 -27 -8 17 -10 14 -13 -17 -3 -20 -2
-35 1 -33 3 2 7 -6 7 -18 2 -16 0 -18 -7 -8 -5 10 -10 -6 -14 -45 -4 -32 -13
-111 -22 -174 -19 -153 -22 -181 -30 -272 -5 -56 -11 -78 -20 -78 -9 0 -14
-11 -13 -32 l1 -33 8 30 c6 21 8 12 5 -33 -3 -64 -14 -97 -16 -51 -2 36 -17
-58 -34 -211 -8 -74 -18 -147 -21 -163 -3 -17 -1 -27 6 -27 7 0 6 -5 -2 -14
-18 -19 -28 0 -18 33 5 14 16 116 25 226 8 110 18 219 21 243 4 28 3 42 -5 42
-6 0 -11 -12 -12 -27 0 -16 -6 -62 -14 -103 l-13 -75 3 65 c2 61 25 246 60
505 16 113 19 162 10 153 -3 -2 -7 -25 -10 -51 -2 -26 -13 -113 -24 -194 -52
-389 -71 -584 -51 -508 13 51 9 -3 -10 -135 -13 -92 -18 -113 -20 -80 -3 50 0
66 -40 -256 -28 -223 -31 -204 39 -204 l59 0 5 43 c9 62 20 177 21 216 1 19 6
36 12 38 8 3 10 -11 8 -44 -5 -54 -22 -185 -30 -224 l-5 -26 89 -2 c86 -2 90
-1 95 21 8 33 50 449 45 453 -2 2 -30 0 -63 -4 -33 -5 -62 -7 -66 -5 -8 5 35
381 45 391 11 12 247 -13 256 -27 4 -7 13 -9 20 -5 10 6 11 -1 6 -28 -4 -19
-2 -38 3 -41 11 -7 21 17 21 49 0 15 7 26 20 30 11 3 20 15 20 25 0 16 -12 19
-107 24 -60 4 -129 9 -156 12 -29 3 -47 1 -47 -6 0 -5 -8 -10 -18 -10 -16 0
-16 8 -7 113 l10 112 67 24 c39 13 69 30 72 40 3 9 10 66 16 126 6 61 20 194
32 297 12 104 19 190 16 193 -3 3 -32 -8 -64 -24 -69 -35 -69 -35 -59 76 8 86
1 84 151 53 135 -28 134 -27 135 -58 1 -24 2 -23 9 8 5 18 15 39 24 46 36 26
17 35 -119 59 -16 3 -58 10 -93 16 -35 6 -65 9 -68 6 -3 -3 7 -7 23 -10 15 -3
71 -13 123 -22 124 -23 126 -23 113 -36 -16 -16 -64 -13 -183 10 -57 12 -108
17 -113 12 -10 -10 -28 -177 -21 -196 3 -7 0 -16 -7 -20 -9 -6 -10 13 -5 81
10 140 15 164 33 157 10 -4 14 0 11 13 -2 11 -7 22 -12 26 -6 4 -3 73 8 180
20 197 25 228 37 228 5 0 6 -8 3 -18 -4 -14 -4 -14 4 -2 5 8 15 65 22 125 7
61 18 121 25 135 7 14 29 57 48 95 82 164 108 190 72 71 -8 -27 -13 -51 -10
-54 2 -2 26 14 52 36 l48 40 19 -25 c23 -31 108 -158 154 -229 l32 -51 -15
-209 c-8 -115 -22 -285 -30 -379 -8 -93 -24 -273 -35 -400 -11 -126 -27 -295
-35 -375 -8 -80 -20 -208 -25 -284 -6 -77 -15 -145 -20 -151 -5 -6 -6 -16 -2
-22 5 -8 22 -7 62 3 103 28 453 93 464 87 6 -3 8 -2 3 2 -8 10 97 35 372 90
191 39 205 40 195 24 -5 -8 2 -10 22 -6 30 6 154 -12 154 -22 2 -31 -1 -529
-4 -678 l-4 -193 64 0 64 0 0 38 c0 252 15 810 21 818 5 6 28 10 52 7 133 -12
249 -14 243 -5 -3 6 -3 49 0 97 4 47 11 81 15 74 6 -10 11 -10 23 0 9 8 16 10
16 5 0 -5 21 -9 48 -9 105 0 284 -21 313 -36 9 -5 66 -11 125 -14 60 -3 123
-10 141 -16 17 -5 54 -11 82 -11 28 -1 51 -5 51 -10 0 -5 9 -7 20 -3 11 3 30
-1 44 -10 16 -11 26 -13 31 -5 9 15 114 10 131 -7 12 -13 15 -12 20 1 10 26
44 -4 44 -38 0 -24 2 -27 15 -16 8 7 15 19 15 27 0 9 6 13 15 9 8 -3 15 -1 15
5 0 6 5 7 10 4 6 -3 10 -1 10 4 0 6 -5 11 -12 11 -6 0 -9 3 -6 6 4 3 17 0 30
-7 12 -8 32 -14 43 -15 11 -1 36 -6 55 -11 19 -5 47 -6 63 -2 16 4 27 3 27 -2
0 -6 5 -7 10 -4 6 4 18 1 27 -7 14 -11 16 -11 8 1 -5 10 -4 12 3 7 7 -4 12
-19 12 -34 0 -41 15 -59 34 -43 18 15 51 7 41 -9 -4 -6 -2 -16 3 -23 6 -7 12
-26 14 -42 2 -25 0 -30 -18 -28 -16 2 -21 -3 -19 -20 2 -12 6 -30 10 -39 5
-13 2 -15 -14 -11 -18 5 -21 1 -21 -26 0 -20 -5 -31 -14 -31 -9 0 -13 -9 -11
-25 2 -20 -2 -25 -21 -25 -27 0 -28 -3 -13 -32 9 -16 7 -24 -11 -40 -14 -13
-20 -29 -17 -44 4 -20 1 -22 -27 -19 -17 2 -32 9 -34 15 -2 5 -13 10 -25 10
-11 0 -28 6 -36 14 -9 8 -27 16 -41 18 -14 1 -28 8 -33 13 -4 6 -10 0 -13 -13
l-7 -23 -166 6 c-91 3 -190 8 -218 10 l-53 5 0 -74 c0 -41 -4 -78 -10 -81 -5
-3 -10 -12 -10 -18 0 -7 4 -6 11 3 8 11 9 3 4 -30 -9 -63 -14 -138 -8 -122 9
24 24 11 22 -20 -1 -18 -1 -50 0 -70 l1 -38 134 0 c98 0 136 3 139 13 4 10 6
10 6 0 1 -17 301 -19 318 -2 8 8 13 8 17 0 10 -15 26 -14 20 2 -2 7 4 13 15
14 13 1 18 -3 14 -13 -4 -11 7 -14 57 -14 38 0 59 4 55 10 -3 6 1 13 9 16 9 3
16 15 16 25 0 11 7 22 15 26 25 9 30 -5 9 -28 -12 -13 -14 -19 -5 -17 7 2 16
-3 19 -11 2 -8 0 -11 -5 -8 -5 3 -15 2 -23 -3 -9 -5 18 -8 68 -8 76 1 107 13
63 25 -12 3 -18 13 -17 28 1 17 4 21 14 13 6 -6 12 -7 12 -4 0 4 10 2 21 -5
17 -9 20 -8 16 3 -2 7 -10 12 -16 11 -13 -4 -14 -1 -1 32 9 23 8 25 -9 15 -11
-5 -21 -15 -23 -21 -3 -9 -9 -9 -24 -1 -18 11 -18 11 0 12 19 0 19 0 0 21
l-19 22 25 -13 c25 -13 25 -13 7 8 -11 11 -16 25 -12 31 3 7 0 8 -10 5 -8 -4
-22 -1 -29 5 -17 14 -25 4 -20 -23 1 -11 0 -24 -3 -29 -6 -10 -23 11 -23 30 0
18 30 44 42 37 7 -4 8 -2 4 4 -4 6 -2 20 3 30 13 24 3 36 -16 21 -10 -9 -13
-8 -13 1 0 7 -14 -2 -30 -20 -18 -19 -36 -30 -45 -26 -8 3 -15 1 -15 -4 0 -16
21 -22 36 -9 22 18 39 -2 25 -30 -10 -17 -8 -25 9 -43 24 -26 26 -38 5 -38 -9
0 -27 -8 -42 -17 -26 -17 -26 -17 -14 5 9 17 9 22 -1 22 -9 0 -9 3 2 10 13 8
13 10 -2 10 -9 0 -20 5 -24 12 -5 7 -3 8 6 3 10 -6 12 -4 7 9 -6 14 -3 17 9
12 14 -6 15 -4 4 9 -8 9 -21 14 -31 12 -13 -3 -16 0 -12 11 4 10 2 13 -5 8 -7
-4 -12 -2 -12 3 0 6 -7 11 -15 11 -7 0 -18 8 -24 17 -14 26 -21 12 -25 -43 -2
-42 -6 -49 -27 -55 -37 -9 -54 1 -29 18 11 8 20 23 20 34 0 11 5 17 10 14 17
-11 11 17 -7 30 -10 8 -14 19 -9 30 5 14 9 16 18 7 16 -16 28 -15 28 3 0 8 -4
15 -8 15 -4 0 -13 19 -19 42 -12 44 -9 66 4 32 17 -46 46 -32 36 18 -3 17 -1
28 6 28 6 0 11 -9 11 -20 0 -11 5 -20 10 -20 12 0 12 29 1 87 -7 35 -5 46 11
63 10 11 24 20 30 20 9 0 9 -3 0 -12 -8 -8 -8 -17 -1 -30 14 -25 4 -49 -16
-42 -10 4 -15 0 -15 -10 0 -13 6 -15 28 -10 38 9 47 19 50 51 1 15 7 30 12 31
6 2 10 13 10 25 0 20 0 20 14 1 14 -18 15 -18 21 -1 4 9 2 24 -4 31 -10 11 -8
16 8 21 12 3 21 11 21 16 0 6 9 7 20 4 14 -4 20 -2 20 9 0 8 -4 18 -10 21 -6
3 -7 -1 -4 -12 3 -11 -5 -6 -20 12 -14 17 -26 37 -26 47 0 12 -6 15 -21 11
-21 -6 -21 -7 -4 -20 17 -12 16 -13 -13 -13 -18 0 -32 5 -32 10 0 6 5 10 11
10 5 0 8 4 5 9 -3 5 2 11 12 13 18 5 23 42 8 66 -4 7 -3 12 3 12 5 0 13 -9 16
-20 8 -24 21 -26 29 -4 8 22 9 20 -23 34 -17 6 -36 8 -43 4 -9 -6 -9 -3 1 10
8 9 10 16 5 14 -17 -5 -76 21 -69 31 4 7 15 7 32 0 19 -7 32 -6 49 6 18 12 24
12 24 3 0 -9 3 -9 11 2 9 13 10 13 6 0 -2 -8 -11 -14 -21 -12 -11 2 -16 -4
-16 -19 0 -18 2 -19 15 -9 8 7 26 10 40 8 20 -4 23 -2 15 8 -9 10 -6 11 9 7
12 -3 28 0 36 7 8 7 15 8 15 3 0 -10 107 -36 131 -32 8 1 21 0 29 -4 40 -15
76 -15 95 1 19 16 19 16 6 -1 -10 -13 -11 -21 -3 -29 8 -8 8 -17 0 -32 -6 -12
-7 -18 -3 -14 4 4 14 0 23 -8 14 -14 17 -14 28 8 10 19 10 27 -2 46 -8 12 -10
22 -4 22 5 0 10 -5 10 -12 0 -6 3 -8 7 -5 3 4 12 2 19 -4 7 -6 44 -12 83 -14
38 -2 78 -8 89 -14 25 -13 74 -11 84 4 5 6 8 3 8 -7 0 -10 6 -15 18 -12 9 3
26 -2 37 -11 19 -14 18 -15 -8 -3 -23 9 -30 9 -37 -1 -6 -11 -9 -11 -13 0 -4
11 -6 11 -6 -1 0 -8 6 -24 14 -34 20 -27 19 -36 -6 -36 -15 0 -19 5 -15 15 6
16 -20 21 -41 7 -15 -9 -15 -92 1 -111 8 -11 8 -13 0 -8 -16 9 -36 -17 -28
-37 3 -9 2 -16 -4 -16 -6 0 -12 6 -15 13 -6 20 -39 -13 -34 -34 3 -10 -1 -23
-8 -29 -20 -17 -25 -49 -8 -65 8 -8 12 -15 8 -15 -4 0 -20 13 -36 29 -27 27
-28 31 -12 40 17 9 17 10 1 16 -30 12 -47 -2 -45 -34 1 -20 6 -26 13 -20 16
13 26 -2 13 -18 -6 -7 -25 -13 -42 -13 -29 0 -29 -1 -24 -40 4 -34 2 -40 -13
-40 -30 0 -32 -17 -4 -24 24 -6 25 -8 10 -25 -8 -9 -14 -27 -11 -39 2 -12 0
-24 -6 -27 -13 -9 -11 -42 3 -51 8 -5 9 -2 5 10 -11 27 16 14 30 -15 7 -13 13
-48 13 -77 l0 -53 170 2 c137 1 168 4 160 14 -6 7 -20 11 -30 8 -12 -3 -20 0
-20 7 0 21 -20 253 -26 297 -5 42 -6 43 -43 43 -31 0 -40 5 -49 25 -11 24 0
36 13 15 8 -13 45 31 45 53 0 9 -5 17 -11 19 -22 7 3 38 32 38 28 0 35 10 30
47 -1 7 3 23 10 34 10 20 12 21 21 5 5 -9 13 -14 19 -11 14 9 -1 88 -19 102
-9 7 -12 13 -7 13 5 0 17 -7 27 -17 23 -20 25 -1 4 40 -16 30 -14 32 15 17 23
-13 27 5 4 17 -12 7 -8 12 18 26 21 12 37 30 43 50 9 31 11 32 78 40 76 8 96
0 96 -39 0 -17 -4 -22 -15 -18 -20 8 -19 -15 3 -39 9 -11 12 -17 5 -14 -6 4
-14 3 -17 -1 -3 -5 3 -83 14 -173 11 -90 30 -249 43 -354 l22 -190 111 -3 c96
-2 111 -1 111 14 0 8 -10 20 -22 24 -20 7 -24 22 -39 122 -9 62 -21 160 -27
218 -6 57 -12 107 -14 110 -7 12 -36 301 -30 310 3 5 1 11 -5 15 -5 3 -10 11
-10 16 0 6 5 7 11 3 7 -4 9 0 5 14 -4 11 -2 23 4 27 6 3 10 -4 11 -17 0 -13 3
-17 6 -10 3 8 -2 73 -12 144 l-17 131 -65 111 c-36 61 -69 114 -74 117 -6 3
-1 26 10 52 12 27 16 49 11 52 -6 4 -10 12 -10 18 0 8 3 8 9 -1 11 -18 23 10
17 41 -1 12 -1 16 1 8 3 -9 11 -4 24 15 22 34 25 25 5 -14 -30 -60 -28 -87 15
-164 22 -40 45 -84 52 -98 6 -14 16 -28 22 -32 5 -4 6 -8 2 -8 -5 0 4 -24 19
-52 51 -99 55 -108 47 -108 -4 0 0 -5 10 -11 9 -5 17 -17 17 -25 0 -8 8 -29
17 -47 9 -18 17 -36 18 -42 0 -5 8 -27 18 -49 9 -21 21 -65 27 -98 5 -33 16
-70 24 -82 22 -35 24 -59 5 -91 -16 -28 -16 -38 -3 -130 15 -105 64 -509 64
-525 0 -6 133 -10 350 -10 l350 0 0 2140 c0 1177 -2 2140 -5 2140 -3 0 -5
-683 -5 -1517z m-4890 301 c0 -46 -4 -84 -8 -84 -5 0 -8 40 -8 89 1 49 4 87 9
84 4 -2 7 -42 7 -89z m-487 -137 c298 -437 288 -422 279 -446 -8 -22 -9 -21
-35 18 -15 22 -27 43 -27 46 0 3 -8 15 -19 26 -18 20 -272 390 -315 459 -18
30 -16 67 4 55 5 -3 56 -74 113 -158z m304 -484 c-4 -3 -2 -12 4 -20 6 -7 7
-13 3 -13 -5 0 -15 9 -22 20 -10 17 -10 20 5 20 9 0 13 -3 10 -7z m-667 -33
c0 -5 -5 -10 -11 -10 -5 0 -7 5 -4 10 3 6 8 10 11 10 2 0 4 -4 4 -10z m707
-16 c-3 -3 -12 -4 -19 -1 -8 3 -5 6 6 6 11 1 17 -2 13 -5z m4018 -595 c-3 -23
-10 -50 -16 -61 -11 -21 -30 -74 -80 -223 -17 -49 -41 -112 -53 -140 -13 -27
-29 -66 -36 -85 -45 -127 -49 -135 -49 -109 -1 15 15 69 35 120 62 165 156
422 176 482 11 31 22 57 24 57 2 0 1 -19 -1 -41z m-4 -80 c-5 -13 -10 -19 -10
-12 -1 15 10 45 15 40 3 -2 0 -15 -5 -28z m15 -36 c-8 -15 -15 -25 -16 -21 0
12 23 58 27 54 3 -2 -2 -17 -11 -33z m-4821 -5 c-2 -7 -6 -53 -9 -102 -6 -87
-10 -105 -22 -94 -8 9 18 208 27 208 5 0 7 -6 4 -12z m92 -70 c-3 -7 -5 -2 -5
12 0 14 2 19 5 13 2 -7 2 -19 0 -25z m-113 -172 c-5 -15 -14 -105 -14 -138 0
-16 -4 -28 -9 -28 -9 0 -11 -15 -13 -102 0 -21 -4 -38 -9 -38 -12 0 -11 23 6
142 15 112 24 177 25 193 0 6 4 4 9 -4 5 -8 7 -19 5 -25z m4707 -119 c-10 -9
-11 -8 -5 6 3 10 9 15 12 12 3 -3 0 -11 -7 -18z m-3379 -79 c-18 -18 -15 -38
6 -39 11 0 12 -2 4 -6 -7 -3 -19 1 -28 7 -12 11 -13 10 -9 -2 5 -12 -3 -17
-30 -22 -20 -4 -43 -10 -51 -13 -10 -4 -14 3 -14 25 0 26 5 32 33 41 28 9 54
14 92 20 5 0 4 -4 -3 -11z m3261 -100 c-9 -15 -10 -19 -12 -50 -1 -26 -17 -55
-25 -47 -8 8 25 109 35 109 6 0 7 -6 2 -12z m96 -31 c22 -47 36 -97 28 -97 -3
0 -23 15 -45 33 l-39 33 14 37 c9 20 17 37 19 37 2 0 12 -19 23 -43z m-3359
23 c0 -5 -11 -12 -25 -16 -29 -7 -32 -19 -7 -33 14 -8 14 -11 2 -12 -46 -5
-57 -7 -79 -14 -20 -6 -23 -4 -18 10 4 9 7 25 7 36 0 14 7 19 28 20 15 0 36 4
47 9 27 12 45 12 45 0z m-1373 -47 c-3 -10 -5 -4 -5 12 0 17 2 24 5 18 2 -7 2
-21 0 -30z m-10 -60 c-3 -10 -5 -4 -5 12 0 17 2 24 5 18 2 -7 2 -21 0 -30z
m5801 9 c2 -7 -3 -12 -10 -12 -8 0 -15 7 -15 15 0 18 19 15 25 -3z m-4461 -18
c-3 -3 -12 -4 -19 -1 -8 3 -5 6 6 6 11 1 17 -2 13 -5z m-80 -61 c-3 -10 -5 -2
-5 17 0 19 2 27 5 18 2 -10 2 -26 0 -35z m-1270 -10 c-3 -10 -5 -4 -5 12 0 17
2 24 5 18 2 -7 2 -21 0 -30z m1313 7 c0 -5 -8 -10 -17 -10 -15 0 -16 2 -3 10
19 12 20 12 20 0z m3517 -12 c-3 -8 -6 -5 -6 6 -1 11 2 17 5 13 3 -3 4 -12 1
-19z m584 -64 c8 -9 10 -15 4 -12 -5 2 -25 11 -42 18 -18 8 -33 20 -33 27 0
17 49 -6 71 -33z m-1691 -14 c0 -5 -13 -3 -30 3 -16 6 -30 15 -30 19 0 4 14 2
30 -3 17 -6 30 -15 30 -19z m-3557 13 c-18 -2 -48 -2 -65 0 -18 2 -4 4 32 4
36 0 50 -2 33 -4z m3478 -20 c-12 -20 -14 -14 -5 12 4 9 9 14 11 11 3 -2 0
-13 -6 -23z m1219 -2 c0 -17 -5 -33 -11 -36 -13 -9 -15 -7 -22 33 -6 27 -4 32
13 32 15 0 20 -7 20 -29z m-4592 12 c-10 -2 -28 -2 -40 0 -13 2 -5 4 17 4 22
1 32 -1 23 -4z m5099 -9 c-3 -3 -12 -4 -19 -1 -8 3 -5 6 6 6 11 1 17 -2 13 -5z
m-5390 -46 c-3 -8 -6 -5 -6 6 -1 11 2 17 5 13 3 -3 4 -12 1 -19z m5568 12 c14
-7 8 -8 -20 -3 -22 3 -42 7 -44 9 -9 8 45 2 64 -6z m-5598 -42 c-3 -8 -6 -5
-6 6 -1 11 2 17 5 13 3 -3 4 -12 1 -19z m-10 -85 c-2 -16 -4 -5 -4 22 0 28 2
40 4 28 2 -13 2 -35 0 -50z m4531 -71 c6 -18 -15 -14 -22 4 -4 10 -1 14 6 12
6 -2 14 -10 16 -16z m-760 -19 c-7 -9 -7 -18 3 -30 13 -16 12 -17 -2 -5 -26
20 -31 51 -8 49 13 -1 15 -4 7 -14z m37 -3 c3 -5 1 -10 -4 -10 -6 0 -11 5 -11
10 0 6 2 10 4 10 3 0 8 -4 11 -10z m-3795 -37 c0 -13 -3 -13 -15 -3 -8 7 -12
16 -9 21 8 13 24 1 24 -18z m5404 6 c-27 -11 -44 -11 -44 0 0 11 40 20 54 12
5 -2 1 -8 -10 -12z m-874 -10 c0 -24 -23 -21 -28 4 -2 10 3 17 12 17 10 0 16
-9 16 -21z m765 11 c3 -5 1 -10 -4 -10 -6 0 -11 5 -11 10 0 6 2 10 4 10 3 0 8
-4 11 -10z m-5301 -80 c3 -30 3 -37 -3 -20 -7 21 -9 16 -16 -33 -4 -31 -5 -68
-3 -81 4 -18 0 -26 -14 -29 -13 -4 -18 0 -18 13 0 11 4 21 9 24 4 3 6 17 4 31
-7 32 17 159 27 148 4 -4 10 -28 14 -53z m3756 30 c0 -5 -2 -10 -4 -10 -3 0
-8 5 -11 10 -3 6 -1 10 4 10 6 0 11 -4 11 -10z m1700 -5 c0 -8 -2 -15 -4 -15
-2 0 -6 7 -10 15 -3 8 -1 15 4 15 6 0 10 -7 10 -15z m433 2 c-9 -15 17 -34 47
-32 23 1 30 -2 30 -17 0 -12 -7 -18 -21 -18 -11 0 -18 -4 -15 -8 3 -5 -8 -6
-25 -4 -29 4 -33 11 -29 45 1 10 -3 24 -9 30 -7 9 -5 13 9 13 10 0 16 -4 13
-9z m-1433 -75 c-15 -5 -51 28 -44 40 3 5 17 -1 31 -14 14 -13 19 -24 13 -26z
m1365 -2 c0 -7 -6 -14 -13 -16 -7 -1 -8 0 -2 3 7 3 7 10 -2 21 -11 13 -11 14
2 10 8 -2 15 -11 15 -18z m138 -37 c-7 -2 -19 -2 -25 0 -7 3 -2 5 12 5 14 0
19 -2 13 -5z m-2273 -217 c0 -17 -14 -29 -23 -20 -8 8 3 34 14 34 5 0 9 -6 9
-14z m827 -68 c-3 -8 -6 -5 -6 6 -1 11 2 17 5 13 3 -3 4 -12 1 -19z m-802 -38
c3 -5 1 -10 -4 -10 -6 0 -11 5 -11 10 0 6 2 10 4 10 3 0 8 -4 11 -10z m-65
-31 c0 -4 -7 -6 -15 -3 -8 4 -15 10 -15 15 0 4 7 6 15 3 8 -4 15 -10 15 -15z
m896 -15 c-3 -7 0 -15 7 -18 7 -2 3 -5 -8 -5 -16 -1 -20 6 -21 29 -1 25 1 29
13 19 7 -7 12 -18 9 -25z m532 29 c-26 -2 -71 -2 -100 0 -29 2 -8 3 47 3 55 0
79 -1 53 -3z m-1378 -13 c0 -5 -5 -10 -11 -10 -5 0 -7 5 -4 10 3 6 8 10 11 10
2 0 4 -4 4 -10z"/>
<path d="M1289 3749 l-24 -20 28 17 c15 9 27 18 27 20 0 8 -8 4 -31 -17z"/>
<path d="M1338 3753 c7 -3 16 -2 19 1 4 3 -2 6 -13 5 -11 0 -14 -3 -6 -6z"/>
<path d="M1410 3718 c0 -9 5 -20 10 -23 13 -8 13 5 0 25 -8 13 -10 13 -10 -2z"/>
<path d="M1402 3585 c0 -16 2 -22 5 -12 2 9 2 23 0 30 -3 6 -5 -1 -5 -18z"/>
<path d="M1391 3514 c0 -11 3 -14 6 -6 3 7 2 16 -1 19 -3 4 -6 -2 -5 -13z"/>
<path d="M1185 3133 c-10 -26 -32 -79 -48 -118 -37 -87 -58 -139 -356 -885
-133 -333 -258 -643 -277 -690 -20 -47 -38 -93 -41 -103 -3 -9 -12 -17 -20
-17 -9 0 -11 5 -7 13 5 7 0 6 -11 -3 -18 -14 -17 -15 4 -18 17 -3 21 -8 16
-20 -4 -9 -22 -57 -40 -107 -53 -145 -75 -187 -96 -182 -11 3 -19 1 -19 -4 0
-5 -5 -9 -11 -9 -6 0 -17 -7 -25 -15 -24 -24 -59 -4 -58 34 1 17 -2 28 -7 25
-5 -3 -9 2 -9 11 0 16 5 19 53 29 15 4 27 11 27 17 0 6 -4 8 -9 5 -5 -3 -11 4
-15 17 -8 32 -7 39 4 32 6 -3 10 1 10 9 0 9 6 16 13 17 6 0 19 2 27 4 8 3 23
6 33 8 10 2 23 10 28 18 5 8 9 10 9 5 0 -6 9 0 20 12 12 12 25 22 30 22 19 0
9 25 -16 44 -24 17 -27 17 -42 2 -14 -14 -17 -14 -32 1 -14 16 -14 19 4 37 21
21 21 21 1 24 -30 6 -40 19 -27 35 7 8 9 17 5 21 -4 4 1 4 12 0 15 -6 17 -4
11 11 -4 11 -1 22 6 27 9 7 10 11 2 14 -6 3 -20 11 -30 19 -19 15 -19 15 1 33
17 15 19 22 10 49 -11 34 -25 54 -25 36 0 -6 -11 -14 -25 -17 -14 -4 -23 -11
-20 -16 3 -5 0 -12 -6 -16 -9 -5 -10 -1 -7 14 4 13 0 26 -11 34 -9 7 -13 8 -9
4 11 -12 -11 -36 -31 -35 -10 0 -11 2 -3 6 17 7 15 30 -3 36 -18 7 -27 -6 -19
-27 3 -9 1 -16 -5 -16 -6 0 -11 8 -12 18 0 10 -3 12 -6 5 -8 -21 -33 -15 -33
7 0 12 -10 25 -23 31 l-22 10 22 -5 c13 -2 26 0 29 5 3 5 2 9 -3 10 -29 3 -47
9 -54 21 -7 10 -9 10 -9 -1 0 -26 -12 -3 -15 29 -1 17 2 33 7 36 10 6 -8 24
-24 24 -5 0 -8 -394 -8 -875 l0 -875 225 0 225 0 0 32 c0 67 60 508 75 553 4
11 3 15 -2 9 -4 -6 -16 -13 -25 -17 -13 -4 -16 -2 -12 11 4 10 -2 7 -14 -8
-12 -14 -23 -22 -27 -19 -3 4 1 14 10 23 18 17 13 52 -5 41 -6 -3 -13 1 -16
10 -4 9 -20 23 -37 31 -17 9 -25 19 -19 23 19 11 25 60 11 78 -13 15 -9 16 50
10 35 -4 72 -7 83 -7 17 0 18 -6 14 -77 -3 -43 -3 -69 0 -58 3 11 19 76 35
145 26 106 59 204 100 295 4 11 18 44 29 74 12 30 30 75 41 100 11 25 24 55
28 66 5 11 25 57 45 102 20 45 36 85 36 88 0 9 47 129 71 182 10 24 19 45 19
48 0 3 9 24 19 48 38 84 63 142 66 157 2 8 9 29 16 45 6 17 13 35 15 40 1 6 7
24 13 40 17 50 29 131 51 325 11 102 29 259 40 350 29 243 49 435 45 438 -1 2
-11 -18 -20 -45z m-1080 -1581 c0 -18 -20 -15 -23 4 -3 10 1 15 10 12 7 -3 13
-10 13 -16z m341 -951 c-9 -14 -56 -20 -56 -7 0 7 14 13 31 14 17 1 28 -2 25
-7z m-95 -54 c-1 -12 -15 -9 -19 4 -3 6 1 10 8 8 6 -3 11 -8 11 -12z"/>
<path d="M1262 2325 c0 -16 2 -22 5 -12 2 9 2 23 0 30 -3 6 -5 -1 -5 -18z"/>
<path d="M1228 2034 c-2 -19 0 -37 4 -40 4 -3 8 13 8 35 0 51 -6 53 -12 5z"/>
<path d="M0 1920 c0 -11 5 -20 10 -20 6 0 10 9 10 20 0 11 -4 20 -10 20 -5 0
-10 -9 -10 -20z"/>
<path d="M0 1847 c0 -15 4 -27 9 -27 17 0 19 15 5 35 -13 18 -14 18 -14 -8z"/>
<path d="M1142 1830 c0 -14 2 -19 5 -12 2 6 2 18 0 25 -3 6 -5 1 -5 -13z"/>
<path d="M1355 1748 c1 -32 7 -46 26 -59 31 -22 92 -34 87 -16 -3 6 -18 14
-34 15 -39 5 -64 29 -64 63 0 15 -4 30 -8 33 -4 3 -8 -14 -7 -36z"/>
<path d="M1036 1639 c-4 -33 -5 -63 -3 -66 3 -2 8 23 12 57 4 34 5 63 2 66 -2
3 -7 -23 -11 -57z"/>
<path d="M210 1639 c0 -5 5 -7 10 -4 6 3 10 8 10 11 0 2 -4 4 -10 4 -5 0 -10
-5 -10 -11z"/>
<path d="M1023 1525 c0 -22 2 -30 4 -17 2 12 2 30 0 40 -3 9 -5 -1 -4 -23z"/>
<path d="M1010 1460 c0 -11 4 -20 8 -20 4 0 8 9 8 20 0 11 -4 20 -8 20 -4 0
-8 -9 -8 -20z"/>
<path d="M1025 1283 c-4 -31 -9 -63 -12 -72 -4 -11 -3 -13 5 -6 10 10 28 135
19 135 -3 0 -8 -25 -12 -57z"/>
<path d="M1012 1160 c0 -19 2 -27 5 -17 2 9 2 25 0 35 -3 9 -5 1 -5 -18z"/>
<path d="M1002 1080 c0 -19 2 -27 5 -17 2 9 2 25 0 35 -3 9 -5 1 -5 -18z"/>
<path d="M1031 1024 c0 -11 3 -14 6 -6 3 7 2 16 -1 19 -3 4 -6 -2 -5 -13z"/>
<path d="M992 1000 c0 -19 2 -27 5 -17 2 9 2 25 0 35 -3 9 -5 1 -5 -18z"/>
<path d="M980 939 c0 -11 5 -17 10 -14 6 3 10 13 10 21 0 8 -4 14 -10 14 -5 0
-10 -9 -10 -21z"/>
<path d="M4429 857 c6 -8 8 -16 5 -19 -2 -3 6 -8 20 -10 l25 -5 -22 23 c-23
25 -47 34 -28 11z"/>
<path d="M4370 813 c0 -11 7 -20 15 -20 8 0 15 4 15 7 0 4 -7 13 -15 20 -12
10 -15 9 -15 -7z"/>
<path d="M4410 820 c0 -5 5 -10 11 -10 5 0 7 5 4 10 -3 6 -8 10 -11 10 -2 0
-4 -4 -4 -10z"/>
<path d="M4450 806 c0 -2 7 -7 16 -10 8 -3 12 -2 9 4 -6 10 -25 14 -25 6z"/>
<path d="M4420 770 c0 -5 7 -10 15 -10 8 0 15 5 15 10 0 6 -7 10 -15 10 -8 0
-15 -4 -15 -10z"/>
<path d="M4704 769 c-3 -6 -1 -16 5 -22 8 -8 11 -5 11 11 0 24 -5 28 -16 11z"/>
<path d="M4740 772 c0 -16 28 -34 34 -23 4 6 -3 15 -14 21 -11 6 -20 7 -20 2z"/>
<path d="M6082 760 c0 -14 2 -19 5 -12 2 6 2 18 0 25 -3 6 -5 1 -5 -13z"/>
<path d="M4480 760 c0 -5 -12 -10 -27 -10 -14 0 -24 -3 -20 -6 10 -10 78 6 72
17 -8 12 -25 12 -25 -1z"/>
<path d="M4954 735 c-4 -8 -10 -12 -15 -9 -13 8 -11 -10 4 -25 10 -11 9 -12
-3 -6 -13 8 -13 7 -1 -8 19 -24 30 -21 23 6 -5 20 -4 21 13 7 17 -14 18 -13
13 8 -4 12 -2 20 3 16 5 -3 9 2 9 10 0 20 -39 21 -46 1z"/>
<path d="M5174 738 c-15 -23 -11 -53 8 -66 19 -14 16 -32 -5 -32 -8 0 -8 3 2
9 9 6 10 11 2 15 -13 9 -33 -2 -26 -14 3 -4 -2 -11 -11 -14 -8 -3 -13 -10 -9
-15 3 -6 12 -8 20 -4 17 6 21 -22 5 -32 -6 -4 -7 -12 -3 -18 4 -7 8 -15 8 -19
0 -16 20 -8 25 9 3 10 11 27 17 38 11 17 14 18 23 5 6 -9 10 -10 10 -3 0 6 -4
15 -10 18 -5 3 -10 14 -10 23 0 12 3 13 12 4 19 -19 25 -14 20 21 -5 36 -22
63 -31 49 -3 -5 -17 -13 -30 -17 l-24 -7 22 31 c18 24 19 31 7 31 -8 0 -18 -6
-22 -12z"/>
<path d="M4418 722 c-10 -2 -18 -12 -18 -22 0 -20 22 -32 44 -24 8 3 26 -2 41
-12 14 -9 28 -14 31 -11 3 3 -12 15 -34 26 -22 11 -42 26 -44 34 -2 7 -11 11
-20 9z"/>
<path d="M4708 720 c-3 -8 -1 -27 5 -43 6 -19 5 -32 -3 -42 -15 -18 -5 -34 10
-19 6 6 12 19 15 30 2 10 7 29 11 42 5 16 2 22 -9 22 -8 0 -17 6 -19 13 -3 8
-6 8 -10 -3z"/>
<path d="M4860 720 c0 -5 7 -10 15 -10 9 0 20 -11 25 -25 5 -14 17 -25 25 -25
13 0 10 8 -11 35 -25 33 -54 47 -54 25z"/>
<path d="M6091 694 c0 -11 3 -14 6 -6 3 7 2 16 -1 19 -3 4 -6 -2 -5 -13z"/>
<path d="M5260 671 c0 -5 7 -14 15 -21 13 -10 15 -9 15 9 0 12 -6 21 -15 21
-8 0 -15 -4 -15 -9z"/>
<path d="M4402 637 c-6 -7 -7 -18 -3 -26 7 -10 10 -8 16 8 8 27 2 36 -13 18z"/>
<path d="M4454 643 c4 -4 19 -8 34 -10 23 -2 24 -1 7 7 -24 11 -51 13 -41 3z"/>
<path d="M6101 617 c-1 -28 -4 -36 -13 -31 -9 6 -9 3 1 -9 7 -9 13 -33 13 -54
0 -21 4 -42 8 -48 4 -5 10 -19 13 -30 2 -11 2 3 -1 30 -17 162 -19 179 -21
142z"/>
<path d="M906 579 c-4 -33 -5 -63 -3 -66 3 -2 8 23 12 57 4 34 5 63 2 66 -2 3
-7 -23 -11 -57z"/>
<path d="M4946 617 c3 -10 9 -15 12 -12 3 3 0 11 -7 18 -10 9 -11 8 -5 -6z"/>
<path d="M4430 602 c0 -10 -6 -24 -12 -30 -9 -9 -10 -15 -2 -20 6 -4 14 -14
17 -22 5 -10 6 -8 4 5 -2 11 4 27 13 35 9 8 19 23 23 33 5 13 1 17 -18 17 -17
0 -25 -6 -25 -18z"/>
<path d="M4970 616 c0 -2 7 -7 16 -10 8 -3 12 -2 9 4 -6 10 -25 14 -25 6z"/>
<path d="M4240 589 c0 -5 5 -7 10 -4 6 3 10 8 10 11 0 2 -4 4 -10 4 -5 0 -10
-5 -10 -11z"/>
<path d="M4316 585 c-3 -8 -1 -15 4 -15 6 0 10 7 10 15 0 8 -2 15 -4 15 -2 0
-6 -7 -10 -15z"/>
<path d="M5130 593 c-29 -6 -53 -34 -39 -47 5 -6 9 -18 9 -27 0 -12 6 -16 23
-13 12 2 16 2 9 -2 -6 -3 -10 -10 -6 -15 10 -16 24 -10 24 11 0 11 -4 20 -9
20 -10 0 -2 50 12 68 5 6 8 11 6 11 -2 -1 -15 -4 -29 -6z"/>
<path d="M5276 579 c3 -16 1 -30 -7 -35 -9 -5 -10 -2 -6 9 3 10 2 17 -3 17 -6
0 -10 -9 -10 -20 0 -11 6 -20 13 -20 16 0 56 29 41 30 -6 0 -16 10 -22 23 -11
21 -11 21 -6 -4z"/>
<path d="M5200 564 c0 -8 5 -12 10 -9 6 4 8 11 5 16 -9 14 -15 11 -15 -7z"/>
<path d="M4462 536 c3 -14 2 -25 -1 -24 -20 2 -31 -4 -31 -16 0 -30 53 -24 56
6 3 34 5 38 25 38 32 0 14 15 -21 18 -30 2 -32 0 -28 -22z"/>
<path d="M4970 551 c0 -5 5 -13 10 -16 6 -3 10 -2 10 4 0 5 -4 13 -10 16 -5 3
-10 2 -10 -4z"/>
<path d="M4255 539 c-4 -6 -5 -12 -2 -15 2 -3 7 2 10 11 7 17 1 20 -8 4z"/>
<path d="M4920 535 c0 -8 5 -15 10 -15 6 0 10 7 10 15 0 8 -4 15 -10 15 -5 0
-10 -7 -10 -15z"/>
<path d="M4510 500 c8 -5 20 -10 25 -10 6 0 3 5 -5 10 -8 5 -19 10 -25 10 -5
0 -3 -5 5 -10z"/>
<path d="M4880 494 c0 -14 3 -14 15 -4 8 7 15 14 15 16 0 2 -7 4 -15 4 -8 0
-15 -7 -15 -16z"/>
<path d="M5050 500 c-8 -5 -11 -12 -8 -16 4 -3 14 1 23 10 18 17 9 21 -15 6z"/>
<path d="M4934 475 c0 -19 5 -25 21 -24 11 0 14 3 8 6 -7 2 -13 13 -13 24 0
10 -4 19 -8 19 -4 0 -8 -11 -8 -25z"/>
<path d="M5301 484 c0 -11 3 -14 6 -6 3 7 2 16 -1 19 -3 4 -6 -2 -5 -13z"/>
<path d="M5037 463 c-4 -3 -7 -15 -7 -25 0 -10 -4 -18 -10 -18 -5 0 -10 5 -10
12 0 6 -13 -4 -30 -22 -16 -18 -30 -38 -30 -43 0 -6 -8 -3 -18 6 -20 18 -52 6
-52 -19 0 -21 -22 -42 -54 -50 -27 -6 -27 -24 0 -24 8 0 12 5 9 10 -3 6 -1 10
4 10 6 0 11 -4 11 -8 0 -4 12 -7 28 -6 15 1 32 -3 39 -8 7 -5 14 -5 18 2 12
19 25 -1 20 -31 -6 -36 2 -38 15 -4 5 14 17 25 25 25 9 0 13 5 10 11 -4 6 -13
8 -20 5 -16 -6 -35 13 -35 35 0 12 6 16 20 12 11 -3 20 -12 20 -19 0 -8 5 -14
10 -14 15 0 12 28 -3 37 -24 14 -26 50 -4 70 20 17 20 17 14 0 -4 -10 -2 -28
5 -40 l11 -21 8 22 c14 38 37 15 45 -45 6 -47 4 -57 -10 -65 -16 -9 -16 -11 0
-29 18 -20 29 -53 14 -44 -18 11 -17 -24 1 -41 15 -13 19 -31 19 -79 l0 -62
59 -2 c45 -1 60 2 65 14 3 8 1 15 -3 15 -5 0 -12 -6 -14 -12 -3 -7 -6 -3 -6
10 -1 31 27 28 35 -4 6 -23 8 -24 16 -9 7 11 6 21 -1 28 -6 6 -11 21 -11 34 0
20 3 21 26 13 33 -13 29 10 -5 25 -17 8 -21 16 -19 37 3 15 1 25 -4 22 -4 -3
-8 -1 -8 5 0 5 7 14 16 19 15 8 14 11 -4 23 -17 12 -21 28 -24 89 l-3 75 -58
3 c-52 3 -59 6 -70 30 -11 26 -31 52 -40 52 -2 0 -7 -3 -10 -7z m32 -72 c-15
-5 -22 6 -14 19 6 9 10 9 16 -1 5 -8 4 -15 -2 -18z m-144 -50 c-1 -18 -35 -61
-35 -44 0 14 24 63 31 63 3 0 5 -8 4 -19z"/>
<path d="M5092 445 c6 -14 13 -23 16 -21 7 7 -9 46 -18 46 -5 0 -4 -11 2 -25z"/>
<path d="M5116 462 c-3 -6 -1 -14 5 -17 15 -10 25 3 12 16 -7 7 -13 7 -17 1z"/>
<path d="M4875 440 c3 -5 -2 -10 -11 -10 -14 0 -15 -3 -6 -12 10 -10 15 -10
22 2 13 20 12 30 -1 30 -5 0 -7 -4 -4 -10z"/>
<path d="M6204 404 c3 -26 6 -57 6 -70 0 -18 6 -24 21 -24 11 0 17 5 14 10 -4
6 -11 8 -16 5 -5 -4 -9 -1 -9 4 0 6 7 11 16 11 9 0 14 6 11 13 -2 6 -9 11 -15
10 -5 -1 -12 7 -15 17 -3 13 0 20 10 20 10 0 13 6 9 16 -3 9 -6 20 -6 25 0 5
-7 9 -16 9 -14 0 -16 -8 -10 -46z"/>
<path d="M4896 421 c-4 -5 3 -7 14 -4 23 6 26 13 6 13 -8 0 -17 -4 -20 -9z"/>
<path d="M4780 406 c0 -2 7 -6 15 -10 8 -3 15 -1 15 4 0 6 -7 10 -15 10 -8 0
-15 -2 -15 -4z"/>
<path d="M4842 390 c0 -14 2 -19 5 -12 2 6 2 18 0 25 -3 6 -5 1 -5 -13z"/>
<path d="M5634 333 c9 -62 36 -292 35 -300 -4 -25 4 -33 35 -33 33 0 34 1 41
50 4 27 4 63 0 80 -4 18 -3 30 4 30 5 0 13 -32 17 -70 4 -39 9 -69 11 -66 3 3
-3 79 -13 170 -20 183 -16 176 -97 176 l-39 0 6 -37z m103 -265 c-3 -7 -5 -2
-5 12 0 14 2 19 5 13 2 -7 2 -19 0 -25z"/>
<path d="M4817 339 c4 -13 9 -17 15 -11 11 11 3 32 -12 32 -4 0 -6 -9 -3 -21z"/>
<path d="M4760 328 c0 -4 7 -8 15 -8 8 0 15 4 15 8 0 5 -7 9 -15 9 -8 0 -15
-4 -15 -9z"/>
<path d="M2098 311 c-70 -4 -129 -8 -131 -11 -3 -3 -8 -52 -11 -110 -4 -58 -9
-124 -12 -147 l-5 -43 174 0 174 0 6 68 c4 37 7 109 7 160 l0 92 -37 -2 c-21
-1 -95 -4 -165 -7z"/>
<path d="M4750 279 c0 -5 5 -7 10 -4 6 3 10 8 10 11 0 2 -4 4 -10 4 -5 0 -10
-5 -10 -11z"/>
<path d="M3975 230 c-13 -24 -13 -29 -1 -24 8 3 16 16 19 30 6 32 1 30 -18 -6z"/>
<path d="M4912 216 c1 -13 6 -22 10 -20 11 7 10 32 -2 39 -6 3 -9 -4 -8 -19z"/>
<path d="M5032 177 c-20 -24 -32 -66 -20 -73 5 -4 14 -1 18 6 6 9 12 9 31 0
l24 -13 -23 26 c-17 17 -22 32 -17 46 7 24 2 27 -13 8z"/>
<path d="M3975 69 c-4 -6 -3 -15 3 -21 6 -6 11 -4 15 6 7 18 -9 31 -18 15z"/>
<path d="M5040 76 c0 -2 7 -7 16 -10 8 -3 12 -2 9 4 -6 10 -25 14 -25 6z"/>
</g>
</svg>
