<?xml version="1.0" standalone="no"?>
<!DOCTYPE svg PUBLIC "-//W3C//DTD SVG 20010904//EN"
 "http://www.w3.org/TR/2001/REC-SVG-20010904/DTD/svg10.dtd">
<svg version="1.0" xmlns="http://www.w3.org/2000/svg"
 width="706.000000pt" height="480.000000pt" viewBox="0 0 706.000000 480.000000"
 preserveAspectRatio="xMidYMid meet">

<g transform="translate(0.000000,480.000000) scale(0.100000,-0.100000)"
fill="#000000" stroke="none">
<path d="M0 2400 l0 -2400 133 0 133 0 95 87 c51 48 177 167 279 263 l186 176
59 -3 c33 -2 80 -8 105 -13 25 -5 179 -9 344 -9 164 -1 362 -6 440 -12 77 -7
227 -13 331 -14 446 -4 1291 -35 1358 -50 12 -2 114 -9 227 -15 113 -6 232
-12 265 -15 224 -16 223 -16 229 1 10 27 7 29 -43 26 -27 -2 -74 3 -103 12
-102 29 -412 53 -870 66 -398 12 -664 14 -676 6 -6 -3 -13 -2 -17 4 -4 7 -107
11 -293 11 -158 0 -339 4 -402 8 -63 4 -277 9 -475 10 -198 2 -382 6 -409 10
l-50 6 134 127 c74 70 132 129 130 131 -3 2 -133 45 -290 96 -157 51 -339 110
-405 132 -66 21 -135 42 -153 46 l-33 8 328 305 c529 493 623 582 617 591 -3
5 -12 9 -20 9 -9 0 -111 22 -227 49 -117 27 -311 70 -432 95 -121 25 -277 58
-348 72 l-127 27 0 905 0 905 272 -7 c150 -4 275 -10 278 -12 2 -3 -9 -16 -25
-30 l-30 -26 29 17 c28 17 30 17 43 -1 12 -16 11 -19 -4 -25 -29 -10 48 -20
82 -10 22 6 29 13 27 27 -7 45 -4 76 7 83 10 6 9 9 -2 14 -18 7 -29 58 -15 74
6 7 23 10 41 7 25 -4 28 -3 17 5 -8 6 -23 11 -32 11 -17 0 -76 47 -137 110
-56 57 -74 120 -49 175 8 18 8 29 1 36 -7 7 -9 18 -6 25 4 12 8 12 21 2 11
-10 16 -10 19 -1 2 7 15 9 31 7 l27 -5 -22 22 c-23 24 -103 36 -114 17 -9 -15
-29 0 -29 21 0 21 50 34 72 19 7 -4 27 -8 45 -8 23 0 37 -7 52 -29 16 -22 18
-31 9 -34 -7 -3 5 -5 27 -6 29 0 35 3 20 8 -17 7 -16 9 10 13 17 4 32 2 35 -3
3 -5 24 -15 45 -22 39 -13 52 -34 31 -49 -6 -4 -4 -14 6 -25 8 -10 27 -49 42
-88 35 -92 66 -166 77 -185 25 -43 47 -87 53 -107 7 -21 4 -22 -71 -26 -43 -2
68 -2 247 -1 327 3 586 10 758 19 52 3 91 2 89 -2 -3 -5 26 -7 64 -5 67 4 69
3 69 -20 0 -13 -7 -32 -15 -42 -18 -24 -20 -40 -3 -30 11 7 35 7 103 0 11 -1
33 2 48 7 27 9 28 12 22 49 -4 22 -8 52 -10 67 -12 110 -19 151 -27 151 -5 0
-7 4 -4 9 3 5 2 33 -4 62 -16 96 -40 254 -40 272 0 15 8 18 45 16 63 -4 68 9
6 17 -58 8 -59 8 -65 56 l-4 35 36 -9 c21 -5 70 -17 110 -26 55 -12 72 -20 72
-33 0 -10 3 -25 7 -35 6 -15 1 -16 -48 -11 -35 4 -47 3 -34 -3 11 -5 30 -9 42
-9 12 -1 24 -5 27 -9 3 -5 15 -80 27 -168 13 -100 27 -165 36 -176 10 -11 16
-41 17 -86 l1 -69 190 3 c105 2 206 5 225 8 19 3 105 8 192 12 130 6 158 5
162 -7 3 -8 7 -80 9 -161 4 -120 2 -150 -10 -160 -8 -6 -13 -24 -11 -42 3 -28
0 -32 -32 -37 l-35 -6 38 -2 37 -1 2 -67 c2 -85 2 -84 -7 -108 -6 -16 -5 -17
4 -5 10 12 11 8 9 -20 -3 -33 -6 -35 -43 -41 l-40 -6 46 -1 c38 -2 50 -7 63
-27 10 -15 22 -23 28 -18 15 8 26 10 158 19 85 6 100 9 77 17 l-28 9 6 72 c4
39 11 85 17 103 12 42 7 171 -8 177 -13 5 -20 475 -7 477 4 1 18 3 31 4 35 4
37 12 3 20 -29 6 -31 9 -31 56 0 48 1 49 30 49 16 0 45 -8 64 -17 31 -16 36
-23 36 -56 0 -30 -5 -40 -22 -47 -13 -5 -18 -9 -11 -9 8 -1 13 -25 15 -68 l3
-68 43 -3 c24 -2 43 1 43 7 1 6 2 17 3 24 1 6 9 11 19 9 9 -2 17 2 17 9 0 16
31 38 52 39 13 0 18 -10 20 -42 l3 -43 58 -3 c44 -2 57 0 51 9 -5 9 -2 10 10
6 9 -4 14 -3 11 2 -3 5 0 13 6 17 6 3 15 1 19 -6 4 -7 10 6 13 32 3 23 9 53
12 65 5 16 2 22 -12 26 -16 4 -16 5 0 6 9 0 17 6 17 11 0 6 7 10 15 10 17 0
21 -55 5 -65 -5 -3 -10 -30 -10 -59 l0 -52 283 2 c155 2 296 5 312 8 64 12
195 21 292 20 56 0 99 4 97 8 -3 4 0 8 5 8 6 0 11 -4 11 -10 0 -5 12 -10 28
-9 l27 1 -25 7 c-14 4 63 8 170 8 111 1 237 8 293 16 54 8 97 10 97 5 0 -5 3
-7 8 -5 17 11 259 25 587 33 121 4 228 11 238 16 10 5 20 8 21 6 2 -2 22 -46
46 -98 61 -136 198 -426 302 -639 49 -101 87 -185 85 -187 -2 -2 -37 64 -77
146 -41 83 -78 150 -82 150 -12 0 -13 3 53 -136 86 -181 119 -254 119 -260 0
-5 78 -163 124 -249 14 -27 16 48 16 903 l0 932 -554 0 c-434 0 -555 -3 -559
-12 -4 -10 -6 -10 -6 0 -1 9 -66 12 -291 12 -225 0 -290 -3 -290 -12 0 -10 -2
-10 -9 0 -6 10 -31 13 -94 10 -48 -2 -87 -6 -87 -10 0 -5 10 -8 23 -9 l22 0
-22 -11 c-17 -8 -25 -7 -37 5 -8 8 -12 18 -8 22 4 4 -3 2 -15 -4 -15 -8 -23
-8 -23 -1 0 7 -232 10 -725 10 -399 0 -725 -3 -725 -7 0 -5 5 -15 10 -23 7
-11 10 -12 10 -2 0 8 6 12 13 10 21 -8 13 -33 -10 -34 -13 -1 -23 2 -23 6 0 4
-7 10 -14 13 -10 4 -13 1 -9 -9 3 -8 -1 -14 -10 -14 -10 0 -13 7 -10 20 3 12
2 20 -3 19 -21 -3 -35 2 -29 11 4 6 -278 10 -805 10 -532 0 -810 -3 -810 -10
0 -6 -8 -10 -18 -10 -21 0 -44 -34 -36 -54 8 -20 -9 -27 -44 -16 -22 6 -34 5
-39 -3 -5 -7 -17 -19 -27 -27 -18 -14 -19 -13 -13 3 3 9 2 17 -3 17 -5 0 -12
11 -16 24 -3 13 -15 27 -27 31 -22 6 -22 6 -2 16 16 8 14 8 -12 5 -21 -4 -33
-1 -37 9 -4 12 -36 15 -176 15 -158 0 -191 -6 -158 -26 7 -5 4 -10 -11 -16
-16 -5 -27 -3 -37 7 -22 22 -34 18 -34 -10 0 -18 -5 -25 -19 -25 -11 0 -21 -5
-23 -11 -3 -8 -23 -3 -58 14 -39 19 -56 23 -62 14 -5 -8 -14 -4 -32 12 -21 20
-28 22 -40 11 -20 -16 -112 -4 -120 16 -7 18 -166 21 -166 2 0 -6 -3 -8 -7 -5
-3 4 -12 2 -19 -3 -8 -8 -16 -6 -27 5 -11 10 -34 15 -74 14 -37 0 -51 -3 -39
-8 18 -7 19 -8 2 -14 -10 -4 -24 -3 -31 3 -7 6 -29 9 -49 8 -35 -3 -36 -4 -34
-38 3 -35 3 -35 -34 -33 -43 3 -51 -16 -20 -50 17 -19 16 -19 -27 -12 -35 6
-42 5 -35 -6 6 -11 5 -12 -7 -3 -14 11 -63 27 -86 29 -6 0 -20 9 -31 19 -13
11 -26 15 -34 10 -21 -13 -49 -13 -112 2 -33 7 -63 11 -68 8 -4 -3 -8 15 -8
40 0 25 -4 46 -10 46 -7 0 -10 -807 -10 -2400z m5290 2370 c0 -11 5 -20 11
-20 5 0 7 -4 4 -10 -9 -14 -57 -12 -78 4 -16 13 -16 14 8 20 14 4 25 11 25 16
0 6 7 10 15 10 8 0 15 -9 15 -20z m382 2 c15 -6 15 -9 2 -26 -8 -11 -14 -14
-14 -7 0 7 -4 9 -10 6 -5 -3 -10 3 -10 14 0 22 5 24 32 13z m-292 -32 c-18
-12 -30 -13 -30 -2 0 4 10 9 22 9 18 2 20 0 8 -7z m487 -22 c-3 -8 -6 -5 -6 6
-1 11 2 17 5 13 3 -3 4 -12 1 -19z m-5257 -2 c0 -3 -4 -8 -10 -11 -5 -3 -10
-1 -10 4 0 6 5 11 10 11 6 0 10 -2 10 -4z m3194 -5 c3 -5 -1 -11 -9 -14 -9 -4
-12 -1 -8 9 6 16 10 17 17 5z m1846 5 c0 -3 -4 -8 -10 -11 -5 -3 -10 -1 -10 4
0 6 5 11 10 11 6 0 10 -2 10 -4z m140 -16 c0 -5 -5 -10 -11 -10 -5 0 -7 5 -4
10 3 6 8 10 11 10 2 0 4 -4 4 -10z m-4077 -7 c3 -5 1 -17 -4 -28 -4 -11 -8
-15 -9 -10 -1 6 -3 18 -5 28 -3 17 10 24 18 10z m47 -14 c0 -6 -4 -7 -10 -4
-5 3 -10 11 -10 16 0 6 5 7 10 4 6 -3 10 -11 10 -16z m3850 7 c0 -2 -7 -6 -15
-10 -8 -3 -15 -1 -15 4 0 6 7 10 15 10 8 0 15 -2 15 -4z m-3673 -22 c-3 -3
-12 -4 -19 -1 -8 3 -5 6 6 6 11 1 17 -2 13 -5z m1633 -24 c0 -5 -2 -10 -4 -10
-3 0 -8 5 -11 10 -3 6 -1 10 4 10 6 0 11 -4 11 -10z m-1721 -61 c-16 -10 -23
-4 -14 10 3 6 11 8 17 5 6 -4 5 -9 -3 -15z m746 -9 c-3 -5 -12 -7 -20 -3 -21
7 -19 13 6 13 11 0 18 -4 14 -10z m1010 -14 c0 -13 -5 -22 -10 -19 -6 2 -11
12 -11 23 0 11 5 20 11 20 5 0 10 -11 10 -24z m2032 -22 c-3 -3 -12 -4 -19 -1
-8 3 -5 6 6 6 11 1 17 -2 13 -5z m-867 -149 c0 -8 -10 -19 -21 -26 -12 -6 -19
-7 -17 -2 3 4 8 16 11 26 8 21 27 23 27 2z m-800 -96 c0 -14 -16 -11 -29 5
-10 12 -8 13 8 9 12 -3 21 -9 21 -14z m-155 -36 c19 -9 35 -21 35 -26 0 -8
-129 0 -139 9 -3 3 53 31 66 34 1 0 18 -8 38 -17z m-3260 -173 c3 -5 1 -10 -4
-10 -6 0 -11 5 -11 10 0 6 2 10 4 10 3 0 8 -4 11 -10z m6385 -835 c0 -5 -5 -3
-10 5 -5 8 -10 20 -10 25 0 6 5 3 10 -5 5 -8 10 -19 10 -25z m38 -80 c-3 -3
-9 2 -12 12 -6 14 -5 15 5 6 7 -7 10 -15 7 -18z m42 -75 c6 -11 8 -20 6 -20
-3 0 -10 9 -16 20 -6 11 -8 20 -6 20 3 0 10 -9 16 -20z"/>
<path d="M735 4240 c3 -5 8 -10 11 -10 2 0 4 5 4 10 0 6 -5 10 -11 10 -5 0 -7
-4 -4 -10z"/>
<path d="M680 4206 c0 -2 7 -7 16 -10 8 -3 12 -2 9 4 -6 10 -25 14 -25 6z"/>
<path d="M2280 4130 c0 -5 5 -10 11 -10 5 0 7 5 4 10 -3 6 -8 10 -11 10 -2 0
-4 -4 -4 -10z"/>
<path d="M3732 4081 c-1 -25 -5 -62 -8 -82 -4 -31 -2 -37 16 -42 28 -7 34 10
26 76 -3 28 -6 59 -6 68 0 9 -6 19 -12 22 -9 3 -14 -10 -16 -42z"/>
<path d="M484 3964 c-18 -14 -18 -15 4 -4 12 6 22 13 22 15 0 8 -5 6 -26 -11z"/>
<path d="M913 3903 c-23 -9 -14 -33 11 -33 41 0 58 10 45 26 -11 14 -33 17
-56 7z"/>
<path d="M3645 3710 c-13 -22 10 -30 83 -29 l77 0 -70 19 c-83 23 -82 23 -90
10z"/>
<path d="M6700 3701 c0 -6 4 -13 10 -16 6 -3 7 1 4 9 -7 18 -14 21 -14 7z"/>
<path d="M6722 3645 c6 -14 15 -25 19 -25 5 0 3 11 -3 25 -6 14 -15 25 -19 25
-5 0 -3 -11 3 -25z"/>
<path d="M4791 3544 c0 -11 3 -14 6 -6 3 7 2 16 -1 19 -3 4 -6 -2 -5 -13z"/>
<path d="M5208 3543 c7 -3 16 -2 19 1 4 3 -2 6 -13 5 -11 0 -14 -3 -6 -6z"/>
<path d="M3018 3423 c7 -3 16 -2 19 1 4 3 -2 6 -13 5 -11 0 -14 -3 -6 -6z"/>
<path d="M5726 3382 c-2 -4 -1 -14 5 -22 7 -12 9 -10 9 8 0 23 -5 28 -14 14z"/>
<path d="M4523 3305 c-29 -13 -53 -26 -53 -29 0 -6 97 38 107 48 11 10 0 7
-54 -19z"/>
<path d="M2973 3293 c9 -2 23 -2 30 0 6 3 -1 5 -18 5 -16 0 -22 -2 -12 -5z"/>
<path d="M4650 3260 c19 -17 46 -38 60 -48 14 -9 131 -96 260 -192 129 -97
249 -184 265 -195 31 -19 169 -124 195 -148 8 -8 47 -36 85 -62 71 -49 254
-179 348 -248 29 -20 75 -53 102 -72 79 -54 97 -67 150 -108 28 -21 75 -57
105 -79 30 -22 60 -46 65 -52 6 -6 57 -42 115 -81 58 -38 143 -101 190 -139
47 -38 122 -93 168 -123 45 -30 97 -67 115 -82 17 -16 48 -36 67 -46 30 -16
57 -34 108 -76 9 -7 12 -5 12 10 0 20 -44 54 -255 200 -44 30 -123 87 -176
125 -53 39 -131 96 -173 126 -42 30 -111 81 -154 112 -42 32 -82 58 -89 58 -6
0 -13 4 -15 8 -3 8 -159 126 -228 174 -14 10 -48 34 -76 55 -51 37 -259 184
-360 253 -63 43 -258 187 -585 430 -136 102 -268 196 -291 209 l-43 23 35 -32z"/>
<path d="M5232 3265 c0 -16 2 -22 5 -12 2 9 2 23 0 30 -3 6 -5 -1 -5 -18z"/>
<path d="M4435 3260 c-3 -5 -2 -10 4 -10 5 0 13 5 16 10 3 6 2 10 -4 10 -5 0
-13 -4 -16 -10z"/>
<path d="M2768 3253 c7 -3 16 -2 19 1 4 3 -2 6 -13 5 -11 0 -14 -3 -6 -6z"/>
<path d="M4275 3170 c-3 -6 1 -7 9 -4 18 7 21 14 7 14 -6 0 -13 -4 -16 -10z"/>
<path d="M5242 3125 c0 -16 2 -22 5 -12 2 9 2 23 0 30 -3 6 -5 -1 -5 -18z"/>
<path d="M5771 3134 c0 -11 3 -14 6 -6 3 7 2 16 -1 19 -3 4 -6 -2 -5 -13z"/>
<path d="M6345 3088 c1 -13 14 -54 29 -92 14 -37 26 -76 26 -85 0 -9 12 -38
25 -66 29 -57 28 -53 -26 107 -21 65 -39 124 -39 132 0 8 -4 17 -9 20 -5 4 -8
-4 -6 -16z"/>
<path d="M4125 3090 c-3 -5 -2 -10 4 -10 5 0 13 5 16 10 3 6 2 10 -4 10 -5 0
-13 -4 -16 -10z"/>
<path d="M4068 3059 c-21 -11 -38 -22 -38 -24 0 -3 18 4 40 15 22 11 40 23 40
25 0 7 0 7 -42 -16z"/>
<path d="M3993 3018 c-13 -6 -23 -15 -23 -20 0 -5 11 -1 25 8 37 24 35 30 -2
12z"/>
<path d="M3888 2993 c7 -3 16 -2 19 1 4 3 -2 6 -13 5 -11 0 -14 -3 -6 -6z"/>
<path d="M3936 2984 c-11 -8 -16 -14 -10 -14 13 0 39 18 34 24 -3 2 -14 -2
-24 -10z"/>
<path d="M5806 2915 c2 -33 9 -73 14 -90 8 -24 9 -18 5 30 -3 33 -9 74 -14 90
-7 23 -8 16 -5 -30z"/>
<path d="M3876 2951 c-4 -5 3 -7 14 -4 23 6 26 13 6 13 -8 0 -17 -4 -20 -9z"/>
<path d="M4346 2900 c-81 -26 -153 -54 -160 -60 -8 -9 -6 -11 10 -6 12 4 51
15 85 26 100 29 256 89 234 89 -11 -1 -87 -22 -169 -49z"/>
<path d="M3829 2923 c-13 -17 -13 -17 6 -3 11 8 22 16 24 17 2 2 0 3 -6 3 -6
0 -17 -8 -24 -17z"/>
<path d="M1738 2923 c7 -3 16 -2 19 1 4 3 -2 6 -13 5 -11 0 -14 -3 -6 -6z"/>
<path d="M4580 2927 c0 -4 98 -65 165 -103 11 -6 49 -28 84 -48 35 -20 66 -35
68 -32 3 2 -15 15 -39 29 -158 89 -207 117 -240 137 -21 12 -38 20 -38 17z"/>
<path d="M4700 2926 c0 -2 8 -10 18 -17 15 -13 16 -12 3 4 -13 16 -21 21 -21
13z"/>
<path d="M3758 2884 c-38 -20 -36 -28 2 -9 17 9 30 18 30 20 0 7 -1 6 -32 -11z"/>
<path d="M3693 2850 c-13 -5 -23 -11 -23 -14 0 -7 40 6 46 15 6 10 6 10 -23
-1z"/>
<path d="M2558 2843 c7 -3 16 -2 19 1 4 3 -2 6 -13 5 -11 0 -14 -3 -6 -6z"/>
<path d="M3605 2800 c-16 -11 -25 -20 -20 -20 6 0 24 9 40 20 17 11 26 20 20
20 -5 0 -23 -9 -40 -20z"/>
<path d="M3538 2764 c-37 -19 -36 -25 2 -11 17 6 30 15 30 19 0 10 0 10 -32
-8z"/>
<path d="M4400 2744 c-63 -19 -135 -41 -160 -48 -25 -8 -90 -27 -145 -44 -55
-17 -185 -56 -290 -86 -205 -59 -250 -74 -223 -75 21 -1 338 85 498 135 356
111 482 154 445 153 -5 0 -62 -16 -125 -35z"/>
<path d="M6451 2777 c-2 -22 35 -138 50 -159 14 -17 11 -3 -10 57 -36 103 -39
112 -40 102z"/>
<path d="M4540 2756 c0 -2 7 -7 16 -10 8 -3 12 -2 9 4 -6 10 -25 14 -25 6z"/>
<path d="M3480 2730 c-9 -6 -10 -10 -3 -10 6 0 15 5 18 10 8 12 4 12 -15 0z"/>
<path d="M4585 2732 c6 -6 46 -31 90 -56 44 -26 68 -36 53 -24 -29 25 -159 98
-143 80z"/>
<path d="M4930 2726 c0 -2 8 -10 18 -17 15 -13 16 -12 3 4 -13 16 -21 21 -21
13z"/>
<path d="M3384 2674 c-18 -14 -18 -15 4 -4 12 6 22 13 22 15 0 8 -5 6 -26 -11z"/>
<path d="M3305 2630 c-3 -6 1 -7 9 -4 18 7 21 14 7 14 -6 0 -13 -4 -16 -10z"/>
<path d="M4781 2612 c28 -21 311 -183 414 -236 39 -20 59 -28 46 -19 -13 10
-56 35 -95 56 -72 39 -198 110 -226 127 -55 34 -153 90 -157 90 -3 0 5 -8 18
-18z"/>
<path d="M4380 2496 c-52 -13 -117 -30 -145 -38 -27 -9 -61 -19 -75 -21 -14
-3 -77 -20 -140 -37 -63 -18 -131 -36 -150 -40 -19 -4 -150 -37 -290 -73 -140
-36 -318 -82 -395 -102 -169 -43 -295 -81 -315 -96 -12 -8 -9 -9 10 -3 48 14
596 155 680 175 99 24 385 97 655 168 105 27 210 59 235 70 56 25 48 24 -70
-3z"/>
<path d="M6218 2513 c7 -3 16 -2 19 1 4 3 -2 6 -13 5 -11 0 -14 -3 -6 -6z"/>
<path d="M6539 2495 c-3 -6 3 -26 13 -45 20 -40 24 -21 4 25 -6 16 -14 25 -17
20z"/>
<path d="M4550 2476 c0 -5 90 -56 99 -56 3 0 -14 14 -39 30 -42 28 -60 36 -60
26z"/>
<path d="M2965 2440 c-3 -6 1 -7 9 -4 18 7 21 14 7 14 -6 0 -13 -4 -16 -10z"/>
<path d="M2930 2420 c-9 -6 -10 -10 -3 -10 6 0 15 5 18 10 8 12 4 12 -15 0z"/>
<path d="M2884 2394 c-18 -14 -18 -15 4 -4 12 6 22 13 22 15 0 8 -5 6 -26 -11z"/>
<path d="M4684 2396 c11 -9 24 -16 30 -16 12 0 7 5 -24 19 -24 11 -24 11 -6
-3z"/>
<path d="M6577 2368 c6 -24 33 -68 33 -55 0 12 -28 77 -34 77 -2 0 -2 -10 1
-22z"/>
<path d="M2808 2354 c-38 -20 -36 -28 2 -9 17 9 30 18 30 20 0 7 -1 6 -32 -11z"/>
<path d="M5270 2341 c0 -4 24 -20 53 -34 28 -15 102 -54 162 -87 61 -33 98
-50 83 -37 -15 12 -58 38 -95 57 -37 19 -98 52 -135 72 -37 20 -68 33 -68 29z"/>
<path d="M4880 2286 c0 -3 9 -10 20 -16 11 -6 20 -8 20 -6 0 3 -9 10 -20 16
-11 6 -20 8 -20 6z"/>
<path d="M4986 2219 c8 -14 65 -41 72 -34 3 3 -4 8 -16 12 -12 3 -22 9 -22 13
0 4 -9 10 -20 13 -11 3 -17 1 -14 -4z"/>
<path d="M2498 2184 c-38 -20 -36 -28 2 -9 17 9 30 18 30 20 0 7 -1 6 -32 -11z"/>
<path d="M5070 2176 c0 -3 9 -10 20 -16 11 -6 20 -8 20 -6 0 3 -9 10 -20 16
-11 6 -20 8 -20 6z"/>
<path d="M2420 2145 c-14 -8 -20 -14 -14 -15 5 0 19 7 30 15 24 18 16 19 -16
0z"/>
<path d="M5120 2145 c0 -2 18 -14 40 -25 22 -11 40 -18 40 -15 0 2 -18 14 -40
25 -22 11 -40 18 -40 15z"/>
<path d="M2318 2094 c-38 -19 -68 -37 -68 -39 0 -3 32 11 70 30 39 19 70 37
70 40 0 7 3 8 -72 -31z"/>
<path d="M4334 2120 c-39 -4 -102 -15 -140 -23 -74 -17 -308 -64 -629 -127
-110 -22 -238 -48 -285 -59 -81 -19 -296 -66 -515 -112 -55 -11 -177 -38 -271
-60 -94 -21 -179 -39 -190 -40 -10 0 -57 -13 -104 -29 -118 -40 -27 -27 230
32 92 21 204 45 485 103 99 20 248 52 330 70 83 18 213 45 290 60 77 15 183
36 235 46 52 11 163 33 245 49 168 32 416 88 424 95 5 6 -8 5 -105 -5z"/>
<path d="M5230 2085 c0 -5 110 -70 205 -120 39 -21 84 -45 100 -55 38 -23 261
-143 402 -216 60 -31 158 -84 218 -117 149 -81 415 -218 415 -214 0 8 -152 98
-265 157 -66 35 -147 77 -180 95 -33 18 -127 67 -210 111 -82 43 -162 85 -177
94 -15 8 -60 32 -100 54 -40 21 -79 43 -86 49 -7 6 -50 29 -95 52 -45 23 -98
50 -117 60 -52 29 -110 55 -110 50z"/>
<path d="M4620 2021 c24 -20 40 -26 40 -16 0 2 -15 12 -32 20 l-33 16 25 -20z"/>
<path d="M5060 1776 c0 -3 9 -10 20 -16 11 -6 20 -8 20 -6 0 3 -9 10 -20 16
-11 6 -20 8 -20 6z"/>
<path d="M5113 1744 c11 -11 445 -257 1017 -576 25 -14 92 -51 150 -83 58 -32
148 -81 200 -110 52 -29 145 -79 205 -110 61 -32 155 -84 210 -115 153 -88
165 -93 165 -76 0 18 -98 76 -320 188 -47 24 -86 46 -88 51 -2 4 -7 7 -12 7
-4 0 -39 17 -77 39 -37 21 -108 60 -158 86 -102 55 -154 83 -205 112 -19 11
-107 59 -195 108 -88 48 -227 126 -308 172 -82 47 -172 96 -202 109 -29 14
-59 31 -65 39 -7 8 -18 15 -25 15 -17 0 -75 30 -75 39 0 4 -15 13 -34 19 -19
7 -67 31 -107 52 -68 38 -90 48 -76 34z"/>
<path d="M4010 1503 c-359 -30 -1230 -140 -2170 -273 -80 -12 -189 -24 -242
-28 -81 -6 -96 -9 -88 -21 7 -13 27 -13 137 -2 70 6 157 16 193 21 139 20 358
50 415 55 33 4 121 15 195 25 74 11 198 26 275 35 77 8 187 22 245 30 58 9
148 20 200 25 242 24 385 40 442 50 35 5 133 17 218 25 147 15 522 64 528 70
7 6 -218 -1 -348 -12z"/>
<path d="M6612 1344 c11 -17 128 -106 122 -92 -3 7 -23 27 -46 43 -23 17 -50
37 -62 45 -11 8 -17 10 -14 4z"/>
<path d="M6755 1230 c3 -5 11 -10 16 -10 6 0 7 5 4 10 -3 6 -11 10 -16 10 -6
0 -7 -4 -4 -10z"/>
<path d="M4890 1203 c0 -5 31 -27 68 -51 91 -58 93 -59 127 -75 17 -8 73 -39
125 -69 52 -30 189 -108 303 -174 115 -65 225 -129 245 -141 20 -12 129 -73
242 -135 113 -61 228 -126 255 -143 70 -44 363 -212 465 -267 47 -25 126 -68
175 -97 50 -28 101 -51 114 -51 33 0 22 9 -74 60 -44 24 -84 46 -90 50 -5 5
-37 22 -70 40 -33 17 -78 41 -100 54 -22 12 -69 39 -105 58 -36 20 -121 68
-190 108 -69 40 -200 114 -292 166 -92 51 -178 100 -190 107 -13 8 -48 28 -78
44 -88 48 -152 84 -192 110 -21 12 -41 23 -45 23 -3 0 -14 6 -22 14 -23 20
-191 116 -204 116 -6 0 -18 6 -26 14 -9 7 -43 28 -76 45 -32 18 -67 39 -77 48
-10 9 -18 13 -18 9 0 -4 -13 2 -29 13 -16 12 -39 21 -51 21 -14 0 -24 8 -27
20 -3 11 -17 23 -32 26 -14 4 -34 14 -43 22 -10 8 -18 12 -18 8 0 -4 -13 2
-29 13 -31 22 -41 26 -41 14z"/>
<path d="M1380 1100 c0 -5 5 -10 11 -10 5 0 7 5 4 10 -3 6 -8 10 -11 10 -2 0
-4 -4 -4 -10z"/>
</g>
</svg>
